<svg xmlns="http://www.w3.org/2000/svg" xmlns:xlink="http://www.w3.org/1999/xlink" width="200" zoomAndPan="magnify" viewBox="0 0 150 74.999997" height="100" preserveAspectRatio="xMidYMid meet" version="1.0"><defs><g/><clipPath id="462d9a2ac9"><path d="M 22 14.472656 L 43 14.472656 L 43 27 L 22 27 Z M 22 14.472656 " clip-rule="nonzero"/></clipPath><clipPath id="7ea0214351"><path d="M 12.304688 37.71875 L 51.839844 37.71875 L 51.839844 60.222656 L 12.304688 60.222656 Z M 12.304688 37.71875 " clip-rule="nonzero"/></clipPath><clipPath id="af9ac17094"><path d="M 3.652344 58.441406 L 60.589844 58.441406 L 60.589844 60.222656 L 3.652344 60.222656 Z M 3.652344 58.441406 " clip-rule="nonzero"/></clipPath><clipPath id="8da8dec549"><path d="M 17.089844 55.066406 L 47.207031 55.066406 L 47.207031 60.222656 L 17.089844 60.222656 Z M 17.089844 55.066406 " clip-rule="nonzero"/></clipPath></defs><path fill="#b3614b" d="M 23.476562 25.273438 C 23.175781 24.878906 23.109375 24.234375 23.058594 23.757812 C 22.890625 22.238281 22.90625 21.03125 23.050781 20.691406 C 23.136719 20.484375 23.578125 19.472656 24.621094 18.472656 C 26.304688 16.855469 29.078125 16.007812 30.492188 15.71875 C 31.632812 15.480469 32.839844 15.363281 34.023438 15.445312 C 34.679688 15.488281 35.371094 15.574219 36.007812 15.734375 C 36.535156 15.867188 37.054688 16.117188 37.371094 16.554688 C 37.710938 17.027344 37.792969 17.625 38.203125 18.054688 C 38.644531 18.527344 39.253906 18.8125 39.707031 19.269531 C 40.316406 19.886719 40.921875 20.859375 41.007812 21.730469 C 41.089844 22.511719 40.742188 23.253906 40.34375 23.90625 C 40.273438 24.023438 39.441406 25.304688 39.328125 25.3125 C 39.324219 25.308594 39.320312 25.308594 39.320312 25.308594 C 39.15625 25.136719 38.769531 23.992188 37.410156 22.28125 C 37.027344 21.796875 36.847656 21.597656 36.703125 21.453125 C 36.601562 21.359375 36.300781 21.074219 35.855469 20.765625 C 35.710938 20.664062 35.402344 20.441406 35.316406 20.578125 C 35.148438 20.855469 34.859375 21.246094 34.382812 21.539062 C 33.652344 21.992188 32.910156 21.960938 32.25 21.945312 C 32.25 21.945312 30.0625 21.894531 27.6875 22.058594 C 26.824219 22.117188 25.90625 22.164062 25.128906 22.574219 C 24.125 23.105469 23.773438 24.214844 23.585938 25.253906 C 23.582031 25.277344 23.566406 25.296875 23.546875 25.304688 C 23.542969 25.304688 23.542969 25.304688 23.542969 25.304688 C 23.511719 25.316406 23.492188 25.292969 23.476562 25.273438 " fill-opacity="1" fill-rule="evenodd"/><path fill="#ebb39e" d="M 36.695312 40.523438 L 34.6875 42.304688 L 29.347656 42.304688 L 27.523438 40.601562 L 27.527344 40.597656 C 27.875 39.90625 28.253906 38.09375 28.269531 37.464844 C 28.285156 36.859375 28.179688 36.453125 28.066406 36.027344 C 29.292969 36.914062 30.453125 37.183594 30.714844 37.238281 C 32.191406 37.5625 33.363281 37.3125 33.667969 37.238281 C 34.792969 36.976562 35.558594 36.472656 35.929688 36.21875 C 35.839844 36.566406 35.765625 36.957031 35.777344 37.464844 C 35.808594 38.667969 36.261719 39.753906 36.695312 40.523438 " fill-opacity="1" fill-rule="evenodd"/><path fill="#f4baa6" d="M 28.066406 36.027344 C 27.953125 35.945312 27.835938 35.855469 27.722656 35.761719 C 27.378906 35.480469 26.09375 34.386719 25.402344 32.476562 C 25.179688 31.855469 25.042969 31.117188 24.992188 30.738281 C 22.988281 30.160156 21.679688 27.207031 23.871094 25.308594 L 23.871094 25.304688 C 23.894531 25.296875 23.910156 25.277344 23.914062 25.253906 C 24.101562 24.214844 24.449219 23.105469 25.453125 22.578125 C 26.230469 22.164062 27.152344 22.117188 28.015625 22.058594 C 30.386719 21.894531 32.578125 21.945312 32.578125 21.945312 C 33.238281 21.960938 33.980469 21.992188 34.710938 21.539062 C 35.183594 21.246094 35.476562 20.855469 35.644531 20.578125 C 35.726562 20.441406 36.035156 20.664062 36.179688 20.765625 C 36.628906 21.074219 36.929688 21.359375 37.027344 21.453125 C 37.175781 21.597656 37.355469 21.796875 37.738281 22.28125 C 39.097656 23.992188 39.480469 25.136719 39.644531 25.308594 C 39.648438 25.3125 39.652344 25.3125 39.652344 25.3125 C 42.1875 26.128906 41.328125 30.363281 39.371094 30.691406 C 39.152344 31.703125 38.65625 33.414062 37.445312 34.839844 C 36.769531 35.636719 36.113281 36.09375 35.949219 36.207031 C 35.945312 36.210938 35.9375 36.214844 35.929688 36.21875 C 35.558594 36.472656 34.792969 36.976562 33.667969 37.242188 C 33.363281 37.3125 32.191406 37.5625 30.714844 37.242188 C 30.453125 37.183594 29.292969 36.914062 28.066406 36.027344 " fill-opacity="1" fill-rule="evenodd"/><path fill="#6a8899" d="M 46.261719 56.09375 L 46.261719 56.511719 C 46.261719 58.082031 44.980469 59.351562 43.402344 59.351562 L 20.839844 59.351562 C 19.261719 59.351562 17.980469 58.082031 17.980469 56.511719 L 17.980469 56.09375 L 46.261719 56.09375 " fill-opacity="1" fill-rule="evenodd"/><path fill="#6a8899" d="M 44.320312 43.777344 L 44.320312 56.09375 L 19.921875 56.09375 L 19.921875 43.777344 C 19.921875 42.960938 20.585938 42.304688 21.40625 42.304688 L 42.835938 42.304688 C 43.65625 42.304688 44.320312 42.960938 44.320312 43.777344 " fill-opacity="1" fill-rule="evenodd"/><path fill="#f7e07f" d="M 17.980469 56.511719 C 17.980469 58.082031 19.261719 59.351562 20.839844 59.351562 L 13.308594 59.351562 C 13.304688 57.839844 13.320312 50.507812 14.726562 46.003906 C 15.070312 44.898438 15.46875 44.058594 15.980469 43.285156 C 16.269531 42.855469 17.527344 41.039062 19.988281 39.792969 C 22.273438 38.640625 24.394531 38.589844 25.410156 38.628906 L 27.523438 40.601562 L 29.347656 42.304688 L 21.40625 42.304688 C 20.585938 42.304688 19.921875 42.960938 19.921875 43.777344 L 19.921875 56.09375 L 17.980469 56.09375 L 17.980469 56.511719 " fill-opacity="1" fill-rule="evenodd"/><path fill="#f7e07f" d="M 49.515625 46.003906 C 50.921875 50.507812 50.9375 57.839844 50.929688 59.351562 L 43.402344 59.351562 C 44.980469 59.351562 46.261719 58.082031 46.261719 56.511719 L 46.261719 56.09375 L 44.320312 56.09375 L 44.320312 43.777344 C 44.320312 42.960938 43.65625 42.304688 42.835938 42.304688 L 34.6875 42.304688 L 36.695312 40.523438 L 38.832031 38.628906 C 39.847656 38.589844 41.96875 38.640625 44.253906 39.792969 C 46.714844 41.039062 47.972656 42.855469 48.257812 43.285156 C 48.773438 44.058594 49.171875 44.898438 49.515625 46.003906 " fill-opacity="1" fill-rule="evenodd"/><g clip-path="url(#462d9a2ac9)"><path fill="#333333" d="M 39.65625 26.195312 C 39.410156 26.195312 39.167969 26.09375 39 25.917969 C 38.863281 25.773438 38.78125 25.609375 38.640625 25.335938 C 38.402344 24.863281 37.957031 23.984375 37.039062 22.828125 C 36.660156 22.347656 36.511719 22.1875 36.40625 22.085938 C 36.332031 22.015625 36.167969 21.859375 35.925781 21.675781 C 35.703125 21.914062 35.453125 22.121094 35.179688 22.292969 C 34.242188 22.871094 33.296875 22.847656 32.605469 22.832031 L 32.554688 22.832031 C 32.535156 22.832031 30.378906 22.78125 28.074219 22.941406 L 27.964844 22.949219 C 27.21875 23 26.449219 23.050781 25.871094 23.355469 C 25.320312 23.648438 24.996094 24.261719 24.789062 25.410156 C 24.726562 25.746094 24.488281 26.027344 24.167969 26.140625 C 23.773438 26.277344 23.351562 26.148438 23.09375 25.808594 C 22.648438 25.222656 22.5625 24.441406 22.5 23.875 L 22.5 23.855469 C 22.410156 23.050781 22.238281 21.101562 22.558594 20.347656 C 22.730469 19.941406 23.246094 18.878906 24.328125 17.839844 C 26.457031 15.796875 29.957031 14.992188 30.636719 14.851562 C 31.964844 14.578125 33.234375 14.480469 34.410156 14.5625 C 35.238281 14.621094 35.941406 14.722656 36.554688 14.878906 C 37.375 15.085938 38.023438 15.488281 38.421875 16.042969 C 38.628906 16.328125 38.753906 16.621094 38.867188 16.878906 C 38.96875 17.117188 39.058594 17.324219 39.179688 17.453125 C 39.347656 17.632812 39.574219 17.792969 39.816406 17.964844 C 40.089844 18.15625 40.394531 18.375 40.667969 18.652344 C 41.34375 19.335938 42.105469 20.480469 42.222656 21.640625 C 42.332031 22.726562 41.855469 23.667969 41.433594 24.363281 C 41.382812 24.445312 41.148438 24.808594 40.914062 25.148438 C 40.441406 25.835938 40.210938 26.140625 39.75 26.191406 C 39.71875 26.195312 39.6875 26.195312 39.65625 26.195312 Z M 40.355469 24.78125 Z M 35.730469 19.652344 C 36.128906 19.652344 36.457031 19.878906 36.667969 20.023438 L 36.6875 20.039062 C 37.15625 20.363281 37.492188 20.667969 37.648438 20.820312 C 37.820312 20.988281 38.019531 21.207031 38.4375 21.730469 C 39.042969 22.496094 39.464844 23.152344 39.765625 23.671875 C 39.828125 23.574219 39.878906 23.496094 39.910156 23.449219 C 40.328125 22.761719 40.496094 22.257812 40.449219 21.816406 C 40.394531 21.253906 39.960938 20.460938 39.398438 19.890625 C 39.234375 19.722656 39.015625 19.570312 38.785156 19.40625 C 38.496094 19.199219 38.167969 18.96875 37.878906 18.660156 C 37.542969 18.304688 37.367188 17.898438 37.230469 17.574219 C 37.144531 17.375 37.066406 17.199219 36.972656 17.070312 C 36.824219 16.863281 36.519531 16.691406 36.117188 16.589844 C 35.605469 16.460938 35.007812 16.375 34.285156 16.324219 C 33.273438 16.257812 32.164062 16.34375 30.996094 16.582031 C 29.351562 16.921875 26.941406 17.789062 25.566406 19.109375 C 24.714844 19.925781 24.316406 20.753906 24.203125 21.015625 C 24.167969 21.15625 24.128906 21.652344 24.171875 22.464844 C 24.40625 22.207031 24.691406 21.976562 25.035156 21.792969 C 25.949219 21.3125 26.957031 21.242188 27.84375 21.183594 L 27.953125 21.175781 C 30.339844 21.011719 32.507812 21.058594 32.597656 21.0625 L 32.648438 21.0625 C 33.242188 21.078125 33.753906 21.089844 34.238281 20.789062 C 34.488281 20.632812 34.707031 20.40625 34.882812 20.121094 C 35.023438 19.890625 35.246094 19.730469 35.515625 19.671875 C 35.589844 19.65625 35.660156 19.652344 35.730469 19.652344 Z M 36.410156 21.03125 Z M 24.207031 21.007812 Z M 24.207031 21.007812 " fill-opacity="1" fill-rule="evenodd"/></g><path fill="#333333" d="M 32.207031 38.285156 C 31.707031 38.285156 31.136719 38.238281 30.523438 38.105469 C 29.976562 37.984375 28.554688 37.582031 27.160156 36.449219 C 26.492188 35.902344 25.265625 34.699219 24.566406 32.773438 C 24.390625 32.285156 24.269531 31.761719 24.199219 31.382812 C 23.730469 31.160156 23.300781 30.835938 22.933594 30.429688 C 22.441406 29.882812 22.097656 29.21875 21.941406 28.515625 C 21.621094 27.074219 22.109375 25.664062 23.285156 24.640625 C 23.65625 24.320312 24.21875 24.359375 24.539062 24.726562 C 24.863281 25.09375 24.824219 25.652344 24.457031 25.976562 C 23.582031 26.730469 23.550781 27.566406 23.675781 28.132812 C 23.859375 28.953125 24.503906 29.675781 25.242188 29.890625 C 25.578125 29.988281 25.828125 30.273438 25.875 30.621094 C 25.929688 31.019531 26.058594 31.667969 26.242188 32.175781 C 26.8125 33.757812 27.863281 34.734375 28.285156 35.078125 C 29.382812 35.972656 30.484375 36.285156 30.90625 36.378906 C 32.105469 36.640625 33.09375 36.464844 33.464844 36.378906 C 34.472656 36.144531 35.15625 35.675781 35.445312 35.476562 C 35.65625 35.335938 36.207031 34.929688 36.765625 34.269531 C 37.578125 33.316406 38.175781 32.015625 38.5 30.503906 C 38.578125 30.152344 38.863281 29.878906 39.222656 29.816406 C 39.796875 29.722656 40.53125 28.734375 40.613281 27.601562 C 40.667969 26.824219 40.40625 26.332031 39.828125 26.152344 C 39.363281 26 39.105469 25.503906 39.253906 25.039062 C 39.40625 24.574219 39.90625 24.316406 40.375 24.46875 C 41.105469 24.699219 41.675781 25.167969 42.023438 25.816406 C 42.3125 26.359375 42.4375 27.019531 42.386719 27.730469 C 42.28125 29.183594 41.425781 30.804688 40.121094 31.378906 C 39.714844 32.976562 39.042969 34.332031 38.125 35.410156 C 37.449219 36.203125 36.789062 36.707031 36.453125 36.933594 C 36.113281 37.167969 35.207031 37.789062 33.875 38.101562 C 33.515625 38.183594 32.933594 38.285156 32.207031 38.285156 " fill-opacity="1" fill-rule="evenodd"/><path fill="#333333" d="M 27.527344 41.132812 C 27.394531 41.132812 27.257812 41.101562 27.132812 41.039062 C 26.691406 40.824219 26.511719 40.292969 26.730469 39.855469 C 26.960938 39.390625 27.355469 38.460938 27.382812 37.445312 C 27.390625 37.050781 27.339844 36.871094 27.253906 36.574219 C 27.230469 36.488281 27.203125 36.390625 27.175781 36.289062 C 27.054688 35.8125 27.339844 35.332031 27.816406 35.210938 C 28.292969 35.089844 28.777344 35.375 28.898438 35.847656 C 28.921875 35.929688 28.941406 36.007812 28.964844 36.089844 C 29.070312 36.453125 29.175781 36.828125 29.160156 37.488281 C 29.125 38.847656 28.621094 40.046875 28.324219 40.640625 C 28.167969 40.949219 27.855469 41.132812 27.527344 41.132812 " fill-opacity="1" fill-rule="evenodd"/><path fill="#333333" d="M 36.695312 41.40625 C 36.386719 41.40625 36.082031 41.246094 35.917969 40.957031 C 35.46875 40.160156 34.925781 38.910156 34.890625 37.488281 C 34.871094 36.828125 34.980469 36.453125 35.082031 36.089844 C 35.089844 36.054688 35.101562 36.023438 35.113281 35.988281 C 35.242188 35.515625 35.734375 35.242188 36.207031 35.371094 C 36.679688 35.503906 36.957031 35.988281 36.824219 36.460938 C 36.816406 36.5 36.804688 36.535156 36.792969 36.574219 C 36.710938 36.871094 36.65625 37.050781 36.667969 37.445312 C 36.695312 38.503906 37.121094 39.46875 37.472656 40.089844 C 37.710938 40.515625 37.558594 41.054688 37.128906 41.292969 C 36.992188 41.371094 36.84375 41.40625 36.695312 41.40625 " fill-opacity="1" fill-rule="evenodd"/><g clip-path="url(#7ea0214351)"><path fill="#333333" d="M 50.929688 60.238281 L 13.308594 60.238281 C 12.820312 60.238281 12.421875 59.84375 12.421875 59.355469 C 12.414062 56.691406 12.539062 50.027344 13.875 45.742188 C 14.230469 44.597656 14.667969 43.660156 15.242188 42.796875 C 15.722656 42.078125 17.105469 40.257812 19.585938 39.007812 C 21.855469 37.859375 24.027344 37.6875 25.449219 37.746094 C 25.660156 37.753906 25.863281 37.839844 26.019531 37.984375 L 29.957031 41.65625 C 30.3125 41.992188 30.332031 42.550781 29.996094 42.90625 C 29.660156 43.261719 29.097656 43.28125 28.738281 42.945312 L 25.050781 39.503906 C 23.847656 39.492188 22.152344 39.691406 20.394531 40.582031 C 18.292969 41.644531 17.128906 43.167969 16.726562 43.773438 C 16.238281 44.503906 15.886719 45.269531 15.574219 46.265625 C 14.425781 49.953125 14.230469 55.777344 14.203125 58.46875 L 50.039062 58.46875 C 50.015625 55.777344 49.816406 49.953125 48.667969 46.265625 C 48.359375 45.269531 48.003906 44.503906 47.519531 43.773438 C 47.117188 43.167969 45.953125 41.644531 43.851562 40.582031 C 42.082031 39.6875 40.382812 39.492188 39.179688 39.503906 L 35.28125 42.960938 C 34.914062 43.285156 34.351562 43.253906 34.023438 42.890625 C 33.695312 42.527344 33.730469 41.96875 34.09375 41.640625 L 38.238281 37.96875 C 38.394531 37.832031 38.589844 37.753906 38.792969 37.746094 C 40.214844 37.6875 42.386719 37.859375 44.65625 39.003906 C 47.136719 40.257812 48.523438 42.074219 49 42.796875 C 49.574219 43.660156 50.007812 44.597656 50.367188 45.742188 C 51.707031 50.027344 51.828125 56.691406 51.820312 59.355469 C 51.820312 59.84375 51.421875 60.238281 50.929688 60.238281 " fill-opacity="1" fill-rule="evenodd"/></g><g clip-path="url(#af9ac17094)"><path fill="#333333" d="M 59.699219 60.238281 L 4.542969 60.238281 C 4.054688 60.238281 3.652344 59.839844 3.652344 59.351562 C 3.652344 58.863281 4.054688 58.46875 4.542969 58.46875 L 59.699219 58.46875 C 60.1875 58.46875 60.589844 58.863281 60.589844 59.351562 C 60.589844 59.839844 60.1875 60.238281 59.699219 60.238281 " fill-opacity="1" fill-rule="evenodd"/></g><g clip-path="url(#8da8dec549)"><path fill="#333333" d="M 43.402344 60.238281 L 20.839844 60.238281 C 18.773438 60.238281 17.089844 58.566406 17.089844 56.511719 L 17.089844 56.09375 C 17.089844 55.605469 17.488281 55.210938 17.980469 55.210938 L 46.261719 55.210938 C 46.753906 55.210938 47.152344 55.605469 47.152344 56.09375 L 47.152344 56.511719 C 47.152344 58.566406 45.46875 60.238281 43.402344 60.238281 Z M 18.925781 56.976562 C 19.136719 57.832031 19.914062 58.46875 20.839844 58.46875 L 43.402344 58.46875 C 44.328125 58.46875 45.101562 57.832031 45.316406 56.976562 L 18.925781 56.976562 " fill-opacity="1" fill-rule="evenodd"/></g><path fill="#333333" d="M 44.320312 56.976562 L 19.921875 56.976562 C 19.429688 56.976562 19.03125 56.582031 19.03125 56.09375 L 19.03125 43.777344 C 19.03125 42.476562 20.097656 41.417969 21.40625 41.417969 L 42.835938 41.417969 C 44.144531 41.417969 45.210938 42.476562 45.210938 43.777344 L 45.210938 56.09375 C 45.210938 56.582031 44.8125 56.976562 44.320312 56.976562 Z M 20.8125 55.210938 L 43.429688 55.210938 L 43.429688 43.777344 C 43.429688 43.453125 43.164062 43.1875 42.835938 43.1875 L 21.40625 43.1875 C 21.078125 43.1875 20.8125 43.453125 20.8125 43.777344 L 20.8125 55.210938 " fill-opacity="1" fill-rule="evenodd"/><path fill="#333333" d="M 28.609375 52.574219 C 28.421875 52.574219 28.230469 52.515625 28.070312 52.390625 L 24.789062 49.902344 C 24.570312 49.734375 24.4375 49.472656 24.4375 49.199219 C 24.4375 48.921875 24.570312 48.664062 24.789062 48.496094 L 28.070312 46.003906 C 28.460938 45.707031 29.019531 45.78125 29.316406 46.171875 C 29.613281 46.558594 29.539062 47.113281 29.148438 47.410156 L 26.792969 49.199219 L 29.148438 50.988281 C 29.539062 51.285156 29.613281 51.839844 29.316406 52.226562 C 29.140625 52.453125 28.875 52.574219 28.609375 52.574219 " fill-opacity="1" fill-rule="evenodd"/><path fill="#333333" d="M 35.632812 52.574219 C 35.367188 52.574219 35.101562 52.453125 34.925781 52.226562 C 34.628906 51.839844 34.703125 51.285156 35.09375 50.988281 L 37.449219 49.199219 L 35.09375 47.410156 C 34.703125 47.113281 34.628906 46.558594 34.925781 46.171875 C 35.222656 45.78125 35.78125 45.707031 36.171875 46.003906 L 39.453125 48.496094 C 39.675781 48.664062 39.804688 48.921875 39.804688 49.199219 C 39.804688 49.472656 39.671875 49.734375 39.453125 49.902344 L 36.171875 52.390625 C 36.011719 52.515625 35.820312 52.574219 35.632812 52.574219 " fill-opacity="1" fill-rule="evenodd"/><path fill="#333333" d="M 31.050781 53.898438 C 30.96875 53.898438 30.890625 53.886719 30.808594 53.863281 C 30.335938 53.730469 30.058594 53.246094 30.191406 52.773438 L 32.335938 45.148438 C 32.46875 44.675781 32.960938 44.402344 33.433594 44.535156 C 33.90625 44.664062 34.183594 45.152344 34.050781 45.625 L 31.90625 53.25 C 31.796875 53.640625 31.4375 53.898438 31.050781 53.898438 " fill-opacity="1" fill-rule="evenodd"/><g fill="#000000" fill-opacity="1"><g transform="translate(60.411024, 34.920583)"><g><path d="M 9.394531 -7.148438 L 9.4375 -7.207031 C 9.5 -9.179688 8.101562 -10.621094 4.113281 -10.621094 L 1.546875 -10.621094 C 1.304688 -10.621094 1.214844 -10.46875 1.214844 -10.226562 L 1.214844 -0.394531 C 1.214844 -0.152344 1.304688 0 1.546875 0 L 4.886719 0 C 8.632812 0 10 -0.925781 10 -2.835938 C 10 -4.460938 8.132812 -5.28125 6.007812 -5.28125 Z M 4.113281 -10.410156 C 6.3125 -10.410156 7.027344 -9.515625 7.027344 -7.996094 C 7.027344 -7.285156 6.570312 -5.296875 4.582031 -5.296875 L 3.960938 -5.296875 L 3.960938 -10.410156 Z M 4.582031 -5.082031 C 6.265625 -5.082031 7.148438 -4.144531 7.148438 -2.625 C 7.148438 -1.425781 6.265625 -0.210938 4.582031 -0.210938 L 3.960938 -0.210938 L 3.960938 -5.082031 Z M 4.582031 -5.082031 "/></g></g></g><g fill="#000000" fill-opacity="1"><g transform="translate(70.942013, 34.920583)"><g><path d="M 1.652344 -8.375 C 1.410156 -8.375 1.320312 -8.222656 1.320312 -7.980469 L 1.320312 -0.394531 C 1.320312 -0.152344 1.410156 0 1.652344 0 L 3.582031 0 C 3.824219 0 3.914062 -0.152344 3.914062 -0.394531 L 3.914062 -7.980469 C 3.914062 -8.222656 3.824219 -8.375 3.582031 -8.375 Z M 1.214844 -10.589844 C 1.214844 -9.816406 1.835938 -9.195312 2.609375 -9.195312 C 3.382812 -9.195312 4.007812 -9.816406 4.007812 -10.589844 C 4.007812 -11.367188 3.382812 -11.988281 2.609375 -11.988281 C 1.835938 -11.988281 1.214844 -11.367188 1.214844 -10.589844 Z M 1.214844 -10.589844 "/></g></g></g><g fill="#000000" fill-opacity="1"><g transform="translate(76.161986, 34.920583)"><g><path d="M 8.117188 -2.382812 C 8.117188 -2.625 8.027344 -2.777344 7.785156 -2.777344 L 7.695312 -2.777344 C 7.480469 -2.777344 7.222656 -2.578125 7.011719 -2.414062 L 4.402344 -0.210938 L 3.808594 -0.210938 L 3.808594 -7.980469 C 3.808594 -8.222656 3.71875 -8.375 3.476562 -8.375 L 1.546875 -8.375 C 1.304688 -8.375 1.214844 -8.222656 1.214844 -7.980469 L 1.214844 -0.394531 C 1.214844 -0.152344 1.304688 0 1.546875 0 L 7.785156 0 C 8.027344 0 8.117188 -0.152344 8.117188 -0.394531 Z M 8.117188 -2.382812 "/></g></g></g><g fill="#000000" fill-opacity="1"><g transform="translate(84.50787, 34.920583)"><g><path d="M 8.769531 -3.871094 C 8.785156 -4.113281 8.695312 -4.21875 8.421875 -4.21875 L 6.78125 -4.21875 C 6.523438 -4.21875 6.449219 -4.128906 6.433594 -3.871094 L 6.238281 -0.03125 L 5.417969 -0.03125 C 4.265625 -0.03125 3.1875 -1.851562 3.1875 -4.21875 C 3.1875 -6.585938 4.292969 -8.222656 5.449219 -8.222656 L 7.90625 -5.980469 C 8.011719 -5.871094 8.117188 -5.828125 8.238281 -5.828125 C 8.300781 -5.828125 8.347656 -5.84375 8.40625 -5.855469 L 8.589844 -5.933594 C 8.742188 -5.992188 8.800781 -6.085938 8.800781 -6.296875 L 8.800781 -7.800781 C 8.800781 -8.042969 8.742188 -8.164062 8.46875 -8.195312 L 6.265625 -8.40625 L 5.234375 -8.40625 C 2.835938 -8.40625 0.605469 -7.90625 0.605469 -4.21875 C 0.605469 -0.53125 2.808594 0.152344 5.203125 0.152344 L 8.421875 0.03125 C 8.679688 0.015625 8.753906 -0.0625 8.769531 -0.320312 Z M 8.769531 -3.871094 "/></g></g></g><g fill="#000000" fill-opacity="1"><g transform="translate(94.44706, 34.920583)"><g><path d="M 1.652344 -8.375 C 1.410156 -8.375 1.320312 -8.222656 1.320312 -7.980469 L 1.320312 -0.394531 C 1.320312 -0.152344 1.410156 0 1.652344 0 L 3.582031 0 C 3.824219 0 3.914062 -0.152344 3.914062 -0.394531 L 3.914062 -7.980469 C 3.914062 -8.222656 3.824219 -8.375 3.582031 -8.375 Z M 1.214844 -10.589844 C 1.214844 -9.816406 1.835938 -9.195312 2.609375 -9.195312 C 3.382812 -9.195312 4.007812 -9.816406 4.007812 -10.589844 C 4.007812 -11.367188 3.382812 -11.988281 2.609375 -11.988281 C 1.835938 -11.988281 1.214844 -11.367188 1.214844 -10.589844 Z M 1.214844 -10.589844 "/></g></g></g><g fill="#000000" fill-opacity="1"><g transform="translate(99.667033, 34.920583)"><g><path d="M 5.265625 -5.296875 C 4.035156 -5.644531 3.535156 -6.296875 3.535156 -7.070312 C 3.535156 -7.90625 4.25 -8.316406 5.039062 -8.316406 L 5.386719 -8.316406 L 7.132812 -6.085938 C 7.3125 -5.84375 7.449219 -5.691406 7.617188 -5.691406 L 7.722656 -5.691406 C 7.890625 -5.691406 7.9375 -5.796875 7.9375 -5.964844 L 7.921875 -7.9375 C 7.921875 -8.179688 7.84375 -8.300781 7.585938 -8.332031 L 5.828125 -8.527344 L 4.960938 -8.527344 C 2.351562 -8.527344 0.988281 -7.527344 0.988281 -6.359375 C 0.988281 -4.976562 1.546875 -4.21875 4.308594 -3.382812 C 5.660156 -2.972656 5.855469 -2.535156 5.855469 -1.683594 C 5.855469 -0.851562 5.355469 -0.0625 4.355469 -0.0625 L 4.050781 -0.0625 L 1.851562 -3.035156 C 1.667969 -3.277344 1.53125 -3.429688 1.367188 -3.429688 L 1.257812 -3.429688 C 1.09375 -3.429688 1.046875 -3.324219 1.046875 -3.15625 L 1.0625 -0.394531 C 1.0625 -0.152344 1.152344 -0.015625 1.394531 0 L 3.613281 0.152344 L 4.429688 0.152344 C 6.875 0.152344 8.375 -0.605469 8.375 -2.429688 C 8.375 -4.019531 7.359375 -4.703125 5.265625 -5.296875 Z M 5.265625 -5.296875 "/></g></g></g><g fill="#000000" fill-opacity="1"><g transform="translate(108.801978, 34.920583)"><g><path d="M 5.417969 -7.980469 C 5.328125 -8.195312 5.128906 -8.375 4.871094 -8.375 L 4.097656 -8.375 C 3.882812 -8.375 3.671875 -8.195312 3.582031 -7.980469 L 0.183594 -0.394531 C 0.105469 -0.199219 0.183594 0 0.425781 0 L 2.609375 0 C 2.929688 0 3.050781 -0.167969 2.945312 -0.394531 L 1.820312 -2.898438 L 4.839844 -2.898438 L 5.964844 -0.394531 C 6.070312 -0.167969 6.238281 0 6.511719 0 L 8.574219 0 C 8.816406 0 8.890625 -0.199219 8.816406 -0.394531 Z M 4.75 -3.109375 L 1.652344 -3.109375 L 3.1875 -6.617188 Z M 4.75 -3.109375 "/></g></g></g><g fill="#000000" fill-opacity="1"><g transform="translate(117.800355, 34.920583)"><g><path d="M 3.246094 -7.980469 C 3.109375 -8.210938 2.929688 -8.375 2.609375 -8.375 L 0.441406 -8.375 C 0.199219 -8.375 0.0898438 -8.179688 0.199219 -7.980469 L 2.808594 -3.292969 L 2.808594 -0.394531 C 2.808594 -0.152344 2.898438 0 3.140625 0 L 5.066406 0 C 5.3125 0 5.402344 -0.152344 5.402344 -0.394531 L 5.402344 -3.277344 L 8.011719 -7.980469 C 8.089844 -8.179688 8.011719 -8.375 7.769531 -8.375 L 5.476562 -8.375 C 5.160156 -8.375 5.175781 -8.179688 5.3125 -7.980469 L 6.511719 -5.644531 L 5.402344 -3.777344 Z M 3.246094 -7.980469 "/></g></g></g><g fill="#000000" fill-opacity="1"><g transform="translate(125.994492, 34.920583)"><g><path d="M 5.417969 -7.980469 C 5.328125 -8.195312 5.128906 -8.375 4.871094 -8.375 L 4.097656 -8.375 C 3.882812 -8.375 3.671875 -8.195312 3.582031 -7.980469 L 0.183594 -0.394531 C 0.105469 -0.199219 0.183594 0 0.425781 0 L 2.609375 0 C 2.929688 0 3.050781 -0.167969 2.945312 -0.394531 L 1.820312 -2.898438 L 4.839844 -2.898438 L 5.964844 -0.394531 C 6.070312 -0.167969 6.238281 0 6.511719 0 L 8.574219 0 C 8.816406 0 8.890625 -0.199219 8.816406 -0.394531 Z M 4.75 -3.109375 L 1.652344 -3.109375 L 3.1875 -6.617188 Z M 4.75 -3.109375 "/></g></g></g><g fill="#000000" fill-opacity="1"><g transform="translate(134.992869, 34.920583)"><g><path d="M 9.226562 0 C 9.484375 0 9.558594 -0.210938 9.421875 -0.394531 L 7.679688 -2.6875 C 7.570312 -2.824219 7.390625 -2.824219 7.222656 -2.824219 C 5.734375 -2.824219 5.097656 -3.292969 4.703125 -3.761719 L 5.066406 -3.761719 C 7.433594 -3.761719 8.664062 -4.234375 8.664062 -6.144531 C 8.664062 -7.90625 7.433594 -8.375 5.066406 -8.375 L 1.546875 -8.375 C 1.304688 -8.375 1.214844 -8.222656 1.214844 -7.980469 L 1.214844 -0.394531 C 1.214844 -0.152344 1.304688 0 1.546875 0 L 3.476562 0 C 3.71875 0 3.808594 -0.152344 3.808594 -0.394531 L 3.808594 -3.761719 L 4.414062 -3.761719 L 6.738281 -0.394531 C 6.917969 -0.152344 7.164062 0 7.40625 0 Z M 4.566406 -8.164062 C 5.476562 -8.164062 6.054688 -8.042969 6.054688 -6.144531 C 6.054688 -4.25 5.476562 -3.976562 4.566406 -3.976562 L 3.808594 -3.976562 L 3.808594 -8.164062 Z M 4.566406 -8.164062 "/></g></g></g><g fill="#c40f0f" fill-opacity="1"><g transform="translate(65.860553, 50.492181)"><g><path d="M 0.445312 -0.855469 C 0.445312 -0.277344 0.902344 0.179688 1.480469 0.179688 C 2.058594 0.179688 2.535156 -0.277344 2.535156 -0.855469 C 2.535156 -1.433594 2.058594 -1.914062 1.480469 -1.914062 C 0.902344 -1.914062 0.445312 -1.433594 0.445312 -0.855469 Z M 0.445312 -0.855469 "/></g></g></g><g fill="#c40f0f" fill-opacity="1"><g transform="translate(70.598914, 50.492181)"><g><path d="M 7.152344 -7.496094 C 7.152344 -7.675781 7.085938 -7.785156 6.90625 -7.785156 L 0.46875 -7.785156 C 0.289062 -7.785156 0.222656 -7.675781 0.222656 -7.496094 L 0.222656 -5.40625 C 0.222656 -5.285156 0.253906 -5.207031 0.378906 -5.207031 L 0.445312 -5.207031 C 0.546875 -5.207031 0.65625 -5.351562 0.757812 -5.496094 L 2.378906 -7.628906 L 2.734375 -7.628906 L 2.734375 -0.289062 C 2.734375 -0.109375 2.804688 0 2.980469 0 L 4.394531 0 C 4.570312 0 4.636719 -0.109375 4.636719 -0.289062 L 4.636719 -7.628906 L 4.992188 -7.628906 L 6.617188 -5.496094 C 6.730469 -5.351562 6.828125 -5.207031 6.929688 -5.207031 L 6.996094 -5.207031 C 7.117188 -5.207031 7.152344 -5.285156 7.152344 -5.40625 Z M 7.152344 -7.496094 "/></g></g></g><g fill="#c40f0f" fill-opacity="1"><g transform="translate(79.729676, 50.492181)"><g><path d="M 1.246094 -7.785156 C 1.066406 -7.785156 1 -7.675781 1 -7.496094 L 1 -0.289062 C 1 -0.109375 1.066406 0 1.246094 0 L 6.316406 0 C 6.472656 0 6.5625 -0.109375 6.628906 -0.289062 L 7.320312 -2.011719 C 7.339844 -2.070312 7.363281 -2.125 7.308594 -2.167969 L 7.175781 -2.269531 C 7.152344 -2.292969 7.128906 -2.292969 7.109375 -2.292969 C 7.074219 -2.292969 7.039062 -2.269531 6.996094 -2.246094 L 4.015625 -0.15625 L 2.902344 -0.15625 L 2.902344 -3.835938 L 5.960938 -3.78125 L 5.960938 -4.046875 L 2.902344 -3.992188 L 2.902344 -7.628906 L 4.015625 -7.628906 L 5.929688 -6.015625 C 6.085938 -5.894531 6.273438 -5.75 6.429688 -5.75 L 6.496094 -5.75 C 6.671875 -5.75 6.742188 -5.863281 6.742188 -6.039062 L 6.742188 -7.496094 C 6.742188 -7.675781 6.671875 -7.785156 6.496094 -7.785156 Z M 1.246094 -7.785156 "/></g></g></g><g fill="#c40f0f" fill-opacity="1"><g transform="translate(89.048851, 50.492181)"><g/></g></g><g fill="#c40f0f" fill-opacity="1"><g transform="translate(94.143057, 50.492181)"><g/></g></g><g fill="#c40f0f" fill-opacity="1"><g transform="translate(99.23226, 50.492181)"><g><path d="M 0.445312 -3.902344 C 0.445312 -1.203125 1.914062 0.109375 4.617188 0.109375 L 7.207031 0 C 7.40625 -0.0234375 7.453125 -0.109375 7.453125 -0.289062 L 7.453125 -1.734375 C 7.453125 -1.890625 7.40625 -1.957031 7.296875 -2.003906 L 7.164062 -2.058594 C 7.117188 -2.070312 7.085938 -2.078125 7.039062 -2.078125 C 6.953125 -2.078125 6.875 -2.046875 6.796875 -1.96875 L 4.773438 -0.0429688 C 3.546875 -0.0429688 2.558594 -2.167969 2.558594 -3.902344 C 2.558594 -5.640625 3.546875 -7.765625 4.773438 -7.765625 L 6.796875 -5.839844 C 6.875 -5.761719 6.953125 -5.726562 7.039062 -5.726562 C 7.085938 -5.726562 7.117188 -5.738281 7.164062 -5.75 L 7.296875 -5.804688 C 7.40625 -5.851562 7.453125 -5.917969 7.453125 -6.074219 L 7.453125 -7.519531 C 7.453125 -7.695312 7.40625 -7.785156 7.207031 -7.808594 L 4.617188 -7.917969 C 1.914062 -7.917969 0.445312 -6.605469 0.445312 -3.902344 Z M 0.445312 -3.902344 "/></g></g></g><g fill="#c40f0f" fill-opacity="1"><g transform="translate(109.16366, 50.492181)"><g><path d="M 7.597656 -7.496094 C 7.597656 -7.675781 7.53125 -7.785156 7.351562 -7.785156 L 5.941406 -7.785156 C 5.761719 -7.785156 5.695312 -7.675781 5.695312 -7.496094 L 5.695312 -4.125 L 2.902344 -4.125 L 2.902344 -7.496094 C 2.902344 -7.675781 2.835938 -7.785156 2.660156 -7.785156 L 1.246094 -7.785156 C 1.066406 -7.785156 1 -7.675781 1 -7.496094 L 1 -0.289062 C 1 -0.109375 1.066406 0 1.246094 0 L 2.660156 0 C 2.835938 0 2.902344 -0.109375 2.902344 -0.289062 L 2.902344 -3.894531 L 5.695312 -3.894531 L 5.695312 -0.289062 C 5.695312 -0.109375 5.761719 0 5.941406 0 L 7.351562 0 C 7.53125 0 7.597656 -0.109375 7.597656 -0.289062 Z M 7.597656 -7.496094 "/></g></g></g><g fill="#000000" fill-opacity="1"><g transform="translate(119.516093, 50.492181)"><g><path d="M 1.246094 -7.785156 C 1.066406 -7.785156 1 -7.675781 1 -7.496094 L 1 -0.289062 C 1 -0.109375 1.066406 0 1.246094 0 L 6.316406 0 C 6.472656 0 6.5625 -0.109375 6.628906 -0.289062 L 7.320312 -2.011719 C 7.339844 -2.070312 7.363281 -2.125 7.308594 -2.167969 L 7.175781 -2.269531 C 7.152344 -2.292969 7.128906 -2.292969 7.109375 -2.292969 C 7.074219 -2.292969 7.039062 -2.269531 6.996094 -2.246094 L 4.015625 -0.15625 L 2.902344 -0.15625 L 2.902344 -3.835938 L 5.960938 -3.78125 L 5.960938 -4.046875 L 2.902344 -3.992188 L 2.902344 -7.628906 L 4.015625 -7.628906 L 5.929688 -6.015625 C 6.085938 -5.894531 6.273438 -5.75 6.429688 -5.75 L 6.496094 -5.75 C 6.671875 -5.75 6.742188 -5.863281 6.742188 -6.039062 L 6.742188 -7.496094 C 6.742188 -7.675781 6.671875 -7.785156 6.496094 -7.785156 Z M 1.246094 -7.785156 "/></g></g></g><g fill="#000000" fill-opacity="1"><g transform="translate(128.847011, 50.492181)"><g><path d="M 7.964844 0 C 8.152344 0 8.207031 -0.15625 8.109375 -0.289062 L 6.273438 -2.667969 C 6.195312 -2.769531 6.0625 -2.769531 5.941406 -2.769531 C 4.316406 -2.769531 3.925781 -3.09375 3.546875 -3.558594 L 4.003906 -3.558594 C 6.285156 -3.558594 7.140625 -4.347656 7.140625 -5.75 C 7.140625 -7.261719 6.328125 -7.785156 4.003906 -7.785156 L 1.246094 -7.785156 C 1.066406 -7.785156 1 -7.675781 1 -7.496094 L 1 -0.289062 C 1 -0.109375 1.066406 0 1.246094 0 L 2.660156 0 C 2.835938 0 2.902344 -0.109375 2.902344 -0.289062 L 2.902344 -3.558594 L 3.335938 -3.558594 L 5.816406 -0.289062 C 5.960938 -0.109375 6.128906 0 6.304688 0 Z M 3.636719 -7.628906 C 4.660156 -7.628906 5.105469 -7.140625 5.105469 -5.75 C 5.105469 -4.359375 4.660156 -3.714844 3.636719 -3.714844 L 2.902344 -3.714844 L 2.902344 -7.628906 Z M 3.636719 -7.628906 "/></g></g></g><g fill="#000000" fill-opacity="1"><g transform="translate(97.448603, 50.641005)"><g><path d="M 0.0117188 -4.085938 C 0.0117188 -4.136719 -0.0195312 -4.1875 -0.0820312 -4.226562 C -0.140625 -4.269531 -0.222656 -4.308594 -0.324219 -4.347656 C -0.414062 -4.390625 -0.476562 -4.429688 -0.515625 -4.449219 C -0.554688 -4.46875 -0.675781 -4.53125 -0.878906 -4.621094 C -1.070312 -4.703125 -1.265625 -4.792969 -1.457031 -4.875 C -1.648438 -4.957031 -1.75 -4.996094 -1.761719 -5.007812 C -1.761719 -5.007812 -2.699219 -5.5625 -4.582031 -6.65625 C -6.117188 -7.554688 -6.929688 -8.019531 -7 -8.039062 C -7.019531 -8.039062 -7.039062 -8.019531 -7.058594 -7.980469 C -7.078125 -7.929688 -7.089844 -7.878906 -7.089844 -7.816406 C -7.089844 -7.757812 -7.078125 -7.714844 -7.078125 -7.6875 C -7.058594 -7.625 -7.050781 -7.109375 -7.039062 -6.117188 L -7.027344 -4.84375 L -7.039062 -4.804688 L -7.039062 -4.792969 C -7.058594 -4.664062 -7.039062 -4.5625 -6.976562 -4.480469 C -6.96875 -4.480469 -6.96875 -4.46875 -6.96875 -4.46875 C -6.90625 -4.410156 -6.847656 -4.390625 -6.765625 -4.390625 C -6.523438 -4.390625 -6.039062 -4.378906 -5.289062 -4.359375 L -5.21875 -4.367188 C -5.167969 -4.367188 -5.117188 -4.347656 -5.066406 -4.328125 C -5.015625 -4.308594 -4.996094 -4.269531 -4.996094 -4.21875 L -4.976562 -3.761719 L -4.976562 -3.722656 C -4.964844 -3.679688 -4.976562 -3.652344 -5.015625 -3.621094 C -5.058594 -3.582031 -5.105469 -3.570312 -5.1875 -3.570312 C -5.359375 -3.558594 -5.753906 -3.550781 -6.382812 -3.550781 L -6.917969 -3.558594 L -6.957031 -3.558594 C -6.976562 -3.550781 -7.007812 -3.519531 -7.027344 -3.480469 C -7.050781 -3.429688 -7.058594 -3.359375 -7.058594 -3.265625 C -7.039062 -3.0625 -7.039062 -2.347656 -7.050781 -1.113281 L -7.007812 -0.132812 L -7.019531 -0.0820312 C -7.019531 -0.0390625 -7 0 -6.96875 0.0195312 C -6.929688 0.0507812 -6.878906 0.0507812 -6.816406 0.0195312 C -6.675781 -0.03125 -6.402344 -0.160156 -5.996094 -0.382812 C -5.582031 -0.605469 -5.351562 -0.75 -5.289062 -0.820312 C -5.207031 -0.898438 -4.582031 -1.285156 -3.410156 -1.960938 C -3.023438 -2.195312 -2.78125 -2.347656 -2.660156 -2.425781 L -2.660156 -2.4375 C -2.660156 -2.457031 -2.648438 -2.46875 -2.628906 -2.476562 L -2.609375 -2.457031 C -2.367188 -2.597656 -2.023438 -2.8125 -1.597656 -3.085938 C -1.171875 -3.347656 -0.921875 -3.507812 -0.859375 -3.550781 C -0.859375 -3.570312 -0.847656 -3.582031 -0.847656 -3.601562 C -0.847656 -3.609375 -0.847656 -3.621094 -0.847656 -3.640625 C -0.820312 -3.609375 -0.808594 -3.589844 -0.820312 -3.582031 C -0.789062 -3.601562 -0.769531 -3.609375 -0.757812 -3.609375 L -0.566406 -3.691406 C -0.433594 -3.742188 -0.304688 -3.8125 -0.183594 -3.894531 C -0.0507812 -3.976562 0.0117188 -4.035156 0.0117188 -4.085938 Z M -1.070312 -3.609375 C -1.070312 -3.601562 -1.070312 -3.589844 -1.09375 -3.582031 L -1.101562 -3.589844 C -1.101562 -3.589844 -1.113281 -3.601562 -1.121094 -3.601562 C -1.121094 -3.601562 -1.113281 -3.609375 -1.101562 -3.628906 L -1.09375 -3.621094 C -1.082031 -3.609375 -1.070312 -3.609375 -1.070312 -3.609375 Z M -1.195312 -3.519531 C -1.203125 -3.519531 -1.214844 -3.507812 -1.214844 -3.507812 C -1.214844 -3.488281 -1.214844 -3.46875 -1.222656 -3.457031 C -1.222656 -3.46875 -1.222656 -3.480469 -1.242188 -3.480469 L -1.214844 -3.539062 Z M -1.121094 -3.722656 C -1.152344 -3.671875 -1.183594 -3.671875 -1.214844 -3.710938 C -1.195312 -3.710938 -1.171875 -3.710938 -1.164062 -3.710938 C -1.144531 -3.710938 -1.132812 -3.722656 -1.121094 -3.722656 Z M -1.292969 -3.539062 C -1.304688 -3.53125 -1.324219 -3.519531 -1.34375 -3.507812 C -1.367188 -3.5 -1.386719 -3.488281 -1.386719 -3.488281 C -1.386719 -3.488281 -1.394531 -3.480469 -1.40625 -3.46875 C -1.414062 -3.449219 -1.425781 -3.429688 -1.445312 -3.410156 C -1.464844 -3.429688 -1.457031 -3.550781 -1.414062 -3.753906 C -1.375 -3.742188 -1.355469 -3.703125 -1.355469 -3.628906 C -1.367188 -3.570312 -1.34375 -3.539062 -1.292969 -3.539062 Z M -1.265625 -3.722656 C -1.285156 -3.730469 -1.304688 -3.742188 -1.34375 -3.761719 C -1.386719 -3.773438 -1.414062 -3.792969 -1.445312 -3.8125 C -1.324219 -3.84375 -1.265625 -3.8125 -1.265625 -3.722656 Z M -3.136719 -2.195312 L -3.1875 -2.144531 L -3.195312 -2.164062 L -3.195312 -2.226562 C -3.15625 -2.246094 -3.136719 -2.234375 -3.136719 -2.195312 Z M -2.964844 -2.4375 L -3.023438 -2.386719 C -3.023438 -2.4375 -3.003906 -2.46875 -2.964844 -2.46875 Z M -3.164062 -2.375 L -3.277344 -2.40625 C -3.238281 -2.449219 -3.207031 -2.449219 -3.164062 -2.40625 Z M -2.113281 -3.753906 C -2.113281 -3.730469 -2.113281 -3.722656 -2.113281 -3.710938 C -2.113281 -3.691406 -2.113281 -3.679688 -2.125 -3.671875 C -2.125 -3.652344 -2.144531 -3.640625 -2.164062 -3.640625 C -2.164062 -3.703125 -2.152344 -3.742188 -2.113281 -3.753906 Z M -2.660156 -3.1875 C -2.679688 -3.1875 -2.691406 -3.175781 -2.710938 -3.175781 C -2.71875 -3.175781 -2.742188 -3.175781 -2.761719 -3.175781 L -2.890625 -3.125 C -2.933594 -3.164062 -2.941406 -3.195312 -2.921875 -3.214844 L -2.761719 -3.175781 C -2.761719 -3.207031 -2.71875 -3.207031 -2.660156 -3.1875 Z M -2.113281 -4.023438 L -2.125 -4.015625 C -2.144531 -4.023438 -2.164062 -4.035156 -2.164062 -4.054688 L -2.144531 -4.074219 C -2.144531 -4.066406 -2.132812 -4.054688 -2.125 -4.046875 C -2.113281 -4.035156 -2.113281 -4.023438 -2.113281 -4.023438 Z M -3.753906 -2.46875 L -3.761719 -2.46875 C -3.761719 -2.46875 -3.761719 -2.476562 -3.78125 -2.5 C -3.78125 -2.507812 -3.773438 -2.519531 -3.761719 -2.527344 L -3.753906 -2.527344 Z M -4.15625 -2.105469 L -4.269531 -2.054688 C -4.257812 -2.09375 -4.21875 -2.113281 -4.15625 -2.105469 Z M -4.023438 -2.296875 L -4.097656 -2.324219 C -4.097656 -2.335938 -4.085938 -2.347656 -4.085938 -2.355469 L -4.023438 -2.316406 Z M -3.894531 -2.578125 C -3.894531 -2.558594 -3.894531 -2.558594 -3.902344 -2.558594 L -3.953125 -2.609375 L -3.933594 -2.609375 L -3.925781 -2.621094 Z M -3.335938 -3.175781 L -3.359375 -3.15625 C -3.359375 -3.144531 -3.359375 -3.136719 -3.367188 -3.125 C -3.378906 -3.136719 -3.386719 -3.144531 -3.386719 -3.15625 C -3.386719 -3.175781 -3.378906 -3.1875 -3.359375 -3.1875 Z M -2.628906 -3.84375 C -2.640625 -3.761719 -2.679688 -3.742188 -2.761719 -3.773438 L -2.761719 -3.914062 C -2.75 -3.914062 -2.710938 -3.882812 -2.628906 -3.84375 Z M -3.53125 -3.265625 C -3.53125 -3.214844 -3.550781 -3.195312 -3.589844 -3.214844 Z M -3.996094 -2.609375 C -4.015625 -2.578125 -4.054688 -2.539062 -4.117188 -2.476562 C -4.117188 -2.46875 -4.148438 -2.46875 -4.195312 -2.46875 C -4.195312 -2.46875 -4.226562 -2.488281 -4.269531 -2.546875 C -4.359375 -2.546875 -4.410156 -2.539062 -4.429688 -2.527344 C -4.460938 -2.519531 -4.480469 -2.46875 -4.5 -2.386719 C -4.519531 -2.40625 -4.542969 -2.425781 -4.542969 -2.46875 C -4.542969 -2.507812 -4.550781 -2.527344 -4.5625 -2.546875 L -4.441406 -2.640625 C -4.429688 -2.621094 -4.398438 -2.609375 -4.359375 -2.609375 L -4.195312 -2.75 Z M -2.890625 -3.773438 C -2.941406 -3.722656 -3.003906 -3.730469 -3.0625 -3.792969 C -3.113281 -3.742188 -3.175781 -3.710938 -3.246094 -3.691406 L -3.367188 -3.824219 L -3.367188 -3.8125 C -3.398438 -3.792969 -3.417969 -3.792969 -3.4375 -3.8125 C -3.449219 -3.824219 -3.449219 -3.84375 -3.449219 -3.882812 L -3.367188 -3.824219 C -3.207031 -3.882812 -3.09375 -3.875 -3.023438 -3.8125 C -3.015625 -3.804688 -3.003906 -3.804688 -2.992188 -3.804688 C -2.972656 -3.804688 -2.953125 -3.792969 -2.941406 -3.792969 C -2.933594 -3.792969 -2.921875 -3.78125 -2.914062 -3.78125 C -2.902344 -3.773438 -2.890625 -3.773438 -2.890625 -3.773438 Z M -4.5 -2.640625 L -4.589844 -2.640625 C -4.589844 -2.640625 -4.601562 -2.648438 -4.601562 -2.679688 L -4.5625 -2.679688 Z M -4.792969 -2.417969 C -4.773438 -2.386719 -4.785156 -2.367188 -4.804688 -2.347656 C -4.835938 -2.347656 -4.855469 -2.355469 -4.855469 -2.386719 C -4.855469 -2.457031 -4.855469 -2.5 -4.863281 -2.519531 L -4.835938 -2.519531 Z M -5.167969 -2.183594 C -5.207031 -2.144531 -5.230469 -2.144531 -5.25 -2.183594 C -5.25 -2.183594 -5.257812 -2.183594 -5.257812 -2.195312 C -5.257812 -2.203125 -5.25 -2.214844 -5.25 -2.214844 C -5.230469 -2.226562 -5.199219 -2.214844 -5.167969 -2.183594 Z M -4.804688 -2.699219 C -4.824219 -2.609375 -4.875 -2.570312 -4.957031 -2.589844 Z M -5.542969 -2.214844 L -5.5625 -2.214844 L -5.613281 -2.253906 L -5.582031 -2.296875 Z M -5.765625 -2.226562 C -5.804688 -2.226562 -5.824219 -2.226562 -5.847656 -2.246094 C -5.824219 -2.246094 -5.824219 -2.246094 -5.824219 -2.253906 L -5.765625 -2.253906 Z M -6.179688 -2.316406 C -6.179688 -2.304688 -6.191406 -2.296875 -6.191406 -2.285156 C -6.199219 -2.265625 -6.261719 -2.253906 -6.382812 -2.253906 L -6.433594 -2.183594 L -6.484375 -2.226562 L -6.382812 -2.324219 C -6.363281 -2.304688 -6.332031 -2.304688 -6.289062 -2.324219 C -6.25 -2.335938 -6.21875 -2.335938 -6.179688 -2.316406 Z M -6.535156 -2.226562 L -6.5625 -2.195312 C -6.5625 -2.203125 -6.5625 -2.214844 -6.585938 -2.226562 C -6.585938 -2.234375 -6.574219 -2.246094 -6.5625 -2.253906 Z M -6.25 -2.671875 C -6.25 -2.648438 -6.261719 -2.640625 -6.28125 -2.621094 L -6.28125 -2.679688 C -6.261719 -2.679688 -6.25 -2.671875 -6.25 -2.671875 Z M -6.117188 -2.621094 C -6.128906 -2.597656 -6.140625 -2.578125 -6.148438 -2.546875 C -6.160156 -2.507812 -6.167969 -2.488281 -6.191406 -2.46875 L -6.28125 -2.546875 L -6.191406 -2.679688 C -6.199219 -2.699219 -6.210938 -2.710938 -6.230469 -2.710938 C -6.238281 -2.71875 -6.261719 -2.730469 -6.28125 -2.75 C -6.28125 -2.710938 -6.300781 -2.679688 -6.339844 -2.648438 C -6.339844 -2.660156 -6.351562 -2.679688 -6.351562 -2.710938 C -6.363281 -2.792969 -6.339844 -2.851562 -6.289062 -2.914062 L -6.269531 -2.84375 C -6.261719 -2.820312 -6.261719 -2.820312 -6.261719 -2.84375 L -6.128906 -2.84375 L -6.128906 -2.621094 Z M -6.613281 -2.296875 C -6.613281 -2.253906 -6.632812 -2.246094 -6.683594 -2.246094 C -6.683594 -2.296875 -6.675781 -2.324219 -6.65625 -2.324219 C -6.625 -2.324219 -6.613281 -2.316406 -6.613281 -2.296875 Z M -6.191406 -2.914062 C -6.199219 -2.914062 -6.210938 -2.914062 -6.230469 -2.914062 C -6.25 -2.914062 -6.269531 -2.921875 -6.289062 -2.921875 C -6.230469 -2.984375 -6.199219 -3.023438 -6.191406 -3.035156 C -6.160156 -2.984375 -6.160156 -2.941406 -6.191406 -2.914062 Z M -6.21875 -3.316406 L -6.320312 -3.265625 C -6.320312 -3.285156 -6.332031 -3.296875 -6.339844 -3.308594 C -6.351562 -3.316406 -6.363281 -3.328125 -6.371094 -3.347656 C -6.351562 -3.347656 -6.351562 -3.347656 -6.351562 -3.367188 C -6.332031 -3.347656 -6.3125 -3.347656 -6.289062 -3.347656 C -6.261719 -3.347656 -6.238281 -3.335938 -6.21875 -3.316406 Z M -5.390625 -5.644531 C -5.453125 -5.644531 -5.492188 -5.632812 -5.511719 -5.632812 C -5.472656 -5.664062 -5.429688 -5.664062 -5.390625 -5.644531 Z M -5.035156 -5.996094 C -5.035156 -6.007812 -5.046875 -6.027344 -5.066406 -6.046875 C -5.085938 -6.066406 -5.097656 -6.089844 -5.105469 -6.109375 C -5.085938 -6.097656 -5.066406 -6.089844 -5.058594 -6.078125 C -5.046875 -6.066406 -5.046875 -6.058594 -5.046875 -6.039062 C -5.046875 -6.019531 -5.035156 -5.996094 -5.035156 -5.996094 L -5.1875 -5.945312 C -5.1875 -5.957031 -5.1875 -5.96875 -5.199219 -5.976562 C -5.179688 -5.976562 -5.167969 -5.976562 -5.15625 -5.988281 C -5.148438 -5.988281 -5.136719 -5.996094 -5.136719 -5.996094 C -5.128906 -5.996094 -5.105469 -5.996094 -5.085938 -5.996094 C -5.058594 -5.996094 -5.035156 -5.996094 -5.035156 -5.996094 Z M -5.371094 -5.785156 C -5.410156 -5.847656 -5.410156 -5.875 -5.371094 -5.886719 Z M -5.703125 -5.746094 L -5.734375 -5.714844 L -5.746094 -5.722656 C -5.746094 -5.722656 -5.753906 -5.734375 -5.753906 -5.746094 L -5.734375 -5.753906 L -5.722656 -5.746094 Z M -5.078125 -6.847656 C -5.085938 -6.804688 -5.128906 -6.804688 -5.1875 -6.835938 L -5.1875 -6.867188 L -5.078125 -6.898438 Z M -6.59375 -5.671875 C -6.605469 -5.671875 -6.613281 -5.664062 -6.613281 -5.664062 C -6.613281 -5.644531 -6.613281 -5.625 -6.625 -5.613281 C -6.632812 -5.625 -6.65625 -5.632812 -6.675781 -5.632812 C -6.675781 -5.644531 -6.695312 -5.652344 -6.714844 -5.671875 L -6.734375 -5.695312 L -6.734375 -5.722656 C -6.714844 -5.785156 -6.683594 -5.816406 -6.644531 -5.816406 C -6.605469 -5.796875 -6.59375 -5.746094 -6.59375 -5.671875 Z M -6.785156 -5.90625 C -6.855469 -5.96875 -6.898438 -5.996094 -6.898438 -5.996094 C -6.898438 -5.996094 -6.898438 -6.027344 -6.886719 -6.078125 L -6.796875 -6.046875 C -6.796875 -6.027344 -6.785156 -5.996094 -6.785156 -5.96875 C -6.785156 -5.9375 -6.785156 -5.917969 -6.785156 -5.90625 Z M -6.785156 -5.90625 "/></g></g></g></svg>