<svg xmlns="http://www.w3.org/2000/svg" xmlns:xlink="http://www.w3.org/1999/xlink" width="200" zoomAndPan="magnify" viewBox="0 0 150 74.999997" height="100" preserveAspectRatio="xMidYMid meet" version="1.0"><defs><g/><clipPath id="7f6eae25ad"><path d="M 22 14.472656 L 43 14.472656 L 43 27 L 22 27 Z M 22 14.472656 " clip-rule="nonzero"/></clipPath><clipPath id="1315f63aef"><path d="M 12.304688 37.71875 L 51.839844 37.71875 L 51.839844 60.222656 L 12.304688 60.222656 Z M 12.304688 37.71875 " clip-rule="nonzero"/></clipPath><clipPath id="581d01a642"><path d="M 3.652344 58.441406 L 60.589844 58.441406 L 60.589844 60.222656 L 3.652344 60.222656 Z M 3.652344 58.441406 " clip-rule="nonzero"/></clipPath><clipPath id="0c71fe42a6"><path d="M 17.089844 55.066406 L 47.207031 55.066406 L 47.207031 60.222656 L 17.089844 60.222656 Z M 17.089844 55.066406 " clip-rule="nonzero"/></clipPath></defs><path fill="#b3614b" d="M 23.476562 25.273438 C 23.175781 24.878906 23.109375 24.234375 23.058594 23.757812 C 22.890625 22.238281 22.90625 21.03125 23.050781 20.691406 C 23.136719 20.484375 23.578125 19.472656 24.621094 18.472656 C 26.304688 16.855469 29.078125 16.007812 30.492188 15.71875 C 31.632812 15.480469 32.839844 15.363281 34.023438 15.445312 C 34.679688 15.488281 35.371094 15.574219 36.007812 15.734375 C 36.535156 15.867188 37.054688 16.117188 37.371094 16.554688 C 37.710938 17.027344 37.792969 17.625 38.203125 18.054688 C 38.644531 18.527344 39.253906 18.8125 39.707031 19.269531 C 40.316406 19.886719 40.921875 20.859375 41.007812 21.730469 C 41.089844 22.511719 40.742188 23.253906 40.34375 23.90625 C 40.273438 24.023438 39.441406 25.304688 39.328125 25.3125 C 39.324219 25.308594 39.320312 25.308594 39.320312 25.308594 C 39.15625 25.136719 38.769531 23.992188 37.410156 22.28125 C 37.027344 21.796875 36.847656 21.597656 36.703125 21.453125 C 36.601562 21.359375 36.300781 21.074219 35.855469 20.765625 C 35.710938 20.664062 35.402344 20.441406 35.316406 20.578125 C 35.148438 20.855469 34.859375 21.246094 34.382812 21.539062 C 33.652344 21.992188 32.910156 21.960938 32.25 21.945312 C 32.25 21.945312 30.0625 21.894531 27.6875 22.058594 C 26.824219 22.117188 25.90625 22.164062 25.128906 22.574219 C 24.125 23.105469 23.773438 24.214844 23.585938 25.253906 C 23.582031 25.277344 23.566406 25.296875 23.546875 25.304688 C 23.542969 25.304688 23.542969 25.304688 23.542969 25.304688 C 23.511719 25.316406 23.492188 25.292969 23.476562 25.273438 " fill-opacity="1" fill-rule="evenodd"/><path fill="#ebb39e" d="M 36.695312 40.523438 L 34.6875 42.304688 L 29.347656 42.304688 L 27.523438 40.601562 L 27.527344 40.597656 C 27.875 39.90625 28.253906 38.09375 28.269531 37.464844 C 28.285156 36.859375 28.179688 36.453125 28.066406 36.027344 C 29.292969 36.914062 30.453125 37.183594 30.714844 37.238281 C 32.191406 37.5625 33.363281 37.3125 33.667969 37.238281 C 34.792969 36.976562 35.558594 36.472656 35.929688 36.21875 C 35.839844 36.566406 35.765625 36.957031 35.777344 37.464844 C 35.808594 38.667969 36.261719 39.753906 36.695312 40.523438 " fill-opacity="1" fill-rule="evenodd"/><path fill="#f4baa6" d="M 28.066406 36.027344 C 27.953125 35.945312 27.835938 35.855469 27.722656 35.761719 C 27.378906 35.480469 26.09375 34.386719 25.402344 32.476562 C 25.179688 31.855469 25.042969 31.117188 24.992188 30.738281 C 22.988281 30.160156 21.679688 27.207031 23.871094 25.308594 L 23.871094 25.304688 C 23.894531 25.296875 23.910156 25.277344 23.914062 25.253906 C 24.101562 24.214844 24.449219 23.105469 25.453125 22.578125 C 26.230469 22.164062 27.152344 22.117188 28.015625 22.058594 C 30.386719 21.894531 32.578125 21.945312 32.578125 21.945312 C 33.238281 21.960938 33.980469 21.992188 34.710938 21.539062 C 35.183594 21.246094 35.476562 20.855469 35.644531 20.578125 C 35.726562 20.441406 36.035156 20.664062 36.179688 20.765625 C 36.628906 21.074219 36.929688 21.359375 37.027344 21.453125 C 37.175781 21.597656 37.355469 21.796875 37.738281 22.28125 C 39.097656 23.992188 39.480469 25.136719 39.644531 25.308594 C 39.648438 25.3125 39.652344 25.3125 39.652344 25.3125 C 42.1875 26.128906 41.328125 30.363281 39.371094 30.691406 C 39.152344 31.703125 38.65625 33.414062 37.445312 34.839844 C 36.769531 35.636719 36.113281 36.09375 35.949219 36.207031 C 35.945312 36.210938 35.9375 36.214844 35.929688 36.21875 C 35.558594 36.472656 34.792969 36.976562 33.667969 37.242188 C 33.363281 37.3125 32.191406 37.5625 30.714844 37.242188 C 30.453125 37.183594 29.292969 36.914062 28.066406 36.027344 " fill-opacity="1" fill-rule="evenodd"/><path fill="#6a8899" d="M 46.261719 56.09375 L 46.261719 56.511719 C 46.261719 58.082031 44.980469 59.351562 43.402344 59.351562 L 20.839844 59.351562 C 19.261719 59.351562 17.980469 58.082031 17.980469 56.511719 L 17.980469 56.09375 L 46.261719 56.09375 " fill-opacity="1" fill-rule="evenodd"/><path fill="#6a8899" d="M 44.320312 43.777344 L 44.320312 56.09375 L 19.921875 56.09375 L 19.921875 43.777344 C 19.921875 42.960938 20.585938 42.304688 21.40625 42.304688 L 42.835938 42.304688 C 43.65625 42.304688 44.320312 42.960938 44.320312 43.777344 " fill-opacity="1" fill-rule="evenodd"/><path fill="#f7e07f" d="M 17.980469 56.511719 C 17.980469 58.082031 19.261719 59.351562 20.839844 59.351562 L 13.308594 59.351562 C 13.304688 57.839844 13.320312 50.507812 14.726562 46.003906 C 15.070312 44.898438 15.46875 44.058594 15.980469 43.285156 C 16.269531 42.855469 17.527344 41.039062 19.988281 39.792969 C 22.273438 38.640625 24.394531 38.589844 25.410156 38.628906 L 27.523438 40.601562 L 29.347656 42.304688 L 21.40625 42.304688 C 20.585938 42.304688 19.921875 42.960938 19.921875 43.777344 L 19.921875 56.09375 L 17.980469 56.09375 L 17.980469 56.511719 " fill-opacity="1" fill-rule="evenodd"/><path fill="#f7e07f" d="M 49.515625 46.003906 C 50.921875 50.507812 50.9375 57.839844 50.929688 59.351562 L 43.402344 59.351562 C 44.980469 59.351562 46.261719 58.082031 46.261719 56.511719 L 46.261719 56.09375 L 44.320312 56.09375 L 44.320312 43.777344 C 44.320312 42.960938 43.65625 42.304688 42.835938 42.304688 L 34.6875 42.304688 L 36.695312 40.523438 L 38.832031 38.628906 C 39.847656 38.589844 41.96875 38.640625 44.253906 39.792969 C 46.714844 41.039062 47.972656 42.855469 48.257812 43.285156 C 48.773438 44.058594 49.171875 44.898438 49.515625 46.003906 " fill-opacity="1" fill-rule="evenodd"/><g clip-path="url(#7f6eae25ad)"><path fill="#333333" d="M 39.65625 26.195312 C 39.410156 26.195312 39.167969 26.09375 39 25.917969 C 38.863281 25.773438 38.78125 25.609375 38.640625 25.335938 C 38.402344 24.863281 37.957031 23.984375 37.039062 22.828125 C 36.660156 22.347656 36.511719 22.1875 36.40625 22.085938 C 36.332031 22.015625 36.167969 21.859375 35.925781 21.675781 C 35.703125 21.914062 35.453125 22.121094 35.179688 22.292969 C 34.242188 22.871094 33.296875 22.847656 32.605469 22.832031 L 32.554688 22.832031 C 32.535156 22.832031 30.378906 22.78125 28.074219 22.941406 L 27.964844 22.949219 C 27.21875 23 26.449219 23.050781 25.871094 23.355469 C 25.320312 23.648438 24.996094 24.261719 24.789062 25.410156 C 24.726562 25.746094 24.488281 26.027344 24.167969 26.140625 C 23.773438 26.277344 23.351562 26.148438 23.09375 25.808594 C 22.648438 25.222656 22.5625 24.441406 22.5 23.875 L 22.5 23.855469 C 22.410156 23.050781 22.238281 21.101562 22.558594 20.347656 C 22.730469 19.941406 23.246094 18.878906 24.328125 17.839844 C 26.457031 15.796875 29.957031 14.992188 30.636719 14.851562 C 31.964844 14.578125 33.234375 14.480469 34.410156 14.5625 C 35.238281 14.621094 35.941406 14.722656 36.554688 14.878906 C 37.375 15.085938 38.023438 15.488281 38.421875 16.042969 C 38.628906 16.328125 38.753906 16.621094 38.867188 16.878906 C 38.96875 17.117188 39.058594 17.324219 39.179688 17.453125 C 39.347656 17.632812 39.574219 17.792969 39.816406 17.964844 C 40.089844 18.15625 40.394531 18.375 40.667969 18.652344 C 41.34375 19.335938 42.105469 20.480469 42.222656 21.640625 C 42.332031 22.726562 41.855469 23.667969 41.433594 24.363281 C 41.382812 24.445312 41.148438 24.808594 40.914062 25.148438 C 40.441406 25.835938 40.210938 26.140625 39.75 26.191406 C 39.71875 26.195312 39.6875 26.195312 39.65625 26.195312 Z M 40.355469 24.78125 Z M 35.730469 19.652344 C 36.128906 19.652344 36.457031 19.878906 36.667969 20.023438 L 36.6875 20.039062 C 37.15625 20.363281 37.492188 20.667969 37.648438 20.820312 C 37.820312 20.988281 38.019531 21.207031 38.4375 21.730469 C 39.042969 22.496094 39.464844 23.152344 39.765625 23.671875 C 39.828125 23.574219 39.878906 23.496094 39.910156 23.449219 C 40.328125 22.761719 40.496094 22.257812 40.449219 21.816406 C 40.394531 21.253906 39.960938 20.460938 39.398438 19.890625 C 39.234375 19.722656 39.015625 19.570312 38.785156 19.40625 C 38.496094 19.199219 38.167969 18.96875 37.878906 18.660156 C 37.542969 18.304688 37.367188 17.898438 37.230469 17.574219 C 37.144531 17.375 37.066406 17.199219 36.972656 17.070312 C 36.824219 16.863281 36.519531 16.691406 36.117188 16.589844 C 35.605469 16.460938 35.007812 16.375 34.285156 16.324219 C 33.273438 16.257812 32.164062 16.34375 30.996094 16.582031 C 29.351562 16.921875 26.941406 17.789062 25.566406 19.109375 C 24.714844 19.925781 24.316406 20.753906 24.203125 21.015625 C 24.167969 21.15625 24.128906 21.652344 24.171875 22.464844 C 24.40625 22.207031 24.691406 21.976562 25.035156 21.792969 C 25.949219 21.3125 26.957031 21.242188 27.84375 21.183594 L 27.953125 21.175781 C 30.339844 21.011719 32.507812 21.058594 32.597656 21.0625 L 32.648438 21.0625 C 33.242188 21.078125 33.753906 21.089844 34.238281 20.789062 C 34.488281 20.632812 34.707031 20.40625 34.882812 20.121094 C 35.023438 19.890625 35.246094 19.730469 35.515625 19.671875 C 35.589844 19.65625 35.660156 19.652344 35.730469 19.652344 Z M 36.410156 21.03125 Z M 24.207031 21.007812 Z M 24.207031 21.007812 " fill-opacity="1" fill-rule="evenodd"/></g><path fill="#333333" d="M 32.207031 38.285156 C 31.707031 38.285156 31.136719 38.238281 30.523438 38.105469 C 29.976562 37.984375 28.554688 37.582031 27.160156 36.449219 C 26.492188 35.902344 25.265625 34.699219 24.566406 32.773438 C 24.390625 32.285156 24.269531 31.761719 24.199219 31.382812 C 23.730469 31.160156 23.300781 30.835938 22.933594 30.429688 C 22.441406 29.882812 22.097656 29.21875 21.941406 28.515625 C 21.621094 27.074219 22.109375 25.664062 23.285156 24.640625 C 23.65625 24.320312 24.21875 24.359375 24.539062 24.726562 C 24.863281 25.09375 24.824219 25.652344 24.457031 25.976562 C 23.582031 26.730469 23.550781 27.566406 23.675781 28.132812 C 23.859375 28.953125 24.503906 29.675781 25.242188 29.890625 C 25.578125 29.988281 25.828125 30.273438 25.875 30.621094 C 25.929688 31.019531 26.058594 31.667969 26.242188 32.175781 C 26.8125 33.757812 27.863281 34.734375 28.285156 35.078125 C 29.382812 35.972656 30.484375 36.285156 30.90625 36.378906 C 32.105469 36.640625 33.09375 36.464844 33.464844 36.378906 C 34.472656 36.144531 35.15625 35.675781 35.445312 35.476562 C 35.65625 35.335938 36.207031 34.929688 36.765625 34.269531 C 37.578125 33.316406 38.175781 32.015625 38.5 30.503906 C 38.578125 30.152344 38.863281 29.878906 39.222656 29.816406 C 39.796875 29.722656 40.53125 28.734375 40.613281 27.601562 C 40.667969 26.824219 40.40625 26.332031 39.828125 26.152344 C 39.363281 26 39.105469 25.503906 39.253906 25.039062 C 39.40625 24.574219 39.90625 24.316406 40.375 24.46875 C 41.105469 24.699219 41.675781 25.167969 42.023438 25.816406 C 42.3125 26.359375 42.4375 27.019531 42.386719 27.730469 C 42.28125 29.183594 41.425781 30.804688 40.121094 31.378906 C 39.714844 32.976562 39.042969 34.332031 38.125 35.410156 C 37.449219 36.203125 36.789062 36.707031 36.453125 36.933594 C 36.113281 37.167969 35.207031 37.789062 33.875 38.101562 C 33.515625 38.183594 32.933594 38.285156 32.207031 38.285156 " fill-opacity="1" fill-rule="evenodd"/><path fill="#333333" d="M 27.527344 41.132812 C 27.394531 41.132812 27.257812 41.101562 27.132812 41.039062 C 26.691406 40.824219 26.511719 40.292969 26.730469 39.855469 C 26.960938 39.390625 27.355469 38.460938 27.382812 37.445312 C 27.390625 37.050781 27.339844 36.871094 27.253906 36.574219 C 27.230469 36.488281 27.203125 36.390625 27.175781 36.289062 C 27.054688 35.8125 27.339844 35.332031 27.816406 35.210938 C 28.292969 35.089844 28.777344 35.375 28.898438 35.847656 C 28.921875 35.929688 28.941406 36.007812 28.964844 36.089844 C 29.070312 36.453125 29.175781 36.828125 29.160156 37.488281 C 29.125 38.847656 28.621094 40.046875 28.324219 40.640625 C 28.167969 40.949219 27.855469 41.132812 27.527344 41.132812 " fill-opacity="1" fill-rule="evenodd"/><path fill="#333333" d="M 36.695312 41.40625 C 36.386719 41.40625 36.082031 41.246094 35.917969 40.957031 C 35.46875 40.160156 34.925781 38.910156 34.890625 37.488281 C 34.871094 36.828125 34.980469 36.453125 35.082031 36.089844 C 35.089844 36.054688 35.101562 36.023438 35.113281 35.988281 C 35.242188 35.515625 35.734375 35.242188 36.207031 35.371094 C 36.679688 35.503906 36.957031 35.988281 36.824219 36.460938 C 36.816406 36.5 36.804688 36.535156 36.792969 36.574219 C 36.710938 36.871094 36.65625 37.050781 36.667969 37.445312 C 36.695312 38.503906 37.121094 39.46875 37.472656 40.089844 C 37.710938 40.515625 37.558594 41.054688 37.128906 41.292969 C 36.992188 41.371094 36.84375 41.40625 36.695312 41.40625 " fill-opacity="1" fill-rule="evenodd"/><g clip-path="url(#1315f63aef)"><path fill="#333333" d="M 50.929688 60.238281 L 13.308594 60.238281 C 12.820312 60.238281 12.421875 59.84375 12.421875 59.355469 C 12.414062 56.691406 12.539062 50.027344 13.875 45.742188 C 14.230469 44.597656 14.667969 43.660156 15.242188 42.796875 C 15.722656 42.078125 17.105469 40.257812 19.585938 39.007812 C 21.855469 37.859375 24.027344 37.6875 25.449219 37.746094 C 25.660156 37.753906 25.863281 37.839844 26.019531 37.984375 L 29.957031 41.65625 C 30.3125 41.992188 30.332031 42.550781 29.996094 42.90625 C 29.660156 43.261719 29.097656 43.28125 28.738281 42.945312 L 25.050781 39.503906 C 23.847656 39.492188 22.152344 39.691406 20.394531 40.582031 C 18.292969 41.644531 17.128906 43.167969 16.726562 43.773438 C 16.238281 44.503906 15.886719 45.269531 15.574219 46.265625 C 14.425781 49.953125 14.230469 55.777344 14.203125 58.46875 L 50.039062 58.46875 C 50.015625 55.777344 49.816406 49.953125 48.667969 46.265625 C 48.359375 45.269531 48.003906 44.503906 47.519531 43.773438 C 47.117188 43.167969 45.953125 41.644531 43.851562 40.582031 C 42.082031 39.6875 40.382812 39.492188 39.179688 39.503906 L 35.28125 42.960938 C 34.914062 43.285156 34.351562 43.253906 34.023438 42.890625 C 33.695312 42.527344 33.730469 41.96875 34.09375 41.640625 L 38.238281 37.96875 C 38.394531 37.832031 38.589844 37.753906 38.792969 37.746094 C 40.214844 37.6875 42.386719 37.859375 44.65625 39.003906 C 47.136719 40.257812 48.523438 42.074219 49 42.796875 C 49.574219 43.660156 50.007812 44.597656 50.367188 45.742188 C 51.707031 50.027344 51.828125 56.691406 51.820312 59.355469 C 51.820312 59.84375 51.421875 60.238281 50.929688 60.238281 " fill-opacity="1" fill-rule="evenodd"/></g><g clip-path="url(#581d01a642)"><path fill="#333333" d="M 59.699219 60.238281 L 4.542969 60.238281 C 4.054688 60.238281 3.652344 59.839844 3.652344 59.351562 C 3.652344 58.863281 4.054688 58.46875 4.542969 58.46875 L 59.699219 58.46875 C 60.1875 58.46875 60.589844 58.863281 60.589844 59.351562 C 60.589844 59.839844 60.1875 60.238281 59.699219 60.238281 " fill-opacity="1" fill-rule="evenodd"/></g><g clip-path="url(#0c71fe42a6)"><path fill="#333333" d="M 43.402344 60.238281 L 20.839844 60.238281 C 18.773438 60.238281 17.089844 58.566406 17.089844 56.511719 L 17.089844 56.09375 C 17.089844 55.605469 17.488281 55.210938 17.980469 55.210938 L 46.261719 55.210938 C 46.753906 55.210938 47.152344 55.605469 47.152344 56.09375 L 47.152344 56.511719 C 47.152344 58.566406 45.46875 60.238281 43.402344 60.238281 Z M 18.925781 56.976562 C 19.136719 57.832031 19.914062 58.46875 20.839844 58.46875 L 43.402344 58.46875 C 44.328125 58.46875 45.101562 57.832031 45.316406 56.976562 L 18.925781 56.976562 " fill-opacity="1" fill-rule="evenodd"/></g><path fill="#333333" d="M 44.320312 56.976562 L 19.921875 56.976562 C 19.429688 56.976562 19.03125 56.582031 19.03125 56.09375 L 19.03125 43.777344 C 19.03125 42.476562 20.097656 41.417969 21.40625 41.417969 L 42.835938 41.417969 C 44.144531 41.417969 45.210938 42.476562 45.210938 43.777344 L 45.210938 56.09375 C 45.210938 56.582031 44.8125 56.976562 44.320312 56.976562 Z M 20.8125 55.210938 L 43.429688 55.210938 L 43.429688 43.777344 C 43.429688 43.453125 43.164062 43.1875 42.835938 43.1875 L 21.40625 43.1875 C 21.078125 43.1875 20.8125 43.453125 20.8125 43.777344 L 20.8125 55.210938 " fill-opacity="1" fill-rule="evenodd"/><path fill="#333333" d="M 28.609375 52.574219 C 28.421875 52.574219 28.230469 52.515625 28.070312 52.390625 L 24.789062 49.902344 C 24.570312 49.734375 24.4375 49.472656 24.4375 49.199219 C 24.4375 48.921875 24.570312 48.664062 24.789062 48.496094 L 28.070312 46.003906 C 28.460938 45.707031 29.019531 45.78125 29.316406 46.171875 C 29.613281 46.558594 29.539062 47.113281 29.148438 47.410156 L 26.792969 49.199219 L 29.148438 50.988281 C 29.539062 51.285156 29.613281 51.839844 29.316406 52.226562 C 29.140625 52.453125 28.875 52.574219 28.609375 52.574219 " fill-opacity="1" fill-rule="evenodd"/><path fill="#333333" d="M 35.632812 52.574219 C 35.367188 52.574219 35.101562 52.453125 34.925781 52.226562 C 34.628906 51.839844 34.703125 51.285156 35.09375 50.988281 L 37.449219 49.199219 L 35.09375 47.410156 C 34.703125 47.113281 34.628906 46.558594 34.925781 46.171875 C 35.222656 45.78125 35.78125 45.707031 36.171875 46.003906 L 39.453125 48.496094 C 39.675781 48.664062 39.804688 48.921875 39.804688 49.199219 C 39.804688 49.472656 39.671875 49.734375 39.453125 49.902344 L 36.171875 52.390625 C 36.011719 52.515625 35.820312 52.574219 35.632812 52.574219 " fill-opacity="1" fill-rule="evenodd"/><path fill="#333333" d="M 31.050781 53.898438 C 30.96875 53.898438 30.890625 53.886719 30.808594 53.863281 C 30.335938 53.730469 30.058594 53.246094 30.191406 52.773438 L 32.335938 45.148438 C 32.46875 44.675781 32.960938 44.402344 33.433594 44.535156 C 33.90625 44.664062 34.183594 45.152344 34.050781 45.625 L 31.90625 53.25 C 31.796875 53.640625 31.4375 53.898438 31.050781 53.898438 " fill-opacity="1" fill-rule="evenodd"/><g fill="#000000" fill-opacity="1"><g transform="translate(46.117173, 30.42937)"><g><path d="M 11.867188 -9.027344 L 11.921875 -9.105469 C 12 -11.597656 10.238281 -13.417969 5.195312 -13.417969 L 1.957031 -13.417969 C 1.648438 -13.417969 1.535156 -13.226562 1.535156 -12.921875 L 1.535156 -0.5 C 1.535156 -0.191406 1.648438 0 1.957031 0 L 6.171875 0 C 10.90625 0 12.632812 -1.167969 12.632812 -3.585938 C 12.632812 -5.636719 10.273438 -6.671875 7.589844 -6.671875 Z M 5.195312 -13.152344 C 7.976562 -13.152344 8.875 -12.019531 8.875 -10.101562 C 8.875 -9.203125 8.300781 -6.691406 5.789062 -6.691406 L 5.003906 -6.691406 L 5.003906 -13.152344 Z M 5.789062 -6.421875 C 7.917969 -6.421875 9.027344 -5.234375 9.027344 -3.316406 C 9.027344 -1.800781 7.917969 -0.269531 5.789062 -0.269531 L 5.003906 -0.269531 L 5.003906 -6.421875 Z M 5.789062 -6.421875 "/></g></g></g><g fill="#000000" fill-opacity="1"><g transform="translate(58.781529, 30.42937)"><g><path d="M 2.089844 -10.582031 C 1.78125 -10.582031 1.667969 -10.390625 1.667969 -10.082031 L 1.667969 -0.5 C 1.667969 -0.191406 1.78125 0 2.089844 0 L 4.523438 0 C 4.832031 0 4.945312 -0.191406 4.945312 -0.5 L 4.945312 -10.082031 C 4.945312 -10.390625 4.832031 -10.582031 4.523438 -10.582031 Z M 1.535156 -13.378906 C 1.535156 -12.402344 2.320312 -11.617188 3.296875 -11.617188 C 4.273438 -11.617188 5.0625 -12.402344 5.0625 -13.378906 C 5.0625 -14.359375 4.273438 -15.144531 3.296875 -15.144531 C 2.320312 -15.144531 1.535156 -14.359375 1.535156 -13.378906 Z M 1.535156 -13.378906 "/></g></g></g><g fill="#000000" fill-opacity="1"><g transform="translate(64.739853, 30.42937)"><g><path d="M 10.257812 -3.007812 C 10.257812 -3.316406 10.140625 -3.507812 9.835938 -3.507812 L 9.71875 -3.507812 C 9.449219 -3.507812 9.125 -3.257812 8.855469 -3.046875 L 5.558594 -0.269531 L 4.8125 -0.269531 L 4.8125 -10.082031 C 4.8125 -10.390625 4.695312 -10.582031 4.390625 -10.582031 L 1.957031 -10.582031 C 1.648438 -10.582031 1.535156 -10.390625 1.535156 -10.082031 L 1.535156 -0.5 C 1.535156 -0.191406 1.648438 0 1.957031 0 L 9.835938 0 C 10.140625 0 10.257812 -0.191406 10.257812 -0.5 Z M 10.257812 -3.007812 "/></g></g></g><g fill="#000000" fill-opacity="1"><g transform="translate(74.645152, 30.42937)"><g><path d="M 11.082031 -4.886719 C 11.097656 -5.195312 10.984375 -5.328125 10.640625 -5.328125 L 8.570312 -5.328125 C 8.242188 -5.328125 8.148438 -5.214844 8.128906 -4.886719 L 7.878906 -0.0390625 L 6.84375 -0.0390625 C 5.386719 -0.0390625 4.027344 -2.339844 4.027344 -5.328125 C 4.027344 -8.320312 5.425781 -10.390625 6.882812 -10.390625 L 9.988281 -7.554688 C 10.121094 -7.417969 10.257812 -7.359375 10.410156 -7.359375 C 10.484375 -7.359375 10.542969 -7.378906 10.621094 -7.398438 L 10.851562 -7.496094 C 11.042969 -7.570312 11.117188 -7.6875 11.117188 -7.957031 L 11.117188 -9.851562 C 11.117188 -10.160156 11.042969 -10.3125 10.695312 -10.351562 L 7.917969 -10.621094 L 6.613281 -10.621094 C 3.585938 -10.621094 0.765625 -9.988281 0.765625 -5.328125 C 0.765625 -0.671875 3.546875 0.191406 6.574219 0.191406 L 10.640625 0.0390625 C 10.964844 0.0195312 11.0625 -0.078125 11.082031 -0.402344 Z M 11.082031 -4.886719 "/></g></g></g><g fill="#000000" fill-opacity="1"><g transform="translate(86.562267, 30.42937)"><g><path d="M 2.089844 -10.582031 C 1.78125 -10.582031 1.667969 -10.390625 1.667969 -10.082031 L 1.667969 -0.5 C 1.667969 -0.191406 1.78125 0 2.089844 0 L 4.523438 0 C 4.832031 0 4.945312 -0.191406 4.945312 -0.5 L 4.945312 -10.082031 C 4.945312 -10.390625 4.832031 -10.582031 4.523438 -10.582031 Z M 1.535156 -13.378906 C 1.535156 -12.402344 2.320312 -11.617188 3.296875 -11.617188 C 4.273438 -11.617188 5.0625 -12.402344 5.0625 -13.378906 C 5.0625 -14.359375 4.273438 -15.144531 3.296875 -15.144531 C 2.320312 -15.144531 1.535156 -14.359375 1.535156 -13.378906 Z M 1.535156 -13.378906 "/></g></g></g><g fill="#000000" fill-opacity="1"><g transform="translate(92.520593, 30.42937)"><g><path d="M 6.652344 -6.691406 C 5.097656 -7.132812 4.464844 -7.957031 4.464844 -8.933594 C 4.464844 -9.988281 5.367188 -10.503906 6.363281 -10.503906 L 6.804688 -10.503906 L 9.011719 -7.6875 C 9.238281 -7.378906 9.414062 -7.1875 9.625 -7.1875 L 9.757812 -7.1875 C 9.96875 -7.1875 10.027344 -7.324219 10.027344 -7.535156 L 10.007812 -10.027344 C 10.007812 -10.332031 9.910156 -10.484375 9.585938 -10.523438 L 7.359375 -10.773438 L 6.269531 -10.773438 C 2.972656 -10.773438 1.246094 -9.507812 1.246094 -8.03125 C 1.246094 -6.289062 1.957031 -5.328125 5.445312 -4.273438 C 7.152344 -3.757812 7.398438 -3.203125 7.398438 -2.128906 C 7.398438 -1.074219 6.765625 -0.078125 5.5 -0.078125 L 5.117188 -0.078125 L 2.339844 -3.835938 C 2.109375 -4.140625 1.9375 -4.332031 1.726562 -4.332031 L 1.589844 -4.332031 C 1.378906 -4.332031 1.324219 -4.199219 1.324219 -3.988281 L 1.34375 -0.5 C 1.34375 -0.191406 1.457031 -0.0195312 1.761719 0 L 4.5625 0.191406 L 5.597656 0.191406 C 8.683594 0.191406 10.582031 -0.765625 10.582031 -3.066406 C 10.582031 -5.078125 9.296875 -5.941406 6.652344 -6.691406 Z M 6.652344 -6.691406 "/></g></g></g><g fill="#000000" fill-opacity="1"><g transform="translate(103.422217, 30.42937)"><g><path d="M 6.84375 -10.082031 C 6.730469 -10.351562 6.480469 -10.582031 6.152344 -10.582031 L 5.175781 -10.582031 C 4.90625 -10.582031 4.640625 -10.351562 4.523438 -10.082031 L 0.230469 -0.5 C 0.132812 -0.25 0.230469 0 0.535156 0 L 3.296875 0 C 3.699219 0 3.851562 -0.210938 3.71875 -0.5 L 2.300781 -3.660156 L 6.113281 -3.660156 L 7.535156 -0.5 C 7.667969 -0.210938 7.878906 0 8.222656 0 L 10.832031 0 C 11.136719 0 11.234375 -0.25 11.136719 -0.5 Z M 6 -3.929688 L 2.089844 -3.929688 L 4.027344 -8.359375 Z M 6 -3.929688 "/></g></g></g><g fill="#000000" fill-opacity="1"><g transform="translate(114.151401, 30.42937)"><g><path d="M 4.101562 -10.082031 C 3.929688 -10.371094 3.699219 -10.582031 3.296875 -10.582031 L 0.554688 -10.582031 C 0.25 -10.582031 0.113281 -10.332031 0.25 -10.082031 L 3.546875 -4.160156 L 3.546875 -0.5 C 3.546875 -0.191406 3.660156 0 3.96875 0 L 6.402344 0 C 6.710938 0 6.824219 -0.191406 6.824219 -0.5 L 6.824219 -4.140625 L 10.121094 -10.082031 C 10.21875 -10.332031 10.121094 -10.582031 9.816406 -10.582031 L 6.921875 -10.582031 C 6.519531 -10.582031 6.535156 -10.332031 6.710938 -10.082031 L 8.222656 -7.132812 L 6.824219 -4.773438 Z M 4.101562 -10.082031 "/></g></g></g><g fill="#000000" fill-opacity="1"><g transform="translate(123.865105, 30.42937)"><g><path d="M 6.84375 -10.082031 C 6.730469 -10.351562 6.480469 -10.582031 6.152344 -10.582031 L 5.175781 -10.582031 C 4.90625 -10.582031 4.640625 -10.351562 4.523438 -10.082031 L 0.230469 -0.5 C 0.132812 -0.25 0.230469 0 0.535156 0 L 3.296875 0 C 3.699219 0 3.851562 -0.210938 3.71875 -0.5 L 2.300781 -3.660156 L 6.113281 -3.660156 L 7.535156 -0.5 C 7.667969 -0.210938 7.878906 0 8.222656 0 L 10.832031 0 C 11.136719 0 11.234375 -0.25 11.136719 -0.5 Z M 6 -3.929688 L 2.089844 -3.929688 L 4.027344 -8.359375 Z M 6 -3.929688 "/></g></g></g><g fill="#000000" fill-opacity="1"><g transform="translate(134.594289, 30.42937)"><g><path d="M 11.65625 0 C 11.980469 0 12.078125 -0.269531 11.90625 -0.5 L 9.699219 -3.394531 C 9.566406 -3.566406 9.335938 -3.566406 9.125 -3.566406 C 7.246094 -3.566406 6.441406 -4.160156 5.941406 -4.753906 L 6.402344 -4.753906 C 9.394531 -4.753906 10.945312 -5.347656 10.945312 -7.765625 C 10.945312 -9.988281 9.394531 -10.582031 6.402344 -10.582031 L 1.957031 -10.582031 C 1.648438 -10.582031 1.535156 -10.390625 1.535156 -10.082031 L 1.535156 -0.5 C 1.535156 -0.191406 1.648438 0 1.957031 0 L 4.390625 0 C 4.695312 0 4.8125 -0.191406 4.8125 -0.5 L 4.8125 -4.753906 L 5.578125 -4.753906 L 8.511719 -0.5 C 8.742188 -0.191406 9.046875 0 9.355469 0 Z M 5.769531 -10.3125 C 6.921875 -10.3125 7.648438 -10.160156 7.648438 -7.765625 C 7.648438 -5.367188 6.921875 -5.023438 5.769531 -5.023438 L 4.8125 -5.023438 L 4.8125 -10.3125 Z M 5.769531 -10.3125 "/></g></g></g><g fill="#6466f1" fill-opacity="1"><g transform="translate(60.901236, 49.599157)"><g><path d="M 0.566406 -1.085938 C 0.566406 -0.351562 1.144531 0.226562 1.878906 0.226562 C 2.613281 0.226562 3.21875 -0.351562 3.21875 -1.085938 C 3.21875 -1.820312 2.613281 -2.429688 1.878906 -2.429688 C 1.144531 -2.429688 0.566406 -1.820312 0.566406 -1.085938 Z M 0.566406 -1.085938 "/></g></g></g><g fill="#6466f1" fill-opacity="1"><g transform="translate(65.321446, 49.599157)"><g><path d="M 9.082031 -9.519531 C 9.082031 -9.746094 8.996094 -9.886719 8.769531 -9.886719 L 0.59375 -9.886719 C 0.367188 -9.886719 0.28125 -9.746094 0.28125 -9.519531 L 0.28125 -6.863281 C 0.28125 -6.707031 0.324219 -6.609375 0.480469 -6.609375 L 0.566406 -6.609375 C 0.691406 -6.609375 0.832031 -6.792969 0.960938 -6.976562 L 3.023438 -9.6875 L 3.472656 -9.6875 L 3.472656 -0.367188 C 3.472656 -0.140625 3.558594 0 3.785156 0 L 5.578125 0 C 5.804688 0 5.890625 -0.140625 5.890625 -0.367188 L 5.890625 -9.6875 L 6.339844 -9.6875 L 8.402344 -6.976562 C 8.542969 -6.792969 8.671875 -6.609375 8.796875 -6.609375 L 8.882812 -6.609375 C 9.039062 -6.609375 9.082031 -6.707031 9.082031 -6.863281 Z M 9.082031 -9.519531 "/></g></g></g><g fill="#6466f1" fill-opacity="1"><g transform="translate(75.319494, 49.599157)"><g><path d="M 1.582031 -9.886719 C 1.355469 -9.886719 1.269531 -9.746094 1.269531 -9.519531 L 1.269531 -0.367188 C 1.269531 -0.140625 1.355469 0 1.582031 0 L 8.023438 0 C 8.21875 0 8.332031 -0.140625 8.417969 -0.367188 L 9.292969 -2.554688 C 9.320312 -2.625 9.347656 -2.699219 9.277344 -2.753906 L 9.109375 -2.882812 C 9.082031 -2.910156 9.050781 -2.910156 9.023438 -2.910156 C 8.980469 -2.910156 8.941406 -2.882812 8.882812 -2.851562 L 5.097656 -0.199219 L 3.6875 -0.199219 L 3.6875 -4.871094 L 7.570312 -4.800781 L 7.570312 -5.140625 L 3.6875 -5.070312 L 3.6875 -9.6875 L 5.097656 -9.6875 L 7.527344 -7.640625 C 7.726562 -7.484375 7.964844 -7.300781 8.164062 -7.300781 L 8.246094 -7.300781 C 8.472656 -7.300781 8.558594 -7.441406 8.558594 -7.667969 L 8.558594 -9.519531 C 8.558594 -9.746094 8.472656 -9.886719 8.246094 -9.886719 Z M 1.582031 -9.886719 "/></g></g></g><g fill="#000000" fill-opacity="1"><g transform="translate(85.569202, 49.599157)"><g><path d="M 2.613281 0 C 2.910156 0 3.007812 -0.15625 2.921875 -0.367188 L 1.878906 -2.699219 L 6.371094 -2.699219 L 7.414062 -0.367188 C 7.511719 -0.15625 7.667969 0 7.921875 0 L 9.984375 0 C 10.210938 0 10.28125 -0.183594 10.210938 -0.367188 L 6.113281 -9.519531 C 6.03125 -9.714844 5.847656 -9.886719 5.605469 -9.886719 L 4.746094 -9.886719 C 4.546875 -9.886719 4.351562 -9.714844 4.265625 -9.519531 L 0.167969 -0.367188 C 0.0976562 -0.183594 0.167969 0 0.394531 0 Z M 6.285156 -2.894531 L 1.792969 -2.894531 L 1.652344 -3.207031 L 3.898438 -8.246094 Z M 6.285156 -2.894531 "/></g></g></g><g fill="#6466f1" fill-opacity="1"><g transform="translate(96.573108, 49.599157)"><g><path d="M 0.566406 -4.957031 C 0.566406 -1.523438 2.429688 0.140625 5.859375 0.140625 L 9.152344 0 C 9.40625 -0.0273438 9.460938 -0.140625 9.460938 -0.367188 L 9.460938 -2.203125 C 9.460938 -2.402344 9.40625 -2.484375 9.265625 -2.542969 L 9.09375 -2.613281 C 9.039062 -2.625 8.996094 -2.640625 8.941406 -2.640625 C 8.828125 -2.640625 8.726562 -2.597656 8.628906 -2.5 L 6.058594 -0.0546875 C 4.503906 -0.0546875 3.25 -2.753906 3.25 -4.957031 C 3.25 -7.160156 4.503906 -9.859375 6.058594 -9.859375 L 8.628906 -7.414062 C 8.726562 -7.316406 8.828125 -7.273438 8.941406 -7.273438 C 8.996094 -7.273438 9.039062 -7.289062 9.09375 -7.300781 L 9.265625 -7.371094 C 9.40625 -7.429688 9.460938 -7.511719 9.460938 -7.710938 L 9.460938 -9.546875 C 9.460938 -9.773438 9.40625 -9.886719 9.152344 -9.914062 L 5.859375 -10.054688 C 2.429688 -10.054688 0.566406 -8.390625 0.566406 -4.957031 Z M 0.566406 -4.957031 "/></g></g></g><g fill="#6466f1" fill-opacity="1"><g transform="translate(107.587884, 49.599157)"><g><path d="M 9.644531 -9.519531 C 9.644531 -9.746094 9.5625 -9.886719 9.335938 -9.886719 L 7.542969 -9.886719 C 7.316406 -9.886719 7.230469 -9.746094 7.230469 -9.519531 L 7.230469 -5.238281 L 3.6875 -5.238281 L 3.6875 -9.519531 C 3.6875 -9.746094 3.601562 -9.886719 3.375 -9.886719 L 1.582031 -9.886719 C 1.355469 -9.886719 1.269531 -9.746094 1.269531 -9.519531 L 1.269531 -0.367188 C 1.269531 -0.140625 1.355469 0 1.582031 0 L 3.375 0 C 3.601562 0 3.6875 -0.140625 3.6875 -0.367188 L 3.6875 -4.941406 L 7.230469 -4.941406 L 7.230469 -0.367188 C 7.230469 -0.140625 7.316406 0 7.542969 0 L 9.335938 0 C 9.5625 0 9.644531 -0.140625 9.644531 -0.367188 Z M 9.644531 -9.519531 "/></g></g></g><g fill="#000000" fill-opacity="1"><g transform="translate(119.1317, 49.599157)"><g><path d="M 1.582031 -9.886719 C 1.355469 -9.886719 1.269531 -9.746094 1.269531 -9.519531 L 1.269531 -0.367188 C 1.269531 -0.140625 1.355469 0 1.582031 0 L 8.023438 0 C 8.21875 0 8.332031 -0.140625 8.417969 -0.367188 L 9.292969 -2.554688 C 9.320312 -2.625 9.347656 -2.699219 9.277344 -2.753906 L 9.109375 -2.882812 C 9.082031 -2.910156 9.050781 -2.910156 9.023438 -2.910156 C 8.980469 -2.910156 8.941406 -2.882812 8.882812 -2.851562 L 5.097656 -0.199219 L 3.6875 -0.199219 L 3.6875 -4.871094 L 7.570312 -4.800781 L 7.570312 -5.140625 L 3.6875 -5.070312 L 3.6875 -9.6875 L 5.097656 -9.6875 L 7.527344 -7.640625 C 7.726562 -7.484375 7.964844 -7.300781 8.164062 -7.300781 L 8.246094 -7.300781 C 8.472656 -7.300781 8.558594 -7.441406 8.558594 -7.667969 L 8.558594 -9.519531 C 8.558594 -9.746094 8.472656 -9.886719 8.246094 -9.886719 Z M 1.582031 -9.886719 "/></g></g></g><g fill="#000000" fill-opacity="1"><g transform="translate(129.383933, 49.599157)"><g><path d="M 10.113281 0 C 10.351562 0 10.421875 -0.199219 10.296875 -0.367188 L 7.964844 -3.390625 C 7.867188 -3.515625 7.695312 -3.515625 7.542969 -3.515625 C 5.480469 -3.515625 4.984375 -3.925781 4.503906 -4.519531 L 5.085938 -4.519531 C 7.980469 -4.519531 9.066406 -5.523438 9.066406 -7.300781 C 9.066406 -9.222656 8.035156 -9.886719 5.085938 -9.886719 L 1.582031 -9.886719 C 1.355469 -9.886719 1.269531 -9.746094 1.269531 -9.519531 L 1.269531 -0.367188 C 1.269531 -0.140625 1.355469 0 1.582031 0 L 3.375 0 C 3.601562 0 3.6875 -0.140625 3.6875 -0.367188 L 3.6875 -4.519531 L 4.238281 -4.519531 L 7.386719 -0.367188 C 7.570312 -0.140625 7.78125 0 8.007812 0 Z M 4.617188 -9.6875 C 5.917969 -9.6875 6.480469 -9.066406 6.480469 -7.300781 C 6.480469 -5.535156 5.917969 -4.71875 4.617188 -4.71875 L 3.6875 -4.71875 L 3.6875 -9.6875 Z M 4.617188 -9.6875 "/></g></g></g></svg>