<svg xmlns="http://www.w3.org/2000/svg" xmlns:xlink="http://www.w3.org/1999/xlink" width="200" zoomAndPan="magnify" viewBox="0 0 150 74.999997" height="100" preserveAspectRatio="xMidYMid meet" version="1.0"><defs><g/><clipPath id="16f658cca1"><path d="M 19 13.824219 L 40 13.824219 L 40 26 L 19 26 Z M 19 13.824219 " clip-rule="nonzero"/></clipPath><clipPath id="ecf2177625"><path d="M 9.851562 37.066406 L 49.386719 37.066406 L 49.386719 59.574219 L 9.851562 59.574219 Z M 9.851562 37.066406 " clip-rule="nonzero"/></clipPath><clipPath id="4ee5e0b2ba"><path d="M 1.203125 57.792969 L 58.136719 57.792969 L 58.136719 59.574219 L 1.203125 59.574219 Z M 1.203125 57.792969 " clip-rule="nonzero"/></clipPath><clipPath id="45eeae448f"><path d="M 14.636719 54.414062 L 44.753906 54.414062 L 44.753906 59.574219 L 14.636719 59.574219 Z M 14.636719 54.414062 " clip-rule="nonzero"/></clipPath></defs><path fill="#b3614b" d="M 21.027344 24.625 C 20.722656 24.226562 20.65625 23.582031 20.605469 23.105469 C 20.4375 21.585938 20.453125 20.382812 20.597656 20.039062 C 20.683594 19.835938 21.125 18.824219 22.167969 17.824219 C 23.851562 16.207031 26.625 15.359375 28.039062 15.066406 C 29.179688 14.832031 30.386719 14.710938 31.570312 14.792969 C 32.226562 14.839844 32.917969 14.921875 33.554688 15.085938 C 34.082031 15.214844 34.601562 15.46875 34.917969 15.90625 C 35.257812 16.378906 35.339844 16.972656 35.75 17.40625 C 36.195312 17.878906 36.800781 18.160156 37.253906 18.621094 C 37.863281 19.238281 38.46875 20.207031 38.554688 21.078125 C 38.636719 21.863281 38.289062 22.601562 37.890625 23.253906 C 37.820312 23.371094 36.988281 24.65625 36.875 24.660156 C 36.871094 24.660156 36.867188 24.660156 36.867188 24.660156 C 36.703125 24.484375 36.316406 23.339844 34.960938 21.628906 C 34.574219 21.148438 34.394531 20.945312 34.25 20.804688 C 34.148438 20.707031 33.847656 20.421875 33.402344 20.113281 C 33.257812 20.015625 32.949219 19.789062 32.863281 19.929688 C 32.695312 20.207031 32.40625 20.59375 31.929688 20.890625 C 31.203125 21.34375 30.457031 21.3125 29.796875 21.296875 C 29.796875 21.296875 27.609375 21.246094 25.234375 21.40625 C 24.375 21.46875 23.453125 21.511719 22.675781 21.925781 C 21.671875 22.457031 21.324219 23.566406 21.132812 24.601562 C 21.128906 24.625 21.113281 24.648438 21.09375 24.65625 C 21.09375 24.65625 21.089844 24.65625 21.089844 24.65625 C 21.058594 24.667969 21.039062 24.644531 21.027344 24.625 " fill-opacity="1" fill-rule="evenodd"/><path fill="#ebb39e" d="M 34.242188 39.871094 L 32.234375 41.652344 L 26.894531 41.652344 L 25.070312 39.953125 L 25.074219 39.949219 C 25.421875 39.257812 25.800781 37.445312 25.816406 36.816406 C 25.832031 36.210938 25.726562 35.804688 25.613281 35.375 C 26.84375 36.261719 28 36.53125 28.261719 36.589844 C 29.738281 36.914062 30.914062 36.660156 31.214844 36.589844 C 32.339844 36.328125 33.105469 35.824219 33.476562 35.570312 C 33.386719 35.917969 33.3125 36.308594 33.324219 36.816406 C 33.355469 38.015625 33.808594 39.101562 34.242188 39.871094 " fill-opacity="1" fill-rule="evenodd"/><path fill="#f4baa6" d="M 25.613281 35.375 C 25.5 35.292969 25.382812 35.207031 25.269531 35.113281 C 24.925781 34.832031 23.640625 33.738281 22.949219 31.824219 C 22.726562 31.207031 22.589844 30.46875 22.539062 30.089844 C 20.535156 29.511719 19.226562 26.558594 21.417969 24.660156 L 21.417969 24.65625 C 21.441406 24.648438 21.457031 24.625 21.460938 24.601562 C 21.648438 23.566406 21.996094 22.457031 23 21.925781 C 23.777344 21.511719 24.699219 21.46875 25.5625 21.40625 C 27.9375 21.246094 30.125 21.296875 30.125 21.296875 C 30.785156 21.3125 31.527344 21.34375 32.257812 20.890625 C 32.730469 20.597656 33.023438 20.207031 33.191406 19.929688 C 33.273438 19.789062 33.582031 20.015625 33.726562 20.113281 C 34.175781 20.421875 34.476562 20.707031 34.574219 20.804688 C 34.722656 20.945312 34.902344 21.148438 35.285156 21.628906 C 36.644531 23.339844 37.027344 24.484375 37.191406 24.660156 C 37.195312 24.660156 37.199219 24.660156 37.199219 24.660156 C 39.734375 25.480469 38.875 29.710938 36.917969 30.039062 C 36.699219 31.050781 36.203125 32.765625 34.992188 34.191406 C 34.316406 34.988281 33.660156 35.445312 33.496094 35.554688 C 33.492188 35.5625 33.484375 35.566406 33.476562 35.570312 C 33.105469 35.824219 32.339844 36.328125 31.214844 36.589844 C 30.914062 36.660156 29.738281 36.914062 28.261719 36.589844 C 28 36.53125 26.84375 36.261719 25.613281 35.375 " fill-opacity="1" fill-rule="evenodd"/><path fill="#6a8899" d="M 43.808594 55.445312 L 43.808594 55.859375 C 43.808594 57.429688 42.527344 58.703125 40.949219 58.703125 L 18.386719 58.703125 C 16.808594 58.703125 15.527344 57.429688 15.527344 55.859375 L 15.527344 55.445312 L 43.808594 55.445312 " fill-opacity="1" fill-rule="evenodd"/><path fill="#6a8899" d="M 41.867188 43.125 L 41.867188 55.445312 L 17.46875 55.445312 L 17.46875 43.125 C 17.46875 42.3125 18.132812 41.652344 18.953125 41.652344 L 40.382812 41.652344 C 41.203125 41.652344 41.867188 42.3125 41.867188 43.125 " fill-opacity="1" fill-rule="evenodd"/><path fill="#f7e07f" d="M 15.527344 55.859375 C 15.527344 57.429688 16.808594 58.703125 18.386719 58.703125 L 10.859375 58.703125 C 10.851562 57.191406 10.867188 49.855469 12.273438 45.351562 C 12.617188 44.246094 13.015625 43.40625 13.53125 42.636719 C 13.816406 42.203125 15.078125 40.386719 17.535156 39.144531 C 19.824219 37.988281 21.941406 37.9375 22.957031 37.980469 L 25.070312 39.953125 L 26.894531 41.652344 L 18.953125 41.652344 C 18.132812 41.652344 17.46875 42.3125 17.46875 43.125 L 17.46875 55.445312 L 15.527344 55.445312 L 15.527344 55.859375 " fill-opacity="1" fill-rule="evenodd"/><path fill="#f7e07f" d="M 47.0625 45.351562 C 48.46875 49.855469 48.484375 57.191406 48.476562 58.703125 L 40.949219 58.703125 C 42.527344 58.703125 43.808594 57.429688 43.808594 55.859375 L 43.808594 55.445312 L 41.867188 55.445312 L 41.867188 43.125 C 41.867188 42.3125 41.203125 41.652344 40.382812 41.652344 L 32.234375 41.652344 L 34.242188 39.871094 L 36.378906 37.980469 C 37.394531 37.9375 39.515625 37.988281 41.800781 39.144531 C 44.261719 40.386719 45.519531 42.203125 45.808594 42.636719 C 46.320312 43.40625 46.71875 44.246094 47.0625 45.351562 " fill-opacity="1" fill-rule="evenodd"/><g clip-path="url(#16f658cca1)"><path fill="#333333" d="M 37.203125 25.546875 C 36.957031 25.546875 36.714844 25.445312 36.546875 25.265625 C 36.410156 25.121094 36.328125 24.957031 36.1875 24.683594 C 35.949219 24.210938 35.503906 23.332031 34.585938 22.175781 C 34.207031 21.699219 34.058594 21.539062 33.953125 21.4375 C 33.882812 21.367188 33.714844 21.210938 33.472656 21.027344 C 33.25 21.265625 33 21.472656 32.726562 21.640625 C 31.789062 22.222656 30.84375 22.199219 30.152344 22.183594 L 30.101562 22.183594 C 30.082031 22.179688 27.925781 22.132812 25.625 22.289062 L 25.511719 22.296875 C 24.769531 22.347656 23.996094 22.402344 23.417969 22.707031 C 22.867188 23 22.542969 23.613281 22.335938 24.761719 C 22.273438 25.097656 22.039062 25.378906 21.714844 25.492188 C 21.320312 25.628906 20.898438 25.5 20.640625 25.15625 C 20.195312 24.570312 20.109375 23.792969 20.046875 23.222656 L 20.046875 23.203125 C 19.957031 22.402344 19.785156 20.453125 20.105469 19.699219 C 20.277344 19.289062 20.792969 18.226562 21.875 17.1875 C 24.003906 15.148438 27.503906 14.34375 28.183594 14.203125 C 29.511719 13.929688 30.78125 13.832031 31.957031 13.914062 C 32.785156 13.96875 33.488281 14.074219 34.101562 14.226562 C 34.921875 14.433594 35.570312 14.835938 35.96875 15.390625 C 36.175781 15.675781 36.300781 15.972656 36.414062 16.230469 C 36.515625 16.46875 36.605469 16.675781 36.726562 16.804688 C 36.894531 16.980469 37.121094 17.144531 37.363281 17.316406 C 37.636719 17.507812 37.941406 17.722656 38.214844 18.003906 C 38.890625 18.683594 39.652344 19.828125 39.769531 20.992188 C 39.878906 22.078125 39.402344 23.015625 38.980469 23.714844 C 38.929688 23.792969 38.695312 24.15625 38.460938 24.496094 C 37.988281 25.1875 37.757812 25.492188 37.296875 25.542969 C 37.265625 25.542969 37.234375 25.546875 37.203125 25.546875 Z M 37.902344 24.128906 Z M 33.277344 19 C 33.675781 19 34.007812 19.230469 34.214844 19.375 L 34.234375 19.390625 C 34.703125 19.714844 35.039062 20.019531 35.195312 20.171875 C 35.367188 20.339844 35.566406 20.554688 35.984375 21.082031 C 36.589844 21.847656 37.015625 22.503906 37.3125 23.023438 C 37.375 22.925781 37.429688 22.84375 37.457031 22.796875 C 37.875 22.113281 38.042969 21.609375 37.996094 21.167969 C 37.941406 20.601562 37.507812 19.808594 36.945312 19.242188 C 36.78125 19.074219 36.5625 18.917969 36.332031 18.757812 C 36.042969 18.550781 35.714844 18.320312 35.425781 18.011719 C 35.089844 17.65625 34.917969 17.25 34.777344 16.925781 C 34.691406 16.722656 34.617188 16.550781 34.523438 16.417969 C 34.371094 16.210938 34.066406 16.042969 33.664062 15.941406 C 33.152344 15.8125 32.554688 15.726562 31.832031 15.675781 C 30.820312 15.605469 29.710938 15.691406 28.542969 15.933594 C 26.898438 16.273438 24.488281 17.136719 23.113281 18.460938 C 22.261719 19.277344 21.863281 20.105469 21.75 20.363281 C 21.714844 20.507812 21.675781 21 21.71875 21.816406 C 21.953125 21.558594 22.238281 21.328125 22.582031 21.144531 C 23.496094 20.660156 24.503906 20.59375 25.390625 20.53125 L 25.5 20.523438 C 27.886719 20.359375 30.054688 20.410156 30.144531 20.410156 L 30.195312 20.414062 C 30.789062 20.425781 31.300781 20.441406 31.785156 20.140625 C 32.039062 19.984375 32.253906 19.757812 32.429688 19.472656 C 32.570312 19.238281 32.792969 19.078125 33.0625 19.023438 C 33.136719 19.007812 33.207031 19 33.277344 19 Z M 33.957031 20.382812 Z M 21.753906 20.355469 Z M 21.753906 20.355469 " fill-opacity="1" fill-rule="evenodd"/></g><path fill="#333333" d="M 29.753906 37.636719 C 29.253906 37.636719 28.683594 37.589844 28.070312 37.453125 C 27.523438 37.335938 26.101562 36.933594 24.707031 35.796875 C 24.039062 35.253906 22.8125 34.050781 22.113281 32.125 C 21.9375 31.632812 21.816406 31.113281 21.746094 30.730469 C 21.277344 30.507812 20.847656 30.1875 20.480469 29.78125 C 19.988281 29.234375 19.644531 28.570312 19.488281 27.863281 C 19.167969 26.425781 19.65625 25.011719 20.832031 23.992188 C 21.203125 23.671875 21.765625 23.707031 22.085938 24.078125 C 22.410156 24.445312 22.375 25.003906 22.003906 25.324219 C 21.128906 26.082031 21.097656 26.914062 21.222656 27.480469 C 21.40625 28.304688 22.050781 29.027344 22.789062 29.238281 C 23.125 29.335938 23.375 29.625 23.421875 29.96875 C 23.476562 30.371094 23.605469 31.019531 23.789062 31.527344 C 24.359375 33.109375 25.410156 34.082031 25.832031 34.429688 C 26.933594 35.324219 28.03125 35.632812 28.453125 35.726562 C 29.652344 35.992188 30.640625 35.816406 31.011719 35.730469 C 32.019531 35.492188 32.703125 35.027344 32.992188 34.828125 C 33.203125 34.683594 33.753906 34.277344 34.3125 33.617188 C 35.125 32.664062 35.722656 31.363281 36.046875 29.855469 C 36.125 29.5 36.410156 29.226562 36.769531 29.167969 C 37.34375 29.070312 38.078125 28.082031 38.160156 26.953125 C 38.214844 26.171875 37.953125 25.683594 37.375 25.5 C 36.910156 25.351562 36.652344 24.851562 36.800781 24.386719 C 36.953125 23.921875 37.453125 23.667969 37.921875 23.816406 C 38.652344 24.050781 39.222656 24.519531 39.570312 25.167969 C 39.859375 25.710938 39.984375 26.371094 39.933594 27.078125 C 39.828125 28.535156 38.972656 30.15625 37.667969 30.730469 C 37.261719 32.328125 36.589844 33.679688 35.671875 34.761719 C 35 35.554688 34.335938 36.054688 34 36.285156 C 33.660156 36.519531 32.753906 37.140625 31.421875 37.453125 C 31.0625 37.535156 30.480469 37.636719 29.753906 37.636719 " fill-opacity="1" fill-rule="evenodd"/><path fill="#333333" d="M 25.074219 40.480469 C 24.941406 40.480469 24.808594 40.453125 24.679688 40.390625 C 24.238281 40.171875 24.058594 39.640625 24.277344 39.203125 C 24.507812 38.742188 24.902344 37.8125 24.929688 36.792969 C 24.9375 36.402344 24.886719 36.222656 24.800781 35.921875 C 24.777344 35.839844 24.75 35.742188 24.722656 35.636719 C 24.601562 35.164062 24.886719 34.683594 25.363281 34.5625 C 25.839844 34.441406 26.324219 34.722656 26.445312 35.195312 C 26.46875 35.28125 26.488281 35.359375 26.511719 35.441406 C 26.617188 35.804688 26.722656 36.179688 26.707031 36.839844 C 26.671875 38.199219 26.167969 39.398438 25.871094 39.992188 C 25.714844 40.300781 25.402344 40.480469 25.074219 40.480469 " fill-opacity="1" fill-rule="evenodd"/><path fill="#333333" d="M 34.242188 40.757812 C 33.933594 40.757812 33.628906 40.59375 33.464844 40.304688 C 33.019531 39.507812 32.472656 38.261719 32.4375 36.839844 C 32.417969 36.179688 32.527344 35.804688 32.628906 35.441406 C 32.640625 35.40625 32.648438 35.371094 32.660156 35.335938 C 32.789062 34.867188 33.28125 34.589844 33.753906 34.722656 C 34.226562 34.851562 34.503906 35.339844 34.371094 35.808594 C 34.363281 35.847656 34.351562 35.886719 34.339844 35.921875 C 34.257812 36.222656 34.203125 36.402344 34.214844 36.792969 C 34.242188 37.855469 34.667969 38.820312 35.019531 39.441406 C 35.257812 39.867188 35.105469 40.40625 34.679688 40.644531 C 34.539062 40.722656 34.390625 40.757812 34.242188 40.757812 " fill-opacity="1" fill-rule="evenodd"/><g clip-path="url(#ecf2177625)"><path fill="#333333" d="M 48.476562 59.585938 L 10.859375 59.585938 C 10.367188 59.585938 9.96875 59.191406 9.96875 58.707031 C 9.960938 56.039062 10.085938 49.378906 11.421875 45.089844 C 11.78125 43.945312 12.214844 43.011719 12.789062 42.148438 C 13.269531 41.425781 14.652344 39.609375 17.132812 38.355469 C 19.402344 37.210938 21.574219 37.039062 22.996094 37.097656 C 23.207031 37.105469 23.410156 37.191406 23.566406 37.335938 L 27.503906 41.007812 C 27.859375 41.34375 27.878906 41.902344 27.542969 42.257812 C 27.207031 42.613281 26.644531 42.632812 26.285156 42.296875 L 22.597656 38.855469 C 21.394531 38.84375 19.703125 39.042969 17.941406 39.929688 C 15.839844 40.992188 14.675781 42.515625 14.273438 43.125 C 13.785156 43.851562 13.433594 44.621094 13.121094 45.613281 C 11.972656 49.300781 11.777344 55.125 11.75 57.816406 L 47.585938 57.816406 C 47.5625 55.125 47.367188 49.300781 46.214844 45.613281 C 45.90625 44.621094 45.550781 43.851562 45.066406 43.125 C 44.664062 42.515625 43.5 40.992188 41.398438 39.929688 C 39.628906 39.039062 37.929688 38.84375 36.726562 38.855469 L 32.828125 42.3125 C 32.460938 42.636719 31.898438 42.605469 31.570312 42.242188 C 31.242188 41.875 31.277344 41.316406 31.644531 40.992188 L 35.785156 37.320312 C 35.941406 37.183594 36.136719 37.105469 36.34375 37.09375 C 37.761719 37.039062 39.933594 37.207031 42.203125 38.355469 C 44.683594 39.609375 46.070312 41.425781 46.550781 42.148438 C 47.125 43.011719 47.554688 43.945312 47.914062 45.089844 C 49.253906 49.378906 49.375 56.039062 49.367188 58.703125 C 49.367188 59.191406 48.96875 59.585938 48.476562 59.585938 " fill-opacity="1" fill-rule="evenodd"/></g><g clip-path="url(#4ee5e0b2ba)"><path fill="#333333" d="M 57.246094 59.585938 L 2.089844 59.585938 C 1.601562 59.585938 1.203125 59.191406 1.203125 58.703125 C 1.203125 58.214844 1.601562 57.820312 2.089844 57.820312 L 57.246094 57.820312 C 57.738281 57.820312 58.136719 58.214844 58.136719 58.703125 C 58.136719 59.191406 57.738281 59.585938 57.246094 59.585938 " fill-opacity="1" fill-rule="evenodd"/></g><g clip-path="url(#45eeae448f)"><path fill="#333333" d="M 40.949219 59.585938 L 18.386719 59.585938 C 16.320312 59.585938 14.636719 57.914062 14.636719 55.859375 L 14.636719 55.445312 C 14.636719 54.957031 15.035156 54.558594 15.527344 54.558594 L 43.808594 54.558594 C 44.300781 54.558594 44.699219 54.957031 44.699219 55.445312 L 44.699219 55.859375 C 44.699219 57.914062 43.015625 59.585938 40.949219 59.585938 Z M 16.472656 56.328125 C 16.683594 57.183594 17.460938 57.816406 18.386719 57.816406 L 40.949219 57.816406 C 41.875 57.816406 42.652344 57.183594 42.863281 56.328125 L 16.472656 56.328125 " fill-opacity="1" fill-rule="evenodd"/></g><path fill="#333333" d="M 41.867188 56.328125 L 17.46875 56.328125 C 16.976562 56.328125 16.578125 55.933594 16.578125 55.445312 L 16.578125 43.125 C 16.578125 41.824219 17.644531 40.769531 18.953125 40.769531 L 40.382812 40.769531 C 41.691406 40.769531 42.757812 41.824219 42.757812 43.125 L 42.757812 55.445312 C 42.757812 55.933594 42.359375 56.328125 41.867188 56.328125 Z M 18.359375 54.558594 L 40.976562 54.558594 L 40.976562 43.125 C 40.976562 42.800781 40.710938 42.535156 40.382812 42.535156 L 18.953125 42.535156 C 18.625 42.535156 18.359375 42.800781 18.359375 43.125 L 18.359375 54.558594 " fill-opacity="1" fill-rule="evenodd"/><path fill="#333333" d="M 26.15625 51.925781 C 25.96875 51.925781 25.777344 51.863281 25.617188 51.742188 L 22.335938 49.25 C 22.117188 49.082031 21.984375 48.824219 21.984375 48.546875 C 21.984375 48.273438 22.117188 48.011719 22.335938 47.847656 L 25.617188 45.355469 C 26.007812 45.058594 26.566406 45.132812 26.863281 45.519531 C 27.164062 45.910156 27.085938 46.464844 26.695312 46.761719 L 24.339844 48.546875 L 26.695312 50.335938 C 27.085938 50.632812 27.160156 51.1875 26.863281 51.574219 C 26.6875 51.804688 26.421875 51.925781 26.15625 51.925781 " fill-opacity="1" fill-rule="evenodd"/><path fill="#333333" d="M 33.179688 51.925781 C 32.914062 51.925781 32.648438 51.804688 32.472656 51.574219 C 32.175781 51.1875 32.25 50.632812 32.640625 50.335938 L 34.996094 48.546875 L 32.640625 46.761719 C 32.25 46.464844 32.175781 45.910156 32.472656 45.519531 C 32.769531 45.132812 33.328125 45.058594 33.71875 45.355469 L 37 47.847656 C 37.222656 48.011719 37.351562 48.273438 37.351562 48.546875 C 37.351562 48.824219 37.222656 49.085938 37 49.25 L 33.71875 51.742188 C 33.558594 51.863281 33.367188 51.925781 33.179688 51.925781 " fill-opacity="1" fill-rule="evenodd"/><path fill="#333333" d="M 28.597656 53.246094 C 28.515625 53.246094 28.4375 53.234375 28.355469 53.214844 C 27.882812 53.082031 27.605469 52.59375 27.738281 52.125 L 29.882812 44.496094 C 30.015625 44.027344 30.507812 43.753906 30.980469 43.882812 C 31.453125 44.015625 31.730469 44.503906 31.597656 44.972656 L 29.453125 52.601562 C 29.34375 52.992188 28.984375 53.246094 28.597656 53.246094 " fill-opacity="1" fill-rule="evenodd"/><g fill="#ffffff" fill-opacity="1"><g transform="translate(42.058593, 32.970954)"><g><path d="M 11.757812 -8.949219 L 11.816406 -9.023438 C 11.890625 -11.492188 10.144531 -13.296875 5.148438 -13.296875 L 1.9375 -13.296875 C 1.632812 -13.296875 1.519531 -13.109375 1.519531 -12.804688 L 1.519531 -0.492188 C 1.519531 -0.191406 1.632812 0 1.9375 0 L 6.117188 0 C 10.808594 0 12.519531 -1.160156 12.519531 -3.550781 C 12.519531 -5.585938 10.183594 -6.609375 7.523438 -6.609375 Z M 5.148438 -13.03125 C 7.902344 -13.03125 8.796875 -11.910156 8.796875 -10.011719 C 8.796875 -9.117188 8.226562 -6.628906 5.738281 -6.628906 L 4.957031 -6.628906 L 4.957031 -13.03125 Z M 5.738281 -6.363281 C 7.847656 -6.363281 8.949219 -5.1875 8.949219 -3.285156 C 8.949219 -1.785156 7.847656 -0.265625 5.738281 -0.265625 L 4.957031 -0.265625 L 4.957031 -6.363281 Z M 5.738281 -6.363281 "/></g></g></g><g fill="#ffffff" fill-opacity="1"><g transform="translate(55.2419, 32.970954)"><g><path d="M 2.070312 -10.488281 C 1.765625 -10.488281 1.652344 -10.296875 1.652344 -9.992188 L 1.652344 -0.492188 C 1.652344 -0.191406 1.765625 0 2.070312 0 L 4.484375 0 C 4.789062 0 4.902344 -0.191406 4.902344 -0.492188 L 4.902344 -9.992188 C 4.902344 -10.296875 4.789062 -10.488281 4.484375 -10.488281 Z M 1.519531 -13.261719 C 1.519531 -12.292969 2.296875 -11.511719 3.265625 -11.511719 C 4.238281 -11.511719 5.015625 -12.292969 5.015625 -13.261719 C 5.015625 -14.230469 4.238281 -15.007812 3.265625 -15.007812 C 2.296875 -15.007812 1.519531 -14.230469 1.519531 -13.261719 Z M 1.519531 -13.261719 "/></g></g></g><g fill="#ffffff" fill-opacity="1"><g transform="translate(61.776568, 32.970954)"><g><path d="M 10.164062 -2.984375 C 10.164062 -3.285156 10.050781 -3.476562 9.746094 -3.476562 L 9.632812 -3.476562 C 9.367188 -3.476562 9.042969 -3.230469 8.777344 -3.019531 L 5.507812 -0.265625 L 4.769531 -0.265625 L 4.769531 -9.992188 C 4.769531 -10.296875 4.65625 -10.488281 4.351562 -10.488281 L 1.9375 -10.488281 C 1.632812 -10.488281 1.519531 -10.296875 1.519531 -9.992188 L 1.519531 -0.492188 C 1.519531 -0.191406 1.632812 0 1.9375 0 L 9.746094 0 C 10.050781 0 10.164062 -0.191406 10.164062 -0.492188 Z M 10.164062 -2.984375 "/></g></g></g><g fill="#ffffff" fill-opacity="1"><g transform="translate(72.224428, 32.970954)"><g><path d="M 10.980469 -4.84375 C 11 -5.148438 10.886719 -5.28125 10.542969 -5.28125 L 8.492188 -5.28125 C 8.167969 -5.28125 8.074219 -5.167969 8.054688 -4.84375 L 7.808594 -0.0390625 L 6.78125 -0.0390625 C 5.339844 -0.0390625 3.988281 -2.316406 3.988281 -5.28125 C 3.988281 -8.246094 5.375 -10.296875 6.820312 -10.296875 L 9.898438 -7.484375 C 10.03125 -7.351562 10.164062 -7.296875 10.316406 -7.296875 C 10.390625 -7.296875 10.449219 -7.3125 10.523438 -7.332031 L 10.753906 -7.429688 C 10.941406 -7.503906 11.019531 -7.617188 11.019531 -7.882812 L 11.019531 -9.765625 C 11.019531 -10.070312 10.941406 -10.21875 10.601562 -10.257812 L 7.847656 -10.523438 L 6.554688 -10.523438 C 3.550781 -10.523438 0.761719 -9.898438 0.761719 -5.28125 C 0.761719 -0.664062 3.515625 0.191406 6.515625 0.191406 L 10.542969 0.0390625 C 10.867188 0.0195312 10.960938 -0.0742188 10.980469 -0.398438 Z M 10.980469 -4.84375 "/></g></g></g><g fill="#ffffff" fill-opacity="1"><g transform="translate(84.666889, 32.970954)"><g><path d="M 2.070312 -10.488281 C 1.765625 -10.488281 1.652344 -10.296875 1.652344 -9.992188 L 1.652344 -0.492188 C 1.652344 -0.191406 1.765625 0 2.070312 0 L 4.484375 0 C 4.789062 0 4.902344 -0.191406 4.902344 -0.492188 L 4.902344 -9.992188 C 4.902344 -10.296875 4.789062 -10.488281 4.484375 -10.488281 Z M 1.519531 -13.261719 C 1.519531 -12.292969 2.296875 -11.511719 3.265625 -11.511719 C 4.238281 -11.511719 5.015625 -12.292969 5.015625 -13.261719 C 5.015625 -14.230469 4.238281 -15.007812 3.265625 -15.007812 C 2.296875 -15.007812 1.519531 -14.230469 1.519531 -13.261719 Z M 1.519531 -13.261719 "/></g></g></g><g fill="#ffffff" fill-opacity="1"><g transform="translate(91.201557, 32.970954)"><g><path d="M 6.59375 -6.628906 C 5.054688 -7.066406 4.425781 -7.882812 4.425781 -8.851562 C 4.425781 -9.898438 5.320312 -10.410156 6.308594 -10.410156 L 6.742188 -10.410156 L 8.929688 -7.617188 C 9.15625 -7.3125 9.328125 -7.125 9.535156 -7.125 L 9.667969 -7.125 C 9.878906 -7.125 9.9375 -7.257812 9.9375 -7.464844 L 9.917969 -9.9375 C 9.917969 -10.238281 9.820312 -10.390625 9.5 -10.429688 L 7.296875 -10.675781 L 6.210938 -10.675781 C 2.945312 -10.675781 1.234375 -9.421875 1.234375 -7.960938 C 1.234375 -6.230469 1.9375 -5.28125 5.394531 -4.238281 C 7.085938 -3.722656 7.332031 -3.171875 7.332031 -2.109375 C 7.332031 -1.0625 6.707031 -0.0742188 5.453125 -0.0742188 L 5.074219 -0.0742188 L 2.316406 -3.800781 C 2.089844 -4.101562 1.917969 -4.292969 1.710938 -4.292969 L 1.578125 -4.292969 C 1.367188 -4.292969 1.3125 -4.160156 1.3125 -3.953125 L 1.328125 -0.492188 C 1.328125 -0.191406 1.445312 -0.0195312 1.746094 0 L 4.519531 0.191406 L 5.546875 0.191406 C 8.605469 0.191406 10.488281 -0.761719 10.488281 -3.039062 C 10.488281 -5.035156 9.214844 -5.890625 6.59375 -6.628906 Z M 6.59375 -6.628906 "/></g></g></g><g fill="#ffffff" fill-opacity="1"><g transform="translate(102.637225, 32.970954)"><g><path d="M 6.78125 -9.992188 C 6.667969 -10.257812 6.421875 -10.488281 6.097656 -10.488281 L 5.128906 -10.488281 C 4.863281 -10.488281 4.597656 -10.257812 4.484375 -9.992188 L 0.226562 -0.492188 C 0.132812 -0.246094 0.226562 0 0.53125 0 L 3.265625 0 C 3.667969 0 3.820312 -0.207031 3.683594 -0.492188 L 2.28125 -3.628906 L 6.058594 -3.628906 L 7.464844 -0.492188 C 7.597656 -0.207031 7.808594 0 8.148438 0 L 10.734375 0 C 11.039062 0 11.132812 -0.246094 11.039062 -0.492188 Z M 5.945312 -3.894531 L 2.070312 -3.894531 L 3.988281 -8.28125 Z M 5.945312 -3.894531 "/></g></g></g><g fill="#ffffff" fill-opacity="1"><g transform="translate(113.901918, 32.970954)"><g><path d="M 4.066406 -9.992188 C 3.894531 -10.277344 3.667969 -10.488281 3.265625 -10.488281 L 0.550781 -10.488281 C 0.246094 -10.488281 0.113281 -10.238281 0.246094 -9.992188 L 3.515625 -4.121094 L 3.515625 -0.492188 C 3.515625 -0.191406 3.628906 0 3.933594 0 L 6.34375 0 C 6.648438 0 6.761719 -0.191406 6.761719 -0.492188 L 6.761719 -4.101562 L 10.03125 -9.992188 C 10.125 -10.238281 10.03125 -10.488281 9.726562 -10.488281 L 6.859375 -10.488281 C 6.460938 -10.488281 6.476562 -10.238281 6.648438 -9.992188 L 8.148438 -7.066406 L 6.761719 -4.730469 Z M 4.066406 -9.992188 "/></g></g></g><g fill="#ffffff" fill-opacity="1"><g transform="translate(124.159818, 32.970954)"><g><path d="M 6.78125 -9.992188 C 6.667969 -10.257812 6.421875 -10.488281 6.097656 -10.488281 L 5.128906 -10.488281 C 4.863281 -10.488281 4.597656 -10.257812 4.484375 -9.992188 L 0.226562 -0.492188 C 0.132812 -0.246094 0.226562 0 0.53125 0 L 3.265625 0 C 3.667969 0 3.820312 -0.207031 3.683594 -0.492188 L 2.28125 -3.628906 L 6.058594 -3.628906 L 7.464844 -0.492188 C 7.597656 -0.207031 7.808594 0 8.148438 0 L 10.734375 0 C 11.039062 0 11.132812 -0.246094 11.039062 -0.492188 Z M 5.945312 -3.894531 L 2.070312 -3.894531 L 3.988281 -8.28125 Z M 5.945312 -3.894531 "/></g></g></g><g fill="#ffffff" fill-opacity="1"><g transform="translate(135.424511, 32.970954)"><g><path d="M 11.550781 0 C 11.875 0 11.96875 -0.265625 11.796875 -0.492188 L 9.613281 -3.363281 C 9.480469 -3.535156 9.25 -3.535156 9.042969 -3.535156 C 7.179688 -3.535156 6.382812 -4.121094 5.890625 -4.710938 L 6.34375 -4.710938 C 9.308594 -4.710938 10.847656 -5.300781 10.847656 -7.695312 C 10.847656 -9.898438 9.308594 -10.488281 6.34375 -10.488281 L 1.9375 -10.488281 C 1.632812 -10.488281 1.519531 -10.296875 1.519531 -9.992188 L 1.519531 -0.492188 C 1.519531 -0.191406 1.632812 0 1.9375 0 L 4.351562 0 C 4.65625 0 4.769531 -0.191406 4.769531 -0.492188 L 4.769531 -4.710938 L 5.527344 -4.710938 L 8.433594 -0.492188 C 8.664062 -0.191406 8.96875 0 9.269531 0 Z M 5.71875 -10.21875 C 6.859375 -10.21875 7.578125 -10.070312 7.578125 -7.695312 C 7.578125 -5.320312 6.859375 -4.976562 5.71875 -4.976562 L 4.769531 -4.976562 L 4.769531 -10.21875 Z M 5.71875 -10.21875 "/></g></g></g><g fill="#f7e07f" fill-opacity="1"><g transform="translate(56.739758, 54.439387)"><g><path d="M 0.605469 -1.164062 C 0.605469 -0.378906 1.226562 0.242188 2.011719 0.242188 C 2.796875 0.242188 3.449219 -0.378906 3.449219 -1.164062 C 3.449219 -1.953125 2.796875 -2.601562 2.011719 -2.601562 C 1.226562 -2.601562 0.605469 -1.953125 0.605469 -1.164062 Z M 0.605469 -1.164062 "/></g></g></g><g fill="#f7e07f" fill-opacity="1"><g transform="translate(61.562655, 54.439387)"><g><path d="M 9.726562 -10.195312 C 9.726562 -10.4375 9.636719 -10.589844 9.394531 -10.589844 L 0.636719 -10.589844 C 0.394531 -10.589844 0.300781 -10.4375 0.300781 -10.195312 L 0.300781 -7.351562 C 0.300781 -7.1875 0.347656 -7.078125 0.515625 -7.078125 L 0.605469 -7.078125 C 0.742188 -7.078125 0.890625 -7.277344 1.027344 -7.472656 L 3.238281 -10.378906 L 3.722656 -10.378906 L 3.722656 -0.394531 C 3.722656 -0.152344 3.8125 0 4.054688 0 L 5.976562 0 C 6.21875 0 6.308594 -0.152344 6.308594 -0.394531 L 6.308594 -10.378906 L 6.792969 -10.378906 L 9 -7.472656 C 9.152344 -7.277344 9.289062 -7.078125 9.425781 -7.078125 L 9.515625 -7.078125 C 9.679688 -7.078125 9.726562 -7.1875 9.726562 -7.351562 Z M 9.726562 -10.195312 "/></g></g></g><g fill="#f7e07f" fill-opacity="1"><g transform="translate(72.356816, 54.439387)"><g><path d="M 1.695312 -10.589844 C 1.453125 -10.589844 1.363281 -10.4375 1.363281 -10.195312 L 1.363281 -0.394531 C 1.363281 -0.152344 1.453125 0 1.695312 0 L 8.59375 0 C 8.804688 0 8.925781 -0.152344 9.015625 -0.394531 L 9.953125 -2.738281 C 9.984375 -2.8125 10.015625 -2.890625 9.9375 -2.949219 L 9.757812 -3.085938 C 9.726562 -3.117188 9.695312 -3.117188 9.667969 -3.117188 C 9.621094 -3.117188 9.574219 -3.085938 9.515625 -3.054688 L 5.460938 -0.210938 L 3.949219 -0.210938 L 3.949219 -5.21875 L 8.109375 -5.144531 L 8.109375 -5.507812 L 3.949219 -5.429688 L 3.949219 -10.378906 L 5.460938 -10.378906 L 8.0625 -8.183594 C 8.273438 -8.015625 8.53125 -7.820312 8.742188 -7.820312 L 8.835938 -7.820312 C 9.078125 -7.820312 9.167969 -7.972656 9.167969 -8.214844 L 9.167969 -10.195312 C 9.167969 -10.4375 9.078125 -10.589844 8.835938 -10.589844 Z M 1.695312 -10.589844 "/></g></g></g><g fill="#c40f0f" fill-opacity="1"><g transform="translate(83.411631, 54.439387)"><g/></g></g><g fill="#c40f0f" fill-opacity="1"><g transform="translate(88.718281, 54.439387)"><g/></g></g><g fill="#f7e07f" fill-opacity="1"><g transform="translate(94.017099, 54.439387)"><g><path d="M 0.605469 -5.308594 C 0.605469 -1.632812 2.601562 0.152344 6.277344 0.152344 L 9.800781 0 C 10.074219 -0.03125 10.136719 -0.152344 10.136719 -0.394531 L 10.136719 -2.359375 C 10.136719 -2.570312 10.074219 -2.664062 9.921875 -2.722656 L 9.742188 -2.796875 C 9.679688 -2.8125 9.636719 -2.828125 9.574219 -2.828125 C 9.453125 -2.828125 9.347656 -2.785156 9.242188 -2.675781 L 6.488281 -0.0585938 C 4.824219 -0.0585938 3.480469 -2.949219 3.480469 -5.308594 C 3.480469 -7.667969 4.824219 -10.558594 6.488281 -10.558594 L 9.242188 -7.941406 C 9.347656 -7.835938 9.453125 -7.789062 9.574219 -7.789062 C 9.636719 -7.789062 9.679688 -7.804688 9.742188 -7.820312 L 9.921875 -7.898438 C 10.074219 -7.957031 10.136719 -8.046875 10.136719 -8.257812 L 10.136719 -10.226562 C 10.136719 -10.46875 10.074219 -10.589844 9.800781 -10.621094 L 6.277344 -10.769531 C 2.601562 -10.769531 0.605469 -8.984375 0.605469 -5.308594 Z M 0.605469 -5.308594 "/></g></g></g><g fill="#f7e07f" fill-opacity="1"><g transform="translate(105.899696, 54.439387)"><g><path d="M 10.332031 -10.195312 C 10.332031 -10.4375 10.242188 -10.589844 10 -10.589844 L 8.078125 -10.589844 C 7.835938 -10.589844 7.746094 -10.4375 7.746094 -10.195312 L 7.746094 -5.613281 L 3.949219 -5.613281 L 3.949219 -10.195312 C 3.949219 -10.4375 3.859375 -10.589844 3.617188 -10.589844 L 1.695312 -10.589844 C 1.453125 -10.589844 1.363281 -10.4375 1.363281 -10.195312 L 1.363281 -0.394531 C 1.363281 -0.152344 1.453125 0 1.695312 0 L 3.617188 0 C 3.859375 0 3.949219 -0.152344 3.949219 -0.394531 L 3.949219 -5.292969 L 7.746094 -5.292969 L 7.746094 -0.394531 C 7.746094 -0.152344 7.835938 0 8.078125 0 L 10 0 C 10.242188 0 10.332031 -0.152344 10.332031 -0.394531 Z M 10.332031 -10.195312 "/></g></g></g><g fill="#ffffff" fill-opacity="1"><g transform="translate(118.345222, 54.439387)"><g><path d="M 1.695312 -10.589844 C 1.453125 -10.589844 1.363281 -10.4375 1.363281 -10.195312 L 1.363281 -0.394531 C 1.363281 -0.152344 1.453125 0 1.695312 0 L 8.59375 0 C 8.804688 0 8.925781 -0.152344 9.015625 -0.394531 L 9.953125 -2.738281 C 9.984375 -2.8125 10.015625 -2.890625 9.9375 -2.949219 L 9.757812 -3.085938 C 9.726562 -3.117188 9.695312 -3.117188 9.667969 -3.117188 C 9.621094 -3.117188 9.574219 -3.085938 9.515625 -3.054688 L 5.460938 -0.210938 L 3.949219 -0.210938 L 3.949219 -5.21875 L 8.109375 -5.144531 L 8.109375 -5.507812 L 3.949219 -5.429688 L 3.949219 -10.378906 L 5.460938 -10.378906 L 8.0625 -8.183594 C 8.273438 -8.015625 8.53125 -7.820312 8.742188 -7.820312 L 8.835938 -7.820312 C 9.078125 -7.820312 9.167969 -7.972656 9.167969 -8.214844 L 9.167969 -10.195312 C 9.167969 -10.4375 9.078125 -10.589844 8.835938 -10.589844 Z M 1.695312 -10.589844 "/></g></g></g><g fill="#ffffff" fill-opacity="1"><g transform="translate(129.411489, 54.439387)"><g><path d="M 10.832031 0 C 11.089844 0 11.164062 -0.210938 11.027344 -0.394531 L 8.53125 -3.628906 C 8.425781 -3.765625 8.246094 -3.765625 8.078125 -3.765625 C 5.871094 -3.765625 5.339844 -4.207031 4.824219 -4.839844 L 5.445312 -4.839844 C 8.546875 -4.839844 9.710938 -5.914062 9.710938 -7.820312 C 9.710938 -9.878906 8.609375 -10.589844 5.445312 -10.589844 L 1.695312 -10.589844 C 1.453125 -10.589844 1.363281 -10.4375 1.363281 -10.195312 L 1.363281 -0.394531 C 1.363281 -0.152344 1.453125 0 1.695312 0 L 3.617188 0 C 3.859375 0 3.949219 -0.152344 3.949219 -0.394531 L 3.949219 -4.839844 L 4.539062 -4.839844 L 7.910156 -0.394531 C 8.109375 -0.152344 8.335938 0 8.578125 0 Z M 4.945312 -10.378906 C 6.339844 -10.378906 6.945312 -9.710938 6.945312 -7.820312 C 6.945312 -5.929688 6.339844 -5.050781 4.945312 -5.050781 L 3.949219 -5.050781 L 3.949219 -10.378906 Z M 4.945312 -10.378906 "/></g></g></g><g fill="#ffffff" fill-opacity="1"><g transform="translate(93.246103, 54.490523)"><g><path d="M 0.0117188 -5.296875 C 0.0117188 -5.363281 -0.0273438 -5.425781 -0.105469 -5.480469 C -0.183594 -5.53125 -0.289062 -5.585938 -0.417969 -5.636719 C -0.539062 -5.691406 -0.617188 -5.742188 -0.667969 -5.769531 C -0.722656 -5.792969 -0.878906 -5.875 -1.140625 -5.992188 C -1.390625 -6.097656 -1.640625 -6.214844 -1.886719 -6.320312 C -2.136719 -6.425781 -2.269531 -6.476562 -2.28125 -6.488281 C -2.28125 -6.488281 -3.5 -7.210938 -5.9375 -8.625 C -7.929688 -9.792969 -8.980469 -10.394531 -9.070312 -10.421875 C -9.097656 -10.421875 -9.125 -10.394531 -9.152344 -10.34375 C -9.175781 -10.277344 -9.191406 -10.210938 -9.191406 -10.132812 C -9.191406 -10.054688 -9.175781 -10.003906 -9.175781 -9.964844 C -9.152344 -9.886719 -9.136719 -9.214844 -9.125 -7.929688 L -9.113281 -6.28125 L -9.125 -6.226562 L -9.125 -6.214844 C -9.152344 -6.042969 -9.125 -5.914062 -9.046875 -5.808594 C -9.03125 -5.808594 -9.03125 -5.792969 -9.03125 -5.792969 C -8.953125 -5.714844 -8.875 -5.691406 -8.769531 -5.691406 C -8.457031 -5.691406 -7.828125 -5.675781 -6.855469 -5.652344 L -6.765625 -5.664062 C -6.699219 -5.664062 -6.632812 -5.636719 -6.566406 -5.609375 C -6.503906 -5.585938 -6.476562 -5.53125 -6.476562 -5.46875 L -6.449219 -4.875 L -6.449219 -4.824219 C -6.4375 -4.773438 -6.449219 -4.734375 -6.503906 -4.695312 C -6.554688 -4.640625 -6.621094 -4.628906 -6.726562 -4.628906 C -6.949219 -4.613281 -7.460938 -4.601562 -8.273438 -4.601562 L -8.96875 -4.613281 L -9.019531 -4.613281 C -9.046875 -4.601562 -9.085938 -4.5625 -9.113281 -4.511719 C -9.136719 -4.445312 -9.152344 -4.351562 -9.152344 -4.234375 C -9.125 -3.972656 -9.125 -3.042969 -9.136719 -1.441406 L -9.085938 -0.171875 L -9.097656 -0.105469 C -9.097656 -0.0507812 -9.070312 0 -9.03125 0.0273438 C -8.980469 0.0664062 -8.914062 0.0664062 -8.835938 0.0273438 C -8.652344 -0.0390625 -8.296875 -0.210938 -7.773438 -0.5 C -7.238281 -0.785156 -6.933594 -0.96875 -6.855469 -1.0625 C -6.75 -1.167969 -5.9375 -1.664062 -4.417969 -2.542969 C -3.917969 -2.84375 -3.605469 -3.042969 -3.449219 -3.144531 L -3.449219 -3.160156 C -3.449219 -3.1875 -3.433594 -3.199219 -3.410156 -3.210938 L -3.382812 -3.1875 C -3.066406 -3.371094 -2.621094 -3.644531 -2.070312 -4 C -1.519531 -4.339844 -1.191406 -4.550781 -1.113281 -4.601562 C -1.113281 -4.628906 -1.101562 -4.640625 -1.101562 -4.667969 C -1.101562 -4.679688 -1.101562 -4.695312 -1.101562 -4.71875 C -1.0625 -4.679688 -1.046875 -4.652344 -1.0625 -4.640625 C -1.023438 -4.667969 -0.996094 -4.679688 -0.984375 -4.679688 L -0.734375 -4.785156 C -0.5625 -4.851562 -0.394531 -4.941406 -0.234375 -5.046875 C -0.0664062 -5.152344 0.0117188 -5.230469 0.0117188 -5.296875 Z M -1.390625 -4.679688 C -1.390625 -4.667969 -1.390625 -4.652344 -1.414062 -4.640625 L -1.429688 -4.652344 C -1.429688 -4.652344 -1.441406 -4.667969 -1.457031 -4.667969 C -1.457031 -4.667969 -1.441406 -4.679688 -1.429688 -4.707031 L -1.414062 -4.695312 C -1.402344 -4.679688 -1.390625 -4.679688 -1.390625 -4.679688 Z M -1.546875 -4.5625 C -1.558594 -4.5625 -1.574219 -4.550781 -1.574219 -4.550781 C -1.574219 -4.523438 -1.574219 -4.496094 -1.585938 -4.484375 C -1.585938 -4.496094 -1.585938 -4.511719 -1.613281 -4.511719 L -1.574219 -4.589844 Z M -1.457031 -4.824219 C -1.496094 -4.757812 -1.535156 -4.757812 -1.574219 -4.8125 C -1.546875 -4.8125 -1.519531 -4.8125 -1.507812 -4.8125 C -1.480469 -4.8125 -1.46875 -4.824219 -1.457031 -4.824219 Z M -1.679688 -4.589844 C -1.691406 -4.574219 -1.71875 -4.5625 -1.742188 -4.550781 C -1.769531 -4.535156 -1.796875 -4.523438 -1.796875 -4.523438 C -1.796875 -4.523438 -1.808594 -4.511719 -1.824219 -4.496094 C -1.835938 -4.46875 -1.847656 -4.445312 -1.875 -4.417969 C -1.902344 -4.445312 -1.886719 -4.601562 -1.835938 -4.863281 C -1.78125 -4.851562 -1.757812 -4.796875 -1.757812 -4.707031 C -1.769531 -4.628906 -1.742188 -4.589844 -1.679688 -4.589844 Z M -1.640625 -4.824219 C -1.664062 -4.835938 -1.691406 -4.851562 -1.742188 -4.875 C -1.796875 -4.890625 -1.835938 -4.917969 -1.875 -4.941406 C -1.71875 -4.980469 -1.640625 -4.941406 -1.640625 -4.824219 Z M -4.0625 -2.84375 L -4.128906 -2.78125 L -4.144531 -2.804688 L -4.144531 -2.882812 C -4.089844 -2.910156 -4.0625 -2.898438 -4.0625 -2.84375 Z M -3.839844 -3.160156 L -3.917969 -3.09375 C -3.917969 -3.160156 -3.894531 -3.199219 -3.839844 -3.199219 Z M -4.101562 -3.082031 L -4.246094 -3.121094 C -4.195312 -3.171875 -4.15625 -3.171875 -4.101562 -3.121094 Z M -2.738281 -4.863281 C -2.738281 -4.835938 -2.738281 -4.824219 -2.738281 -4.8125 C -2.738281 -4.785156 -2.738281 -4.773438 -2.753906 -4.757812 C -2.753906 -4.734375 -2.78125 -4.71875 -2.804688 -4.71875 C -2.804688 -4.796875 -2.792969 -4.851562 -2.738281 -4.863281 Z M -3.449219 -4.128906 C -3.472656 -4.128906 -3.488281 -4.117188 -3.511719 -4.117188 C -3.527344 -4.117188 -3.554688 -4.117188 -3.578125 -4.117188 L -3.75 -4.050781 C -3.800781 -4.101562 -3.816406 -4.144531 -3.789062 -4.167969 L -3.578125 -4.117188 C -3.578125 -4.15625 -3.527344 -4.15625 -3.449219 -4.128906 Z M -2.738281 -5.21875 L -2.753906 -5.203125 C -2.78125 -5.21875 -2.804688 -5.230469 -2.804688 -5.257812 L -2.78125 -5.285156 C -2.78125 -5.269531 -2.765625 -5.257812 -2.753906 -5.242188 C -2.738281 -5.230469 -2.738281 -5.21875 -2.738281 -5.21875 Z M -4.863281 -3.199219 L -4.875 -3.199219 C -4.875 -3.199219 -4.875 -3.210938 -4.902344 -3.238281 C -4.902344 -3.25 -4.890625 -3.265625 -4.875 -3.277344 L -4.863281 -3.277344 Z M -5.386719 -2.726562 L -5.53125 -2.660156 C -5.519531 -2.714844 -5.46875 -2.738281 -5.386719 -2.726562 Z M -5.21875 -2.976562 L -5.308594 -3.015625 C -5.308594 -3.027344 -5.296875 -3.042969 -5.296875 -3.054688 L -5.21875 -3.003906 Z M -5.046875 -3.34375 C -5.046875 -3.316406 -5.046875 -3.316406 -5.058594 -3.316406 L -5.125 -3.382812 L -5.101562 -3.382812 L -5.085938 -3.394531 Z M -4.328125 -4.117188 L -4.351562 -4.089844 C -4.351562 -4.078125 -4.351562 -4.0625 -4.367188 -4.050781 C -4.378906 -4.0625 -4.390625 -4.078125 -4.390625 -4.089844 C -4.390625 -4.117188 -4.378906 -4.128906 -4.351562 -4.128906 Z M -3.410156 -4.980469 C -3.421875 -4.875 -3.472656 -4.851562 -3.578125 -4.890625 L -3.578125 -5.074219 C -3.566406 -5.074219 -3.511719 -5.035156 -3.410156 -4.980469 Z M -4.574219 -4.234375 C -4.574219 -4.167969 -4.601562 -4.144531 -4.652344 -4.167969 Z M -5.179688 -3.382812 C -5.203125 -3.34375 -5.257812 -3.289062 -5.335938 -3.210938 C -5.335938 -3.199219 -5.375 -3.199219 -5.441406 -3.199219 C -5.441406 -3.199219 -5.480469 -3.226562 -5.53125 -3.304688 C -5.652344 -3.304688 -5.714844 -3.289062 -5.742188 -3.277344 C -5.78125 -3.265625 -5.808594 -3.199219 -5.832031 -3.09375 C -5.859375 -3.121094 -5.886719 -3.144531 -5.886719 -3.199219 C -5.886719 -3.25 -5.898438 -3.277344 -5.914062 -3.304688 L -5.753906 -3.421875 C -5.742188 -3.394531 -5.703125 -3.382812 -5.652344 -3.382812 L -5.441406 -3.566406 Z M -3.75 -4.890625 C -3.816406 -4.824219 -3.894531 -4.835938 -3.972656 -4.917969 C -4.039062 -4.851562 -4.117188 -4.8125 -4.207031 -4.785156 L -4.367188 -4.957031 L -4.367188 -4.941406 C -4.40625 -4.917969 -4.429688 -4.917969 -4.457031 -4.941406 C -4.46875 -4.957031 -4.46875 -4.980469 -4.46875 -5.035156 L -4.367188 -4.957031 C -4.15625 -5.035156 -4.011719 -5.019531 -3.917969 -4.941406 C -3.90625 -4.929688 -3.894531 -4.929688 -3.878906 -4.929688 C -3.855469 -4.929688 -3.828125 -4.917969 -3.816406 -4.917969 C -3.800781 -4.917969 -3.789062 -4.902344 -3.777344 -4.902344 C -3.761719 -4.890625 -3.75 -4.890625 -3.75 -4.890625 Z M -5.832031 -3.421875 L -5.953125 -3.421875 C -5.953125 -3.421875 -5.964844 -3.433594 -5.964844 -3.472656 L -5.914062 -3.472656 Z M -6.214844 -3.132812 C -6.1875 -3.09375 -6.199219 -3.066406 -6.226562 -3.042969 C -6.265625 -3.042969 -6.292969 -3.054688 -6.292969 -3.09375 C -6.292969 -3.1875 -6.292969 -3.238281 -6.304688 -3.265625 L -6.265625 -3.265625 Z M -6.699219 -2.832031 C -6.75 -2.78125 -6.777344 -2.78125 -6.804688 -2.832031 C -6.804688 -2.832031 -6.816406 -2.832031 -6.816406 -2.84375 C -6.816406 -2.859375 -6.804688 -2.871094 -6.804688 -2.871094 C -6.777344 -2.882812 -6.738281 -2.871094 -6.699219 -2.832031 Z M -6.226562 -3.5 C -6.253906 -3.382812 -6.320312 -3.328125 -6.425781 -3.355469 Z M -7.183594 -2.871094 L -7.210938 -2.871094 L -7.277344 -2.921875 L -7.238281 -2.976562 Z M -7.472656 -2.882812 C -7.523438 -2.882812 -7.550781 -2.882812 -7.578125 -2.910156 C -7.550781 -2.910156 -7.550781 -2.910156 -7.550781 -2.921875 L -7.472656 -2.921875 Z M -8.011719 -3.003906 C -8.011719 -2.988281 -8.023438 -2.976562 -8.023438 -2.960938 C -8.035156 -2.9375 -8.113281 -2.921875 -8.273438 -2.921875 L -8.339844 -2.832031 L -8.402344 -2.882812 L -8.273438 -3.015625 C -8.246094 -2.988281 -8.207031 -2.988281 -8.15625 -3.015625 C -8.101562 -3.027344 -8.0625 -3.027344 -8.011719 -3.003906 Z M -8.46875 -2.882812 L -8.507812 -2.84375 C -8.507812 -2.859375 -8.507812 -2.871094 -8.535156 -2.882812 C -8.535156 -2.898438 -8.523438 -2.910156 -8.507812 -2.921875 Z M -8.101562 -3.460938 C -8.101562 -3.433594 -8.113281 -3.421875 -8.140625 -3.394531 L -8.140625 -3.472656 C -8.113281 -3.472656 -8.101562 -3.460938 -8.101562 -3.460938 Z M -7.929688 -3.394531 C -7.945312 -3.371094 -7.957031 -3.34375 -7.972656 -3.304688 C -7.984375 -3.25 -7.996094 -3.226562 -8.023438 -3.199219 L -8.140625 -3.304688 L -8.023438 -3.472656 C -8.035156 -3.5 -8.050781 -3.511719 -8.074219 -3.511719 C -8.089844 -3.527344 -8.113281 -3.539062 -8.140625 -3.566406 C -8.140625 -3.511719 -8.167969 -3.472656 -8.21875 -3.433594 C -8.21875 -3.449219 -8.234375 -3.472656 -8.234375 -3.511719 C -8.246094 -3.617188 -8.21875 -3.695312 -8.15625 -3.777344 L -8.128906 -3.683594 C -8.113281 -3.65625 -8.113281 -3.65625 -8.113281 -3.683594 L -7.945312 -3.683594 L -7.945312 -3.394531 Z M -8.574219 -2.976562 C -8.574219 -2.921875 -8.601562 -2.910156 -8.664062 -2.910156 C -8.664062 -2.976562 -8.652344 -3.015625 -8.625 -3.015625 C -8.585938 -3.015625 -8.574219 -3.003906 -8.574219 -2.976562 Z M -8.023438 -3.777344 C -8.035156 -3.777344 -8.050781 -3.777344 -8.074219 -3.777344 C -8.101562 -3.777344 -8.128906 -3.789062 -8.15625 -3.789062 C -8.074219 -3.867188 -8.035156 -3.917969 -8.023438 -3.933594 C -7.984375 -3.867188 -7.984375 -3.816406 -8.023438 -3.777344 Z M -8.0625 -4.300781 L -8.195312 -4.234375 C -8.195312 -4.261719 -8.207031 -4.273438 -8.21875 -4.285156 C -8.234375 -4.300781 -8.246094 -4.3125 -8.257812 -4.339844 C -8.234375 -4.339844 -8.234375 -4.339844 -8.234375 -4.367188 C -8.207031 -4.339844 -8.179688 -4.339844 -8.15625 -4.339844 C -8.113281 -4.339844 -8.089844 -4.328125 -8.0625 -4.300781 Z M -6.988281 -7.316406 C -7.066406 -7.316406 -7.117188 -7.300781 -7.144531 -7.300781 C -7.09375 -7.339844 -7.039062 -7.339844 -6.988281 -7.316406 Z M -6.527344 -7.773438 C -6.527344 -7.789062 -6.542969 -7.8125 -6.566406 -7.839844 C -6.59375 -7.867188 -6.609375 -7.890625 -6.621094 -7.917969 C -6.59375 -7.90625 -6.566406 -7.890625 -6.554688 -7.878906 C -6.542969 -7.867188 -6.542969 -7.851562 -6.542969 -7.828125 C -6.542969 -7.800781 -6.527344 -7.773438 -6.527344 -7.773438 L -6.726562 -7.707031 C -6.726562 -7.722656 -6.726562 -7.734375 -6.738281 -7.746094 C -6.710938 -7.746094 -6.699219 -7.746094 -6.6875 -7.761719 C -6.671875 -7.761719 -6.660156 -7.773438 -6.660156 -7.773438 C -6.648438 -7.773438 -6.621094 -7.773438 -6.59375 -7.773438 C -6.554688 -7.773438 -6.527344 -7.773438 -6.527344 -7.773438 Z M -6.960938 -7.5 C -7.015625 -7.578125 -7.015625 -7.617188 -6.960938 -7.628906 Z M -7.394531 -7.445312 L -7.433594 -7.40625 L -7.445312 -7.421875 C -7.445312 -7.421875 -7.460938 -7.433594 -7.460938 -7.445312 L -7.433594 -7.460938 L -7.421875 -7.445312 Z M -6.582031 -8.875 C -6.59375 -8.824219 -6.648438 -8.824219 -6.726562 -8.863281 L -6.726562 -8.902344 L -6.582031 -8.941406 Z M -8.546875 -7.355469 C -8.5625 -7.355469 -8.574219 -7.339844 -8.574219 -7.339844 C -8.574219 -7.316406 -8.574219 -7.289062 -8.585938 -7.277344 C -8.601562 -7.289062 -8.625 -7.300781 -8.652344 -7.300781 C -8.652344 -7.316406 -8.679688 -7.328125 -8.703125 -7.355469 L -8.730469 -7.382812 L -8.730469 -7.421875 C -8.703125 -7.5 -8.664062 -7.539062 -8.613281 -7.539062 C -8.5625 -7.511719 -8.546875 -7.445312 -8.546875 -7.355469 Z M -8.796875 -7.65625 C -8.886719 -7.734375 -8.941406 -7.773438 -8.941406 -7.773438 C -8.941406 -7.773438 -8.941406 -7.8125 -8.929688 -7.878906 L -8.808594 -7.839844 C -8.808594 -7.8125 -8.796875 -7.773438 -8.796875 -7.734375 C -8.796875 -7.695312 -8.796875 -7.667969 -8.796875 -7.65625 Z M -8.796875 -7.65625 "/></g></g></g></svg>