<svg xmlns="http://www.w3.org/2000/svg" xmlns:xlink="http://www.w3.org/1999/xlink" width="150" zoomAndPan="magnify" viewBox="0 0 112.5 112.499997" height="150" preserveAspectRatio="xMidYMid meet" version="1.0"><defs><clipPath id="b0a52ee6c4"><path d="M 96 63 L 99.75 63 L 99.75 68 L 96 68 Z M 96 63 " clip-rule="nonzero"/></clipPath><clipPath id="62efb6e93e"><path d="M 96 60 L 99.75 60 L 99.75 65 L 96 65 Z M 96 60 " clip-rule="nonzero"/></clipPath><clipPath id="eb44076ae0"><path d="M 97 57 L 99.75 57 L 99.75 62 L 97 62 Z M 97 57 " clip-rule="nonzero"/></clipPath><clipPath id="c43a2b040f"><path d="M 97 54 L 99.75 54 L 99.75 59 L 97 59 Z M 97 54 " clip-rule="nonzero"/></clipPath><clipPath id="2def8df2ba"><path d="M 97 51 L 99.75 51 L 99.75 56 L 97 56 Z M 97 51 " clip-rule="nonzero"/></clipPath><clipPath id="7a8caccedd"><path d="M 97 48 L 99.75 48 L 99.75 53 L 97 53 Z M 97 48 " clip-rule="nonzero"/></clipPath><clipPath id="9d5bfc238e"><path d="M 58 11.574219 L 62 11.574219 L 62 15 L 58 15 Z M 58 11.574219 " clip-rule="nonzero"/></clipPath><clipPath id="1922ed0916"><path d="M 55 11.574219 L 59 11.574219 L 59 15 L 55 15 Z M 55 11.574219 " clip-rule="nonzero"/></clipPath><clipPath id="f692cba869"><path d="M 52 11.574219 L 56 11.574219 L 56 14 L 52 14 Z M 52 11.574219 " clip-rule="nonzero"/></clipPath><clipPath id="8be2bd66b0"><path d="M 48 11.574219 L 53 11.574219 L 53 15 L 48 15 Z M 48 11.574219 " clip-rule="nonzero"/></clipPath><clipPath id="1822aae286"><path d="M 10.5 48 L 14 48 L 14 52 L 10.5 52 Z M 10.5 48 " clip-rule="nonzero"/></clipPath><clipPath id="52781d55d2"><path d="M 10.5 51 L 14 51 L 14 55 L 10.5 55 Z M 10.5 51 " clip-rule="nonzero"/></clipPath><clipPath id="f625f0bb0c"><path d="M 10.5 54 L 13 54 L 13 58 L 10.5 58 Z M 10.5 54 " clip-rule="nonzero"/></clipPath><clipPath id="dabe181092"><path d="M 10.5 57 L 13 57 L 13 61 L 10.5 61 Z M 10.5 57 " clip-rule="nonzero"/></clipPath><clipPath id="740faeaaaa"><path d="M 45 97 L 50 97 L 50 100.824219 L 45 100.824219 Z M 45 97 " clip-rule="nonzero"/></clipPath><clipPath id="eb9b52d0b7"><path d="M 48 98 L 53 98 L 53 100.824219 L 48 100.824219 Z M 48 98 " clip-rule="nonzero"/></clipPath><clipPath id="b52075283f"><path d="M 51 98 L 56 98 L 56 100.824219 L 51 100.824219 Z M 51 98 " clip-rule="nonzero"/></clipPath><clipPath id="c2b8d928b7"><path d="M 54 98 L 59 98 L 59 100.824219 L 54 100.824219 Z M 54 98 " clip-rule="nonzero"/></clipPath><clipPath id="489420b168"><path d="M 57 98 L 62 98 L 62 100.824219 L 57 100.824219 Z M 57 98 " clip-rule="nonzero"/></clipPath><clipPath id="0c5e462440"><path d="M 60 98 L 65 98 L 65 100.824219 L 60 100.824219 Z M 60 98 " clip-rule="nonzero"/></clipPath></defs><path fill="#dc0d15" d="M 86.332031 87.332031 L 84.730469 87.332031 C 84.425781 87.332031 84.289062 86.917969 84.527344 86.710938 L 84.988281 86.3125 C 85.378906 85.972656 85.867188 85.789062 86.371094 85.789062 L 87.972656 85.789062 C 88.277344 85.789062 88.414062 86.199219 88.175781 86.410156 L 87.714844 86.804688 C 87.324219 87.144531 86.835938 87.332031 86.332031 87.332031 " fill-opacity="1" fill-rule="nonzero"/><path fill="#dc0d15" d="M 88.425781 85.082031 L 86.828125 85.191406 C 86.523438 85.210938 86.359375 84.808594 86.582031 84.589844 L 87.015625 84.160156 C 87.378906 83.792969 87.855469 83.578125 88.355469 83.542969 L 89.953125 83.429688 C 90.257812 83.40625 90.425781 83.816406 90.199219 84.035156 L 89.769531 84.464844 C 89.398438 84.832031 88.929688 85.046875 88.425781 85.082031 " fill-opacity="1" fill-rule="nonzero"/><path fill="#dc0d15" d="M 90.359375 82.695312 L 88.769531 82.917969 C 88.46875 82.960938 88.273438 82.566406 88.480469 82.328125 L 88.878906 81.871094 C 89.222656 81.480469 89.679688 81.230469 90.175781 81.164062 L 91.765625 80.9375 C 92.070312 80.894531 92.257812 81.285156 92.050781 81.523438 L 91.652344 81.980469 C 91.3125 82.378906 90.855469 82.625 90.359375 82.695312 " fill-opacity="1" fill-rule="nonzero"/><path fill="#dc0d15" d="M 92.117188 80.183594 L 90.550781 80.507812 C 90.25 80.574219 90.03125 80.199219 90.222656 79.945312 L 90.585938 79.460938 C 90.902344 79.050781 91.339844 78.769531 91.832031 78.664062 L 93.398438 78.332031 C 93.699219 78.265625 93.914062 78.644531 93.722656 78.898438 L 93.355469 79.382812 C 93.042969 79.792969 92.605469 80.074219 92.117188 80.183594 " fill-opacity="1" fill-rule="nonzero"/><path fill="#dc0d15" d="M 93.691406 77.546875 L 92.15625 77.984375 C 91.859375 78.070312 91.613281 77.707031 91.789062 77.441406 L 92.121094 76.9375 C 92.402344 76.503906 92.820312 76.191406 93.304688 76.054688 L 94.84375 75.613281 C 95.140625 75.527344 95.386719 75.886719 95.210938 76.152344 L 94.878906 76.664062 C 94.59375 77.09375 94.175781 77.40625 93.691406 77.546875 " fill-opacity="1" fill-rule="nonzero"/><path fill="#dc0d15" d="M 95.085938 74.808594 L 93.582031 75.355469 C 93.292969 75.460938 93.023438 75.117188 93.179688 74.839844 L 93.472656 74.3125 C 93.722656 73.859375 94.121094 73.519531 94.59375 73.347656 L 96.097656 72.800781 C 96.386719 72.695312 96.65625 73.039062 96.503906 73.3125 L 96.207031 73.847656 C 95.953125 74.296875 95.558594 74.636719 95.085938 74.808594 " fill-opacity="1" fill-rule="nonzero"/><path fill="#dc0d15" d="M 96.28125 71.980469 L 94.820312 72.632812 C 94.539062 72.753906 94.25 72.433594 94.378906 72.144531 L 94.640625 71.597656 C 94.859375 71.128906 95.230469 70.761719 95.691406 70.554688 L 97.15625 69.90625 C 97.433594 69.78125 97.726562 70.105469 97.59375 70.390625 L 97.335938 70.941406 C 97.109375 71.410156 96.742188 71.773438 96.28125 71.980469 " fill-opacity="1" fill-rule="nonzero"/><path fill="#dc0d15" d="M 97.28125 69.078125 L 95.863281 69.828125 C 95.597656 69.972656 95.28125 69.667969 95.394531 69.378906 L 95.613281 68.808594 C 95.804688 68.324219 96.148438 67.9375 96.589844 67.699219 L 98.003906 66.945312 C 98.273438 66.800781 98.59375 67.105469 98.476562 67.398438 L 98.257812 67.964844 C 98.066406 68.449219 97.722656 68.839844 97.28125 69.078125 " fill-opacity="1" fill-rule="nonzero"/><g clip-path="url(#b0a52ee6c4)"><path fill="#dc0d15" d="M 98.074219 66.109375 L 96.714844 66.960938 C 96.453125 67.121094 96.121094 66.839844 96.210938 66.539062 L 96.390625 65.960938 C 96.546875 65.464844 96.859375 65.046875 97.289062 64.78125 L 98.644531 63.9375 C 98.90625 63.773438 99.242188 64.050781 99.144531 64.355469 L 98.964844 64.929688 C 98.816406 65.429688 98.5 65.84375 98.074219 66.109375 " fill-opacity="1" fill-rule="nonzero"/></g><g clip-path="url(#62efb6e93e)"><path fill="#dc0d15" d="M 98.65625 63.09375 L 97.359375 64.035156 C 97.109375 64.214844 96.757812 63.960938 96.828125 63.65625 L 96.964844 63.0625 C 97.085938 62.558594 97.371094 62.121094 97.777344 61.824219 L 99.074219 60.882812 C 99.324219 60.703125 99.671875 60.960938 99.605469 61.265625 L 99.464844 61.859375 C 99.347656 62.367188 99.058594 62.800781 98.65625 63.09375 " fill-opacity="1" fill-rule="nonzero"/></g><g clip-path="url(#eb44076ae0)"><path fill="#dc0d15" d="M 99.027344 60.050781 L 97.800781 61.074219 C 97.5625 61.273438 97.191406 61.042969 97.246094 60.730469 L 97.339844 60.132812 C 97.421875 59.621094 97.675781 59.167969 98.0625 58.84375 L 99.289062 57.8125 C 99.523438 57.617188 99.894531 57.847656 99.84375 58.15625 L 99.75 58.757812 C 99.667969 59.269531 99.410156 59.722656 99.027344 60.050781 " fill-opacity="1" fill-rule="nonzero"/></g><g clip-path="url(#c43a2b040f)"><path fill="#dc0d15" d="M 99.183594 56.980469 L 98.035156 58.09375 C 97.808594 58.304688 97.425781 58.101562 97.453125 57.789062 L 97.507812 57.183594 C 97.554688 56.664062 97.777344 56.195312 98.140625 55.847656 L 99.289062 54.734375 C 99.511719 54.519531 99.898438 54.726562 99.867188 55.039062 L 99.8125 55.644531 C 99.769531 56.160156 99.546875 56.632812 99.183594 56.980469 " fill-opacity="1" fill-rule="nonzero"/></g><g clip-path="url(#2def8df2ba)"><path fill="#dc0d15" d="M 99.125 53.914062 L 98.054688 55.101562 C 97.847656 55.332031 97.453125 55.152344 97.457031 54.839844 L 97.46875 54.230469 C 97.480469 53.710938 97.667969 53.226562 98.003906 52.851562 L 99.074219 51.660156 C 99.28125 51.433594 99.679688 51.609375 99.671875 51.925781 L 99.660156 52.53125 C 99.652344 53.050781 99.460938 53.539062 99.125 53.914062 " fill-opacity="1" fill-rule="nonzero"/></g><g clip-path="url(#7a8caccedd)"><path fill="#dc0d15" d="M 98.855469 50.855469 L 97.871094 52.109375 C 97.683594 52.359375 97.269531 52.207031 97.253906 51.894531 L 97.222656 51.285156 C 97.199219 50.769531 97.355469 50.269531 97.664062 49.871094 L 98.652344 48.613281 C 98.839844 48.371094 99.246094 48.515625 99.265625 48.832031 L 99.296875 49.441406 C 99.320312 49.960938 99.164062 50.457031 98.855469 50.855469 " fill-opacity="1" fill-rule="nonzero"/></g><path fill="#dc0d15" d="M 98.371094 47.820312 L 97.476562 49.148438 C 97.308594 49.402344 96.886719 49.28125 96.847656 48.96875 L 96.773438 48.367188 C 96.710938 47.851562 96.832031 47.34375 97.113281 46.925781 L 98.011719 45.601562 C 98.179688 45.34375 98.601562 45.464844 98.636719 45.78125 L 98.710938 46.382812 C 98.773438 46.898438 98.652344 47.40625 98.371094 47.820312 " fill-opacity="1" fill-rule="nonzero"/><path fill="#dc0d15" d="M 97.675781 44.832031 L 96.878906 46.214844 C 96.722656 46.484375 96.296875 46.390625 96.238281 46.082031 L 96.121094 45.484375 C 96.027344 44.976562 96.109375 44.464844 96.363281 44.027344 L 97.160156 42.644531 C 97.3125 42.378906 97.742188 42.46875 97.800781 42.777344 L 97.917969 43.371094 C 98.011719 43.878906 97.925781 44.394531 97.675781 44.832031 " fill-opacity="1" fill-rule="nonzero"/><path fill="#dc0d15" d="M 96.777344 41.894531 L 96.078125 43.335938 C 95.941406 43.609375 95.507812 43.550781 95.429688 43.246094 L 95.273438 42.660156 C 95.140625 42.15625 95.1875 41.636719 95.40625 41.1875 L 96.109375 39.75 C 96.242188 39.472656 96.679688 39.535156 96.757812 39.835938 L 96.914062 40.425781 C 97.042969 40.921875 96.996094 41.445312 96.777344 41.894531 " fill-opacity="1" fill-rule="nonzero"/><path fill="#dc0d15" d="M 95.671875 39.03125 L 95.074219 40.515625 C 94.957031 40.796875 94.523438 40.769531 94.425781 40.46875 L 94.226562 39.894531 C 94.058594 39.402344 94.066406 38.882812 94.257812 38.417969 L 94.855469 36.933594 C 94.972656 36.652344 95.410156 36.675781 95.507812 36.976562 L 95.703125 37.554688 C 95.875 38.042969 95.863281 38.5625 95.671875 39.03125 " fill-opacity="1" fill-rule="nonzero"/><path fill="#dc0d15" d="M 94.371094 36.246094 L 93.875 37.769531 C 93.785156 38.058594 93.347656 38.066406 93.222656 37.773438 L 92.988281 37.210938 C 92.785156 36.734375 92.761719 36.210938 92.917969 35.734375 L 93.410156 34.214844 C 93.507812 33.921875 93.945312 33.917969 94.066406 34.214844 L 94.304688 34.769531 C 94.503906 35.25 94.527344 35.769531 94.371094 36.246094 " fill-opacity="1" fill-rule="nonzero"/><path fill="#dc0d15" d="M 92.878906 33.566406 L 92.492188 35.117188 C 92.417969 35.417969 91.984375 35.453125 91.839844 35.167969 L 91.5625 34.625 C 91.328125 34.164062 91.269531 33.644531 91.390625 33.160156 L 91.777344 31.605469 C 91.851562 31.308594 92.289062 31.277344 92.429688 31.558594 L 92.707031 32.101562 C 92.941406 32.558594 93 33.078125 92.878906 33.566406 " fill-opacity="1" fill-rule="nonzero"/><path fill="#dc0d15" d="M 91.203125 30.992188 L 90.925781 32.566406 C 90.875 32.871094 90.441406 32.933594 90.277344 32.660156 L 89.96875 32.140625 C 89.703125 31.691406 89.605469 31.179688 89.695312 30.6875 L 89.972656 29.113281 C 90.027344 28.808594 90.457031 28.75 90.617188 29.019531 L 90.929688 29.539062 C 91.191406 29.984375 91.292969 30.5 91.203125 30.992188 " fill-opacity="1" fill-rule="nonzero"/><path fill="#dc0d15" d="M 89.355469 28.542969 L 89.183594 30.132812 C 89.15625 30.4375 88.730469 30.53125 88.546875 30.269531 L 88.199219 29.773438 C 87.90625 29.347656 87.769531 28.84375 87.824219 28.34375 L 87.992188 26.753906 C 88.023438 26.449219 88.449219 26.355469 88.628906 26.617188 L 88.976562 27.117188 C 89.273438 27.539062 89.40625 28.039062 89.355469 28.542969 " fill-opacity="1" fill-rule="nonzero"/><path fill="#dc0d15" d="M 87.335938 26.226562 L 87.28125 27.824219 C 87.269531 28.132812 86.851562 28.253906 86.652344 28.007812 L 86.273438 27.535156 C 85.949219 27.128906 85.78125 26.636719 85.796875 26.132812 L 85.851562 24.53125 C 85.863281 24.226562 86.285156 24.105469 86.480469 24.351562 L 86.863281 24.824219 C 87.1875 25.230469 87.355469 25.722656 87.335938 26.226562 " fill-opacity="1" fill-rule="nonzero"/><path fill="#dc0d15" d="M 85.164062 24.058594 L 85.214844 25.65625 C 85.230469 25.964844 84.820312 26.113281 84.605469 25.882812 L 84.191406 25.4375 C 83.839844 25.058594 83.636719 24.574219 83.617188 24.074219 L 83.5625 22.472656 C 83.550781 22.167969 83.960938 22.015625 84.175781 22.25 L 84.589844 22.695312 C 84.941406 23.074219 85.144531 23.558594 85.164062 24.058594 " fill-opacity="1" fill-rule="nonzero"/><path fill="#dc0d15" d="M 82.84375 22.046875 L 83.011719 23.636719 C 83.042969 23.941406 82.644531 24.121094 82.414062 23.90625 L 81.96875 23.488281 C 81.589844 23.136719 81.355469 22.667969 81.304688 22.167969 L 81.136719 20.578125 C 81.105469 20.273438 81.503906 20.097656 81.734375 20.3125 L 82.175781 20.726562 C 82.554688 21.082031 82.789062 21.546875 82.84375 22.046875 " fill-opacity="1" fill-rule="nonzero"/><path fill="#dc0d15" d="M 80.386719 20.203125 L 80.664062 21.777344 C 80.71875 22.082031 80.332031 22.285156 80.085938 22.085938 L 79.617188 21.703125 C 79.214844 21.375 78.949219 20.929688 78.859375 20.433594 L 78.582031 18.859375 C 78.527344 18.554688 78.914062 18.351562 79.160156 18.546875 L 79.632812 18.933594 C 80.03125 19.257812 80.300781 19.707031 80.386719 20.203125 " fill-opacity="1" fill-rule="nonzero"/><path fill="#dc0d15" d="M 77.808594 18.535156 L 78.195312 20.085938 C 78.273438 20.382812 77.902344 20.617188 77.640625 20.433594 L 77.148438 20.082031 C 76.722656 19.789062 76.425781 19.355469 76.304688 18.871094 L 75.917969 17.320312 C 75.84375 17.019531 76.210938 16.789062 76.472656 16.96875 L 76.964844 17.320312 C 77.390625 17.613281 77.6875 18.046875 77.808594 18.535156 " fill-opacity="1" fill-rule="nonzero"/><path fill="#dc0d15" d="M 75.121094 17.046875 L 75.617188 18.566406 C 75.710938 18.859375 75.355469 19.117188 75.089844 18.953125 L 74.570312 18.636719 C 74.125 18.367188 73.800781 17.964844 73.644531 17.484375 L 73.152344 15.964844 C 73.054688 15.671875 73.40625 15.417969 73.679688 15.578125 L 74.199219 15.894531 C 74.640625 16.160156 74.964844 16.566406 75.121094 17.046875 " fill-opacity="1" fill-rule="nonzero"/><path fill="#dc0d15" d="M 72.335938 15.753906 L 72.9375 17.234375 C 73.054688 17.519531 72.71875 17.800781 72.4375 17.65625 L 71.898438 17.378906 C 71.433594 17.144531 71.082031 16.761719 70.894531 16.292969 L 70.296875 14.808594 C 70.179688 14.523438 70.511719 14.242188 70.792969 14.386719 L 71.335938 14.664062 C 71.796875 14.902344 72.144531 15.285156 72.335938 15.753906 " fill-opacity="1" fill-rule="nonzero"/><path fill="#dc0d15" d="M 69.46875 14.65625 L 70.167969 16.09375 C 70.304688 16.367188 69.992188 16.671875 69.703125 16.550781 L 69.140625 16.304688 C 68.667969 16.105469 68.285156 15.746094 68.066406 15.296875 L 67.367188 13.859375 C 67.230469 13.585938 67.542969 13.28125 67.835938 13.402344 L 68.394531 13.644531 C 68.871094 13.847656 69.25 14.203125 69.46875 14.65625 " fill-opacity="1" fill-rule="nonzero"/><path fill="#dc0d15" d="M 66.53125 13.761719 L 67.332031 15.144531 C 67.484375 15.410156 67.195312 15.738281 66.894531 15.632812 L 66.320312 15.433594 C 65.832031 15.265625 65.425781 14.933594 65.175781 14.5 L 64.378906 13.113281 C 64.222656 12.847656 64.515625 12.519531 64.8125 12.625 L 65.382812 12.828125 C 65.875 12.996094 66.277344 13.324219 66.53125 13.761719 " fill-opacity="1" fill-rule="nonzero"/><path fill="#dc0d15" d="M 63.535156 13.070312 L 64.433594 14.394531 C 64.601562 14.65625 64.332031 15 64.027344 14.914062 L 63.445312 14.753906 C 62.941406 14.617188 62.515625 14.316406 62.234375 13.902344 L 61.34375 12.578125 C 61.171875 12.324219 61.4375 11.976562 61.742188 12.058594 L 62.328125 12.21875 C 62.828125 12.355469 63.257812 12.65625 63.535156 13.070312 " fill-opacity="1" fill-rule="nonzero"/><g clip-path="url(#9d5bfc238e)"><path fill="#dc0d15" d="M 60.5 12.597656 L 61.488281 13.855469 C 61.675781 14.097656 61.433594 14.460938 61.121094 14.398438 L 60.527344 14.28125 C 60.015625 14.179688 59.574219 13.910156 59.265625 13.515625 L 58.28125 12.253906 C 58.09375 12.015625 58.332031 11.652344 58.644531 11.710938 L 59.238281 11.832031 C 59.746094 11.929688 60.191406 12.199219 60.5 12.597656 " fill-opacity="1" fill-rule="nonzero"/></g><g clip-path="url(#1922ed0916)"><path fill="#dc0d15" d="M 57.445312 12.332031 L 58.511719 13.519531 C 58.71875 13.75 58.5 14.125 58.1875 14.085938 L 57.585938 14.011719 C 57.070312 13.945312 56.605469 13.707031 56.269531 13.332031 L 55.199219 12.144531 C 54.996094 11.917969 55.210938 11.539062 55.527344 11.578125 L 56.128906 11.65625 C 56.640625 11.714844 57.105469 11.957031 57.445312 12.332031 " fill-opacity="1" fill-rule="nonzero"/></g><g clip-path="url(#f692cba869)"><path fill="#dc0d15" d="M 54.371094 12.28125 L 55.527344 13.394531 C 55.746094 13.605469 55.554688 13.996094 55.238281 13.980469 L 54.632812 13.945312 C 54.113281 13.917969 53.636719 13.714844 53.273438 13.363281 L 52.121094 12.253906 C 51.898438 12.039062 52.089844 11.648438 52.40625 11.664062 L 53.011719 11.699219 C 53.53125 11.726562 54.007812 11.929688 54.371094 12.28125 " fill-opacity="1" fill-rule="nonzero"/></g><g clip-path="url(#8be2bd66b0)"><path fill="#dc0d15" d="M 51.304688 12.445312 L 52.53125 13.472656 C 52.765625 13.667969 52.601562 14.074219 52.289062 14.078125 L 51.679688 14.085938 C 51.164062 14.097656 50.671875 13.925781 50.289062 13.601562 L 49.058594 12.574219 C 48.824219 12.375 48.988281 11.96875 49.304688 11.96875 L 49.910156 11.960938 C 50.425781 11.949219 50.917969 12.121094 51.304688 12.445312 " fill-opacity="1" fill-rule="nonzero"/></g><path fill="#dc0d15" d="M 48.257812 12.824219 L 49.550781 13.761719 C 49.800781 13.941406 49.664062 14.355469 49.351562 14.382812 L 48.746094 14.433594 C 48.230469 14.480469 47.726562 14.339844 47.316406 14.046875 L 46.023438 13.105469 C 45.777344 12.921875 45.910156 12.507812 46.226562 12.480469 L 46.828125 12.429688 C 47.347656 12.390625 47.851562 12.523438 48.257812 12.824219 " fill-opacity="1" fill-rule="nonzero"/><path fill="#dc0d15" d="M 45.242188 13.410156 L 46.601562 14.257812 C 46.859375 14.421875 46.757812 14.84375 46.445312 14.890625 L 45.84375 14.988281 C 45.332031 15.066406 44.820312 14.964844 44.394531 14.695312 L 43.035156 13.851562 C 42.777344 13.683594 42.882812 13.261719 43.191406 13.214844 L 43.792969 13.121094 C 44.304688 13.039062 44.816406 13.144531 45.242188 13.410156 " fill-opacity="1" fill-rule="nonzero"/><path fill="#dc0d15" d="M 42.277344 14.210938 L 43.691406 14.957031 C 43.960938 15.105469 43.886719 15.53125 43.578125 15.605469 L 42.988281 15.738281 C 42.480469 15.855469 41.964844 15.789062 41.523438 15.550781 L 40.105469 14.804688 C 39.835938 14.660156 39.910156 14.230469 40.21875 14.160156 L 40.8125 14.019531 C 41.316406 13.90625 41.832031 13.972656 42.277344 14.210938 " fill-opacity="1" fill-rule="nonzero"/><path fill="#dc0d15" d="M 39.371094 15.210938 L 40.835938 15.859375 C 41.113281 15.984375 41.070312 16.417969 40.769531 16.511719 L 40.183594 16.6875 C 39.691406 16.835938 39.167969 16.808594 38.710938 16.601562 L 37.25 15.953125 C 36.96875 15.828125 37.011719 15.394531 37.316406 15.300781 L 37.898438 15.125 C 38.394531 14.976562 38.914062 15.007812 39.371094 15.210938 " fill-opacity="1" fill-rule="nonzero"/><path fill="#dc0d15" d="M 36.546875 16.410156 L 38.050781 16.960938 C 38.339844 17.066406 38.328125 17.5 38.03125 17.613281 L 37.460938 17.828125 C 36.980469 18.015625 36.453125 18.019531 35.980469 17.847656 L 34.480469 17.300781 C 34.191406 17.195312 34.207031 16.761719 34.5 16.648438 L 35.066406 16.433594 C 35.550781 16.25 36.074219 16.242188 36.546875 16.410156 " fill-opacity="1" fill-rule="nonzero"/><path fill="#dc0d15" d="M 33.8125 17.808594 L 35.347656 18.253906 C 35.644531 18.335938 35.660156 18.773438 35.375 18.90625 L 34.820312 19.15625 C 34.351562 19.375 33.832031 19.417969 33.347656 19.28125 L 31.808594 18.835938 C 31.511719 18.75 31.496094 18.316406 31.785156 18.183594 L 32.335938 17.929688 C 32.808594 17.710938 33.328125 17.671875 33.8125 17.808594 " fill-opacity="1" fill-rule="nonzero"/><path fill="#dc0d15" d="M 31.179688 19.394531 L 32.746094 19.726562 C 33.046875 19.792969 33.09375 20.222656 32.816406 20.375 L 32.28125 20.667969 C 31.828125 20.917969 31.3125 20.996094 30.820312 20.894531 L 29.253906 20.5625 C 28.957031 20.5 28.90625 20.066406 29.183594 19.914062 L 29.714844 19.617188 C 30.171875 19.371094 30.6875 19.289062 31.179688 19.394531 " fill-opacity="1" fill-rule="nonzero"/><path fill="#dc0d15" d="M 28.667969 21.15625 L 30.25 21.378906 C 30.554688 21.425781 30.632812 21.851562 30.367188 22.023438 L 29.855469 22.351562 C 29.421875 22.632812 28.914062 22.75 28.417969 22.679688 L 26.828125 22.457031 C 26.523438 22.414062 26.449219 21.984375 26.714844 21.816406 L 27.222656 21.484375 C 27.660156 21.203125 28.167969 21.089844 28.667969 21.15625 " fill-opacity="1" fill-rule="nonzero"/><path fill="#dc0d15" d="M 26.28125 23.09375 L 27.878906 23.203125 C 28.183594 23.222656 28.292969 23.648438 28.039062 23.839844 L 27.550781 24.199219 C 27.136719 24.511719 26.636719 24.660156 26.132812 24.628906 L 24.539062 24.515625 C 24.230469 24.492188 24.125 24.070312 24.378906 23.882812 L 24.863281 23.515625 C 25.277344 23.207031 25.78125 23.058594 26.28125 23.09375 " fill-opacity="1" fill-rule="nonzero"/><path fill="#dc0d15" d="M 24.039062 25.1875 L 25.640625 25.1875 C 25.945312 25.1875 26.082031 25.601562 25.84375 25.808594 L 25.382812 26.207031 C 24.992188 26.542969 24.503906 26.730469 24 26.730469 L 22.402344 26.730469 C 22.09375 26.730469 21.957031 26.316406 22.195312 26.109375 L 22.65625 25.710938 C 23.046875 25.375 23.53125 25.1875 24.039062 25.1875 " fill-opacity="1" fill-rule="nonzero"/><path fill="#dc0d15" d="M 21.945312 27.4375 L 23.542969 27.328125 C 23.847656 27.304688 24.011719 27.707031 23.792969 27.933594 L 23.359375 28.359375 C 22.992188 28.726562 22.515625 28.941406 22.019531 28.976562 L 20.417969 29.089844 C 20.113281 29.109375 19.949219 28.707031 20.171875 28.484375 L 20.601562 28.058594 C 20.96875 27.6875 21.441406 27.472656 21.945312 27.4375 " fill-opacity="1" fill-rule="nonzero"/><path fill="#dc0d15" d="M 20.015625 29.820312 L 21.601562 29.601562 C 21.902344 29.558594 22.09375 29.949219 21.886719 30.1875 L 21.488281 30.644531 C 21.148438 31.035156 20.691406 31.285156 20.195312 31.355469 L 18.613281 31.578125 C 18.308594 31.621094 18.117188 31.230469 18.320312 30.988281 L 18.722656 30.53125 C 19.058594 30.144531 19.515625 29.890625 20.015625 29.820312 " fill-opacity="1" fill-rule="nonzero"/><path fill="#dc0d15" d="M 18.253906 32.339844 L 19.820312 32.007812 C 20.121094 31.945312 20.339844 32.320312 20.148438 32.574219 L 19.78125 33.058594 C 19.46875 33.472656 19.027344 33.753906 18.539062 33.855469 L 16.972656 34.1875 C 16.671875 34.253906 16.457031 33.875 16.644531 33.625 L 17.015625 33.140625 C 17.328125 32.726562 17.765625 32.445312 18.253906 32.339844 " fill-opacity="1" fill-rule="nonzero"/><path fill="#dc0d15" d="M 16.675781 34.976562 L 18.214844 34.53125 C 18.507812 34.449219 18.753906 34.8125 18.585938 35.074219 L 18.25 35.582031 C 17.964844 36.019531 17.550781 36.328125 17.066406 36.46875 L 15.527344 36.910156 C 15.234375 36.996094 14.988281 36.632812 15.160156 36.367188 L 15.492188 35.859375 C 15.773438 35.425781 16.191406 35.113281 16.675781 34.976562 " fill-opacity="1" fill-rule="nonzero"/><path fill="#dc0d15" d="M 15.285156 37.710938 L 16.789062 37.164062 C 17.078125 37.058594 17.347656 37.402344 17.191406 37.679688 L 16.894531 38.210938 C 16.644531 38.664062 16.25 39.007812 15.773438 39.171875 L 14.273438 39.722656 C 13.984375 39.824219 13.714844 39.484375 13.867188 39.207031 L 14.164062 38.675781 C 14.417969 38.222656 14.8125 37.882812 15.285156 37.710938 " fill-opacity="1" fill-rule="nonzero"/><path fill="#dc0d15" d="M 14.089844 40.535156 L 15.550781 39.886719 C 15.832031 39.761719 16.121094 40.085938 15.992188 40.375 L 15.730469 40.921875 C 15.511719 41.390625 15.140625 41.757812 14.679688 41.960938 L 13.21875 42.613281 C 12.9375 42.734375 12.644531 42.414062 12.78125 42.128906 L 13.039062 41.578125 C 13.257812 41.109375 13.628906 40.742188 14.089844 40.535156 " fill-opacity="1" fill-rule="nonzero"/><path fill="#dc0d15" d="M 13.089844 43.441406 L 14.503906 42.691406 C 14.773438 42.546875 15.089844 42.851562 14.976562 43.144531 L 14.757812 43.710938 C 14.570312 44.195312 14.226562 44.589844 13.78125 44.824219 L 12.371094 45.574219 C 12.097656 45.71875 11.78125 45.417969 11.898438 45.121094 L 12.117188 44.554688 C 12.304688 44.070312 12.648438 43.679688 13.089844 43.441406 " fill-opacity="1" fill-rule="nonzero"/><path fill="#dc0d15" d="M 12.296875 46.410156 L 13.652344 45.558594 C 13.914062 45.398438 14.25 45.679688 14.15625 45.980469 L 13.976562 46.5625 C 13.824219 47.054688 13.507812 47.472656 13.082031 47.738281 L 11.722656 48.585938 C 11.464844 48.75 11.128906 48.472656 11.222656 48.164062 L 11.398438 47.589844 C 11.554688 47.089844 11.871094 46.675781 12.296875 46.410156 " fill-opacity="1" fill-rule="nonzero"/><g clip-path="url(#1822aae286)"><path fill="#dc0d15" d="M 11.714844 49.421875 L 13.011719 48.480469 C 13.257812 48.300781 13.613281 48.558594 13.539062 48.867188 L 13.402344 49.457031 C 13.285156 49.960938 12.996094 50.398438 12.589844 50.695312 L 11.296875 51.632812 C 11.046875 51.816406 10.695312 51.558594 10.765625 51.253906 L 10.90625 50.660156 C 11.023438 50.152344 11.308594 49.722656 11.714844 49.421875 " fill-opacity="1" fill-rule="nonzero"/></g><g clip-path="url(#52781d55d2)"><path fill="#dc0d15" d="M 11.34375 52.46875 L 12.570312 51.441406 C 12.804688 51.242188 13.175781 51.476562 13.125 51.785156 L 13.027344 52.382812 C 12.949219 52.898438 12.691406 53.351562 12.308594 53.675781 L 11.078125 54.703125 C 10.847656 54.898438 10.472656 54.671875 10.527344 54.359375 L 10.617188 53.757812 C 10.703125 53.25 10.960938 52.792969 11.34375 52.46875 " fill-opacity="1" fill-rule="nonzero"/></g><g clip-path="url(#f625f0bb0c)"><path fill="#dc0d15" d="M 11.1875 55.539062 L 12.339844 54.425781 C 12.558594 54.214844 12.945312 54.417969 12.917969 54.730469 L 12.863281 55.335938 C 12.820312 55.851562 12.59375 56.324219 12.230469 56.671875 L 11.078125 57.785156 C 10.859375 58 10.472656 57.792969 10.503906 57.480469 L 10.558594 56.878906 C 10.601562 56.359375 10.824219 55.886719 11.1875 55.539062 " fill-opacity="1" fill-rule="nonzero"/></g><g clip-path="url(#dabe181092)"><path fill="#dc0d15" d="M 11.242188 58.609375 L 12.3125 57.417969 C 12.519531 57.191406 12.917969 57.367188 12.910156 57.683594 L 12.898438 58.292969 C 12.890625 58.804688 12.699219 59.292969 12.359375 59.667969 L 11.289062 60.855469 C 11.085938 61.085938 10.6875 60.90625 10.695312 60.589844 L 10.710938 59.984375 C 10.71875 59.464844 10.90625 58.980469 11.242188 58.609375 " fill-opacity="1" fill-rule="nonzero"/></g><path fill="#dc0d15" d="M 11.511719 61.667969 L 12.5 60.40625 C 12.691406 60.167969 13.097656 60.3125 13.113281 60.628906 L 13.144531 61.238281 C 13.167969 61.75 13.011719 62.25 12.707031 62.648438 L 11.71875 63.90625 C 11.53125 64.148438 11.121094 64 11.101562 63.6875 L 11.070312 63.078125 C 11.046875 62.5625 11.207031 62.058594 11.511719 61.667969 " fill-opacity="1" fill-rule="nonzero"/><path fill="#dc0d15" d="M 12 64.699219 L 12.894531 63.375 C 13.066406 63.117188 13.488281 63.234375 13.523438 63.546875 L 13.597656 64.152344 C 13.65625 64.667969 13.539062 65.171875 13.257812 65.589844 L 12.359375 66.917969 C 12.191406 67.175781 11.769531 67.054688 11.734375 66.738281 L 11.660156 66.140625 C 11.597656 65.621094 11.71875 65.113281 12 64.699219 " fill-opacity="1" fill-rule="nonzero"/><path fill="#dc0d15" d="M 12.691406 67.6875 L 13.492188 66.304688 C 13.644531 66.039062 14.074219 66.128906 14.132812 66.441406 L 14.246094 67.035156 C 14.34375 67.542969 14.261719 68.054688 14.007812 68.492188 L 13.207031 69.878906 C 13.054688 70.140625 12.625 70.054688 12.566406 69.746094 L 12.453125 69.148438 C 12.355469 68.640625 12.441406 68.125 12.691406 67.6875 " fill-opacity="1" fill-rule="nonzero"/><path fill="#dc0d15" d="M 13.59375 70.625 L 14.296875 69.183594 C 14.429688 68.910156 14.859375 68.972656 14.941406 69.277344 L 15.097656 69.863281 C 15.230469 70.363281 15.179688 70.882812 14.960938 71.335938 L 14.261719 72.773438 C 14.128906 73.050781 13.695312 72.988281 13.613281 72.683594 L 13.457031 72.097656 C 13.324219 71.59375 13.371094 71.074219 13.59375 70.625 " fill-opacity="1" fill-rule="nonzero"/><path fill="#dc0d15" d="M 14.699219 73.488281 L 15.296875 72.007812 C 15.414062 71.71875 15.847656 71.75 15.949219 72.050781 L 16.144531 72.625 C 16.3125 73.113281 16.300781 73.636719 16.113281 74.101562 L 15.515625 75.582031 C 15.402344 75.871094 14.964844 75.839844 14.863281 75.539062 L 14.667969 74.964844 C 14.5 74.476562 14.507812 73.957031 14.699219 73.488281 " fill-opacity="1" fill-rule="nonzero"/><path fill="#dc0d15" d="M 15.996094 76.269531 L 16.492188 74.75 C 16.585938 74.457031 17.023438 74.457031 17.144531 74.746094 L 17.378906 75.308594 C 17.582031 75.78125 17.605469 76.304688 17.453125 76.785156 L 16.957031 78.304688 C 16.863281 78.597656 16.425781 78.597656 16.304688 78.304688 L 16.066406 77.746094 C 15.867188 77.265625 15.84375 76.746094 15.996094 76.269531 " fill-opacity="1" fill-rule="nonzero"/><path fill="#dc0d15" d="M 17.488281 78.953125 L 17.878906 77.402344 C 17.949219 77.101562 18.386719 77.070312 18.53125 77.351562 L 18.808594 77.894531 C 19.039062 78.355469 19.097656 78.875 18.980469 79.363281 L 18.589844 80.917969 C 18.515625 81.210938 18.082031 81.242188 17.941406 80.960938 L 17.664062 80.421875 C 17.429688 79.960938 17.371094 79.441406 17.488281 78.953125 " fill-opacity="1" fill-rule="nonzero"/><path fill="#dc0d15" d="M 19.164062 81.523438 L 19.441406 79.949219 C 19.496094 79.648438 19.925781 79.585938 20.089844 79.855469 L 20.402344 80.378906 C 20.667969 80.824219 20.765625 81.339844 20.675781 81.828125 L 20.398438 83.40625 C 20.34375 83.710938 19.914062 83.769531 19.75 83.5 L 19.441406 82.976562 C 19.175781 82.53125 19.078125 82.023438 19.164062 81.523438 " fill-opacity="1" fill-rule="nonzero"/><path fill="#dc0d15" d="M 21.015625 83.976562 L 21.183594 82.386719 C 21.214844 82.082031 21.640625 81.988281 21.824219 82.25 L 22.171875 82.746094 C 22.464844 83.171875 22.601562 83.679688 22.546875 84.175781 L 22.375 85.769531 C 22.34375 86.074219 21.917969 86.164062 21.738281 85.90625 L 21.390625 85.40625 C 21.097656 84.984375 20.964844 84.476562 21.015625 83.976562 " fill-opacity="1" fill-rule="nonzero"/><path fill="#dc0d15" d="M 23.035156 86.292969 L 23.089844 84.695312 C 23.101562 84.386719 23.519531 84.265625 23.714844 84.511719 L 24.097656 84.988281 C 24.421875 85.390625 24.589844 85.882812 24.570312 86.386719 L 24.515625 87.988281 C 24.507812 88.292969 24.085938 88.414062 23.890625 88.167969 L 23.507812 87.695312 C 23.183594 87.289062 23.015625 86.796875 23.035156 86.292969 " fill-opacity="1" fill-rule="nonzero"/><path fill="#dc0d15" d="M 25.207031 88.460938 L 25.152344 86.863281 C 25.144531 86.554688 25.550781 86.40625 25.765625 86.636719 L 26.179688 87.082031 C 26.527344 87.460938 26.730469 87.941406 26.75 88.445312 L 26.804688 90.042969 C 26.816406 90.351562 26.40625 90.5 26.1875 90.265625 L 25.777344 89.824219 C 25.429688 89.441406 25.226562 88.960938 25.207031 88.460938 " fill-opacity="1" fill-rule="nonzero"/><path fill="#dc0d15" d="M 27.53125 90.472656 L 27.363281 88.882812 C 27.332031 88.578125 27.726562 88.398438 27.957031 88.613281 L 28.402344 89.03125 C 28.78125 89.382812 29.011719 89.847656 29.066406 90.351562 L 29.238281 91.941406 C 29.269531 92.246094 28.871094 92.421875 28.640625 92.210938 L 28.191406 91.792969 C 27.8125 91.4375 27.582031 90.972656 27.53125 90.472656 " fill-opacity="1" fill-rule="nonzero"/><path fill="#dc0d15" d="M 29.984375 92.316406 L 29.707031 90.742188 C 29.652344 90.441406 30.039062 90.234375 30.285156 90.433594 L 30.753906 90.816406 C 31.15625 91.144531 31.421875 91.589844 31.507812 92.085938 L 31.789062 93.660156 C 31.839844 93.964844 31.457031 94.167969 31.210938 93.972656 L 30.738281 93.589844 C 30.339844 93.261719 30.070312 92.8125 29.984375 92.316406 " fill-opacity="1" fill-rule="nonzero"/><path fill="#dc0d15" d="M 32.5625 93.988281 L 32.175781 92.4375 C 32.097656 92.140625 32.472656 91.90625 32.730469 92.085938 L 33.226562 92.4375 C 33.648438 92.734375 33.949219 93.164062 34.066406 93.652344 L 34.453125 95.207031 C 34.527344 95.503906 34.160156 95.734375 33.898438 95.550781 L 33.402344 95.207031 C 32.980469 94.90625 32.679688 94.476562 32.5625 93.988281 " fill-opacity="1" fill-rule="nonzero"/><path fill="#dc0d15" d="M 35.25 95.472656 L 34.753906 93.953125 C 34.660156 93.664062 35.011719 93.40625 35.28125 93.566406 L 35.804688 93.882812 C 36.246094 94.148438 36.574219 94.554688 36.730469 95.03125 L 37.222656 96.558594 C 37.320312 96.847656 36.964844 97.105469 36.691406 96.941406 L 36.175781 96.625 C 35.730469 96.359375 35.402344 95.953125 35.25 95.472656 " fill-opacity="1" fill-rule="nonzero"/><path fill="#dc0d15" d="M 38.035156 96.765625 L 37.433594 95.285156 C 37.320312 95 37.65625 94.71875 37.9375 94.863281 L 38.472656 95.140625 C 38.9375 95.375 39.292969 95.761719 39.476562 96.226562 L 40.078125 97.710938 C 40.195312 97.996094 39.863281 98.277344 39.582031 98.132812 L 39.039062 97.855469 C 38.578125 97.617188 38.222656 97.234375 38.035156 96.765625 " fill-opacity="1" fill-rule="nonzero"/><path fill="#dc0d15" d="M 40.902344 97.863281 L 40.203125 96.429688 C 40.066406 96.152344 40.378906 95.847656 40.667969 95.96875 L 41.226562 96.210938 C 41.707031 96.414062 42.085938 96.773438 42.308594 97.222656 L 43.007812 98.660156 C 43.140625 98.933594 42.828125 99.238281 42.539062 99.113281 L 41.980469 98.875 C 41.503906 98.671875 41.121094 98.316406 40.902344 97.863281 " fill-opacity="1" fill-rule="nonzero"/><path fill="#dc0d15" d="M 43.84375 98.757812 L 43.042969 97.371094 C 42.890625 97.105469 43.175781 96.78125 43.480469 96.886719 L 44.050781 97.085938 C 44.542969 97.253906 44.945312 97.585938 45.195312 98.019531 L 45.996094 99.40625 C 46.148438 99.671875 45.859375 99.996094 45.558594 99.890625 L 44.988281 99.691406 C 44.496094 99.523438 44.09375 99.195312 43.84375 98.757812 " fill-opacity="1" fill-rule="nonzero"/><g clip-path="url(#740faeaaaa)"><path fill="#dc0d15" d="M 46.835938 99.445312 L 45.941406 98.121094 C 45.769531 97.863281 46.035156 97.519531 46.339844 97.605469 L 46.925781 97.761719 C 47.425781 97.898438 47.855469 98.199219 48.136719 98.617188 L 49.03125 99.945312 C 49.203125 100.195312 48.9375 100.542969 48.628906 100.460938 L 48.042969 100.300781 C 47.539062 100.164062 47.113281 99.863281 46.835938 99.445312 " fill-opacity="1" fill-rule="nonzero"/></g><g clip-path="url(#eb9b52d0b7)"><path fill="#dc0d15" d="M 49.867188 99.925781 L 48.882812 98.667969 C 48.691406 98.425781 48.9375 98.0625 49.246094 98.121094 L 49.84375 98.238281 C 50.351562 98.339844 50.796875 98.609375 51.105469 99.003906 L 52.09375 100.265625 C 52.277344 100.507812 52.039062 100.867188 51.726562 100.808594 L 51.132812 100.691406 C 50.621094 100.59375 50.179688 100.324219 49.867188 99.925781 " fill-opacity="1" fill-rule="nonzero"/></g><g clip-path="url(#b52075283f)"><path fill="#dc0d15" d="M 52.925781 100.1875 L 51.855469 99 C 51.648438 98.769531 51.867188 98.394531 52.179688 98.433594 L 52.78125 98.507812 C 53.296875 98.566406 53.761719 98.8125 54.097656 99.183594 L 55.171875 100.371094 C 55.375 100.601562 55.160156 100.980469 54.84375 100.941406 L 54.242188 100.863281 C 53.726562 100.800781 53.265625 100.5625 52.925781 100.1875 " fill-opacity="1" fill-rule="nonzero"/></g><g clip-path="url(#c2b8d928b7)"><path fill="#dc0d15" d="M 56 100.238281 L 54.847656 99.125 C 54.628906 98.914062 54.816406 98.523438 55.136719 98.539062 L 55.742188 98.574219 C 56.257812 98.601562 56.738281 98.804688 57.101562 99.15625 L 58.25 100.269531 C 58.472656 100.480469 58.28125 100.875 57.964844 100.855469 L 57.359375 100.824219 C 56.839844 100.792969 56.359375 100.585938 56 100.238281 " fill-opacity="1" fill-rule="nonzero"/></g><g clip-path="url(#489420b168)"><path fill="#dc0d15" d="M 59.066406 100.074219 L 57.839844 99.046875 C 57.605469 98.847656 57.769531 98.445312 58.082031 98.441406 L 58.691406 98.433594 C 59.207031 98.425781 59.699219 98.59375 60.085938 98.921875 L 61.3125 99.945312 C 61.546875 100.144531 61.386719 100.550781 61.070312 100.550781 L 60.460938 100.5625 C 59.941406 100.570312 59.449219 100.398438 59.066406 100.074219 " fill-opacity="1" fill-rule="nonzero"/></g><g clip-path="url(#0c5e462440)"><path fill="#dc0d15" d="M 62.117188 99.699219 L 60.816406 98.757812 C 60.570312 98.578125 60.707031 98.160156 61.019531 98.136719 L 61.628906 98.085938 C 62.140625 98.039062 62.644531 98.179688 63.054688 98.476562 L 64.351562 99.414062 C 64.597656 99.59375 64.464844 100.007812 64.148438 100.03125 L 63.539062 100.085938 C 63.027344 100.128906 62.519531 99.992188 62.117188 99.699219 " fill-opacity="1" fill-rule="nonzero"/></g><path fill="#dc0d15" d="M 65.125 99.109375 L 63.769531 98.257812 C 63.507812 98.101562 63.613281 97.675781 63.925781 97.628906 L 64.523438 97.535156 C 65.035156 97.453125 65.550781 97.554688 65.976562 97.824219 L 67.335938 98.671875 C 67.59375 98.832031 67.488281 99.257812 67.175781 99.308594 L 66.578125 99.402344 C 66.066406 99.476562 65.554688 99.375 65.125 99.109375 " fill-opacity="1" fill-rule="nonzero"/><path fill="#dc0d15" d="M 68.09375 98.308594 L 66.679688 97.558594 C 66.410156 97.414062 66.488281 96.988281 66.792969 96.917969 L 67.382812 96.78125 C 67.886719 96.664062 68.40625 96.730469 68.851562 96.964844 L 70.261719 97.71875 C 70.535156 97.859375 70.460938 98.292969 70.152344 98.359375 L 69.558594 98.492188 C 69.058594 98.613281 68.539062 98.546875 68.09375 98.308594 " fill-opacity="1" fill-rule="nonzero"/><path fill="#dc0d15" d="M 71 97.308594 L 69.535156 96.65625 C 69.257812 96.535156 69.300781 96.101562 69.601562 96.007812 L 70.183594 95.832031 C 70.675781 95.683594 71.199219 95.710938 71.660156 95.917969 L 73.121094 96.566406 C 73.398438 96.691406 73.355469 97.125 73.054688 97.21875 L 72.472656 97.394531 C 71.976562 97.542969 71.457031 97.511719 71 97.308594 " fill-opacity="1" fill-rule="nonzero"/><path fill="#dc0d15" d="M 73.824219 96.109375 L 72.320312 95.558594 C 72.03125 95.453125 72.046875 95.019531 72.339844 94.90625 L 72.910156 94.691406 C 73.394531 94.507812 73.917969 94.496094 74.386719 94.671875 L 75.890625 95.214844 C 76.179688 95.320312 76.164062 95.757812 75.871094 95.871094 L 75.300781 96.085938 C 74.816406 96.269531 74.296875 96.277344 73.824219 96.109375 " fill-opacity="1" fill-rule="nonzero"/><path fill="#dc0d15" d="M 76.558594 94.710938 L 75.019531 94.269531 C 74.726562 94.183594 74.707031 93.746094 74.992188 93.613281 L 75.546875 93.363281 C 76.015625 93.140625 76.535156 93.101562 77.019531 93.238281 L 78.558594 93.679688 C 78.855469 93.765625 78.871094 94.203125 78.585938 94.332031 L 78.03125 94.585938 C 77.5625 94.808594 77.042969 94.847656 76.558594 94.710938 " fill-opacity="1" fill-rule="nonzero"/><path fill="#dc0d15" d="M 79.191406 93.125 L 77.625 92.792969 C 77.324219 92.730469 77.277344 92.296875 77.554688 92.140625 L 78.089844 91.851562 C 78.542969 91.601562 79.058594 91.519531 79.550781 91.628906 L 81.117188 91.957031 C 81.417969 92.023438 81.460938 92.453125 81.1875 92.609375 L 80.652344 92.902344 C 80.195312 93.148438 79.683594 93.226562 79.191406 93.125 " fill-opacity="1" fill-rule="nonzero"/><path fill="#dc0d15" d="M 81.707031 91.363281 L 80.117188 91.136719 C 79.8125 91.09375 79.734375 90.667969 80.003906 90.496094 L 80.515625 90.164062 C 80.949219 89.882812 81.460938 89.765625 81.957031 89.835938 L 83.542969 90.0625 C 83.84375 90.105469 83.921875 90.535156 83.660156 90.703125 L 83.148438 91.035156 C 82.710938 91.320312 82.203125 91.429688 81.707031 91.363281 " fill-opacity="1" fill-rule="nonzero"/><path fill="#dc0d15" d="M 84.089844 89.429688 L 82.492188 89.316406 C 82.1875 89.292969 82.078125 88.875 82.332031 88.679688 L 82.820312 88.316406 C 83.234375 88.007812 83.734375 87.855469 84.234375 87.890625 L 85.832031 88.003906 C 86.140625 88.027344 86.246094 88.449219 85.992188 88.636719 L 85.503906 89.003906 C 85.089844 89.3125 84.589844 89.460938 84.089844 89.429688 " fill-opacity="1" fill-rule="nonzero"/><path fill="#dc0d15" d="M 51.410156 21 L 53.746094 19.320312 L 52.84375 16.5625 L 55.164062 18.261719 L 57.507812 16.554688 L 56.605469 19.285156 L 58.960938 20.988281 L 56.082031 20.972656 L 55.191406 23.734375 L 54.3125 20.992188 Z M 51.410156 21 " fill-opacity="1" fill-rule="evenodd"/><path fill="#dc0d15" d="M 38.203125 25.128906 L 39.71875 22.679688 L 37.832031 20.480469 L 40.625 21.164062 L 42.136719 18.683594 L 42.347656 21.554688 L 45.175781 22.226562 L 42.507812 23.316406 L 42.742188 26.210938 L 40.882812 24.011719 Z M 38.203125 25.128906 " fill-opacity="1" fill-rule="evenodd"/><path fill="#dc0d15" d="M 27.585938 33.996094 L 28.046875 31.15625 L 25.457031 29.84375 L 28.304688 29.40625 L 28.75 26.539062 L 30.046875 29.109375 L 32.910156 28.648438 L 30.867188 30.675781 L 32.191406 33.257812 L 29.628906 31.9375 Z M 27.585938 33.996094 " fill-opacity="1" fill-rule="evenodd"/><path fill="#dc0d15" d="M 21.164062 46.253906 L 20.503906 43.453125 L 17.613281 43.230469 L 20.074219 41.738281 L 19.390625 38.917969 L 21.570312 40.796875 L 24.039062 39.273438 L 22.925781 41.929688 L 25.140625 43.808594 L 22.269531 43.570312 Z M 21.164062 46.253906 " fill-opacity="1" fill-rule="evenodd"/><path fill="#dc0d15" d="M 19.925781 60.035156 L 18.246094 57.695312 L 15.488281 58.601562 L 17.1875 56.28125 L 15.476562 53.933594 L 18.210938 54.839844 L 19.910156 52.484375 L 19.898438 55.363281 L 22.660156 56.253906 L 19.917969 57.132812 Z M 19.925781 60.035156 " fill-opacity="1" fill-rule="evenodd"/><path fill="#dc0d15" d="M 24.054688 73.242188 L 21.605469 71.722656 L 19.402344 73.613281 L 20.089844 70.820312 L 17.609375 69.308594 L 20.480469 69.09375 L 21.152344 66.269531 L 22.242188 68.9375 L 25.136719 68.703125 L 22.9375 70.5625 Z M 24.054688 73.242188 " fill-opacity="1" fill-rule="evenodd"/><path fill="#dc0d15" d="M 32.921875 83.859375 L 30.078125 83.398438 L 28.769531 85.984375 L 28.332031 83.140625 L 25.460938 82.695312 L 28.035156 81.398438 L 27.574219 78.535156 L 29.597656 80.578125 L 32.183594 79.253906 L 30.863281 81.8125 Z M 32.921875 83.859375 " fill-opacity="1" fill-rule="evenodd"/><path fill="#dc0d15" d="M 45.175781 90.28125 L 42.375 90.9375 L 42.15625 93.832031 L 40.664062 91.371094 L 37.84375 92.054688 L 39.722656 89.875 L 38.199219 87.40625 L 40.855469 88.519531 L 42.730469 86.304688 L 42.496094 89.175781 Z M 45.175781 90.28125 " fill-opacity="1" fill-rule="evenodd"/><path fill="#dc0d15" d="M 58.960938 91.519531 L 56.621094 93.199219 L 57.527344 95.957031 L 55.203125 94.257812 L 52.859375 95.96875 L 53.761719 93.234375 L 51.410156 91.535156 L 54.289062 91.546875 L 55.179688 88.785156 L 56.054688 91.527344 Z M 58.960938 91.519531 " fill-opacity="1" fill-rule="evenodd"/><path fill="#dc0d15" d="M 72.164062 87.390625 L 70.648438 89.839844 L 72.539062 92.039062 L 69.742188 91.355469 L 68.234375 93.835938 L 68.019531 90.964844 L 65.195312 90.292969 L 67.863281 89.203125 L 67.625 86.308594 L 69.488281 88.507812 Z M 72.164062 87.390625 " fill-opacity="1" fill-rule="evenodd"/><path fill="#dc0d15" d="M 82.785156 78.523438 L 82.320312 81.363281 L 84.910156 82.675781 L 82.066406 83.113281 L 81.617188 85.980469 L 80.324219 83.410156 L 77.457031 83.871094 L 79.503906 81.84375 L 78.179688 79.261719 L 80.738281 80.582031 Z M 82.785156 78.523438 " fill-opacity="1" fill-rule="evenodd"/><path fill="#dc0d15" d="M 89.203125 66.265625 L 89.863281 69.070312 L 92.757812 69.289062 L 90.296875 70.78125 L 90.980469 73.601562 L 88.800781 71.722656 L 86.328125 73.246094 L 87.441406 70.589844 L 85.230469 68.710938 L 88.101562 68.949219 Z M 89.203125 66.265625 " fill-opacity="1" fill-rule="evenodd"/><path fill="#dc0d15" d="M 90.441406 52.484375 L 92.125 54.824219 L 94.882812 53.917969 L 93.179688 56.238281 L 94.894531 58.585938 L 92.15625 57.683594 L 90.457031 60.035156 L 90.46875 57.15625 L 87.707031 56.265625 L 90.453125 55.390625 Z M 90.441406 52.484375 " fill-opacity="1" fill-rule="evenodd"/><path fill="#dc0d15" d="M 86.316406 39.277344 L 88.761719 40.796875 L 90.964844 38.90625 L 90.28125 41.699219 L 92.757812 43.210938 L 89.886719 43.425781 L 89.214844 46.25 L 88.128906 43.582031 L 85.234375 43.820312 L 87.433594 41.957031 Z M 86.316406 39.277344 " fill-opacity="1" fill-rule="evenodd"/><path fill="#dc0d15" d="M 77.449219 28.660156 L 80.289062 29.125 L 81.597656 26.535156 L 82.039062 29.378906 L 84.90625 29.828125 L 82.332031 31.121094 L 82.792969 33.984375 L 80.769531 31.941406 L 78.1875 33.265625 L 79.503906 30.707031 Z M 77.449219 28.660156 " fill-opacity="1" fill-rule="evenodd"/><path fill="#dc0d15" d="M 65.191406 22.242188 L 67.992188 21.582031 L 68.214844 18.6875 L 69.707031 21.148438 L 72.527344 20.464844 L 70.648438 22.644531 L 72.167969 25.117188 L 69.515625 24 L 67.636719 26.214844 L 67.875 23.34375 Z M 65.191406 22.242188 " fill-opacity="1" fill-rule="evenodd"/><path fill="#dc0d15" d="M 55.183594 79.019531 C 42.632812 79.019531 32.425781 68.808594 32.425781 56.257812 C 32.425781 43.707031 42.632812 33.496094 55.183594 33.496094 C 67.734375 33.496094 77.949219 43.707031 77.949219 56.257812 C 77.949219 68.808594 67.734375 79.019531 55.183594 79.019531 M 55.183594 34.160156 C 43 34.160156 33.089844 44.074219 33.089844 56.257812 C 33.089844 68.441406 43 78.355469 55.183594 78.355469 C 67.367188 78.355469 77.28125 68.441406 77.28125 56.257812 C 77.28125 44.074219 67.371094 34.160156 55.183594 34.160156 " fill-opacity="1" fill-rule="nonzero"/><path fill="#dc0d15" d="M 55.183594 86.90625 C 38.285156 86.90625 24.539062 73.15625 24.539062 56.257812 C 24.539062 39.359375 38.289062 25.613281 55.183594 25.613281 C 72.082031 25.613281 85.832031 39.359375 85.832031 56.257812 C 85.832031 73.15625 72.082031 86.90625 55.183594 86.90625 M 55.183594 26.296875 C 38.664062 26.296875 25.222656 39.734375 25.222656 56.257812 C 25.222656 72.78125 38.664062 86.21875 55.183594 86.21875 C 71.707031 86.21875 85.148438 72.78125 85.148438 56.257812 C 85.148438 39.738281 71.707031 26.296875 55.183594 26.296875 " fill-opacity="1" fill-rule="nonzero"/><path fill="#dc0d15" d="M 47.65625 82.359375 L 48.609375 82.652344 L 48.402344 83.328125 L 45.671875 82.488281 L 45.878906 81.8125 L 46.847656 82.113281 L 47.734375 79.234375 L 48.539062 79.480469 Z M 47.65625 82.359375 " fill-opacity="1" fill-rule="nonzero"/><path fill="#dc0d15" d="M 43.515625 81.570312 L 44.460938 79.648438 C 44.742188 79.078125 44.671875 78.675781 44.285156 78.488281 C 43.886719 78.292969 43.535156 78.464844 43.246094 79.050781 L 42.300781 80.972656 L 41.546875 80.601562 L 42.46875 78.730469 C 42.976562 77.703125 43.734375 77.464844 44.605469 77.894531 C 45.445312 78.308594 45.714844 79.015625 45.191406 80.085938 L 44.273438 81.945312 Z M 42.441406 81.699219 C 42.34375 81.890625 42.128906 81.96875 41.9375 81.875 C 41.746094 81.78125 41.675781 81.5625 41.773438 81.371094 C 41.863281 81.1875 42.078125 81.101562 42.269531 81.195312 C 42.46875 81.292969 42.53125 81.515625 42.441406 81.699219 Z M 43.46875 82.207031 C 43.375 82.398438 43.152344 82.476562 42.960938 82.378906 C 42.777344 82.289062 42.707031 82.074219 42.800781 81.878906 C 42.890625 81.695312 43.105469 81.613281 43.292969 81.703125 C 43.492188 81.796875 43.558594 82.023438 43.46875 82.207031 Z M 43.46875 82.207031 " fill-opacity="1" fill-rule="nonzero"/><path fill="#dc0d15" d="M 39.992188 79.589844 C 39.746094 79.46875 39.402344 79.261719 39.039062 79 C 38.589844 78.679688 38.328125 78.382812 38.234375 78.058594 C 38.15625 77.785156 38.210938 77.503906 38.410156 77.226562 C 38.6875 76.84375 39.152344 76.773438 39.476562 76.867188 L 39.488281 76.855469 C 39.335938 76.617188 39.367188 76.332031 39.492188 76 C 39.644531 75.589844 39.832031 75.128906 39.855469 74.972656 L 40.558594 75.472656 C 40.542969 75.59375 40.4375 75.894531 40.261719 76.328125 C 40.070312 76.761719 40.125 76.960938 40.398438 77.164062 L 40.605469 77.3125 L 41.460938 76.125 L 42.136719 76.613281 Z M 40.25 77.804688 L 39.984375 77.613281 C 39.644531 77.367188 39.316406 77.390625 39.128906 77.65625 C 38.925781 77.933594 39.015625 78.207031 39.328125 78.4375 C 39.492188 78.558594 39.597656 78.609375 39.652344 78.640625 Z M 40.25 77.804688 " fill-opacity="1" fill-rule="nonzero"/><path fill="#dc0d15" d="M 36.484375 76.945312 L 35.890625 76.359375 L 37.050781 75.195312 L 37.035156 75.179688 C 36.878906 75.226562 36.722656 75.257812 36.570312 75.292969 L 35.101562 75.574219 L 34.371094 74.847656 L 36.355469 74.59375 L 36.945312 72.167969 L 37.640625 72.859375 L 37.152344 74.640625 L 37.65625 74.585938 L 38.511719 73.726562 L 39.101562 74.3125 Z M 36.484375 76.945312 " fill-opacity="1" fill-rule="nonzero"/><path fill="#dc0d15" d="M 32.96875 74.042969 C 32.796875 74.175781 32.5625 74.144531 32.429688 73.972656 C 32.300781 73.808594 32.332031 73.578125 32.503906 73.449219 C 32.65625 73.324219 32.894531 73.34375 33.023438 73.507812 C 33.160156 73.683594 33.121094 73.921875 32.96875 74.042969 Z M 32.941406 73.050781 L 35.875 70.761719 L 36.394531 71.429688 L 33.460938 73.71875 Z M 32.941406 73.050781 " fill-opacity="1" fill-rule="nonzero"/><path fill="#dc0d15" d="M 34.6875 69.039062 L 33.382812 69.820312 L 32.105469 71.957031 L 31.613281 71.136719 L 32.183594 70.347656 C 32.351562 70.113281 32.484375 69.941406 32.644531 69.734375 L 32.636719 69.726562 C 32.394531 69.773438 32.164062 69.8125 31.882812 69.851562 L 30.921875 69.992188 L 30.4375 69.183594 L 32.921875 69.117188 L 34.25 68.320312 Z M 34.6875 69.039062 " fill-opacity="1" fill-rule="nonzero"/><path fill="#dc0d15" d="M 30.953125 64.980469 L 31.472656 66.246094 L 32.289062 65.914062 L 31.707031 64.5 L 32.347656 64.234375 L 33.25 66.433594 L 29.804688 67.839844 L 28.933594 65.714844 L 29.570312 65.457031 L 30.121094 66.800781 L 30.835938 66.507812 L 30.316406 65.238281 Z M 30.953125 64.980469 " fill-opacity="1" fill-rule="nonzero"/><path fill="#dc0d15" d="M 31.042969 59.050781 C 31.144531 59.191406 31.285156 59.519531 31.363281 59.964844 C 31.585938 61.234375 30.914062 62.023438 29.871094 62.207031 C 28.621094 62.429688 27.769531 61.65625 27.574219 60.550781 C 27.5 60.121094 27.527344 59.78125 27.578125 59.621094 L 28.265625 59.671875 C 28.222656 59.851562 28.199219 60.097656 28.253906 60.390625 C 28.367188 61.050781 28.855469 61.488281 29.671875 61.34375 C 30.40625 61.214844 30.789062 60.699219 30.660156 59.960938 C 30.617188 59.710938 30.511719 59.445312 30.417969 59.292969 Z M 31.042969 59.050781 " fill-opacity="1" fill-rule="nonzero"/><path fill="#dc0d15" d="M 27.316406 57.246094 L 29.457031 57.21875 C 30.097656 57.210938 30.417969 56.964844 30.414062 56.535156 C 30.410156 56.09375 30.097656 55.851562 29.441406 55.863281 L 27.300781 55.890625 L 27.289062 55.054688 L 29.375 55.027344 C 30.523438 55.011719 31.074219 55.582031 31.085938 56.554688 C 31.097656 57.488281 30.589844 58.046875 29.402344 58.0625 L 27.328125 58.089844 Z M 27.316406 57.246094 " fill-opacity="1" fill-rule="nonzero"/><path fill="#dc0d15" d="M 30.21875 50.476562 C 29.773438 50.414062 29.242188 50.335938 28.710938 50.238281 L 28.703125 50.253906 C 29.152344 50.453125 29.644531 50.699219 30.046875 50.917969 L 31.390625 51.621094 L 31.273438 52.269531 L 29.789062 52.402344 C 29.339844 52.445312 28.796875 52.476562 28.300781 52.476562 L 28.300781 52.484375 C 28.789062 52.597656 29.351562 52.714844 29.800781 52.824219 L 31.175781 53.140625 L 31.039062 53.90625 L 27.425781 53.011719 L 27.625 51.910156 L 28.910156 51.773438 C 29.355469 51.734375 29.832031 51.707031 30.277344 51.703125 L 30.277344 51.6875 C 29.875 51.507812 29.414062 51.292969 29.027344 51.101562 L 27.882812 50.488281 L 28.078125 49.410156 L 31.769531 49.871094 L 31.625 50.679688 Z M 30.21875 50.476562 " fill-opacity="1" fill-rule="nonzero"/><path fill="#dc0d15" d="M 28.992188 46.628906 L 30.316406 47.15625 L 30.828125 45.871094 L 29.5 45.34375 L 29.808594 44.566406 L 33.265625 45.933594 L 32.957031 46.710938 L 31.511719 46.140625 L 31 47.429688 L 32.449219 48 L 32.136719 48.785156 L 28.679688 47.417969 Z M 28.992188 46.628906 " fill-opacity="1" fill-rule="nonzero"/><path fill="#dc0d15" d="M 31.097656 42.164062 L 32.914062 43.285156 C 33.460938 43.621094 33.863281 43.585938 34.089844 43.222656 C 34.320312 42.847656 34.183594 42.476562 33.628906 42.132812 L 31.808594 41.007812 L 32.25 40.292969 L 34.023438 41.390625 C 35 41.992188 35.15625 42.769531 34.648438 43.597656 C 34.15625 44.394531 33.425781 44.589844 32.417969 43.96875 L 30.652344 42.878906 Z M 31.097656 42.164062 " fill-opacity="1" fill-rule="nonzero"/><path fill="#dc0d15" d="M 33.390625 38.855469 C 33.535156 38.621094 33.773438 38.296875 34.070312 37.960938 C 34.429688 37.546875 34.746094 37.308594 35.078125 37.246094 C 35.359375 37.195312 35.632812 37.277344 35.890625 37.5 C 36.25 37.816406 36.273438 38.28125 36.148438 38.597656 L 36.164062 38.609375 C 36.414062 38.480469 36.695312 38.539062 37.015625 38.691406 C 37.40625 38.878906 37.847656 39.113281 38.003906 39.152344 L 37.433594 39.800781 C 37.316406 39.78125 37.03125 39.644531 36.613281 39.425781 C 36.199219 39.199219 35.996094 39.234375 35.769531 39.488281 L 35.601562 39.679688 L 36.703125 40.644531 L 36.15625 41.269531 Z M 35.144531 39.28125 L 35.363281 39.03125 C 35.636719 38.714844 35.644531 38.390625 35.398438 38.175781 C 35.140625 37.949219 34.855469 38.011719 34.601562 38.300781 C 34.46875 38.457031 34.402344 38.550781 34.371094 38.605469 Z M 35.144531 39.28125 " fill-opacity="1" fill-rule="nonzero"/><path fill="#dc0d15" d="M 35.957031 35.207031 C 35.8125 35.046875 35.832031 34.808594 35.996094 34.667969 C 36.148438 34.527344 36.378906 34.542969 36.523438 34.707031 C 36.652344 34.855469 36.652344 35.09375 36.496094 35.230469 C 36.332031 35.378906 36.09375 35.355469 35.957031 35.207031 Z M 36.949219 35.117188 L 39.421875 37.890625 L 38.792969 38.453125 L 36.320312 35.675781 Z M 36.949219 35.117188 " fill-opacity="1" fill-rule="nonzero"/><path fill="#dc0d15" d="M 41.074219 36.585938 L 40.207031 35.335938 L 37.988281 34.199219 L 38.777344 33.652344 L 39.601562 34.167969 C 39.851562 34.328125 40.027344 34.445312 40.246094 34.589844 L 40.253906 34.585938 C 40.191406 34.347656 40.140625 34.121094 40.078125 33.839844 L 39.878906 32.890625 L 40.65625 32.351562 L 40.882812 34.832031 L 41.765625 36.109375 Z M 41.074219 36.585938 " fill-opacity="1" fill-rule="nonzero"/><path fill="#dc0d15" d="M 44.878906 32.597656 L 43.648438 33.199219 L 44.035156 33.992188 L 45.40625 33.320312 L 45.710938 33.941406 L 43.578125 34.984375 L 41.945312 31.640625 L 44.007812 30.632812 L 44.308594 31.253906 L 43.007812 31.890625 L 43.347656 32.585938 L 44.574219 31.984375 Z M 44.878906 32.597656 " fill-opacity="1" fill-rule="nonzero"/><path fill="#dc0d15" d="M 46.5 30.445312 L 45.546875 30.75 L 45.332031 30.078125 L 48.054688 29.207031 L 48.269531 29.878906 L 47.300781 30.1875 L 48.21875 33.058594 L 47.414062 33.316406 Z M 46.5 30.445312 " fill-opacity="1" fill-rule="nonzero"/><path fill="#dc0d15" d="M 49.355469 28.328125 C 49.3125 28.117188 49.453125 27.921875 49.664062 27.878906 C 49.871094 27.839844 50.058594 27.972656 50.097656 28.183594 C 50.136719 28.378906 50.015625 28.582031 49.808594 28.621094 C 49.589844 28.664062 49.394531 28.523438 49.355469 28.328125 Z M 50.253906 28.757812 L 50.964844 32.40625 L 50.136719 32.566406 L 49.425781 28.917969 Z M 50.253906 28.757812 " fill-opacity="1" fill-rule="nonzero"/><path fill="#dc0d15" d="M 56.863281 30.636719 C 56.855469 30.191406 56.847656 29.652344 56.855469 29.109375 L 56.839844 29.109375 C 56.71875 29.582031 56.550781 30.109375 56.402344 30.542969 L 55.925781 31.984375 L 55.265625 31.96875 L 54.894531 30.523438 C 54.78125 30.085938 54.664062 29.554688 54.585938 29.070312 L 54.570312 29.070312 C 54.539062 29.570312 54.515625 30.144531 54.476562 30.605469 L 54.386719 32.015625 L 53.609375 32.003906 L 53.910156 28.292969 L 55.027344 28.3125 L 55.371094 29.558594 C 55.480469 29.992188 55.585938 30.457031 55.660156 30.894531 L 55.679688 30.894531 C 55.789062 30.46875 55.925781 29.980469 56.054688 29.566406 L 56.472656 28.335938 L 57.570312 28.355469 L 57.707031 32.074219 L 56.886719 32.058594 Z M 56.863281 30.636719 " fill-opacity="1" fill-rule="nonzero"/><path fill="#dc0d15" d="M 60.328125 28.777344 L 59.707031 32.445312 L 58.875 32.304688 L 59.492188 28.636719 Z M 59.636719 28.0625 C 59.671875 27.847656 59.867188 27.714844 60.082031 27.75 C 60.285156 27.785156 60.417969 27.976562 60.378906 28.1875 C 60.347656 28.382812 60.160156 28.53125 59.953125 28.496094 C 59.738281 28.460938 59.601562 28.257812 59.636719 28.0625 Z M 59.636719 28.0625 " fill-opacity="1" fill-rule="nonzero"/><path fill="#dc0d15" d="M 62.007812 29.128906 L 62.820312 29.363281 L 61.976562 32.257812 L 63.398438 32.671875 L 63.199219 33.351562 L 60.96875 32.699219 Z M 62.007812 29.128906 " fill-opacity="1" fill-rule="nonzero"/><path fill="#dc0d15" d="M 65.621094 30.308594 L 66.390625 30.652344 L 65.164062 33.402344 L 66.511719 34.003906 L 66.226562 34.648438 L 64.105469 33.703125 Z M 65.621094 30.308594 " fill-opacity="1" fill-rule="nonzero"/><path fill="#dc0d15" d="M 69.707031 32.375 L 67.820312 35.578125 L 67.09375 35.148438 L 68.980469 31.945312 Z M 70.054688 31.5625 L 70.191406 32.429688 L 69.683594 32.128906 L 69.617188 31.695312 L 69.609375 31.691406 L 69.199219 31.84375 L 68.695312 31.550781 L 69.515625 31.242188 Z M 70.054688 31.5625 " fill-opacity="1" fill-rule="nonzero"/><path fill="#dc0d15" d="M 72.984375 37.546875 L 71.953125 36.648438 L 71.371094 37.3125 L 72.523438 38.320312 L 72.070312 38.839844 L 70.28125 37.277344 L 72.730469 34.476562 L 74.457031 35.988281 L 74.003906 36.507812 L 72.910156 35.550781 L 72.402344 36.132812 L 73.433594 37.035156 Z M 72.984375 37.546875 " fill-opacity="1" fill-rule="nonzero"/><path fill="#dc0d15" d="M 74.941406 41.851562 C 74.707031 41.707031 74.300781 41.40625 73.984375 41.03125 C 73.550781 40.507812 73.367188 40.023438 73.402344 39.546875 C 73.429688 39.082031 73.683594 38.625 74.101562 38.28125 C 75.054688 37.492188 76.171875 37.730469 76.957031 38.667969 C 77.265625 39.035156 77.429688 39.378906 77.476562 39.574219 L 76.847656 39.871094 C 76.785156 39.660156 76.675781 39.417969 76.414062 39.105469 C 75.964844 38.566406 75.324219 38.414062 74.703125 38.929688 C 74.117188 39.421875 74.078125 40.078125 74.515625 40.609375 C 74.640625 40.757812 74.757812 40.863281 74.824219 40.890625 L 75.421875 40.390625 L 75.054688 39.953125 L 75.558594 39.535156 L 76.445312 40.597656 Z M 77.28125 37.679688 C 77.199219 37.769531 77.148438 37.917969 77.296875 38.09375 C 77.441406 38.273438 77.59375 38.261719 77.714844 38.199219 L 77.988281 38.527344 C 77.671875 38.777344 77.296875 38.78125 76.960938 38.378906 C 76.609375 37.960938 76.691406 37.601562 77 37.339844 Z M 77.28125 37.679688 " fill-opacity="1" fill-rule="nonzero"/><path fill="#dc0d15" d="M 79.03125 41.6875 L 75.894531 43.671875 L 75.441406 42.960938 L 78.582031 40.972656 Z M 79.105469 40.695312 C 79.289062 40.582031 79.519531 40.636719 79.632812 40.820312 C 79.746094 40.992188 79.691406 41.21875 79.511719 41.332031 C 79.34375 41.441406 79.109375 41.398438 79 41.222656 C 78.878906 41.035156 78.9375 40.800781 79.105469 40.695312 Z M 79.105469 40.695312 " fill-opacity="1" fill-rule="nonzero"/><path fill="#dc0d15" d="M 79.558594 44.078125 L 79.125 43.179688 L 79.761719 42.875 L 81 45.449219 L 80.363281 45.753906 L 79.921875 44.839844 L 77.207031 46.144531 L 76.84375 45.382812 Z M 79.558594 44.078125 " fill-opacity="1" fill-rule="nonzero"/><path fill="#dc0d15" d="M 81.753906 47.574219 L 78.230469 48.78125 L 77.960938 47.980469 L 81.480469 46.773438 Z M 82.054688 46.625 C 82.257812 46.554688 82.46875 46.660156 82.539062 46.867188 C 82.609375 47.066406 82.503906 47.269531 82.300781 47.339844 C 82.113281 47.40625 81.894531 47.308594 81.824219 47.109375 C 81.753906 46.902344 81.867188 46.6875 82.054688 46.625 Z M 82.054688 46.625 " fill-opacity="1" fill-rule="nonzero"/><path fill="#dc0d15" d="M 80.621094 52.804688 C 81.058594 52.710938 81.585938 52.597656 82.121094 52.5 L 82.117188 52.484375 C 81.628906 52.457031 81.082031 52.398438 80.628906 52.332031 L 79.117188 52.144531 L 79 51.496094 L 80.351562 50.851562 C 80.757812 50.65625 81.257812 50.433594 81.71875 50.261719 L 81.714844 50.25 C 81.21875 50.316406 80.652344 50.40625 80.1875 50.457031 L 78.789062 50.648438 L 78.648438 49.882812 L 82.351562 49.453125 L 82.554688 50.558594 L 81.394531 51.136719 C 80.992188 51.328125 80.554688 51.527344 80.140625 51.683594 L 80.144531 51.699219 C 80.585938 51.726562 81.09375 51.765625 81.519531 51.808594 L 82.808594 51.980469 L 83.003906 53.0625 L 79.378906 53.925781 L 79.230469 53.117188 Z M 80.621094 52.804688 " fill-opacity="1" fill-rule="nonzero"/><path fill="#dc0d15" d="M 83.089844 56.804688 C 83.121094 57.027344 83.125 57.476562 83.097656 57.894531 C 83.0625 58.40625 82.992188 58.714844 82.816406 58.976562 C 82.660156 59.226562 82.394531 59.394531 82.058594 59.375 C 81.730469 59.351562 81.433594 59.136719 81.308594 58.710938 L 81.296875 58.710938 C 81.152344 59.128906 80.8125 59.417969 80.335938 59.386719 C 80 59.363281 79.746094 59.195312 79.574219 58.949219 C 79.378906 58.667969 79.285156 58.207031 79.335938 57.46875 C 79.359375 57.054688 79.410156 56.75 79.449219 56.5625 Z M 79.96875 57.433594 C 79.953125 57.515625 79.949219 57.613281 79.9375 57.757812 C 79.910156 58.136719 80.03125 58.484375 80.425781 58.507812 C 80.800781 58.53125 80.972656 58.207031 80.996094 57.789062 L 81.015625 57.503906 Z M 81.617188 57.542969 L 81.597656 57.820312 C 81.570312 58.261719 81.734375 58.507812 82.011719 58.527344 C 82.289062 58.546875 82.457031 58.339844 82.476562 57.957031 C 82.492188 57.777344 82.484375 57.671875 82.480469 57.601562 Z M 81.617188 57.542969 " fill-opacity="1" fill-rule="nonzero"/><path fill="#dc0d15" d="M 79.832031 61.363281 L 78.960938 60.886719 L 79.160156 60.042969 L 82.523438 61.992188 L 82.273438 63.066406 L 78.390625 63.34375 L 78.59375 62.464844 L 79.589844 62.402344 Z M 80.230469 62.421875 L 81.050781 62.375 C 81.277344 62.359375 81.5625 62.359375 81.789062 62.355469 L 81.792969 62.34375 C 81.589844 62.238281 81.328125 62.125 81.132812 62.015625 L 80.414062 61.621094 Z M 80.230469 62.421875 " fill-opacity="1" fill-rule="nonzero"/><path fill="#dc0d15" d="M 81.507812 65.679688 L 81.1875 66.449219 L 79.667969 65.824219 L 79.660156 65.835938 C 79.761719 65.96875 79.851562 66.097656 79.941406 66.226562 L 80.761719 67.480469 L 80.363281 68.433594 L 79.375 66.691406 L 76.902344 67.070312 L 77.28125 66.164062 L 79.109375 65.9375 L 78.871094 65.492188 L 77.746094 65.027344 L 78.066406 64.253906 Z M 81.507812 65.679688 " fill-opacity="1" fill-rule="nonzero"/><path fill="#dc0d15" d="M 76.777344 69.15625 L 76.113281 68.421875 L 76.578125 67.6875 L 79.109375 70.636719 L 78.519531 71.566406 L 74.761719 70.550781 L 75.246094 69.789062 L 76.207031 70.058594 Z M 76.804688 70.289062 L 77.59375 70.515625 C 77.816406 70.578125 78.085938 70.667969 78.296875 70.738281 L 78.304688 70.730469 C 78.148438 70.566406 77.941406 70.371094 77.792969 70.203125 L 77.242188 69.597656 Z M 76.804688 70.289062 " fill-opacity="1" fill-rule="nonzero"/><path fill="#dc0d15" d="M 74.171875 71.316406 L 76.929688 73.8125 L 76.265625 74.542969 L 74.738281 74.195312 C 74.300781 74.097656 73.808594 73.949219 73.386719 73.789062 L 73.375 73.800781 C 73.773438 74.089844 74.15625 74.414062 74.570312 74.789062 L 75.375 75.523438 L 74.855469 76.09375 L 72.097656 73.59375 L 72.691406 72.9375 L 74.289062 73.3125 C 74.730469 73.417969 75.25 73.558594 75.695312 73.71875 L 75.703125 73.703125 C 75.324219 73.386719 74.925781 73.046875 74.476562 72.636719 L 73.648438 71.882812 Z M 74.171875 71.316406 " fill-opacity="1" fill-rule="nonzero"/><path fill="#dc0d15" d="M 73.496094 77.324219 L 72.839844 77.855469 L 70.953125 75.503906 L 69.800781 76.429688 L 69.355469 75.878906 L 71.167969 74.425781 Z M 73.496094 77.324219 " fill-opacity="1" fill-rule="nonzero"/><path fill="#dc0d15" d="M 69.800781 80.019531 L 67.808594 76.878906 L 68.519531 76.425781 L 70.511719 79.566406 Z M 69.800781 80.019531 " fill-opacity="1" fill-rule="nonzero"/><path fill="#dc0d15" d="M 63.988281 79.007812 C 64.1875 78.816406 64.582031 78.5 65.027344 78.292969 C 65.644531 78.007812 66.164062 77.957031 66.613281 78.113281 C 67.054688 78.261719 67.433594 78.625 67.65625 79.121094 C 68.167969 80.246094 67.648438 81.265625 66.542969 81.777344 C 66.105469 81.980469 65.730469 82.050781 65.527344 82.042969 L 65.402344 81.359375 C 65.628906 81.355469 65.886719 81.3125 66.257812 81.140625 C 66.894531 80.847656 67.207031 80.261719 66.871094 79.535156 C 66.550781 78.835938 65.921875 78.628906 65.296875 78.914062 C 65.121094 78.996094 64.992188 79.082031 64.945312 79.140625 L 65.269531 79.847656 L 65.792969 79.605469 L 66.066406 80.203125 L 64.808594 80.78125 Z M 67.414062 82.347656 C 67.347656 82.246094 67.214844 82.15625 67.011719 82.253906 C 66.800781 82.351562 66.769531 82.496094 66.800781 82.628906 L 66.410156 82.8125 C 66.253906 82.441406 66.34375 82.078125 66.820312 81.855469 C 67.316406 81.625 67.640625 81.796875 67.8125 82.164062 Z M 67.414062 82.347656 " fill-opacity="1" fill-rule="nonzero"/><path fill="#dc0d15" d="M 63.035156 83.015625 L 61.941406 79.460938 L 62.75 79.214844 L 63.839844 82.765625 Z M 63.035156 83.015625 " fill-opacity="1" fill-rule="nonzero"/><path fill="#dc0d15" d="M 55.1875 81.535156 C 54.59375 81.535156 54.113281 82.015625 54.113281 82.609375 C 54.113281 83.203125 54.59375 83.683594 55.1875 83.683594 C 55.78125 83.683594 56.265625 83.199219 56.265625 82.609375 C 56.261719 82.015625 55.78125 81.535156 55.1875 81.535156 Z M 55.1875 81.535156 " fill-opacity="1" fill-rule="nonzero"/><path fill="#dc0d15" d="M 52.699219 43.507812 C 52.800781 42.332031 54.242188 41.957031 54.050781 40.820312 C 53.808594 42.148438 52.765625 41.890625 52.699219 43.507812 Z M 52.050781 44.652344 C 51.886719 44.242188 51.804688 43.796875 51.824219 43.324219 C 51.863281 42.363281 52.308594 41.496094 52.988281 40.886719 C 53.675781 40.273438 53.839844 39.71875 53.472656 39.234375 C 54.445312 39.503906 54.925781 40.128906 54.917969 41.117188 C 54.855469 42.691406 53.546875 42.949219 53.480469 44.652344 Z M 57.542969 40.847656 C 58.195312 41.457031 58.589844 42.339844 58.546875 43.320312 C 58.53125 43.792969 58.414062 44.242188 58.222656 44.648438 L 56.933594 44.648438 C 57.367188 44.140625 57.902344 43.726562 57.78125 43.007812 C 57.613281 43.9375 57.054688 44.089844 56.710938 44.648438 L 55.273438 44.648438 C 55.335938 44.480469 55.449219 44.335938 55.625 44.160156 C 55.726562 44.058594 55.839844 43.960938 55.957031 43.863281 C 56.082031 43.761719 56.210938 43.65625 56.339844 43.550781 C 56.855469 43.125 57.460938 42.574219 57.550781 41.703125 C 57.582031 41.386719 57.589844 41.101562 57.542969 40.847656 Z M 54.917969 44.652344 L 53.816406 44.652344 C 53.84375 43.90625 54.136719 43.460938 54.46875 43.007812 C 54.558594 42.890625 54.648438 42.769531 54.730469 42.644531 C 54.820312 42.511719 54.902344 42.375 54.976562 42.226562 C 55.128906 41.914062 55.234375 41.554688 55.253906 41.109375 C 55.261719 40.488281 55.035156 39.980469 54.753906 39.601562 C 53.59375 38.152344 54.066406 36.8125 55.242188 36.53125 C 54.578125 37.179688 54.644531 37.863281 55.378906 38.695312 C 55.394531 38.292969 55.609375 38.050781 55.976562 38.050781 C 55.609375 38.425781 55.769531 38.789062 56.125 39.269531 C 56.203125 39.367188 56.296875 39.476562 56.414062 39.597656 C 57.039062 40.230469 57.300781 40.78125 57.207031 41.683594 C 57.066406 43.121094 55.230469 43.570312 54.917969 44.652344 Z M 54.917969 44.652344 " fill-opacity="1" fill-rule="nonzero"/><path fill="#dc0d15" d="M 56.300781 60.851562 C 56.085938 61.195312 55.78125 61.480469 55.425781 61.675781 C 55.113281 61.851562 54.761719 61.957031 54.378906 61.972656 C 54.339844 61.980469 54.296875 61.980469 54.257812 61.980469 C 53.644531 61.980469 53.082031 61.753906 52.65625 61.375 C 52.15625 60.929688 51.839844 60.28125 51.839844 59.558594 C 51.839844 59.09375 51.972656 58.65625 52.203125 58.285156 C 52.449219 57.882812 52.8125 57.558594 53.25 57.363281 C 53.339844 57.320312 53.4375 57.285156 53.539062 57.253906 C 53.765625 57.179688 54.007812 57.144531 54.257812 57.144531 C 55.121094 57.144531 55.875 57.59375 56.304688 58.269531 C 55.949219 57.875 55.433594 57.628906 54.863281 57.628906 C 54.578125 57.628906 54.304688 57.691406 54.058594 57.800781 C 53.972656 57.84375 53.882812 57.890625 53.804688 57.945312 C 53.40625 58.203125 53.109375 58.605469 52.988281 59.078125 C 52.945312 59.234375 52.929688 59.394531 52.929688 59.5625 C 52.929688 59.996094 53.070312 60.402344 53.3125 60.722656 C 53.667969 61.191406 54.226562 61.496094 54.859375 61.496094 L 54.863281 61.496094 C 54.992188 61.496094 55.113281 61.484375 55.234375 61.460938 C 55.648438 61.375 56.023438 61.160156 56.300781 60.851562 " fill-opacity="1" fill-rule="nonzero"/><path fill="#dc0d15" d="M 57.976562 59.746094 L 58.355469 60.269531 L 57.523438 59.996094 L 57.003906 60.710938 L 57.003906 59.832031 L 56.167969 59.558594 L 57.003906 59.285156 L 57.003906 58.410156 L 57.226562 58.714844 L 57.523438 59.117188 L 58.355469 58.851562 L 57.839844 59.558594 Z M 57.976562 59.746094 " fill-opacity="1" fill-rule="nonzero"/><path fill="#dc0d15" d="M 55.074219 54.109375 C 52.132812 54.109375 49.75 56.492188 49.75 59.433594 C 49.75 62.375 52.132812 64.761719 55.074219 64.761719 C 58.015625 64.761719 60.402344 62.375 60.402344 59.433594 C 60.402344 56.492188 58.019531 54.109375 55.074219 54.109375 Z M 55.074219 64.191406 C 52.445312 64.191406 50.316406 62.0625 50.316406 59.433594 C 50.316406 56.804688 52.445312 54.675781 55.074219 54.675781 C 57.703125 54.675781 59.832031 56.804688 59.832031 59.433594 C 59.832031 62.0625 57.703125 64.191406 55.074219 64.191406 Z M 55.074219 64.191406 " fill-opacity="1" fill-rule="nonzero"/><path fill="#dc0d15" d="M 71.421875 57.472656 L 70.75 56.804688 L 71.449219 66.230469 C 69.03125 66.441406 67.65625 66.617188 65.246094 66.273438 C 64.15625 66.117188 63.070312 65.90625 61.984375 65.796875 C 58.726562 65.464844 58.238281 65.679688 56.199219 67.15625 L 56.203125 66.378906 C 58.226562 64.976562 58.941406 64.863281 62.050781 65.179688 C 64.363281 65.417969 66.59375 66.035156 68.945312 65.828125 L 70.785156 65.667969 L 70.070312 56.132812 L 69.40625 55.472656 L 70.125 65.105469 C 68.363281 65.257812 67.203125 65.300781 65.421875 65.050781 C 64.320312 64.894531 63.214844 64.679688 62.113281 64.566406 C 59.175781 64.265625 58.238281 64.277344 56.210938 65.625 L 56.214844 64.882812 C 58.230469 63.613281 59.429688 63.671875 62.175781 63.949219 C 63.289062 64.0625 64.398438 64.28125 65.511719 64.4375 C 66.890625 64.632812 68.070312 64.660156 69.453125 64.542969 L 68.730469 54.796875 L 68.667969 54.738281 L 68.046875 54.136719 L 68.046875 54.105469 L 68.015625 54.109375 L 68.015625 54.117188 C 67.519531 54.085938 67.023438 54.019531 66.457031 53.925781 C 64.675781 53.632812 61.6875 53.28125 60.0625 53.269531 C 58.859375 53.261719 57.636719 53.449219 56.417969 53.992188 L 56.453125 52.5 C 56.449219 52.5 56.449219 52.484375 56.449219 52.484375 L 56.449219 51.992188 C 56.589844 51.914062 56.703125 51.820312 56.75 51.707031 C 56.855469 51.421875 56.984375 51.292969 57.148438 51.324219 L 57.148438 51.09375 C 58.5625 50.570312 59.445312 49.628906 59.8125 48.292969 L 59.957031 47.558594 C 59.984375 47.339844 60.003906 47.113281 60.007812 46.878906 L 59.347656 46.214844 L 59.347656 45.109375 L 51.085938 45.109375 L 51.085938 46.214844 L 50.425781 46.878906 C 50.421875 47.105469 50.433594 47.332031 50.460938 47.546875 L 50.617188 48.308594 C 50.992188 49.582031 51.933594 50.601562 53.28125 51.089844 L 53.28125 51.320312 C 53.511719 51.320312 53.613281 51.460938 53.660156 51.679688 C 53.738281 51.839844 53.847656 51.945312 53.984375 51.992188 L 54.003906 52.464844 L 54.042969 54.035156 C 52.796875 53.453125 51.539062 53.257812 50.304688 53.265625 C 48.679688 53.277344 45.722656 53.597656 43.941406 53.894531 C 43.367188 53.988281 42.871094 54.058594 42.367188 54.089844 C 43.039062 54.089844 43.71875 54.035156 44.367188 53.960938 C 45.46875 53.828125 47.878906 53.808594 48.988281 53.710938 C 50.449219 53.582031 51.90625 53.835938 53.335938 54.527344 C 53.820312 54.355469 54.335938 54.257812 54.871094 54.234375 L 54.890625 51.957031 L 55.535156 51.957031 L 55.558594 54.25 C 56.035156 54.292969 56.492188 54.40625 56.925781 54.570312 C 58.386719 53.84375 59.878906 53.574219 61.371094 53.710938 C 62.480469 53.808594 64.921875 53.859375 66.019531 53.988281 C 66.667969 54.066406 67.34375 54.117188 68.007812 54.117188 L 68.007812 54.121094 L 68.011719 54.308594 L 68.734375 63.957031 L 68.257812 63.980469 C 67.5 64.011719 66.628906 63.917969 65.660156 63.777344 C 63.964844 63.53125 62.234375 63.207031 60.527344 63.195312 C 60.34375 63.191406 60.164062 63.195312 59.984375 63.199219 C 59.476562 63.214844 58.972656 63.273438 58.472656 63.363281 C 57.691406 64.039062 56.714844 64.488281 55.632812 64.605469 L 55.632812 64.730469 L 55.625 70.316406 C 55.621094 70.539062 55.441406 70.71875 55.21875 70.71875 C 54.992188 70.71875 54.8125 70.539062 54.808594 70.316406 L 54.800781 66.902344 C 54.804688 66.90625 54.808594 66.90625 54.808594 66.910156 L 54.800781 66.902344 L 54.796875 64.726562 L 54.796875 64.621094 C 53.578125 64.558594 52.472656 64.078125 51.613281 63.320312 C 51.203125 63.257812 50.789062 63.210938 50.367188 63.199219 C 50.1875 63.191406 50.007812 63.191406 49.828125 63.191406 C 48.121094 63.207031 46.386719 63.527344 44.695312 63.773438 C 43.726562 63.917969 42.851562 64.011719 42.097656 63.976562 L 41.621094 63.957031 L 42.34375 54.304688 L 42.347656 54.121094 L 42.347656 54.109375 L 42.316406 54.105469 L 42.3125 54.136719 L 41.691406 54.734375 L 41.628906 54.792969 L 40.90625 64.539062 C 42.289062 64.660156 43.472656 64.628906 44.851562 64.433594 C 45.964844 64.277344 47.074219 64.0625 48.183594 63.949219 C 50.957031 63.667969 52.1875 63.730469 54.242188 65.054688 L 54.25 65.765625 C 52.179688 64.375 51.207031 64.261719 48.246094 64.5625 C 47.140625 64.675781 46.042969 64.890625 44.9375 65.046875 C 43.160156 65.300781 41.996094 65.257812 40.238281 65.101562 L 40.957031 55.46875 L 40.289062 56.128906 L 39.574219 65.667969 L 41.410156 65.828125 C 43.761719 66.035156 45.996094 65.414062 48.308594 65.179688 C 51.441406 64.859375 52.195312 65.078125 54.253906 66.523438 L 54.257812 67.277344 C 52.140625 65.734375 51.679688 65.457031 48.371094 65.796875 C 47.285156 65.90625 46.199219 66.117188 45.109375 66.273438 C 42.699219 66.617188 41.324219 66.441406 38.90625 66.230469 L 39.605469 56.804688 L 38.9375 57.472656 L 38.242188 66.789062 C 40.96875 67.027344 42.515625 67.265625 45.199219 66.882812 C 46.277344 66.730469 47.355469 66.519531 48.433594 66.410156 C 50.945312 66.152344 51.753906 66.269531 53.339844 67.410156 L 54.265625 68.054688 L 54.269531 69.078125 C 54.269531 69.082031 54.269531 69.082031 54.269531 69.085938 L 54.269531 70.390625 C 54.269531 70.90625 54.691406 71.332031 55.210938 71.332031 L 55.226562 71.332031 C 55.742188 71.332031 56.167969 70.90625 56.167969 70.390625 L 56.167969 69.421875 L 56.175781 67.957031 L 57 67.410156 C 58.589844 66.265625 59.398438 66.148438 61.90625 66.40625 C 62.984375 66.515625 64.058594 66.726562 65.144531 66.882812 C 67.824219 67.261719 69.375 67.027344 72.101562 66.789062 Z M 51.804688 45.8125 L 58.632812 45.8125 L 58.632812 46.472656 L 51.804688 46.472656 Z M 51.535156 48.730469 C 51.390625 48.460938 51.285156 48.175781 51.214844 47.871094 C 51.175781 47.683594 51.144531 47.488281 51.132812 47.289062 L 59.292969 47.289062 C 59.285156 47.484375 59.261719 47.679688 59.214844 47.871094 C 59.152344 48.171875 59.039062 48.460938 58.886719 48.738281 C 58.421875 49.589844 57.582031 50.285156 56.472656 50.601562 L 53.960938 50.601562 C 52.835938 50.253906 51.992188 49.601562 51.535156 48.730469 Z M 56.085938 51.664062 L 54.34375 51.664062 C 54.253906 51.617188 54.191406 51.550781 54.160156 51.453125 C 54.132812 51.335938 54.066406 51.238281 53.960938 51.140625 L 53.957031 51.09375 L 56.464844 51.09375 L 56.46875 51.140625 C 56.367188 51.226562 56.308594 51.304688 56.285156 51.402344 C 56.265625 51.519531 56.199219 51.601562 56.085938 51.664062 Z M 56.085938 51.664062 " fill-opacity="1" fill-rule="evenodd"/></svg>