<svg xmlns="http://www.w3.org/2000/svg" xmlns:xlink="http://www.w3.org/1999/xlink" width="500" zoomAndPan="magnify" viewBox="0 0 375 374.999991" height="500" preserveAspectRatio="xMidYMid meet" version="1.0"><path fill="#35668f" d="M 94.667969 251.164062 L 109.070312 251.164062 L 109.070312 222.902344 C 109.070312 202.464844 132.761719 180.066406 153.339844 180.066406 L 213.878906 180.066406 C 230.710938 180.066406 244.15625 170.273438 244.15625 153.019531 L 244.15625 94.039062 C 244.15625 77.25 230.324219 64.679688 213.878906 61.847656 C 193.589844 58.425781 171.523438 58.609375 153.339844 61.90625 L 153.351562 61.894531 C 127.726562 66.53125 123.074219 76.207031 123.074219 94.082031 L 123.074219 125.527344 L 183.683594 125.527344 L 100.335938 125.527344 C 82.699219 125.527344 67.277344 136.359375 62.46875 156.914062 C 56.914062 180.476562 56.683594 195.167969 62.46875 219.789062 C 66.773438 238.074219 77.042969 251.164062 94.667969 251.164062 Z M 94.667969 251.164062 " fill-opacity="1" fill-rule="nonzero"/><path fill="#000000" d="M 258.386719 135.019531 L 258.398438 135.019531 L 258.398438 134.972656 Z M 258.386719 135.019531 " fill-opacity="1" fill-rule="nonzero"/><path fill="#f2bb30" d="M 279.59375 247.820312 C 297.558594 247.820312 308.597656 240.695312 314.828125 220.75 C 321.296875 200.207031 321.011719 180.445312 314.828125 154.128906 C 310.386719 135.179688 301.957031 120.878906 283.992188 120.878906 L 264.332031 120.878906 L 264.332031 149.972656 C 264.332031 172.542969 246.398438 195.132812 225.84375 195.132812 L 164.183594 195.132812 C 147.316406 195.132812 129.785156 206.90625 129.785156 224.871094 L 129.785156 278.988281 C 129.785156 296.769531 144.339844 307.203125 160.621094 312.296875 C 180.132812 318.367188 198.914062 319.464844 222.285156 312.296875 C 237.824219 307.511719 253.121094 297.871094 253.121094 278.988281 L 250.886719 251.78125 L 189.273438 251.78125 Z M 279.59375 247.820312 " fill-opacity="1" fill-rule="nonzero"/><path fill="#ffffff" d="M 209.929688 267.308594 C 216.328125 267.308594 221.527344 272.894531 221.527344 279.765625 C 221.527344 286.707031 216.328125 292.28125 209.929688 292.28125 C 203.574219 292.28125 198.328125 286.636719 198.328125 279.765625 C 198.375 272.828125 203.574219 267.308594 209.929688 267.308594 Z M 209.929688 267.308594 " fill-opacity="1" fill-rule="nonzero"/><path fill="#ffffff" d="M 166.988281 84.097656 C 173.390625 84.097656 178.589844 89.6875 178.589844 96.554688 C 178.589844 103.496094 173.390625 109.070312 166.988281 109.070312 C 160.632812 109.070312 155.390625 103.425781 155.390625 96.554688 C 155.433594 89.617188 160.632812 84.097656 166.988281 84.097656 Z M 166.988281 84.097656 " fill-opacity="1" fill-rule="nonzero"/><path fill="#000000" d="M 129.785156 259.75 C 125.046875 259.75 121.199219 255.902344 121.199219 251.164062 L 121.199219 221.847656 C 121.542969 202.507812 133.78125 191.046875 153.933594 191.046875 L 216.800781 191.046875 C 242.964844 191.046875 258.582031 176.320312 258.582031 151.65625 L 258.582031 122.34375 C 258.582031 117.601562 262.429688 113.753906 267.171875 113.753906 C 271.910156 113.753906 275.757812 117.601562 275.757812 122.34375 L 275.757812 150.96875 C 275.757812 186.019531 252.617188 208.222656 216.800781 208.222656 L 153.933594 208.222656 C 140.433594 208.222656 138.488281 215.183594 138.375 222.007812 L 138.375 251.164062 C 138.375 255.902344 134.527344 259.75 129.785156 259.75 Z M 129.785156 259.75 " fill-opacity="1" fill-rule="nonzero"/><path fill="#000000" d="M 188.972656 325.589844 C 177.914062 325.589844 166.621094 324.722656 155.871094 322.96875 C 134.789062 319.398438 121.199219 303.21875 121.199219 281.734375 L 121.199219 221.847656 C 121.199219 217.109375 125.046875 213.261719 129.785156 213.261719 C 134.527344 213.261719 138.375 217.109375 138.375 221.847656 L 138.375 281.722656 C 138.375 294.789062 145.964844 303.859375 158.6875 306.011719 C 178.578125 309.238281 200.425781 309.21875 218.5625 305.894531 C 229.292969 304.0625 236.011719 301.351562 239.195312 297.582031 C 241.785156 294.527344 242.882812 289.785156 242.882812 281.710938 L 242.882812 254.003906 L 195.605469 254.003906 C 190.863281 254.003906 187.015625 250.15625 187.015625 245.414062 C 187.015625 240.671875 190.863281 236.828125 195.605469 236.828125 L 251.472656 236.828125 C 256.210938 236.828125 260.058594 240.671875 260.058594 245.414062 L 260.058594 281.710938 C 260.058594 290.015625 259.179688 300.558594 252.296875 308.679688 C 246.320312 315.734375 236.550781 320.234375 221.550781 322.796875 C 211.476562 324.664062 200.34375 325.589844 188.972656 325.589844 Z M 188.972656 325.589844 " fill-opacity="1" fill-rule="nonzero"/><path fill="#000000" d="M 275.070312 254.023438 L 251.484375 254.023438 C 246.742188 254.023438 242.894531 250.179688 242.894531 245.4375 C 242.894531 240.695312 246.742188 236.847656 251.484375 236.847656 L 275.070312 236.847656 C 291.628906 236.847656 299.496094 230.988281 303.136719 215.941406 C 308.667969 192.820312 308.667969 179.390625 303.125 156.042969 C 298.109375 135.203125 290.609375 130.929688 280.910156 130.929688 L 275.757812 130.929688 L 275.757812 150.96875 C 275.757812 155.710938 271.910156 159.902344 267.171875 159.902344 C 262.429688 159.902344 258.582031 156.386719 258.582031 151.644531 L 258.582031 122.34375 C 258.582031 117.601562 262.429688 113.753906 267.171875 113.753906 L 280.910156 113.753906 C 307.535156 113.753906 315.871094 135.601562 319.832031 152.046875 C 325.957031 177.878906 325.957031 194.367188 319.832031 219.960938 C 314.371094 242.5625 299.3125 254.023438 275.070312 254.023438 Z M 275.070312 254.023438 " fill-opacity="1" fill-rule="nonzero"/><path fill="#000000" d="M 209.929688 299.828125 C 198.878906 299.828125 189.890625 290.828125 189.890625 279.765625 C 189.890625 268.726562 198.878906 259.75 209.929688 259.75 C 220.980469 259.75 229.96875 268.726562 229.96875 279.765625 C 229.851562 290.875 220.863281 299.828125 209.929688 299.828125 Z M 209.929688 276.925781 C 208.347656 276.925781 207.066406 278.199219 207.066406 279.765625 C 207.066406 282.878906 212.757812 282.925781 212.792969 279.6875 C 212.792969 278.199219 211.496094 276.925781 209.929688 276.925781 Z M 209.929688 276.925781 " fill-opacity="1" fill-rule="nonzero"/><path fill="#000000" d="M 106.90625 262.613281 C 102.167969 262.613281 98.320312 258.765625 98.320312 254.023438 L 98.320312 225.398438 C 98.320312 190.347656 121.460938 168.144531 157.277344 168.144531 L 220.144531 168.144531 C 233.644531 168.144531 235.589844 161.183594 235.703125 154.371094 L 235.703125 125.207031 C 235.703125 120.464844 239.550781 116.617188 244.292969 116.617188 C 249.03125 116.617188 252.878906 120.464844 252.878906 125.207031 L 252.878906 154.53125 C 252.535156 173.871094 240.296875 185.320312 220.144531 185.320312 L 157.277344 185.320312 C 131.113281 185.320312 115.496094 200.046875 115.496094 224.710938 L 115.496094 254.023438 C 115.496094 258.765625 111.648438 262.613281 106.90625 262.613281 Z M 106.90625 262.613281 " fill-opacity="1" fill-rule="nonzero"/><path fill="#000000" d="M 244.292969 163.117188 C 239.550781 163.117188 235.703125 159.269531 235.703125 154.53125 L 235.703125 94.632812 C 235.703125 81.566406 228.113281 72.5 215.390625 70.347656 C 195.5 67.117188 173.652344 67.140625 155.515625 70.460938 C 144.785156 72.292969 138.066406 75.007812 134.871094 78.761719 C 132.28125 81.820312 131.183594 86.558594 131.183594 94.632812 L 131.183594 122.34375 L 178.460938 122.34375 C 183.203125 122.34375 187.050781 126.191406 187.050781 130.929688 C 187.050781 135.671875 183.203125 139.519531 178.460938 139.519531 L 122.59375 139.519531 C 117.855469 139.519531 114.007812 135.671875 114.007812 130.929688 L 114.007812 94.632812 C 114.007812 86.332031 114.890625 75.785156 121.769531 67.667969 C 127.746094 60.613281 137.515625 56.113281 152.515625 53.546875 C 172.441406 49.929688 196.40625 49.859375 218.207031 53.410156 C 239.300781 56.984375 252.890625 73.164062 252.890625 94.644531 L 252.890625 154.53125 C 252.878906 159.269531 249.042969 163.117188 244.292969 163.117188 Z M 244.292969 163.117188 " fill-opacity="1" fill-rule="nonzero"/><path fill="#000000" d="M 106.90625 262.613281 L 93.167969 262.613281 C 66.542969 262.613281 58.207031 240.765625 54.246094 224.320312 C 48.121094 198.488281 48.121094 182 54.246094 156.410156 C 59.707031 133.804688 74.765625 122.34375 99.007812 122.34375 L 122.59375 122.34375 C 127.335938 122.34375 131.183594 126.191406 131.183594 130.929688 C 131.183594 135.671875 127.335938 139.519531 122.59375 139.519531 L 99.007812 139.519531 C 82.449219 139.519531 74.582031 145.382812 70.941406 160.429688 C 65.410156 183.546875 65.410156 196.976562 70.953125 220.324219 C 75.96875 241.167969 83.46875 245.4375 93.167969 245.4375 L 98.320312 245.4375 L 98.320312 225.398438 C 98.320312 220.65625 102.167969 216.46875 106.90625 216.46875 C 111.648438 216.46875 115.496094 219.984375 115.496094 224.722656 L 115.496094 254.035156 C 115.496094 258.765625 111.648438 262.613281 106.90625 262.613281 Z M 106.90625 262.613281 " fill-opacity="1" fill-rule="nonzero"/><path fill="#000000" d="M 164.148438 116.617188 C 153.097656 116.617188 144.109375 107.640625 144.109375 96.601562 C 144.214844 85.496094 153.203125 76.539062 164.148438 76.539062 C 175.199219 76.539062 184.1875 85.539062 184.1875 96.601562 C 184.1875 107.640625 175.199219 116.617188 164.148438 116.617188 Z M 164.148438 93.714844 C 162.558594 93.714844 161.296875 95.023438 161.285156 96.683594 C 161.285156 99.660156 167.011719 99.738281 167.011719 96.601562 C 167.011719 95.066406 165.683594 93.714844 164.148438 93.714844 Z M 164.148438 93.714844 " fill-opacity="1" fill-rule="nonzero"/></svg>