<svg xmlns="http://www.w3.org/2000/svg" xmlns:xlink="http://www.w3.org/1999/xlink" width="500" zoomAndPan="magnify" viewBox="0 0 375 374.999991" height="500" preserveAspectRatio="xMidYMid meet" version="1.0"><defs><clipPath id="8aae408d8e"><path d="M 50.046875 43.773438 L 337.296875 43.773438 L 337.296875 331.023438 L 50.046875 331.023438 Z M 50.046875 43.773438 " clip-rule="nonzero"/></clipPath></defs><path fill="#b3b3b3" d="M 332.753906 263.695312 L 332.753906 299.59375 C 332.75 300.183594 332.691406 300.765625 332.574219 301.34375 C 332.460938 301.921875 332.289062 302.480469 332.0625 303.023438 C 331.835938 303.566406 331.558594 304.085938 331.230469 304.574219 C 330.90625 305.0625 330.53125 305.515625 330.117188 305.933594 C 329.699219 306.347656 329.246094 306.71875 328.757812 307.046875 C 328.269531 307.375 327.753906 307.652344 327.207031 307.878906 C 326.664062 308.105469 326.105469 308.277344 325.527344 308.390625 C 324.949219 308.507812 324.367188 308.566406 323.777344 308.570312 L 292.367188 308.570312 L 292.367188 254.71875 L 323.777344 254.71875 C 324.367188 254.722656 324.949219 254.785156 325.523438 254.902344 C 326.101562 255.019531 326.660156 255.191406 327.203125 255.421875 C 327.746094 255.648438 328.261719 255.925781 328.75 256.253906 C 329.238281 256.578125 329.6875 256.953125 330.105469 257.367188 C 330.519531 257.785156 330.894531 258.234375 331.21875 258.722656 C 331.546875 259.210938 331.824219 259.726562 332.050781 260.269531 C 332.277344 260.8125 332.453125 261.371094 332.570312 261.949219 C 332.6875 262.523438 332.75 263.105469 332.753906 263.695312 Z M 332.753906 263.695312 " fill-opacity="1" fill-rule="nonzero"/><path fill="#666666" d="M 292.367188 254.71875 L 305.828125 254.71875 L 305.828125 308.570312 L 292.367188 308.570312 Z M 292.367188 254.71875 " fill-opacity="1" fill-rule="nonzero"/><path fill="#e8c395" d="M 193.597656 187.410156 L 193.554688 209.847656 C 184.175781 209.800781 175.019531 206.257812 166.71875 200.199219 C 155.679688 192.121094 146.210938 179.554688 139.792969 164.972656 C 126.332031 106.636719 157.742188 84.199219 157.742188 84.199219 C 157.742188 84.199219 166.71875 102.148438 193.597656 102.148438 Z M 193.597656 187.410156 " fill-opacity="1" fill-rule="nonzero"/><path fill="#ae9270" d="M 193.644531 164.972656 L 180.179688 160.484375 L 180.179688 142.535156 L 193.644531 142.535156 Z M 193.644531 164.972656 " fill-opacity="1" fill-rule="nonzero"/><path fill="#4d4d4d" d="M 292.367188 308.570312 L 323.777344 308.570312 L 323.777344 326.519531 L 292.367188 326.519531 Z M 292.367188 308.570312 " fill-opacity="1" fill-rule="nonzero"/><path fill="#26c6c6" d="M 99.40625 326.519531 L 54.535156 326.519531 L 54.535156 295.105469 C 54.535156 293.660156 54.589844 292.21875 54.707031 290.78125 C 54.824219 289.339844 54.996094 287.90625 55.230469 286.480469 C 55.460938 285.054688 55.75 283.640625 56.09375 282.238281 C 56.4375 280.835938 56.839844 279.449219 57.296875 278.078125 C 57.753906 276.707031 58.265625 275.359375 58.832031 274.027344 C 59.394531 272.699219 60.015625 271.394531 60.683594 270.113281 C 61.355469 268.835938 62.074219 267.585938 62.847656 266.363281 C 63.617188 265.140625 64.4375 263.953125 65.304688 262.796875 C 66.171875 261.640625 67.082031 260.523438 68.039062 259.441406 C 68.996094 258.359375 69.996094 257.316406 71.035156 256.3125 C 72.074219 255.3125 73.15625 254.351562 74.273438 253.4375 C 75.390625 252.523438 76.542969 251.65625 77.730469 250.832031 C 78.917969 250.011719 80.136719 249.238281 81.386719 248.511719 C 82.636719 247.789062 83.914062 247.117188 85.21875 246.496094 C 86.523438 245.871094 87.851562 245.304688 89.199219 244.789062 C 90.550781 244.277344 91.917969 243.816406 93.304688 243.410156 L 120.542969 235.46875 L 171.207031 286.132812 L 193.554688 254.855469 L 193.507812 295.105469 L 193.507812 326.519531 Z M 99.40625 326.519531 " fill-opacity="1" fill-rule="nonzero"/><path fill="#1b8ace" d="M 193.554688 254.855469 L 171.207031 286.132812 L 120.542969 235.46875 L 162.230469 223.308594 L 193.554688 254.628906 Z M 193.554688 254.855469 " fill-opacity="1" fill-rule="nonzero"/><path fill="#ae9270" d="M 193.554688 209.847656 L 193.554688 254.628906 L 162.230469 223.308594 L 166.71875 200.199219 C 175.019531 206.253906 184.175781 209.800781 193.554688 209.847656 Z M 193.554688 209.847656 " fill-opacity="1" fill-rule="nonzero"/><path fill="#666666" d="M 193.554688 209.847656 L 220.566406 209.847656 L 220.566406 227.796875 L 193.554688 227.796875 Z M 193.554688 209.847656 " fill-opacity="1" fill-rule="nonzero"/><path fill="#f9df70" d="M 234.03125 232.28125 L 234.03125 259.207031 L 211.59375 295.105469 L 193.507812 295.105469 L 193.554688 254.855469 L 193.644531 254.71875 L 193.554688 254.628906 L 193.554688 227.796875 L 234.03125 227.796875 Z M 234.03125 232.28125 " fill-opacity="1" fill-rule="nonzero"/><path fill="#b3b3b3" d="M 256.46875 235.738281 L 256.46875 281.644531 L 229.542969 326.519531 L 193.507812 326.519531 L 193.507812 295.105469 L 211.59375 295.105469 L 234.03125 259.207031 L 234.03125 232.28125 Z M 256.46875 235.738281 " fill-opacity="1" fill-rule="nonzero"/><path fill="#efbe43" d="M 269.929688 326.519531 L 229.542969 326.519531 L 256.46875 281.644531 L 256.46875 235.738281 L 283.480469 239.910156 C 284.09375 240.003906 284.695312 240.148438 285.28125 240.347656 C 285.867188 240.546875 286.433594 240.796875 286.976562 241.09375 C 287.519531 241.394531 288.03125 241.738281 288.511719 242.128906 C 288.992188 242.519531 289.4375 242.953125 289.839844 243.421875 C 290.246094 243.890625 290.605469 244.394531 290.917969 244.925781 C 291.234375 245.460938 291.5 246.019531 291.714844 246.601562 C 291.929688 247.179688 292.09375 247.777344 292.203125 248.386719 C 292.3125 248.996094 292.367188 249.613281 292.367188 250.234375 L 292.367188 326.519531 Z M 269.929688 326.519531 " fill-opacity="1" fill-rule="nonzero"/><path fill="#666666" d="M 256.46875 102.148438 L 274.417969 102.148438 L 274.417969 147.023438 L 256.46875 147.023438 Z M 256.46875 102.148438 " fill-opacity="1" fill-rule="nonzero"/><path fill="#efbe43" d="M 247.492188 61.761719 L 229.542969 88.6875 L 193.644531 88.6875 L 193.644531 48.300781 Z M 247.492188 61.761719 " fill-opacity="1" fill-rule="nonzero"/><path fill="#666666" d="M 193.644531 48.300781 L 193.644531 88.6875 L 193.597656 102.148438 C 166.71875 102.148438 157.742188 84.199219 157.742188 84.199219 C 157.742188 84.199219 126.332031 106.636719 139.792969 164.972656 L 129.292969 147.472656 C 128.011719 145.332031 126.84375 143.128906 125.800781 140.859375 C 124.753906 138.59375 123.832031 136.277344 123.035156 133.914062 C 122.238281 131.546875 121.570312 129.148438 121.035156 126.710938 C 120.496094 124.273438 120.09375 121.8125 119.820312 119.332031 C 119.546875 116.851562 119.410156 114.363281 119.40625 111.867188 C 119.402344 109.371094 119.53125 106.882812 119.796875 104.398438 C 120.0625 101.917969 120.457031 99.457031 120.988281 97.019531 C 121.519531 94.578125 122.175781 92.175781 122.964844 89.808594 L 128.21875 74.058594 C 128.738281 72.488281 129.375 70.96875 130.117188 69.496094 C 130.863281 68.023438 131.714844 66.609375 132.667969 65.261719 C 133.621094 63.914062 134.667969 62.640625 135.804688 61.445312 C 136.945312 60.25 138.167969 59.144531 139.46875 58.128906 C 140.769531 57.109375 142.140625 56.195312 143.578125 55.378906 C 145.011719 54.566406 146.5 53.859375 148.042969 53.261719 C 149.582031 52.664062 151.15625 52.183594 152.769531 51.820312 C 154.378906 51.453125 156.007812 51.207031 157.652344 51.082031 Z M 193.644531 48.300781 " fill-opacity="1" fill-rule="nonzero"/><path fill="#4d4d4d" d="M 136.222656 156.445312 C 134.9375 154.304688 133.773438 152.101562 132.726562 149.835938 C 131.679688 147.570312 130.761719 145.253906 129.964844 142.886719 C 129.167969 140.523438 128.5 138.121094 127.964844 135.683594 C 127.425781 133.246094 127.019531 130.785156 126.75 128.304688 C 126.476562 125.824219 126.339844 123.335938 126.335938 120.839844 C 126.332031 118.34375 126.460938 115.855469 126.726562 113.375 C 126.988281 110.890625 127.386719 108.429688 127.917969 105.992188 C 128.445312 103.554688 129.105469 101.148438 129.894531 98.78125 L 135.144531 83.03125 C 135.667969 81.464844 136.300781 79.945312 137.046875 78.46875 C 137.792969 76.996094 138.640625 75.585938 139.59375 74.234375 C 140.546875 72.886719 141.59375 71.613281 142.734375 70.417969 C 143.875 69.222656 145.09375 68.117188 146.398438 67.101562 C 147.699219 66.085938 149.066406 65.167969 150.503906 64.355469 C 151.941406 63.539062 153.429688 62.832031 154.96875 62.234375 C 156.511719 61.640625 158.085938 61.160156 159.695312 60.792969 C 161.308594 60.425781 162.9375 60.183594 164.582031 60.054688 L 193.644531 57.8125 L 193.644531 48.300781 L 157.652344 51.082031 C 156.007812 51.207031 154.378906 51.453125 152.769531 51.820312 C 151.15625 52.183594 149.582031 52.664062 148.042969 53.261719 C 146.5 53.859375 145.011719 54.566406 143.578125 55.378906 C 142.140625 56.195312 140.769531 57.109375 139.46875 58.125 C 138.167969 59.144531 136.945312 60.25 135.804688 61.445312 C 134.664062 62.640625 133.621094 63.914062 132.667969 65.261719 C 131.714844 66.609375 130.863281 68.023438 130.117188 69.496094 C 129.375 70.96875 128.738281 72.488281 128.21875 74.058594 L 122.964844 89.808594 C 122.175781 92.175781 121.519531 94.578125 120.988281 97.019531 C 120.457031 99.457031 120.0625 101.917969 119.796875 104.398438 C 119.53125 106.882812 119.402344 109.371094 119.40625 111.867188 C 119.410156 114.363281 119.546875 116.851562 119.820312 119.332031 C 120.09375 121.8125 120.496094 124.273438 121.035156 126.710938 C 121.570312 129.148438 122.238281 131.546875 123.035156 133.914062 C 123.832031 136.277344 124.753906 138.59375 125.800781 140.859375 C 126.84375 143.128906 128.011719 145.332031 129.292969 147.472656 L 139.792969 164.972656 C 139.484375 163.621094 139.21875 162.3125 138.953125 161 Z M 136.222656 156.445312 " fill-opacity="1" fill-rule="nonzero"/><path fill="#efbe43" d="M 246.863281 169.460938 L 233.085938 201.589844 C 232.5625 202.816406 231.871094 203.9375 231.015625 204.960938 C 230.164062 205.984375 229.179688 206.863281 228.066406 207.59375 C 226.953125 208.328125 225.757812 208.886719 224.480469 209.269531 C 223.207031 209.652344 221.902344 209.847656 220.566406 209.847656 L 193.554688 209.847656 L 193.597656 187.410156 L 220.566406 187.410156 L 229.542969 169.460938 Z M 246.863281 169.460938 " fill-opacity="1" fill-rule="nonzero"/><path fill="#f9df70" d="M 193.597656 102.148438 L 193.644531 88.6875 L 229.542969 88.6875 L 247.492188 61.761719 L 256.46875 102.148438 L 256.46875 147.023438 L 246.863281 169.460938 L 229.542969 169.460938 L 220.566406 187.410156 L 193.597656 187.410156 Z M 234.03125 126.828125 C 234.03125 126.09375 233.957031 125.363281 233.8125 124.640625 C 233.671875 123.917969 233.457031 123.214844 233.175781 122.535156 C 232.894531 121.855469 232.546875 121.207031 232.140625 120.597656 C 231.730469 119.984375 231.265625 119.417969 230.742188 118.894531 C 230.222656 118.375 229.65625 117.910156 229.042969 117.5 C 228.429688 117.089844 227.785156 116.746094 227.105469 116.464844 C 226.425781 116.183594 225.722656 115.96875 225 115.824219 C 224.277344 115.683594 223.546875 115.609375 222.8125 115.609375 C 222.074219 115.609375 221.34375 115.683594 220.621094 115.824219 C 219.898438 115.96875 219.199219 116.183594 218.519531 116.464844 C 217.835938 116.746094 217.191406 117.089844 216.578125 117.5 C 215.964844 117.910156 215.398438 118.375 214.878906 118.894531 C 214.359375 119.417969 213.894531 119.984375 213.484375 120.597656 C 213.074219 121.207031 212.730469 121.855469 212.445312 122.535156 C 212.164062 123.214844 211.953125 123.917969 211.808594 124.640625 C 211.664062 125.363281 211.59375 126.09375 211.59375 126.828125 C 211.59375 127.566406 211.664062 128.296875 211.808594 129.015625 C 211.953125 129.738281 212.164062 130.441406 212.445312 131.121094 C 212.730469 131.800781 213.074219 132.449219 213.484375 133.0625 C 213.894531 133.675781 214.359375 134.242188 214.878906 134.761719 C 215.398438 135.28125 215.964844 135.746094 216.578125 136.15625 C 217.191406 136.566406 217.835938 136.910156 218.519531 137.191406 C 219.199219 137.476562 219.898438 137.6875 220.621094 137.832031 C 221.34375 137.976562 222.074219 138.046875 222.8125 138.046875 C 223.546875 138.046875 224.277344 137.976562 225 137.832031 C 225.722656 137.6875 226.421875 137.472656 227.105469 137.191406 C 227.785156 136.910156 228.429688 136.566406 229.042969 136.15625 C 229.65625 135.746094 230.222656 135.28125 230.742188 134.761719 C 231.261719 134.238281 231.730469 133.671875 232.136719 133.058594 C 232.546875 132.449219 232.894531 131.800781 233.175781 131.121094 C 233.457031 130.441406 233.667969 129.738281 233.8125 129.015625 C 233.957031 128.292969 234.03125 127.566406 234.03125 126.828125 Z M 234.03125 126.828125 " fill-opacity="1" fill-rule="nonzero"/><path fill="#22b573" d="M 234.03125 126.828125 C 234.03125 127.566406 233.957031 128.296875 233.8125 129.015625 C 233.671875 129.738281 233.457031 130.441406 233.175781 131.121094 C 232.894531 131.800781 232.546875 132.449219 232.140625 133.0625 C 231.730469 133.675781 231.265625 134.242188 230.742188 134.761719 C 230.222656 135.28125 229.65625 135.746094 229.042969 136.15625 C 228.429688 136.566406 227.785156 136.910156 227.105469 137.191406 C 226.425781 137.476562 225.722656 137.6875 225 137.832031 C 224.277344 137.976562 223.546875 138.046875 222.8125 138.046875 C 222.074219 138.046875 221.34375 137.976562 220.621094 137.832031 C 219.898438 137.6875 219.199219 137.476562 218.519531 137.191406 C 217.835938 136.910156 217.191406 136.566406 216.578125 136.15625 C 215.964844 135.746094 215.398438 135.28125 214.878906 134.761719 C 214.359375 134.242188 213.894531 133.675781 213.484375 133.0625 C 213.074219 132.449219 212.730469 131.800781 212.445312 131.121094 C 212.164062 130.441406 211.953125 129.738281 211.808594 129.015625 C 211.664062 128.296875 211.59375 127.566406 211.59375 126.828125 C 211.59375 126.09375 211.664062 125.363281 211.808594 124.640625 C 211.953125 123.917969 212.164062 123.214844 212.445312 122.535156 C 212.730469 121.855469 213.074219 121.207031 213.484375 120.597656 C 213.894531 119.984375 214.359375 119.417969 214.878906 118.894531 C 215.398438 118.375 215.964844 117.910156 216.578125 117.5 C 217.191406 117.089844 217.835938 116.746094 218.519531 116.464844 C 219.199219 116.183594 219.898438 115.96875 220.621094 115.824219 C 221.34375 115.683594 222.074219 115.609375 222.8125 115.609375 C 223.546875 115.609375 224.277344 115.683594 225 115.824219 C 225.722656 115.96875 226.425781 116.183594 227.105469 116.464844 C 227.785156 116.746094 228.429688 117.089844 229.042969 117.5 C 229.65625 117.910156 230.222656 118.375 230.742188 118.894531 C 231.265625 119.417969 231.730469 119.984375 232.140625 120.597656 C 232.546875 121.207031 232.894531 121.855469 233.175781 122.535156 C 233.457031 123.214844 233.671875 123.917969 233.8125 124.640625 C 233.957031 125.363281 234.03125 126.09375 234.03125 126.828125 Z M 234.03125 126.828125 " fill-opacity="1" fill-rule="nonzero"/><path fill="#252525" d="M 222.8125 111.121094 C 221.78125 111.121094 220.757812 111.222656 219.746094 111.425781 C 218.734375 111.625 217.753906 111.921875 216.800781 112.316406 C 215.847656 112.710938 214.941406 113.195312 214.085938 113.769531 C 213.226562 114.34375 212.433594 114.992188 211.707031 115.722656 C 210.976562 116.453125 210.324219 117.246094 209.753906 118.101562 C 209.179688 118.960938 208.695312 119.863281 208.300781 120.816406 C 207.90625 121.769531 207.609375 122.753906 207.40625 123.765625 C 207.207031 124.777344 207.105469 125.796875 207.105469 126.828125 C 207.105469 127.859375 207.207031 128.878906 207.40625 129.890625 C 207.609375 130.902344 207.90625 131.886719 208.300781 132.839844 C 208.695312 133.792969 209.179688 134.695312 209.753906 135.554688 C 210.324219 136.410156 210.976562 137.203125 211.707031 137.933594 C 212.433594 138.664062 213.226562 139.3125 214.085938 139.886719 C 214.941406 140.460938 215.847656 140.945312 216.800781 141.339844 C 217.753906 141.734375 218.734375 142.03125 219.746094 142.230469 C 220.757812 142.433594 221.78125 142.535156 222.8125 142.535156 C 223.84375 142.535156 224.863281 142.433594 225.875 142.230469 C 226.886719 142.03125 227.867188 141.734375 228.820312 141.339844 C 229.773438 140.945312 230.679688 140.460938 231.535156 139.886719 C 232.394531 139.3125 233.1875 138.664062 233.917969 137.933594 C 234.644531 137.203125 235.296875 136.410156 235.871094 135.554688 C 236.441406 134.695312 236.925781 133.792969 237.320312 132.839844 C 237.714844 131.886719 238.015625 130.902344 238.214844 129.890625 C 238.417969 128.878906 238.515625 127.859375 238.515625 126.828125 C 238.515625 125.796875 238.414062 124.777344 238.210938 123.765625 C 238.011719 122.753906 237.710938 121.773438 237.316406 120.820312 C 236.921875 119.867188 236.4375 118.964844 235.863281 118.105469 C 235.292969 117.25 234.640625 116.457031 233.910156 115.726562 C 233.183594 115 232.390625 114.347656 231.53125 113.773438 C 230.675781 113.203125 229.769531 112.71875 228.820312 112.324219 C 227.867188 111.929688 226.886719 111.628906 225.875 111.425781 C 224.863281 111.226562 223.84375 111.125 222.8125 111.121094 Z M 222.8125 133.558594 C 222.371094 133.558594 221.929688 133.515625 221.5 133.429688 C 221.066406 133.34375 220.644531 133.214844 220.234375 133.046875 C 219.828125 132.878906 219.4375 132.671875 219.070312 132.425781 C 218.703125 132.179688 218.363281 131.898438 218.050781 131.585938 C 217.738281 131.273438 217.460938 130.933594 217.214844 130.566406 C 216.96875 130.199219 216.761719 129.8125 216.59375 129.402344 C 216.421875 128.996094 216.296875 128.574219 216.210938 128.140625 C 216.125 127.707031 216.082031 127.269531 216.082031 126.828125 C 216.082031 126.386719 216.125 125.949219 216.210938 125.515625 C 216.296875 125.082031 216.421875 124.660156 216.59375 124.253906 C 216.761719 123.84375 216.96875 123.457031 217.214844 123.089844 C 217.460938 122.722656 217.738281 122.382812 218.050781 122.070312 C 218.363281 121.757812 218.703125 121.476562 219.070312 121.230469 C 219.4375 120.984375 219.828125 120.777344 220.234375 120.609375 C 220.644531 120.441406 221.066406 120.3125 221.5 120.226562 C 221.929688 120.140625 222.371094 120.097656 222.8125 120.097656 C 223.253906 120.097656 223.691406 120.140625 224.125 120.226562 C 224.558594 120.3125 224.980469 120.441406 225.386719 120.609375 C 225.796875 120.777344 226.183594 120.984375 226.550781 121.230469 C 226.917969 121.476562 227.257812 121.757812 227.570312 122.070312 C 227.882812 122.382812 228.164062 122.722656 228.40625 123.089844 C 228.652344 123.457031 228.859375 123.84375 229.03125 124.253906 C 229.199219 124.660156 229.328125 125.082031 229.414062 125.515625 C 229.5 125.949219 229.542969 126.386719 229.542969 126.828125 C 229.542969 127.269531 229.5 127.707031 229.410156 128.140625 C 229.324219 128.574219 229.199219 128.996094 229.027344 129.402344 C 228.859375 129.8125 228.652344 130.199219 228.40625 130.566406 C 228.160156 130.933594 227.882812 131.273438 227.570312 131.585938 C 227.257812 131.898438 226.917969 132.175781 226.550781 132.421875 C 226.183594 132.667969 225.792969 132.875 225.386719 133.046875 C 224.976562 133.214844 224.558594 133.34375 224.125 133.429688 C 223.691406 133.515625 223.253906 133.558594 222.8125 133.558594 Z M 222.8125 133.558594 " fill-opacity="1" fill-rule="nonzero"/><path fill="#252525" d="M 207.105469 147.023438 C 206.8125 147.023438 206.519531 147.050781 206.230469 147.109375 C 205.941406 147.164062 205.660156 147.25 205.386719 147.363281 C 205.117188 147.476562 204.855469 147.613281 204.613281 147.777344 C 204.367188 147.941406 204.140625 148.128906 203.933594 148.335938 C 203.722656 148.542969 203.539062 148.769531 203.375 149.015625 C 203.210938 149.261719 203.074219 149.519531 202.960938 149.792969 C 202.847656 150.0625 202.761719 150.34375 202.703125 150.632812 C 202.648438 150.921875 202.617188 151.214844 202.617188 151.507812 L 202.617188 160.484375 C 202.617188 160.777344 202.648438 161.070312 202.703125 161.359375 C 202.761719 161.648438 202.847656 161.929688 202.960938 162.199219 C 203.074219 162.472656 203.210938 162.730469 203.375 162.976562 C 203.539062 163.222656 203.722656 163.449219 203.933594 163.65625 C 204.140625 163.863281 204.367188 164.050781 204.613281 164.214844 C 204.855469 164.378906 205.117188 164.515625 205.386719 164.628906 C 205.660156 164.742188 205.941406 164.828125 206.230469 164.886719 C 206.519531 164.941406 206.8125 164.972656 207.105469 164.972656 C 207.398438 164.972656 207.691406 164.941406 207.980469 164.886719 C 208.269531 164.828125 208.550781 164.742188 208.824219 164.628906 C 209.09375 164.515625 209.351562 164.378906 209.597656 164.214844 C 209.84375 164.050781 210.070312 163.863281 210.277344 163.65625 C 210.488281 163.449219 210.671875 163.222656 210.835938 162.976562 C 211 162.730469 211.136719 162.472656 211.25 162.199219 C 211.363281 161.929688 211.449219 161.648438 211.507812 161.359375 C 211.5625 161.070312 211.59375 160.777344 211.59375 160.484375 L 211.59375 151.507812 C 211.59375 151.214844 211.5625 150.921875 211.507812 150.632812 C 211.449219 150.34375 211.363281 150.0625 211.25 149.792969 C 211.136719 149.519531 211 149.261719 210.835938 149.015625 C 210.671875 148.769531 210.488281 148.542969 210.277344 148.335938 C 210.070312 148.128906 209.84375 147.941406 209.597656 147.777344 C 209.351562 147.613281 209.09375 147.476562 208.824219 147.363281 C 208.550781 147.25 208.269531 147.164062 207.980469 147.109375 C 207.691406 147.050781 207.398438 147.023438 207.105469 147.023438 Z M 207.105469 147.023438 " fill-opacity="1" fill-rule="nonzero"/><path fill="#252525" d="M 167.765625 125.234375 C 170.425781 124.023438 173.929688 124.496094 178.175781 126.621094 C 178.4375 126.753906 178.710938 126.859375 178.996094 126.9375 C 179.28125 127.011719 179.570312 127.0625 179.863281 127.082031 C 180.15625 127.105469 180.449219 127.09375 180.742188 127.058594 C 181.03125 127.019531 181.320312 126.957031 181.597656 126.863281 C 181.878906 126.769531 182.144531 126.648438 182.402344 126.503906 C 182.65625 126.359375 182.894531 126.1875 183.117188 125.996094 C 183.339844 125.804688 183.542969 125.589844 183.722656 125.355469 C 183.902344 125.125 184.058594 124.875 184.191406 124.613281 C 184.324219 124.351562 184.425781 124.078125 184.503906 123.792969 C 184.582031 123.507812 184.632812 123.21875 184.652344 122.925781 C 184.675781 122.632812 184.667969 122.339844 184.628906 122.046875 C 184.59375 121.753906 184.527344 121.46875 184.433594 121.1875 C 184.34375 120.910156 184.222656 120.640625 184.078125 120.386719 C 183.929688 120.128906 183.761719 119.890625 183.570312 119.667969 C 183.375 119.445312 183.164062 119.246094 182.929688 119.0625 C 182.699219 118.882812 182.453125 118.726562 182.1875 118.59375 C 175.359375 115.179688 169.230469 114.679688 163.976562 117.101562 C 155.890625 120.816406 153.484375 130.101562 153.390625 130.496094 C 153.320312 130.78125 153.277344 131.070312 153.265625 131.363281 C 153.25 131.65625 153.265625 131.945312 153.308594 132.234375 C 153.351562 132.527344 153.421875 132.808594 153.519531 133.085938 C 153.617188 133.359375 153.742188 133.625 153.890625 133.875 C 154.042969 134.128906 154.214844 134.363281 154.410156 134.578125 C 154.609375 134.796875 154.824219 134.992188 155.058594 135.167969 C 155.292969 135.34375 155.542969 135.492188 155.808594 135.621094 C 156.074219 135.746094 156.347656 135.84375 156.632812 135.917969 C 156.996094 136.007812 157.367188 136.054688 157.742188 136.058594 C 158.242188 136.054688 158.722656 135.976562 159.195312 135.8125 C 159.664062 135.652344 160.097656 135.417969 160.488281 135.117188 C 160.882812 134.8125 161.214844 134.453125 161.488281 134.039062 C 161.765625 133.625 161.964844 133.175781 162.089844 132.695312 C 162.105469 132.644531 163.601562 127.117188 167.765625 125.234375 Z M 167.765625 125.234375 " fill-opacity="1" fill-rule="nonzero"/><g clip-path="url(#8aae408d8e)"><path fill="#252525" d="M 333.324219 254.238281 C 332.070312 252.949219 330.617188 251.957031 328.960938 251.257812 C 327.300781 250.5625 325.574219 250.222656 323.777344 250.230469 L 296.851562 250.230469 C 296.859375 249.34375 296.785156 248.464844 296.632812 247.589844 C 296.480469 246.71875 296.25 245.863281 295.945312 245.03125 C 295.636719 244.199219 295.261719 243.402344 294.8125 242.636719 C 294.363281 241.871094 293.847656 241.152344 293.269531 240.480469 C 292.691406 239.808594 292.058594 239.191406 291.367188 238.632812 C 290.679688 238.074219 289.945312 237.582031 289.167969 237.15625 C 288.390625 236.730469 287.582031 236.375 286.742188 236.09375 C 285.898438 235.8125 285.039062 235.605469 284.164062 235.480469 L 238.515625 228.433594 L 238.515625 227.792969 C 238.515625 227.5 238.488281 227.207031 238.429688 226.917969 C 238.375 226.628906 238.289062 226.351562 238.175781 226.078125 C 238.0625 225.804688 237.925781 225.546875 237.761719 225.300781 C 237.597656 225.058594 237.410156 224.832031 237.203125 224.621094 C 236.996094 224.414062 236.769531 224.226562 236.523438 224.0625 C 236.277344 223.898438 236.019531 223.761719 235.746094 223.648438 C 235.476562 223.535156 235.195312 223.449219 234.90625 223.394531 C 234.617188 223.335938 234.324219 223.308594 234.03125 223.308594 L 225.054688 223.308594 L 225.054688 213.730469 C 226.398438 213.390625 227.683594 212.902344 228.914062 212.265625 C 230.144531 211.628906 231.289062 210.863281 232.34375 209.960938 C 233.398438 209.0625 234.335938 208.054688 235.15625 206.941406 C 235.980469 205.828125 236.664062 204.632812 237.210938 203.359375 L 250.960938 171.265625 C 250.980469 171.222656 250.996094 171.183594 251.011719 171.144531 L 259.425781 151.511719 L 274.417969 151.511719 C 274.710938 151.511719 275.003906 151.480469 275.292969 151.425781 C 275.582031 151.367188 275.863281 151.28125 276.132812 151.167969 C 276.40625 151.054688 276.664062 150.917969 276.910156 150.753906 C 277.15625 150.589844 277.382812 150.40625 277.589844 150.195312 C 277.796875 149.988281 277.984375 149.761719 278.148438 149.515625 C 278.3125 149.269531 278.449219 149.011719 278.5625 148.742188 C 278.675781 148.46875 278.761719 148.1875 278.816406 147.898438 C 278.875 147.609375 278.902344 147.316406 278.902344 147.023438 L 278.902344 102.148438 C 278.902344 101.855469 278.875 101.5625 278.816406 101.273438 C 278.761719 100.984375 278.675781 100.703125 278.5625 100.433594 C 278.449219 100.160156 278.3125 99.902344 278.148438 99.65625 C 277.984375 99.410156 277.796875 99.183594 277.589844 98.976562 C 277.382812 98.769531 277.15625 98.582031 276.910156 98.417969 C 276.664062 98.253906 276.40625 98.117188 276.132812 98.003906 C 275.863281 97.890625 275.582031 97.804688 275.292969 97.746094 C 275.003906 97.691406 274.710938 97.660156 274.417969 97.660156 L 274.417969 70.738281 C 274.417969 70.441406 274.386719 70.152344 274.332031 69.863281 C 274.273438 69.574219 274.1875 69.292969 274.074219 69.019531 C 273.960938 68.746094 273.824219 68.488281 273.660156 68.246094 C 273.496094 68 273.308594 67.773438 273.101562 67.5625 C 272.894531 67.355469 272.667969 67.167969 272.421875 67.007812 C 272.175781 66.84375 271.917969 66.703125 271.644531 66.589844 C 271.375 66.480469 271.09375 66.394531 270.804688 66.335938 C 270.515625 66.277344 270.222656 66.25 269.929688 66.25 C 269.632812 66.25 269.34375 66.277344 269.054688 66.335938 C 268.765625 66.394531 268.484375 66.480469 268.210938 66.589844 C 267.941406 66.703125 267.679688 66.84375 267.4375 67.007812 C 267.191406 67.167969 266.964844 67.355469 266.757812 67.5625 C 266.546875 67.773438 266.363281 68 266.199219 68.246094 C 266.035156 68.488281 265.894531 68.746094 265.785156 69.019531 C 265.671875 69.292969 265.585938 69.574219 265.527344 69.863281 C 265.46875 70.152344 265.441406 70.441406 265.441406 70.738281 L 265.441406 97.660156 L 260.066406 97.660156 L 251.875 60.789062 C 251.6875 59.957031 251.300781 59.238281 250.707031 58.632812 C 250.113281 58.023438 249.402344 57.617188 248.578125 57.410156 L 194.730469 43.949219 C 194.253906 43.867188 193.777344 43.828125 193.296875 43.824219 L 157.3125 46.605469 C 155.449219 46.746094 153.601562 47.023438 151.777344 47.433594 C 149.949219 47.847656 148.164062 48.390625 146.417969 49.066406 C 144.671875 49.742188 142.984375 50.539062 141.355469 51.464844 C 139.726562 52.386719 138.175781 53.425781 136.699219 54.578125 C 135.226562 55.726562 133.839844 56.980469 132.550781 58.335938 C 131.257812 59.691406 130.074219 61.132812 128.996094 62.664062 C 127.914062 64.195312 126.953125 65.792969 126.109375 67.464844 C 125.269531 69.136719 124.550781 70.859375 123.960938 72.636719 L 118.710938 88.386719 C 117.867188 90.90625 117.164062 93.464844 116.597656 96.0625 C 116.03125 98.660156 115.605469 101.277344 115.324219 103.921875 C 115.042969 106.5625 114.902344 109.214844 114.90625 111.871094 C 114.90625 114.527344 115.054688 117.179688 115.34375 119.820312 C 115.632812 122.460938 116.066406 125.082031 116.640625 127.675781 C 117.210938 130.269531 117.921875 132.828125 118.773438 135.347656 C 119.621094 137.863281 120.605469 140.328125 121.71875 142.742188 C 122.835938 145.152344 124.078125 147.5 125.445312 149.777344 L 135.855469 167.125 C 142.199219 181.414062 151.339844 193.644531 161.796875 202.007812 L 158.347656 219.765625 L 92.058594 239.101562 C 90.558594 239.539062 89.074219 240.035156 87.613281 240.59375 C 86.148438 241.152344 84.710938 241.765625 83.296875 242.4375 C 81.882812 243.113281 80.5 243.839844 79.144531 244.625 C 77.792969 245.410156 76.472656 246.246094 75.183594 247.136719 C 73.898438 248.027344 72.648438 248.96875 71.4375 249.960938 C 70.226562 250.953125 69.054688 251.992188 67.925781 253.074219 C 66.800781 254.160156 65.71875 255.289062 64.679688 256.460938 C 63.644531 257.636719 62.65625 258.847656 61.714844 260.097656 C 60.777344 261.351562 59.890625 262.640625 59.054688 263.964844 C 58.21875 265.285156 57.4375 266.640625 56.710938 268.027344 C 55.984375 269.414062 55.316406 270.828125 54.703125 272.269531 C 54.089844 273.707031 53.535156 275.171875 53.039062 276.65625 C 52.546875 278.140625 52.109375 279.644531 51.738281 281.164062 C 51.363281 282.683594 51.050781 284.214844 50.800781 285.761719 C 50.546875 287.304688 50.359375 288.859375 50.234375 290.417969 C 50.109375 291.976562 50.046875 293.539062 50.046875 295.105469 L 50.046875 326.519531 C 50.046875 326.8125 50.074219 327.105469 50.132812 327.394531 C 50.191406 327.683594 50.273438 327.960938 50.386719 328.234375 C 50.5 328.507812 50.640625 328.765625 50.800781 329.011719 C 50.964844 329.253906 51.152344 329.484375 51.359375 329.691406 C 51.570312 329.898438 51.796875 330.085938 52.039062 330.25 C 52.285156 330.414062 52.542969 330.550781 52.816406 330.664062 C 53.089844 330.777344 53.371094 330.863281 53.65625 330.917969 C 53.945312 330.976562 54.238281 331.003906 54.535156 331.003906 L 323.777344 331.003906 C 324.074219 331.003906 324.363281 330.976562 324.652344 330.917969 C 324.941406 330.863281 325.222656 330.777344 325.496094 330.664062 C 325.765625 330.550781 326.027344 330.414062 326.269531 330.25 C 326.515625 330.085938 326.742188 329.898438 326.949219 329.691406 C 327.160156 329.484375 327.34375 329.253906 327.507812 329.011719 C 327.671875 328.765625 327.8125 328.507812 327.921875 328.234375 C 328.035156 327.960938 328.121094 327.683594 328.179688 327.394531 C 328.238281 327.105469 328.265625 326.8125 328.265625 326.519531 L 328.265625 312.230469 C 328.914062 312 329.542969 311.722656 330.152344 311.394531 C 330.761719 311.070312 331.339844 310.699219 331.890625 310.285156 C 332.441406 309.871094 332.957031 309.414062 333.4375 308.921875 C 333.917969 308.425781 334.359375 307.898438 334.757812 307.335938 C 335.15625 306.773438 335.511719 306.183594 335.820312 305.566406 C 336.128906 304.949219 336.386719 304.3125 336.597656 303.65625 C 336.808594 303 336.96875 302.332031 337.074219 301.648438 C 337.183594 300.96875 337.238281 300.28125 337.238281 299.59375 L 337.238281 263.695312 C 337.253906 261.917969 336.921875 260.207031 336.242188 258.566406 C 335.5625 256.925781 334.589844 255.484375 333.324219 254.238281 Z M 287.878906 250.230469 L 287.878906 322.03125 L 274.417969 322.03125 L 274.417969 313.054688 C 274.417969 312.761719 274.386719 312.46875 274.332031 312.179688 C 274.273438 311.890625 274.1875 311.609375 274.074219 311.339844 C 273.960938 311.066406 273.824219 310.808594 273.660156 310.5625 C 273.496094 310.316406 273.308594 310.089844 273.101562 309.882812 C 272.894531 309.675781 272.667969 309.488281 272.421875 309.324219 C 272.175781 309.160156 271.917969 309.023438 271.644531 308.910156 C 271.375 308.796875 271.09375 308.710938 270.804688 308.65625 C 270.515625 308.597656 270.222656 308.566406 269.929688 308.566406 C 269.632812 308.566406 269.34375 308.597656 269.054688 308.65625 C 268.765625 308.710938 268.484375 308.796875 268.210938 308.910156 C 267.941406 309.023438 267.679688 309.160156 267.4375 309.324219 C 267.191406 309.488281 266.964844 309.675781 266.757812 309.882812 C 266.546875 310.089844 266.363281 310.316406 266.199219 310.5625 C 266.035156 310.808594 265.894531 311.066406 265.785156 311.339844 C 265.671875 311.609375 265.585938 311.890625 265.527344 312.179688 C 265.46875 312.46875 265.441406 312.761719 265.441406 313.054688 L 265.441406 322.03125 L 237.46875 322.03125 L 260.3125 283.953125 C 260.742188 283.242188 260.957031 282.472656 260.953125 281.644531 L 260.953125 240.976562 L 282.816406 244.351562 C 283.523438 244.453125 284.1875 244.675781 284.8125 245.019531 C 285.4375 245.359375 285.984375 245.804688 286.449219 246.34375 C 286.914062 246.882812 287.269531 247.488281 287.515625 248.160156 C 287.761719 248.828125 287.882812 249.519531 287.878906 250.230469 Z M 251.980469 239.59375 L 251.980469 280.398438 L 227 322.03125 L 197.996094 322.03125 L 198.003906 299.59375 L 211.59375 299.59375 C 212.367188 299.59375 213.089844 299.40625 213.765625 299.03125 C 214.441406 298.65625 214.988281 298.140625 215.394531 297.484375 L 237.832031 261.585938 C 238.289062 260.859375 238.515625 260.066406 238.515625 259.207031 L 238.515625 237.515625 Z M 160.9375 228.359375 L 187.789062 255.210938 L 170.636719 279.210938 L 129.074219 237.652344 Z M 167.089844 221.820312 L 169.863281 207.539062 C 175.816406 211.03125 182.21875 213.195312 189.066406 214.035156 L 189.054688 243.785156 Z M 198.125 54.042969 L 240.226562 64.570312 L 227.140625 84.199219 L 198.101562 84.199219 Z M 229.542969 257.917969 L 209.101562 290.621094 L 198.007812 290.621094 L 198.035156 232.285156 L 229.542969 232.285156 Z M 198.035156 223.308594 L 198.039062 214.335938 L 216.082031 214.335938 L 216.082031 223.308594 Z M 228.964844 199.820312 C 228.613281 200.644531 228.148438 201.398438 227.578125 202.082031 C 227.003906 202.769531 226.34375 203.359375 225.597656 203.851562 C 224.851562 204.34375 224.050781 204.71875 223.191406 204.972656 C 222.335938 205.230469 221.460938 205.359375 220.566406 205.359375 L 198.042969 205.359375 L 198.050781 191.894531 L 220.566406 191.894531 C 221.417969 191.894531 222.203125 191.671875 222.925781 191.226562 C 223.648438 190.777344 224.203125 190.175781 224.582031 189.414062 L 232.316406 173.945312 L 240.050781 173.945312 Z M 269.929688 142.535156 L 260.953125 142.535156 L 260.953125 106.636719 L 269.929688 106.636719 Z M 251.980469 102.636719 L 251.980469 146.101562 L 243.894531 164.972656 L 229.542969 164.972656 C 228.691406 164.972656 227.90625 165.195312 227.183594 165.640625 C 226.460938 166.089844 225.910156 166.691406 225.527344 167.453125 L 217.792969 182.921875 L 198.054688 182.921875 L 198.09375 93.171875 L 229.542969 93.171875 C 230.292969 93.171875 231 92.996094 231.660156 92.640625 C 232.320312 92.289062 232.859375 91.796875 233.277344 91.175781 L 245.390625 73 Z M 127.222656 91.226562 L 132.472656 75.480469 C 132.921875 74.121094 133.472656 72.800781 134.117188 71.523438 C 134.761719 70.246094 135.5 69.019531 136.324219 67.847656 C 137.152344 66.675781 138.058594 65.574219 139.046875 64.535156 C 140.035156 63.5 141.09375 62.539062 142.222656 61.65625 C 143.351562 60.777344 144.542969 59.980469 145.789062 59.273438 C 147.035156 58.570312 148.324219 57.957031 149.660156 57.441406 C 151 56.921875 152.363281 56.507812 153.761719 56.191406 C 155.160156 55.875 156.574219 55.664062 158.003906 55.554688 L 189.15625 53.144531 L 189.125 97.472656 C 169.023438 95.753906 162.050781 82.757812 161.757812 82.191406 C 161.613281 81.902344 161.4375 81.628906 161.234375 81.378906 C 161.03125 81.125 160.804688 80.898438 160.550781 80.695312 C 160.296875 80.492188 160.023438 80.320312 159.734375 80.175781 C 159.445312 80.03125 159.140625 79.921875 158.828125 79.84375 C 158.511719 79.765625 158.191406 79.722656 157.871094 79.714844 C 157.546875 79.703125 157.222656 79.730469 156.90625 79.792969 C 156.585938 79.851562 156.28125 79.945312 155.980469 80.074219 C 155.683594 80.203125 155.402344 80.359375 155.140625 80.546875 C 153.941406 81.402344 129.632812 99.367188 132.101562 143.355469 C 131.003906 141.390625 130.015625 139.378906 129.128906 137.3125 C 128.242188 135.246094 127.464844 133.140625 126.800781 130.992188 C 126.132812 128.847656 125.578125 126.671875 125.136719 124.46875 C 124.699219 122.265625 124.371094 120.042969 124.164062 117.804688 C 123.953125 115.566406 123.859375 113.324219 123.886719 111.078125 C 123.910156 108.828125 124.050781 106.589844 124.304688 104.355469 C 124.5625 102.125 124.933594 99.910156 125.421875 97.714844 C 125.910156 95.523438 126.507812 93.359375 127.222656 91.226562 Z M 144.085938 163.558594 C 134.269531 120.453125 149.691406 98.5 156.949219 90.941406 C 161.527344 96.527344 171.382812 105.191406 189.113281 106.476562 L 189.089844 158.734375 L 184.667969 157.253906 L 184.667969 142.535156 C 184.667969 142.238281 184.640625 141.949219 184.582031 141.660156 C 184.523438 141.371094 184.441406 141.089844 184.328125 140.816406 C 184.214844 140.542969 184.074219 140.285156 183.910156 140.042969 C 183.75 139.796875 183.5625 139.570312 183.355469 139.359375 C 183.144531 139.152344 182.917969 138.964844 182.675781 138.804688 C 182.429688 138.640625 182.171875 138.5 181.898438 138.386719 C 181.625 138.277344 181.34375 138.191406 181.054688 138.132812 C 180.765625 138.074219 180.476562 138.046875 180.179688 138.046875 C 179.886719 138.046875 179.59375 138.074219 179.304688 138.132812 C 179.015625 138.191406 178.734375 138.277344 178.464844 138.386719 C 178.191406 138.5 177.933594 138.640625 177.6875 138.804688 C 177.441406 138.964844 177.214844 139.152344 177.007812 139.359375 C 176.800781 139.570312 176.613281 139.796875 176.449219 140.042969 C 176.285156 140.285156 176.148438 140.542969 176.035156 140.816406 C 175.921875 141.089844 175.835938 141.371094 175.78125 141.660156 C 175.722656 141.949219 175.695312 142.238281 175.695312 142.535156 L 175.695312 160.484375 C 175.695312 160.953125 175.765625 161.414062 175.910156 161.859375 C 176.054688 162.308594 176.265625 162.722656 176.539062 163.105469 C 176.816406 163.488281 177.140625 163.816406 177.519531 164.097656 C 177.898438 164.375 178.3125 164.589844 178.757812 164.738281 L 189.085938 168.195312 L 189.078125 182.511719 C 178.605469 180.679688 175.613281 172.945312 175.449219 172.488281 C 175.351562 172.214844 175.226562 171.953125 175.074219 171.703125 C 174.925781 171.453125 174.753906 171.222656 174.558594 171.007812 C 174.363281 170.789062 174.148438 170.59375 173.917969 170.421875 C 173.683594 170.246094 173.4375 170.097656 173.175781 169.972656 C 172.914062 169.84375 172.640625 169.746094 172.359375 169.671875 C 172.078125 169.601562 171.792969 169.554688 171.5 169.535156 C 171.210938 169.519531 170.921875 169.53125 170.632812 169.570312 C 170.34375 169.609375 170.0625 169.671875 169.789062 169.765625 C 169.511719 169.859375 169.25 169.980469 168.996094 170.125 C 168.746094 170.269531 168.507812 170.4375 168.289062 170.628906 C 168.070312 170.816406 167.871094 171.027344 167.691406 171.257812 C 167.511719 171.484375 167.359375 171.730469 167.226562 171.988281 C 167.09375 172.25 166.992188 172.519531 166.910156 172.800781 C 166.832031 173.078125 166.78125 173.363281 166.757812 173.652344 C 166.734375 173.941406 166.738281 174.234375 166.773438 174.523438 C 166.804688 174.808594 166.863281 175.09375 166.953125 175.371094 C 167.160156 175.988281 171.910156 189.457031 189.078125 191.585938 L 189.074219 205.003906 C 182.445312 204.097656 175.835938 201.296875 169.371094 196.574219 C 159.226562 189.152344 150.265625 177.433594 144.085938 163.558594 Z M 59.019531 295.105469 C 59.019531 293.78125 59.074219 292.460938 59.179688 291.140625 C 59.289062 289.820312 59.445312 288.507812 59.660156 287.199219 C 59.871094 285.894531 60.136719 284.597656 60.453125 283.308594 C 60.769531 282.023438 61.136719 280.753906 61.554688 279.496094 C 61.972656 278.242188 62.441406 277.003906 62.960938 275.785156 C 63.480469 274.566406 64.046875 273.371094 64.660156 272.199219 C 65.273438 271.027344 65.9375 269.878906 66.644531 268.761719 C 67.351562 267.640625 68.101562 266.550781 68.894531 265.492188 C 69.6875 264.433594 70.523438 263.40625 71.402344 262.414062 C 72.277344 261.421875 73.195312 260.46875 74.148438 259.546875 C 75.101562 258.628906 76.089844 257.75 77.117188 256.914062 C 78.140625 256.074219 79.199219 255.277344 80.285156 254.523438 C 81.375 253.769531 82.492188 253.0625 83.636719 252.398438 C 84.785156 251.734375 85.953125 251.117188 87.148438 250.546875 C 88.34375 249.976562 89.5625 249.457031 90.796875 248.984375 C 92.035156 248.511719 93.289062 248.09375 94.5625 247.722656 L 119.25 240.519531 L 168.035156 289.300781 C 168.484375 289.792969 169.019531 290.15625 169.644531 290.382812 C 170.269531 290.613281 170.914062 290.6875 171.574219 290.601562 C 172.230469 290.542969 172.84375 290.347656 173.414062 290.023438 C 173.988281 289.695312 174.46875 289.269531 174.855469 288.738281 L 189.042969 268.871094 L 189.019531 322.03125 L 103.894531 322.03125 L 103.894531 304.082031 C 103.894531 303.785156 103.867188 303.496094 103.808594 303.207031 C 103.75 302.917969 103.667969 302.636719 103.554688 302.363281 C 103.441406 302.089844 103.300781 301.832031 103.140625 301.585938 C 102.976562 301.34375 102.789062 301.117188 102.582031 300.90625 C 102.371094 300.699219 102.144531 300.511719 101.902344 300.347656 C 101.65625 300.1875 101.398438 300.046875 101.125 299.933594 C 100.851562 299.820312 100.570312 299.738281 100.28125 299.679688 C 99.992188 299.621094 99.703125 299.59375 99.40625 299.59375 C 99.113281 299.59375 98.820312 299.621094 98.53125 299.679688 C 98.242188 299.738281 97.960938 299.820312 97.691406 299.933594 C 97.417969 300.046875 97.160156 300.1875 96.914062 300.347656 C 96.667969 300.511719 96.441406 300.699219 96.234375 300.90625 C 96.027344 301.117188 95.839844 301.34375 95.675781 301.585938 C 95.511719 301.832031 95.375 302.089844 95.261719 302.363281 C 95.148438 302.636719 95.0625 302.917969 95.007812 303.207031 C 94.949219 303.496094 94.921875 303.785156 94.921875 304.082031 L 94.921875 322.03125 L 59.019531 322.03125 Z M 296.851562 322.03125 L 296.851562 313.054688 L 319.289062 313.054688 L 319.289062 322.03125 Z M 328.265625 299.59375 C 328.265625 299.886719 328.238281 300.179688 328.179688 300.46875 C 328.121094 300.757812 328.035156 301.039062 327.921875 301.308594 C 327.8125 301.582031 327.671875 301.839844 327.507812 302.085938 C 327.34375 302.332031 327.160156 302.558594 326.949219 302.765625 C 326.742188 302.976562 326.515625 303.160156 326.269531 303.324219 C 326.027344 303.488281 325.765625 303.625 325.496094 303.738281 C 325.222656 303.851562 324.941406 303.9375 324.652344 303.996094 C 324.363281 304.050781 324.074219 304.082031 323.777344 304.082031 L 296.851562 304.082031 L 296.851562 259.207031 L 323.777344 259.207031 C 324.382812 259.207031 324.964844 259.324219 325.519531 259.5625 C 326.074219 259.804688 326.558594 260.144531 326.976562 260.582031 C 327.847656 261.4375 328.277344 262.472656 328.265625 263.695312 Z M 328.265625 299.59375 " fill-opacity="1" fill-rule="nonzero"/></g><path fill="#252525" d="M 314.804688 268.179688 C 314.507812 268.179688 314.214844 268.210938 313.925781 268.269531 C 313.636719 268.324219 313.359375 268.410156 313.085938 268.523438 C 312.8125 268.636719 312.554688 268.773438 312.308594 268.9375 C 312.066406 269.101562 311.839844 269.289062 311.628906 269.496094 C 311.421875 269.703125 311.234375 269.929688 311.070312 270.175781 C 310.910156 270.421875 310.769531 270.679688 310.65625 270.953125 C 310.542969 271.222656 310.460938 271.503906 310.402344 271.792969 C 310.34375 272.082031 310.316406 272.375 310.316406 272.667969 L 310.316406 290.617188 C 310.316406 290.914062 310.34375 291.203125 310.402344 291.492188 C 310.460938 291.78125 310.542969 292.0625 310.65625 292.335938 C 310.769531 292.609375 310.910156 292.867188 311.070312 293.113281 C 311.234375 293.355469 311.421875 293.582031 311.628906 293.792969 C 311.839844 294 312.066406 294.1875 312.308594 294.351562 C 312.554688 294.511719 312.8125 294.652344 313.085938 294.765625 C 313.359375 294.878906 313.636719 294.960938 313.925781 295.019531 C 314.214844 295.078125 314.507812 295.105469 314.804688 295.105469 C 315.097656 295.105469 315.390625 295.078125 315.679688 295.019531 C 315.96875 294.960938 316.25 294.878906 316.519531 294.765625 C 316.792969 294.652344 317.050781 294.511719 317.296875 294.351562 C 317.542969 294.1875 317.769531 294 317.976562 293.792969 C 318.183594 293.582031 318.371094 293.355469 318.535156 293.113281 C 318.699219 292.867188 318.835938 292.609375 318.949219 292.335938 C 319.0625 292.0625 319.148438 291.78125 319.203125 291.492188 C 319.261719 291.203125 319.289062 290.914062 319.289062 290.617188 L 319.289062 272.667969 C 319.289062 272.375 319.261719 272.082031 319.203125 271.792969 C 319.148438 271.503906 319.0625 271.222656 318.949219 270.953125 C 318.835938 270.679688 318.699219 270.421875 318.535156 270.175781 C 318.371094 269.929688 318.183594 269.703125 317.976562 269.496094 C 317.769531 269.289062 317.542969 269.101562 317.296875 268.9375 C 317.050781 268.773438 316.792969 268.636719 316.519531 268.523438 C 316.25 268.410156 315.96875 268.324219 315.679688 268.269531 C 315.390625 268.210938 315.097656 268.179688 314.804688 268.179688 Z M 314.804688 268.179688 " fill-opacity="1" fill-rule="nonzero"/></svg>