<svg xmlns="http://www.w3.org/2000/svg" xmlns:xlink="http://www.w3.org/1999/xlink" width="250" zoomAndPan="magnify" viewBox="0 0 187.5 187.499992" height="250" preserveAspectRatio="xMidYMid meet" version="1.0"><defs><g/><clipPath id="d7a7a75996"><path d="M 41 72.609375 L 62 72.609375 L 62 85 L 41 85 Z M 41 72.609375 " clip-rule="nonzero"/></clipPath><clipPath id="0df069c400"><path d="M 32 95.851562 L 70.917969 95.851562 L 70.917969 118.359375 L 32 118.359375 Z M 32 95.851562 " clip-rule="nonzero"/></clipPath><clipPath id="6456919da7"><path d="M 23.363281 116.578125 L 79.550781 116.578125 L 79.550781 118.359375 L 23.363281 118.359375 Z M 23.363281 116.578125 " clip-rule="nonzero"/></clipPath><clipPath id="db4f9183a7"><path d="M 36.625 113.199219 L 66.347656 113.199219 L 66.347656 118.359375 L 36.625 118.359375 Z M 36.625 113.199219 " clip-rule="nonzero"/></clipPath></defs><path fill="#b3614b" d="M 42.929688 83.410156 C 42.632812 83.011719 42.5625 82.371094 42.511719 81.894531 C 42.347656 80.371094 42.363281 79.167969 42.507812 78.824219 C 42.59375 78.621094 43.027344 77.609375 44.054688 76.609375 C 45.71875 74.992188 48.457031 74.144531 49.847656 73.851562 C 50.976562 73.617188 52.167969 73.5 53.332031 73.578125 C 53.984375 73.625 54.664062 73.707031 55.292969 73.871094 C 55.8125 74.003906 56.328125 74.253906 56.640625 74.691406 C 56.976562 75.164062 57.058594 75.757812 57.457031 76.191406 C 57.898438 76.664062 58.496094 76.945312 58.945312 77.40625 C 59.542969 78.023438 60.144531 78.996094 60.230469 79.863281 C 60.308594 80.648438 59.964844 81.386719 59.574219 82.042969 C 59.503906 82.160156 58.679688 83.441406 58.570312 83.449219 C 58.566406 83.445312 58.5625 83.445312 58.5625 83.445312 C 58.398438 83.273438 58.019531 82.125 56.679688 80.414062 C 56.300781 79.933594 56.125 79.734375 55.976562 79.589844 C 55.878906 79.496094 55.582031 79.210938 55.140625 78.898438 C 55 78.800781 54.695312 78.574219 54.613281 78.714844 C 54.445312 78.992188 54.160156 79.382812 53.691406 79.675781 C 52.96875 80.128906 52.238281 80.097656 51.585938 80.082031 C 51.585938 80.082031 49.425781 80.03125 47.082031 80.191406 C 46.230469 80.253906 45.324219 80.300781 44.554688 80.710938 C 43.566406 81.242188 43.222656 82.351562 43.035156 83.390625 C 43.03125 83.414062 43.015625 83.433594 42.996094 83.441406 C 42.992188 83.441406 42.992188 83.441406 42.992188 83.441406 C 42.960938 83.453125 42.941406 83.429688 42.929688 83.410156 " fill-opacity="1" fill-rule="evenodd"/><path fill="#ebb39e" d="M 55.972656 98.660156 L 53.992188 100.4375 L 48.71875 100.4375 L 46.921875 98.738281 L 46.925781 98.734375 C 47.265625 98.042969 47.640625 96.230469 47.65625 95.601562 C 47.671875 94.996094 47.566406 94.589844 47.457031 94.160156 C 48.667969 95.050781 49.8125 95.320312 50.070312 95.375 C 51.527344 95.699219 52.683594 95.449219 52.984375 95.375 C 54.097656 95.113281 54.851562 94.609375 55.214844 94.355469 C 55.128906 94.703125 55.054688 95.09375 55.066406 95.601562 C 55.097656 96.800781 55.542969 97.890625 55.972656 98.660156 " fill-opacity="1" fill-rule="evenodd"/><path fill="#f4baa6" d="M 47.457031 94.160156 C 47.34375 94.078125 47.230469 93.992188 47.117188 93.898438 C 46.777344 93.617188 45.511719 92.523438 44.828125 90.613281 C 44.609375 89.992188 44.472656 89.253906 44.421875 88.875 C 42.441406 88.296875 41.15625 85.34375 43.316406 83.445312 L 43.316406 83.441406 C 43.339844 83.433594 43.351562 83.414062 43.359375 83.390625 C 43.542969 82.351562 43.886719 81.242188 44.878906 80.710938 C 45.644531 80.300781 46.554688 80.253906 47.40625 80.191406 C 49.746094 80.03125 51.90625 80.082031 51.90625 80.082031 C 52.558594 80.097656 53.292969 80.128906 54.011719 79.675781 C 54.480469 79.382812 54.769531 78.992188 54.933594 78.714844 C 55.015625 78.578125 55.320312 78.800781 55.464844 78.898438 C 55.90625 79.210938 56.203125 79.496094 56.300781 79.589844 C 56.445312 79.734375 56.625 79.933594 57 80.414062 C 58.34375 82.125 58.722656 83.273438 58.882812 83.445312 C 58.886719 83.445312 58.890625 83.449219 58.890625 83.449219 C 61.390625 84.265625 60.546875 88.496094 58.613281 88.824219 C 58.398438 89.839844 57.90625 91.550781 56.714844 92.976562 C 56.042969 93.773438 55.398438 94.230469 55.238281 94.34375 C 55.230469 94.347656 55.222656 94.351562 55.214844 94.355469 C 54.851562 94.609375 54.097656 95.113281 52.984375 95.375 C 52.683594 95.449219 51.527344 95.699219 50.070312 95.375 C 49.8125 95.320312 48.667969 95.050781 47.457031 94.160156 " fill-opacity="1" fill-rule="evenodd"/><path fill="#6a8899" d="M 65.414062 114.230469 L 65.414062 114.644531 C 65.414062 116.214844 64.148438 117.488281 62.589844 117.488281 L 40.324219 117.488281 C 38.765625 117.488281 37.503906 116.214844 37.503906 114.644531 L 37.503906 114.230469 L 65.414062 114.230469 " fill-opacity="1" fill-rule="evenodd"/><path fill="#6a8899" d="M 63.496094 101.910156 L 63.496094 114.230469 L 39.417969 114.230469 L 39.417969 101.910156 C 39.417969 101.097656 40.074219 100.4375 40.882812 100.4375 L 62.035156 100.4375 C 62.839844 100.4375 63.496094 101.097656 63.496094 101.910156 " fill-opacity="1" fill-rule="evenodd"/><path fill="#f7e07f" d="M 37.503906 114.644531 C 37.503906 116.214844 38.765625 117.488281 40.324219 117.488281 L 32.894531 117.488281 C 32.890625 115.976562 32.902344 108.640625 34.289062 104.140625 C 34.628906 103.03125 35.023438 102.191406 35.53125 101.421875 C 35.8125 100.992188 37.058594 99.171875 39.484375 97.929688 C 41.742188 96.773438 43.832031 96.722656 44.835938 96.765625 L 46.921875 98.738281 L 48.71875 100.4375 L 40.882812 100.4375 C 40.074219 100.4375 39.417969 101.097656 39.417969 101.910156 L 39.417969 114.230469 L 37.503906 114.230469 L 37.503906 114.644531 " fill-opacity="1" fill-rule="evenodd"/><path fill="#f7e07f" d="M 68.625 104.140625 C 70.011719 108.640625 70.027344 115.976562 70.019531 117.488281 L 62.589844 117.488281 C 64.148438 117.488281 65.414062 116.214844 65.414062 114.644531 L 65.414062 114.230469 L 63.496094 114.230469 L 63.496094 101.910156 C 63.496094 101.097656 62.839844 100.4375 62.035156 100.4375 L 53.992188 100.4375 L 55.972656 98.660156 L 58.078125 96.765625 C 59.082031 96.722656 61.175781 96.773438 63.429688 97.929688 C 65.859375 99.171875 67.101562 100.992188 67.386719 101.421875 C 67.890625 102.191406 68.285156 103.03125 68.625 104.140625 " fill-opacity="1" fill-rule="evenodd"/><g clip-path="url(#d7a7a75996)"><path fill="#333333" d="M 58.894531 84.332031 C 58.648438 84.332031 58.414062 84.230469 58.246094 84.050781 C 58.109375 83.910156 58.027344 83.742188 57.890625 83.46875 C 57.65625 83 57.21875 82.121094 56.3125 80.964844 C 55.9375 80.484375 55.789062 80.324219 55.6875 80.222656 C 55.617188 80.152344 55.449219 79.996094 55.210938 79.8125 C 54.992188 80.050781 54.746094 80.257812 54.476562 80.425781 C 53.550781 81.007812 52.617188 80.984375 51.9375 80.96875 L 51.886719 80.96875 C 51.867188 80.96875 49.738281 80.917969 47.464844 81.078125 L 47.355469 81.082031 C 46.621094 81.132812 45.859375 81.1875 45.289062 81.492188 C 44.746094 81.785156 44.425781 82.398438 44.222656 83.546875 C 44.160156 83.882812 43.925781 84.164062 43.609375 84.277344 C 43.21875 84.414062 42.804688 84.285156 42.550781 83.945312 C 42.109375 83.355469 42.027344 82.578125 41.964844 82.007812 L 41.960938 81.988281 C 41.875 81.1875 41.703125 79.238281 42.019531 78.484375 C 42.1875 78.078125 42.699219 77.015625 43.769531 75.972656 C 45.867188 73.933594 49.320312 73.128906 49.992188 72.988281 C 51.300781 72.714844 52.554688 72.617188 53.714844 72.699219 C 54.535156 72.753906 55.226562 72.859375 55.832031 73.011719 C 56.644531 73.21875 57.28125 73.621094 57.675781 74.175781 C 57.878906 74.464844 58.003906 74.757812 58.113281 75.015625 C 58.214844 75.253906 58.304688 75.460938 58.421875 75.589844 C 58.589844 75.765625 58.8125 75.929688 59.054688 76.101562 C 59.320312 76.292969 59.621094 76.511719 59.894531 76.789062 C 60.558594 77.472656 61.308594 78.613281 61.425781 79.777344 C 61.535156 80.863281 61.066406 81.804688 60.644531 82.5 C 60.597656 82.582031 60.367188 82.941406 60.136719 83.28125 C 59.667969 83.972656 59.441406 84.277344 58.988281 84.328125 C 58.953125 84.328125 58.925781 84.332031 58.894531 84.332031 Z M 59.585938 82.914062 Z M 55.019531 77.785156 C 55.414062 77.785156 55.738281 78.015625 55.945312 78.160156 L 55.964844 78.175781 C 56.429688 78.5 56.757812 78.804688 56.914062 78.957031 C 57.082031 79.125 57.277344 79.34375 57.691406 79.867188 C 58.289062 80.632812 58.707031 81.289062 59 81.808594 C 59.066406 81.710938 59.117188 81.628906 59.144531 81.582031 C 59.558594 80.898438 59.722656 80.394531 59.675781 79.953125 C 59.621094 79.386719 59.195312 78.597656 58.640625 78.027344 C 58.476562 77.859375 58.261719 77.707031 58.035156 77.542969 C 57.75 77.335938 57.425781 77.105469 57.140625 76.796875 C 56.808594 76.441406 56.636719 76.035156 56.5 75.710938 C 56.414062 75.507812 56.339844 75.335938 56.246094 75.207031 C 56.101562 75 55.800781 74.828125 55.402344 74.726562 C 54.898438 74.597656 54.304688 74.511719 53.59375 74.460938 C 52.59375 74.390625 51.5 74.480469 50.347656 74.71875 C 48.722656 75.058594 46.34375 75.925781 44.988281 77.246094 C 44.148438 78.0625 43.753906 78.890625 43.644531 79.152344 C 43.609375 79.292969 43.570312 79.785156 43.609375 80.601562 C 43.84375 80.34375 44.125 80.113281 44.464844 79.929688 C 45.367188 79.445312 46.359375 79.378906 47.238281 79.316406 L 47.34375 79.3125 C 49.699219 79.144531 51.839844 79.195312 51.929688 79.199219 L 51.976562 79.199219 C 52.5625 79.210938 53.070312 79.226562 53.546875 78.925781 C 53.796875 78.769531 54.007812 78.542969 54.183594 78.257812 C 54.320312 78.027344 54.542969 77.867188 54.804688 77.808594 C 54.878906 77.792969 54.953125 77.785156 55.019531 77.785156 Z M 55.6875 79.167969 Z M 43.648438 79.144531 Z M 43.648438 79.144531 " fill-opacity="1" fill-rule="evenodd"/></g><path fill="#333333" d="M 51.542969 96.421875 C 51.046875 96.421875 50.484375 96.375 49.878906 96.238281 C 49.339844 96.121094 47.9375 95.71875 46.5625 94.582031 C 45.902344 94.039062 44.691406 92.835938 44.003906 90.910156 C 43.828125 90.421875 43.710938 89.898438 43.640625 89.515625 C 43.175781 89.296875 42.75 88.972656 42.390625 88.566406 C 41.902344 88.019531 41.566406 87.355469 41.410156 86.648438 C 41.09375 85.210938 41.578125 83.796875 42.738281 82.777344 C 43.101562 82.457031 43.65625 82.496094 43.976562 82.863281 C 44.296875 83.230469 44.257812 83.789062 43.894531 84.109375 C 43.03125 84.867188 43 85.703125 43.125 86.269531 C 43.304688 87.089844 43.9375 87.8125 44.667969 88.027344 C 45 88.125 45.246094 88.410156 45.292969 88.757812 C 45.347656 89.15625 45.472656 89.804688 45.65625 90.3125 C 46.21875 91.894531 47.253906 92.871094 47.671875 93.214844 C 48.757812 94.109375 49.84375 94.421875 50.257812 94.511719 C 51.441406 94.777344 52.417969 94.601562 52.785156 94.515625 C 53.777344 94.28125 54.453125 93.8125 54.738281 93.613281 C 54.945312 93.46875 55.488281 93.0625 56.042969 92.40625 C 56.84375 91.449219 57.433594 90.148438 57.753906 88.640625 C 57.828125 88.285156 58.109375 88.015625 58.464844 87.953125 C 59.035156 87.859375 59.757812 86.867188 59.835938 85.738281 C 59.890625 84.960938 59.632812 84.46875 59.066406 84.285156 C 58.601562 84.136719 58.347656 83.636719 58.5 83.175781 C 58.644531 82.710938 59.140625 82.453125 59.601562 82.601562 C 60.324219 82.835938 60.886719 83.304688 61.230469 83.953125 C 61.515625 84.496094 61.640625 85.15625 61.589844 85.867188 C 61.484375 87.320312 60.640625 88.941406 59.351562 89.515625 C 58.953125 91.113281 58.289062 92.464844 57.382812 93.546875 C 56.71875 94.339844 56.066406 94.84375 55.734375 95.070312 C 55.398438 95.304688 54.503906 95.925781 53.1875 96.238281 C 52.832031 96.320312 52.257812 96.421875 51.542969 96.421875 " fill-opacity="1" fill-rule="evenodd"/><path fill="#333333" d="M 46.925781 99.265625 C 46.792969 99.265625 46.660156 99.238281 46.535156 99.175781 C 46.101562 98.957031 45.921875 98.429688 46.136719 97.988281 C 46.367188 97.527344 46.753906 96.597656 46.78125 95.578125 C 46.789062 95.1875 46.738281 95.007812 46.65625 94.707031 C 46.632812 94.625 46.605469 94.527344 46.578125 94.421875 C 46.457031 93.949219 46.742188 93.46875 47.210938 93.347656 C 47.679688 93.226562 48.15625 93.511719 48.277344 93.984375 C 48.300781 94.066406 48.320312 94.144531 48.34375 94.226562 C 48.445312 94.589844 48.550781 94.964844 48.535156 95.625 C 48.5 96.984375 48.003906 98.183594 47.710938 98.777344 C 47.558594 99.085938 47.246094 99.265625 46.925781 99.265625 " fill-opacity="1" fill-rule="evenodd"/><path fill="#333333" d="M 55.972656 99.542969 C 55.664062 99.542969 55.367188 99.378906 55.207031 99.089844 C 54.761719 98.292969 54.226562 97.046875 54.1875 95.625 C 54.171875 94.964844 54.277344 94.589844 54.378906 94.226562 C 54.390625 94.191406 54.398438 94.15625 54.410156 94.125 C 54.539062 93.652344 55.023438 93.378906 55.488281 93.507812 C 55.957031 93.636719 56.230469 94.125 56.101562 94.597656 C 56.089844 94.632812 56.078125 94.671875 56.070312 94.707031 C 55.984375 95.007812 55.933594 95.1875 55.945312 95.578125 C 55.972656 96.640625 56.390625 97.605469 56.738281 98.226562 C 56.976562 98.652344 56.824219 99.191406 56.402344 99.429688 C 56.265625 99.507812 56.117188 99.542969 55.972656 99.542969 " fill-opacity="1" fill-rule="evenodd"/><g clip-path="url(#0df069c400)"><path fill="#333333" d="M 70.019531 118.371094 L 32.894531 118.371094 C 32.410156 118.371094 32.015625 117.980469 32.015625 117.492188 C 32.007812 114.828125 32.128906 108.164062 33.453125 103.878906 C 33.804688 102.734375 34.230469 101.796875 34.796875 100.933594 C 35.273438 100.210938 36.640625 98.394531 39.085938 97.140625 C 41.328125 95.996094 43.46875 95.824219 44.871094 95.882812 C 45.082031 95.890625 45.28125 95.976562 45.4375 96.121094 L 49.320312 99.792969 C 49.675781 100.128906 49.691406 100.6875 49.359375 101.042969 C 49.027344 101.398438 48.472656 101.417969 48.117188 101.082031 L 44.480469 97.640625 C 43.292969 97.628906 41.621094 97.828125 39.882812 98.71875 C 37.808594 99.78125 36.660156 101.304688 36.261719 101.910156 C 35.785156 102.640625 35.433594 103.40625 35.128906 104.402344 C 33.992188 108.085938 33.800781 113.914062 33.773438 116.605469 L 69.140625 116.605469 C 69.117188 113.914062 68.921875 108.085938 67.789062 104.402344 C 67.480469 103.40625 67.132812 102.636719 66.652344 101.910156 C 66.253906 101.304688 65.105469 99.78125 63.03125 98.71875 C 61.289062 97.824219 59.613281 97.628906 58.425781 97.640625 L 54.574219 101.097656 C 54.214844 101.421875 53.660156 101.390625 53.335938 101.027344 C 53.011719 100.664062 53.046875 100.101562 53.40625 99.777344 L 57.496094 96.105469 C 57.648438 95.96875 57.839844 95.890625 58.042969 95.882812 C 59.445312 95.824219 61.589844 95.996094 63.828125 97.140625 C 66.277344 98.394531 67.644531 100.210938 68.117188 100.933594 C 68.683594 101.796875 69.113281 102.730469 69.464844 103.875 C 70.785156 108.164062 70.90625 114.824219 70.898438 117.492188 C 70.898438 117.980469 70.503906 118.371094 70.019531 118.371094 " fill-opacity="1" fill-rule="evenodd"/></g><g clip-path="url(#6456919da7)"><path fill="#333333" d="M 78.671875 118.375 L 24.242188 118.375 C 23.757812 118.375 23.363281 117.976562 23.363281 117.488281 C 23.363281 117 23.757812 116.605469 24.242188 116.605469 L 78.671875 116.605469 C 79.15625 116.605469 79.550781 117 79.550781 117.488281 C 79.550781 117.976562 79.15625 118.375 78.671875 118.375 " fill-opacity="1" fill-rule="evenodd"/></g><g clip-path="url(#db4f9183a7)"><path fill="#333333" d="M 62.589844 118.375 L 40.324219 118.375 C 38.285156 118.375 36.625 116.703125 36.625 114.648438 L 36.625 114.230469 C 36.625 113.742188 37.019531 113.347656 37.503906 113.347656 L 65.414062 113.347656 C 65.898438 113.347656 66.292969 113.742188 66.292969 114.230469 L 66.292969 114.648438 C 66.292969 116.703125 64.632812 118.375 62.589844 118.375 Z M 38.4375 115.113281 C 38.644531 115.96875 39.410156 116.605469 40.324219 116.605469 L 62.589844 116.605469 C 63.503906 116.605469 64.269531 115.96875 64.480469 115.113281 L 38.4375 115.113281 " fill-opacity="1" fill-rule="evenodd"/></g><path fill="#333333" d="M 63.496094 115.113281 L 39.417969 115.113281 C 38.933594 115.113281 38.539062 114.71875 38.539062 114.230469 L 38.539062 101.910156 C 38.539062 100.613281 39.589844 99.554688 40.882812 99.554688 L 62.035156 99.554688 C 63.324219 99.554688 64.375 100.613281 64.375 101.910156 L 64.375 114.230469 C 64.375 114.71875 63.980469 115.113281 63.496094 115.113281 Z M 40.296875 113.34375 L 62.617188 113.34375 L 62.617188 101.910156 C 62.617188 101.585938 62.355469 101.324219 62.035156 101.324219 L 40.882812 101.324219 C 40.558594 101.324219 40.296875 101.585938 40.296875 101.910156 L 40.296875 113.34375 " fill-opacity="1" fill-rule="evenodd"/><path fill="#333333" d="M 47.992188 110.710938 C 47.804688 110.710938 47.617188 110.648438 47.460938 110.527344 L 44.222656 108.035156 C 44.003906 107.871094 43.875 107.609375 43.875 107.335938 C 43.875 107.058594 44.003906 106.800781 44.222656 106.632812 L 47.460938 104.140625 C 47.84375 103.84375 48.394531 103.917969 48.691406 104.308594 C 48.984375 104.695312 48.910156 105.25 48.523438 105.546875 L 46.199219 107.335938 L 48.523438 109.121094 C 48.910156 109.417969 48.984375 109.972656 48.691406 110.363281 C 48.515625 110.589844 48.253906 110.710938 47.992188 110.710938 " fill-opacity="1" fill-rule="evenodd"/><path fill="#333333" d="M 54.921875 110.710938 C 54.660156 110.710938 54.398438 110.589844 54.226562 110.363281 C 53.929688 109.972656 54.003906 109.417969 54.390625 109.121094 L 56.714844 107.335938 L 54.390625 105.546875 C 54.003906 105.25 53.929688 104.695312 54.226562 104.308594 C 54.519531 103.917969 55.070312 103.84375 55.457031 104.140625 L 58.695312 106.632812 C 58.910156 106.800781 59.039062 107.058594 59.039062 107.335938 C 59.039062 107.609375 58.910156 107.871094 58.695312 108.035156 L 55.457031 110.527344 C 55.296875 110.648438 55.109375 110.710938 54.921875 110.710938 " fill-opacity="1" fill-rule="evenodd"/><path fill="#333333" d="M 50.398438 112.03125 C 50.320312 112.03125 50.242188 112.023438 50.164062 112 C 49.695312 111.867188 49.421875 111.378906 49.554688 110.910156 L 51.671875 103.28125 C 51.800781 102.8125 52.285156 102.539062 52.753906 102.667969 C 53.21875 102.800781 53.492188 103.289062 53.359375 103.757812 L 51.246094 111.386719 C 51.136719 111.777344 50.785156 112.03125 50.398438 112.03125 " fill-opacity="1" fill-rule="evenodd"/><g fill="#000000" fill-opacity="1"><g transform="translate(81.694284, 92.821522)"><g><path d="M 9.285156 -7.066406 L 9.328125 -7.125 C 9.390625 -9.074219 8.011719 -10.5 4.066406 -10.5 L 1.53125 -10.5 C 1.289062 -10.5 1.199219 -10.351562 1.199219 -10.109375 L 1.199219 -0.390625 C 1.199219 -0.148438 1.289062 0 1.53125 0 L 4.828125 0 C 8.535156 0 9.886719 -0.914062 9.886719 -2.804688 C 9.886719 -4.410156 8.039062 -5.21875 5.941406 -5.21875 Z M 4.066406 -10.289062 C 6.238281 -10.289062 6.945312 -9.40625 6.945312 -7.90625 C 6.945312 -7.199219 6.496094 -5.234375 4.53125 -5.234375 L 3.914062 -5.234375 L 3.914062 -10.289062 Z M 4.53125 -5.023438 C 6.195312 -5.023438 7.066406 -4.09375 7.066406 -2.59375 C 7.066406 -1.410156 6.195312 -0.210938 4.53125 -0.210938 L 3.914062 -0.210938 L 3.914062 -5.023438 Z M 4.53125 -5.023438 "/></g></g></g><g fill="#000000" fill-opacity="1"><g transform="translate(92.104275, 92.821522)"><g><path d="M 1.636719 -8.28125 C 1.394531 -8.28125 1.304688 -8.128906 1.304688 -7.890625 L 1.304688 -0.390625 C 1.304688 -0.148438 1.394531 0 1.636719 0 L 3.539062 0 C 3.78125 0 3.871094 -0.148438 3.871094 -0.390625 L 3.871094 -7.890625 C 3.871094 -8.128906 3.78125 -8.28125 3.539062 -8.28125 Z M 1.199219 -10.46875 C 1.199219 -9.703125 1.816406 -9.089844 2.578125 -9.089844 C 3.34375 -9.089844 3.960938 -9.703125 3.960938 -10.46875 C 3.960938 -11.234375 3.34375 -11.851562 2.578125 -11.851562 C 1.816406 -11.851562 1.199219 -11.234375 1.199219 -10.46875 Z M 1.199219 -10.46875 "/></g></g></g><g fill="#000000" fill-opacity="1"><g transform="translate(97.264272, 92.821522)"><g><path d="M 8.023438 -2.355469 C 8.023438 -2.59375 7.933594 -2.746094 7.695312 -2.746094 L 7.605469 -2.746094 C 7.394531 -2.746094 7.140625 -2.550781 6.929688 -2.386719 L 4.351562 -0.210938 L 3.765625 -0.210938 L 3.765625 -7.890625 C 3.765625 -8.128906 3.675781 -8.28125 3.433594 -8.28125 L 1.53125 -8.28125 C 1.289062 -8.28125 1.199219 -8.128906 1.199219 -7.890625 L 1.199219 -0.390625 C 1.199219 -0.148438 1.289062 0 1.53125 0 L 7.695312 0 C 7.933594 0 8.023438 -0.148438 8.023438 -0.390625 Z M 8.023438 -2.355469 "/></g></g></g><g fill="#000000" fill-opacity="1"><g transform="translate(105.514265, 92.821522)"><g><path d="M 8.671875 -3.824219 C 8.683594 -4.066406 8.59375 -4.171875 8.324219 -4.171875 L 6.703125 -4.171875 C 6.449219 -4.171875 6.375 -4.078125 6.359375 -3.824219 L 6.164062 -0.03125 L 5.355469 -0.03125 C 4.214844 -0.03125 3.148438 -1.828125 3.148438 -4.171875 C 3.148438 -6.511719 4.246094 -8.128906 5.386719 -8.128906 L 7.816406 -5.910156 C 7.921875 -5.804688 8.023438 -5.761719 8.144531 -5.761719 C 8.203125 -5.761719 8.25 -5.773438 8.308594 -5.789062 L 8.488281 -5.863281 C 8.640625 -5.925781 8.699219 -6.015625 8.699219 -6.226562 L 8.699219 -7.710938 C 8.699219 -7.949219 8.640625 -8.070312 8.371094 -8.101562 L 6.195312 -8.308594 L 5.175781 -8.308594 C 2.804688 -8.308594 0.601562 -7.816406 0.601562 -4.171875 C 0.601562 -0.523438 2.773438 0.148438 5.144531 0.148438 L 8.324219 0.03125 C 8.578125 0.015625 8.65625 -0.0585938 8.671875 -0.316406 Z M 8.671875 -3.824219 "/></g></g></g><g fill="#000000" fill-opacity="1"><g transform="translate(115.339257, 92.821522)"><g><path d="M 1.636719 -8.28125 C 1.394531 -8.28125 1.304688 -8.128906 1.304688 -7.890625 L 1.304688 -0.390625 C 1.304688 -0.148438 1.394531 0 1.636719 0 L 3.539062 0 C 3.78125 0 3.871094 -0.148438 3.871094 -0.390625 L 3.871094 -7.890625 C 3.871094 -8.128906 3.78125 -8.28125 3.539062 -8.28125 Z M 1.199219 -10.46875 C 1.199219 -9.703125 1.816406 -9.089844 2.578125 -9.089844 C 3.34375 -9.089844 3.960938 -9.703125 3.960938 -10.46875 C 3.960938 -11.234375 3.34375 -11.851562 2.578125 -11.851562 C 1.816406 -11.851562 1.199219 -11.234375 1.199219 -10.46875 Z M 1.199219 -10.46875 "/></g></g></g><g fill="#000000" fill-opacity="1"><g transform="translate(120.499255, 92.821522)"><g><path d="M 5.203125 -5.234375 C 3.988281 -5.578125 3.496094 -6.226562 3.496094 -6.988281 C 3.496094 -7.816406 4.199219 -8.21875 4.980469 -8.21875 L 5.324219 -8.21875 L 7.050781 -6.015625 C 7.230469 -5.773438 7.363281 -5.625 7.53125 -5.625 L 7.636719 -5.625 C 7.800781 -5.625 7.84375 -5.730469 7.84375 -5.894531 L 7.828125 -7.84375 C 7.828125 -8.085938 7.753906 -8.203125 7.5 -8.234375 L 5.761719 -8.429688 L 4.90625 -8.429688 C 2.324219 -8.429688 0.976562 -7.441406 0.976562 -6.285156 C 0.976562 -4.921875 1.53125 -4.171875 4.261719 -3.34375 C 5.59375 -2.941406 5.789062 -2.503906 5.789062 -1.664062 C 5.789062 -0.839844 5.296875 -0.0585938 4.304688 -0.0585938 L 4.003906 -0.0585938 L 1.828125 -3 C 1.648438 -3.238281 1.515625 -3.390625 1.351562 -3.390625 L 1.246094 -3.390625 C 1.078125 -3.390625 1.035156 -3.285156 1.035156 -3.121094 L 1.050781 -0.390625 C 1.050781 -0.148438 1.140625 -0.015625 1.378906 0 L 3.570312 0.148438 L 4.378906 0.148438 C 6.796875 0.148438 8.28125 -0.601562 8.28125 -2.398438 C 8.28125 -3.976562 7.273438 -4.648438 5.203125 -5.234375 Z M 5.203125 -5.234375 "/></g></g></g><g fill="#000000" fill-opacity="1"><g transform="translate(129.529243, 92.821522)"><g><path d="M 5.355469 -7.890625 C 5.265625 -8.101562 5.070312 -8.28125 4.816406 -8.28125 L 4.050781 -8.28125 C 3.839844 -8.28125 3.628906 -8.101562 3.539062 -7.890625 L 0.179688 -0.390625 C 0.105469 -0.195312 0.179688 0 0.421875 0 L 2.578125 0 C 2.894531 0 3.015625 -0.164062 2.910156 -0.390625 L 1.800781 -2.863281 L 4.785156 -2.863281 L 5.894531 -0.390625 C 6 -0.164062 6.164062 0 6.433594 0 L 8.476562 0 C 8.714844 0 8.789062 -0.195312 8.714844 -0.390625 Z M 4.695312 -3.074219 L 1.636719 -3.074219 L 3.148438 -6.539062 Z M 4.695312 -3.074219 "/></g></g></g><g fill="#000000" fill-opacity="1"><g transform="translate(138.424231, 92.821522)"><g><path d="M 3.210938 -7.890625 C 3.074219 -8.113281 2.894531 -8.28125 2.578125 -8.28125 L 0.433594 -8.28125 C 0.195312 -8.28125 0.0898438 -8.085938 0.195312 -7.890625 L 2.773438 -3.253906 L 2.773438 -0.390625 C 2.773438 -0.148438 2.863281 0 3.105469 0 L 5.011719 0 C 5.25 0 5.339844 -0.148438 5.339844 -0.390625 L 5.339844 -3.238281 L 7.921875 -7.890625 C 7.996094 -8.085938 7.921875 -8.28125 7.679688 -8.28125 L 5.414062 -8.28125 C 5.101562 -8.28125 5.113281 -8.085938 5.25 -7.890625 L 6.433594 -5.578125 L 5.339844 -3.734375 Z M 3.210938 -7.890625 "/></g></g></g><g fill="#000000" fill-opacity="1"><g transform="translate(146.524221, 92.821522)"><g><path d="M 5.355469 -7.890625 C 5.265625 -8.101562 5.070312 -8.28125 4.816406 -8.28125 L 4.050781 -8.28125 C 3.839844 -8.28125 3.628906 -8.101562 3.539062 -7.890625 L 0.179688 -0.390625 C 0.105469 -0.195312 0.179688 0 0.421875 0 L 2.578125 0 C 2.894531 0 3.015625 -0.164062 2.910156 -0.390625 L 1.800781 -2.863281 L 4.785156 -2.863281 L 5.894531 -0.390625 C 6 -0.164062 6.164062 0 6.433594 0 L 8.476562 0 C 8.714844 0 8.789062 -0.195312 8.714844 -0.390625 Z M 4.695312 -3.074219 L 1.636719 -3.074219 L 3.148438 -6.539062 Z M 4.695312 -3.074219 "/></g></g></g><g fill="#000000" fill-opacity="1"><g transform="translate(155.419209, 92.821522)"><g><path d="M 9.121094 0 C 9.375 0 9.449219 -0.210938 9.316406 -0.390625 L 7.589844 -2.65625 C 7.484375 -2.789062 7.304688 -2.789062 7.140625 -2.789062 C 5.671875 -2.789062 5.039062 -3.253906 4.648438 -3.71875 L 5.011719 -3.71875 C 7.351562 -3.71875 8.566406 -4.183594 8.566406 -6.074219 C 8.566406 -7.816406 7.351562 -8.28125 5.011719 -8.28125 L 1.53125 -8.28125 C 1.289062 -8.28125 1.199219 -8.128906 1.199219 -7.890625 L 1.199219 -0.390625 C 1.199219 -0.148438 1.289062 0 1.53125 0 L 3.433594 0 C 3.675781 0 3.765625 -0.148438 3.765625 -0.390625 L 3.765625 -3.71875 L 4.363281 -3.71875 L 6.660156 -0.390625 C 6.839844 -0.148438 7.078125 0 7.320312 0 Z M 4.515625 -8.070312 C 5.414062 -8.070312 5.984375 -7.949219 5.984375 -6.074219 C 5.984375 -4.199219 5.414062 -3.929688 4.515625 -3.929688 L 3.765625 -3.929688 L 3.765625 -8.070312 Z M 4.515625 -8.070312 "/></g></g></g><g fill="#c40f0f" fill-opacity="1"><g transform="translate(87.081197, 108.214195)"><g><path d="M 0.441406 -0.847656 C 0.441406 -0.273438 0.890625 0.175781 1.460938 0.175781 C 2.035156 0.175781 2.507812 -0.273438 2.507812 -0.847656 C 2.507812 -1.417969 2.035156 -1.890625 1.460938 -1.890625 C 0.890625 -1.890625 0.441406 -1.417969 0.441406 -0.847656 Z M 0.441406 -0.847656 "/></g></g></g><g fill="#c40f0f" fill-opacity="1"><g transform="translate(91.765116, 108.214195)"><g><path d="M 7.070312 -7.410156 C 7.070312 -7.585938 7.003906 -7.695312 6.828125 -7.695312 L 0.460938 -7.695312 C 0.285156 -7.695312 0.21875 -7.585938 0.21875 -7.410156 L 0.21875 -5.34375 C 0.21875 -5.222656 0.253906 -5.144531 0.375 -5.144531 L 0.441406 -5.144531 C 0.539062 -5.144531 0.648438 -5.289062 0.746094 -5.429688 L 2.351562 -7.542969 L 2.703125 -7.542969 L 2.703125 -0.285156 C 2.703125 -0.109375 2.769531 0 2.945312 0 L 4.34375 0 C 4.519531 0 4.585938 -0.109375 4.585938 -0.285156 L 4.585938 -7.542969 L 4.9375 -7.542969 L 6.542969 -5.429688 C 6.652344 -5.289062 6.75 -5.144531 6.851562 -5.144531 L 6.914062 -5.144531 C 7.035156 -5.144531 7.070312 -5.222656 7.070312 -5.34375 Z M 7.070312 -7.410156 "/></g></g></g><g fill="#c40f0f" fill-opacity="1"><g transform="translate(100.790969, 108.214195)"><g><path d="M 1.230469 -7.695312 C 1.054688 -7.695312 0.988281 -7.585938 0.988281 -7.410156 L 0.988281 -0.285156 C 0.988281 -0.109375 1.054688 0 1.230469 0 L 6.246094 0 C 6.398438 0 6.488281 -0.109375 6.554688 -0.285156 L 7.234375 -1.988281 C 7.257812 -2.046875 7.277344 -2.101562 7.222656 -2.144531 L 7.089844 -2.242188 C 7.070312 -2.265625 7.046875 -2.265625 7.027344 -2.265625 C 6.992188 -2.265625 6.960938 -2.242188 6.914062 -2.222656 L 3.96875 -0.152344 L 2.871094 -0.152344 L 2.871094 -3.792969 L 5.894531 -3.738281 L 5.894531 -4.003906 L 2.871094 -3.945312 L 2.871094 -7.542969 L 3.96875 -7.542969 L 5.859375 -5.949219 C 6.015625 -5.828125 6.203125 -5.683594 6.355469 -5.683594 L 6.421875 -5.683594 C 6.597656 -5.683594 6.664062 -5.792969 6.664062 -5.96875 L 6.664062 -7.410156 C 6.664062 -7.585938 6.597656 -7.695312 6.421875 -7.695312 Z M 1.230469 -7.695312 "/></g></g></g><g fill="#c40f0f" fill-opacity="1"><g transform="translate(110.003069, 108.214195)"><g/></g></g><g fill="#c40f0f" fill-opacity="1"><g transform="translate(115.038745, 108.214195)"><g/></g></g><g fill="#c40f0f" fill-opacity="1"><g transform="translate(120.069474, 108.214195)"><g><path d="M 0.441406 -3.859375 C 0.441406 -1.1875 1.890625 0.109375 4.5625 0.109375 L 7.125 0 C 7.324219 -0.0234375 7.367188 -0.109375 7.367188 -0.285156 L 7.367188 -1.714844 C 7.367188 -1.871094 7.324219 -1.933594 7.210938 -1.980469 L 7.082031 -2.035156 C 7.035156 -2.046875 7.003906 -2.054688 6.960938 -2.054688 C 6.871094 -2.054688 6.792969 -2.023438 6.71875 -1.945312 L 4.71875 -0.0429688 C 3.507812 -0.0429688 2.527344 -2.144531 2.527344 -3.859375 C 2.527344 -5.574219 3.507812 -7.675781 4.71875 -7.675781 L 6.71875 -5.773438 C 6.792969 -5.695312 6.871094 -5.664062 6.960938 -5.664062 C 7.003906 -5.664062 7.035156 -5.671875 7.082031 -5.683594 L 7.210938 -5.738281 C 7.324219 -5.785156 7.367188 -5.847656 7.367188 -6.003906 L 7.367188 -7.433594 C 7.367188 -7.609375 7.324219 -7.695312 7.125 -7.71875 L 4.5625 -7.828125 C 1.890625 -7.828125 0.441406 -6.53125 0.441406 -3.859375 Z M 0.441406 -3.859375 "/></g></g></g><g fill="#c40f0f" fill-opacity="1"><g transform="translate(129.886766, 108.214195)"><g><path d="M 7.507812 -7.410156 C 7.507812 -7.585938 7.445312 -7.695312 7.269531 -7.695312 L 5.871094 -7.695312 C 5.695312 -7.695312 5.628906 -7.585938 5.628906 -7.410156 L 5.628906 -4.078125 L 2.871094 -4.078125 L 2.871094 -7.410156 C 2.871094 -7.585938 2.804688 -7.695312 2.628906 -7.695312 L 1.230469 -7.695312 C 1.054688 -7.695312 0.988281 -7.585938 0.988281 -7.410156 L 0.988281 -0.285156 C 0.988281 -0.109375 1.054688 0 1.230469 0 L 2.628906 0 C 2.804688 0 2.871094 -0.109375 2.871094 -0.285156 L 2.871094 -3.847656 L 5.628906 -3.847656 L 5.628906 -0.285156 C 5.628906 -0.109375 5.695312 0 5.871094 0 L 7.269531 0 C 7.445312 0 7.507812 -0.109375 7.507812 -0.285156 Z M 7.507812 -7.410156 "/></g></g></g><g fill="#000000" fill-opacity="1"><g transform="translate(140.120253, 108.214195)"><g><path d="M 1.230469 -7.695312 C 1.054688 -7.695312 0.988281 -7.585938 0.988281 -7.410156 L 0.988281 -0.285156 C 0.988281 -0.109375 1.054688 0 1.230469 0 L 6.246094 0 C 6.398438 0 6.488281 -0.109375 6.554688 -0.285156 L 7.234375 -1.988281 C 7.257812 -2.046875 7.277344 -2.101562 7.222656 -2.144531 L 7.089844 -2.242188 C 7.070312 -2.265625 7.046875 -2.265625 7.027344 -2.265625 C 6.992188 -2.265625 6.960938 -2.242188 6.914062 -2.222656 L 3.96875 -0.152344 L 2.871094 -0.152344 L 2.871094 -3.792969 L 5.894531 -3.738281 L 5.894531 -4.003906 L 2.871094 -3.945312 L 2.871094 -7.542969 L 3.96875 -7.542969 L 5.859375 -5.949219 C 6.015625 -5.828125 6.203125 -5.683594 6.355469 -5.683594 L 6.421875 -5.683594 C 6.597656 -5.683594 6.664062 -5.792969 6.664062 -5.96875 L 6.664062 -7.410156 C 6.664062 -7.585938 6.597656 -7.695312 6.421875 -7.695312 Z M 1.230469 -7.695312 "/></g></g></g><g fill="#000000" fill-opacity="1"><g transform="translate(149.343962, 108.214195)"><g><path d="M 7.871094 0 C 8.058594 0 8.113281 -0.152344 8.015625 -0.285156 L 6.203125 -2.640625 C 6.125 -2.738281 5.992188 -2.738281 5.871094 -2.738281 C 4.265625 -2.738281 3.882812 -3.054688 3.507812 -3.519531 L 3.957031 -3.519531 C 6.210938 -3.519531 7.058594 -4.300781 7.058594 -5.683594 C 7.058594 -7.179688 6.257812 -7.695312 3.957031 -7.695312 L 1.230469 -7.695312 C 1.054688 -7.695312 0.988281 -7.585938 0.988281 -7.410156 L 0.988281 -0.285156 C 0.988281 -0.109375 1.054688 0 1.230469 0 L 2.628906 0 C 2.804688 0 2.871094 -0.109375 2.871094 -0.285156 L 2.871094 -3.519531 L 3.296875 -3.519531 L 5.75 -0.285156 C 5.894531 -0.109375 6.058594 0 6.234375 0 Z M 3.59375 -7.542969 C 4.605469 -7.542969 5.046875 -7.058594 5.046875 -5.683594 C 5.046875 -4.308594 4.605469 -3.671875 3.59375 -3.671875 L 2.871094 -3.671875 L 2.871094 -7.542969 Z M 3.59375 -7.542969 "/></g></g></g><g fill="#000000" fill-opacity="1"><g transform="translate(118.306312, 108.361322)"><g><path d="M 0.0117188 -4.039062 C 0.0117188 -4.089844 -0.0195312 -4.140625 -0.078125 -4.179688 C -0.140625 -4.21875 -0.21875 -4.257812 -0.320312 -4.300781 C -0.410156 -4.339844 -0.46875 -4.378906 -0.511719 -4.398438 C -0.550781 -4.417969 -0.667969 -4.480469 -0.871094 -4.570312 C -1.058594 -4.648438 -1.25 -4.738281 -1.441406 -4.820312 C -1.628906 -4.898438 -1.730469 -4.9375 -1.738281 -4.949219 C -1.738281 -4.949219 -2.667969 -5.5 -4.527344 -6.578125 C -6.046875 -7.46875 -6.847656 -7.929688 -6.917969 -7.949219 C -6.9375 -7.949219 -6.957031 -7.929688 -6.976562 -7.886719 C -7 -7.839844 -7.007812 -7.789062 -7.007812 -7.726562 C -7.007812 -7.667969 -7 -7.628906 -7 -7.597656 C -6.976562 -7.539062 -6.96875 -7.027344 -6.957031 -6.046875 L -6.949219 -4.789062 L -6.957031 -4.75 L -6.957031 -4.738281 C -6.976562 -4.609375 -6.957031 -4.507812 -6.898438 -4.429688 C -6.886719 -4.429688 -6.886719 -4.417969 -6.886719 -4.417969 C -6.828125 -4.359375 -6.769531 -4.339844 -6.6875 -4.339844 C -6.449219 -4.339844 -5.96875 -4.328125 -5.230469 -4.308594 L -5.160156 -4.320312 C -5.109375 -4.320312 -5.058594 -4.300781 -5.007812 -4.277344 C -4.957031 -4.257812 -4.9375 -4.21875 -4.9375 -4.167969 L -4.917969 -3.71875 L -4.917969 -3.679688 C -4.910156 -3.640625 -4.917969 -3.609375 -4.957031 -3.578125 C -5 -3.539062 -5.046875 -3.527344 -5.128906 -3.527344 C -5.296875 -3.519531 -5.6875 -3.507812 -6.308594 -3.507812 L -6.839844 -3.519531 L -6.878906 -3.519531 C -6.898438 -3.507812 -6.929688 -3.480469 -6.949219 -3.4375 C -6.96875 -3.390625 -6.976562 -3.320312 -6.976562 -3.230469 C -6.957031 -3.027344 -6.957031 -2.320312 -6.96875 -1.101562 L -6.929688 -0.128906 L -6.9375 -0.078125 C -6.9375 -0.0390625 -6.917969 0 -6.886719 0.0195312 C -6.847656 0.0507812 -6.796875 0.0507812 -6.738281 0.0195312 C -6.597656 -0.03125 -6.328125 -0.160156 -5.929688 -0.378906 C -5.519531 -0.601562 -5.289062 -0.738281 -5.230469 -0.808594 C -5.148438 -0.890625 -4.527344 -1.269531 -3.371094 -1.941406 C -2.988281 -2.167969 -2.75 -2.320312 -2.628906 -2.398438 L -2.628906 -2.410156 C -2.628906 -2.429688 -2.621094 -2.4375 -2.597656 -2.449219 L -2.578125 -2.429688 C -2.339844 -2.570312 -2 -2.78125 -1.578125 -3.050781 C -1.160156 -3.308594 -0.910156 -3.46875 -0.851562 -3.507812 C -0.851562 -3.527344 -0.839844 -3.539062 -0.839844 -3.558594 C -0.839844 -3.570312 -0.839844 -3.578125 -0.839844 -3.597656 C -0.808594 -3.570312 -0.800781 -3.550781 -0.808594 -3.539062 C -0.78125 -3.558594 -0.761719 -3.570312 -0.75 -3.570312 L -0.558594 -3.648438 C -0.429688 -3.699219 -0.300781 -3.769531 -0.179688 -3.847656 C -0.0507812 -3.929688 0.0117188 -3.988281 0.0117188 -4.039062 Z M -1.058594 -3.570312 C -1.058594 -3.558594 -1.058594 -3.550781 -1.078125 -3.539062 L -1.089844 -3.550781 C -1.089844 -3.550781 -1.101562 -3.558594 -1.109375 -3.558594 C -1.109375 -3.558594 -1.101562 -3.570312 -1.089844 -3.589844 L -1.078125 -3.578125 C -1.070312 -3.570312 -1.058594 -3.570312 -1.058594 -3.570312 Z M -1.179688 -3.480469 C -1.191406 -3.480469 -1.199219 -3.46875 -1.199219 -3.46875 C -1.199219 -3.449219 -1.199219 -3.429688 -1.210938 -3.417969 C -1.210938 -3.429688 -1.210938 -3.4375 -1.230469 -3.4375 L -1.199219 -3.5 Z M -1.109375 -3.679688 C -1.140625 -3.628906 -1.167969 -3.628906 -1.199219 -3.667969 C -1.179688 -3.667969 -1.160156 -3.667969 -1.148438 -3.667969 C -1.128906 -3.667969 -1.121094 -3.679688 -1.109375 -3.679688 Z M -1.28125 -3.5 C -1.289062 -3.488281 -1.308594 -3.480469 -1.328125 -3.46875 C -1.351562 -3.460938 -1.371094 -3.449219 -1.371094 -3.449219 C -1.371094 -3.449219 -1.378906 -3.4375 -1.390625 -3.429688 C -1.398438 -3.410156 -1.410156 -3.390625 -1.429688 -3.371094 C -1.449219 -3.390625 -1.441406 -3.507812 -1.398438 -3.710938 C -1.359375 -3.699219 -1.339844 -3.660156 -1.339844 -3.589844 C -1.351562 -3.527344 -1.328125 -3.5 -1.28125 -3.5 Z M -1.25 -3.679688 C -1.269531 -3.6875 -1.289062 -3.699219 -1.328125 -3.71875 C -1.371094 -3.730469 -1.398438 -3.75 -1.429688 -3.769531 C -1.308594 -3.800781 -1.25 -3.769531 -1.25 -3.679688 Z M -3.097656 -2.167969 L -3.148438 -2.121094 L -3.160156 -2.140625 L -3.160156 -2.199219 C -3.121094 -2.21875 -3.097656 -2.210938 -3.097656 -2.167969 Z M -2.929688 -2.410156 L -2.988281 -2.359375 C -2.988281 -2.410156 -2.96875 -2.4375 -2.929688 -2.4375 Z M -3.128906 -2.347656 L -3.238281 -2.378906 C -3.199219 -2.417969 -3.167969 -2.417969 -3.128906 -2.378906 Z M -2.089844 -3.710938 C -2.089844 -3.6875 -2.089844 -3.679688 -2.089844 -3.667969 C -2.089844 -3.648438 -2.089844 -3.640625 -2.097656 -3.628906 C -2.097656 -3.609375 -2.121094 -3.597656 -2.140625 -3.597656 C -2.140625 -3.660156 -2.128906 -3.699219 -2.089844 -3.710938 Z M -2.628906 -3.148438 C -2.648438 -3.148438 -2.660156 -3.140625 -2.679688 -3.140625 C -2.6875 -3.140625 -2.710938 -3.140625 -2.730469 -3.140625 L -2.859375 -3.089844 C -2.898438 -3.128906 -2.910156 -3.160156 -2.890625 -3.179688 L -2.730469 -3.140625 C -2.730469 -3.167969 -2.6875 -3.167969 -2.628906 -3.148438 Z M -2.089844 -3.980469 L -2.097656 -3.96875 C -2.121094 -3.980469 -2.140625 -3.988281 -2.140625 -4.007812 L -2.121094 -4.027344 C -2.121094 -4.019531 -2.109375 -4.007812 -2.097656 -4 C -2.089844 -3.988281 -2.089844 -3.980469 -2.089844 -3.980469 Z M -3.710938 -2.4375 L -3.71875 -2.4375 C -3.71875 -2.4375 -3.71875 -2.449219 -3.738281 -2.46875 C -3.738281 -2.480469 -3.730469 -2.488281 -3.71875 -2.5 L -3.710938 -2.5 Z M -4.109375 -2.078125 L -4.21875 -2.03125 C -4.207031 -2.070312 -4.167969 -2.089844 -4.109375 -2.078125 Z M -3.980469 -2.269531 L -4.050781 -2.300781 C -4.050781 -2.308594 -4.039062 -2.320312 -4.039062 -2.328125 L -3.980469 -2.289062 Z M -3.847656 -2.550781 C -3.847656 -2.53125 -3.847656 -2.53125 -3.859375 -2.53125 L -3.910156 -2.578125 L -3.890625 -2.578125 L -3.878906 -2.589844 Z M -3.300781 -3.140625 L -3.320312 -3.121094 C -3.320312 -3.109375 -3.320312 -3.097656 -3.328125 -3.089844 C -3.339844 -3.097656 -3.347656 -3.109375 -3.347656 -3.121094 C -3.347656 -3.140625 -3.339844 -3.148438 -3.320312 -3.148438 Z M -2.597656 -3.800781 C -2.609375 -3.71875 -2.648438 -3.699219 -2.730469 -3.730469 L -2.730469 -3.867188 C -2.71875 -3.867188 -2.679688 -3.839844 -2.597656 -3.800781 Z M -3.488281 -3.230469 C -3.488281 -3.179688 -3.507812 -3.160156 -3.550781 -3.179688 Z M -3.949219 -2.578125 C -3.96875 -2.550781 -4.007812 -2.507812 -4.070312 -2.449219 C -4.070312 -2.4375 -4.097656 -2.4375 -4.148438 -2.4375 C -4.148438 -2.4375 -4.179688 -2.460938 -4.21875 -2.519531 C -4.308594 -2.519531 -4.359375 -2.507812 -4.378906 -2.5 C -4.410156 -2.488281 -4.429688 -2.4375 -4.449219 -2.359375 C -4.46875 -2.378906 -4.488281 -2.398438 -4.488281 -2.4375 C -4.488281 -2.480469 -4.5 -2.5 -4.507812 -2.519531 L -4.390625 -2.609375 C -4.378906 -2.589844 -4.347656 -2.578125 -4.308594 -2.578125 L -4.148438 -2.71875 Z M -2.859375 -3.730469 C -2.910156 -3.679688 -2.96875 -3.6875 -3.027344 -3.75 C -3.078125 -3.699219 -3.140625 -3.667969 -3.210938 -3.648438 L -3.328125 -3.777344 L -3.328125 -3.769531 C -3.359375 -3.75 -3.378906 -3.75 -3.398438 -3.769531 C -3.410156 -3.777344 -3.410156 -3.800781 -3.410156 -3.839844 L -3.328125 -3.777344 C -3.167969 -3.839844 -3.058594 -3.828125 -2.988281 -3.769531 C -2.980469 -3.757812 -2.96875 -3.757812 -2.960938 -3.757812 C -2.9375 -3.757812 -2.917969 -3.75 -2.910156 -3.75 C -2.898438 -3.75 -2.890625 -3.738281 -2.878906 -3.738281 C -2.871094 -3.730469 -2.859375 -3.730469 -2.859375 -3.730469 Z M -4.449219 -2.609375 L -4.539062 -2.609375 C -4.539062 -2.609375 -4.550781 -2.621094 -4.550781 -2.648438 L -4.507812 -2.648438 Z M -4.738281 -2.390625 C -4.71875 -2.359375 -4.730469 -2.339844 -4.75 -2.320312 C -4.777344 -2.320312 -4.796875 -2.328125 -4.796875 -2.359375 C -4.796875 -2.429688 -4.796875 -2.46875 -4.808594 -2.488281 L -4.777344 -2.488281 Z M -5.109375 -2.160156 C -5.148438 -2.121094 -5.167969 -2.121094 -5.1875 -2.160156 C -5.1875 -2.160156 -5.199219 -2.160156 -5.199219 -2.167969 C -5.199219 -2.179688 -5.1875 -2.1875 -5.1875 -2.1875 C -5.167969 -2.199219 -5.140625 -2.1875 -5.109375 -2.160156 Z M -4.75 -2.667969 C -4.769531 -2.578125 -4.820312 -2.539062 -4.898438 -2.558594 Z M -5.480469 -2.1875 L -5.5 -2.1875 L -5.546875 -2.230469 L -5.519531 -2.269531 Z M -5.699219 -2.199219 C -5.738281 -2.199219 -5.757812 -2.199219 -5.777344 -2.21875 C -5.757812 -2.21875 -5.757812 -2.21875 -5.757812 -2.230469 L -5.699219 -2.230469 Z M -6.109375 -2.289062 C -6.109375 -2.28125 -6.117188 -2.269531 -6.117188 -2.257812 C -6.128906 -2.238281 -6.1875 -2.230469 -6.308594 -2.230469 L -6.359375 -2.160156 L -6.410156 -2.199219 L -6.308594 -2.300781 C -6.289062 -2.28125 -6.257812 -2.28125 -6.21875 -2.300781 C -6.179688 -2.308594 -6.148438 -2.308594 -6.109375 -2.289062 Z M -6.457031 -2.199219 L -6.488281 -2.167969 C -6.488281 -2.179688 -6.488281 -2.1875 -6.507812 -2.199219 C -6.507812 -2.210938 -6.5 -2.21875 -6.488281 -2.230469 Z M -6.179688 -2.640625 C -6.179688 -2.621094 -6.1875 -2.609375 -6.207031 -2.589844 L -6.207031 -2.648438 C -6.1875 -2.648438 -6.179688 -2.640625 -6.179688 -2.640625 Z M -6.046875 -2.589844 C -6.058594 -2.570312 -6.070312 -2.550781 -6.078125 -2.519531 C -6.089844 -2.480469 -6.097656 -2.460938 -6.117188 -2.4375 L -6.207031 -2.519531 L -6.117188 -2.648438 C -6.128906 -2.667969 -6.136719 -2.679688 -6.160156 -2.679688 C -6.167969 -2.6875 -6.1875 -2.699219 -6.207031 -2.71875 C -6.207031 -2.679688 -6.226562 -2.648438 -6.269531 -2.621094 C -6.269531 -2.628906 -6.277344 -2.648438 -6.277344 -2.679688 C -6.289062 -2.757812 -6.269531 -2.820312 -6.21875 -2.878906 L -6.199219 -2.808594 C -6.1875 -2.789062 -6.1875 -2.789062 -6.1875 -2.808594 L -6.058594 -2.808594 L -6.058594 -2.589844 Z M -6.539062 -2.269531 C -6.539062 -2.230469 -6.558594 -2.21875 -6.609375 -2.21875 C -6.609375 -2.269531 -6.597656 -2.300781 -6.578125 -2.300781 C -6.546875 -2.300781 -6.539062 -2.289062 -6.539062 -2.269531 Z M -6.117188 -2.878906 C -6.128906 -2.878906 -6.136719 -2.878906 -6.160156 -2.878906 C -6.179688 -2.878906 -6.199219 -2.890625 -6.21875 -2.890625 C -6.160156 -2.949219 -6.128906 -2.988281 -6.117188 -3 C -6.089844 -2.949219 -6.089844 -2.910156 -6.117188 -2.878906 Z M -6.148438 -3.277344 L -6.25 -3.230469 C -6.25 -3.25 -6.257812 -3.257812 -6.269531 -3.269531 C -6.277344 -3.277344 -6.289062 -3.289062 -6.296875 -3.308594 C -6.277344 -3.308594 -6.277344 -3.308594 -6.277344 -3.328125 C -6.257812 -3.308594 -6.238281 -3.308594 -6.21875 -3.308594 C -6.1875 -3.308594 -6.167969 -3.300781 -6.148438 -3.277344 Z M -5.328125 -5.578125 C -5.386719 -5.578125 -5.429688 -5.570312 -5.449219 -5.570312 C -5.410156 -5.597656 -5.367188 -5.597656 -5.328125 -5.578125 Z M -4.980469 -5.929688 C -4.980469 -5.9375 -4.988281 -5.957031 -5.007812 -5.976562 C -5.027344 -6 -5.039062 -6.019531 -5.046875 -6.039062 C -5.027344 -6.027344 -5.007812 -6.019531 -5 -6.007812 C -4.988281 -6 -4.988281 -5.988281 -4.988281 -5.96875 C -4.988281 -5.949219 -4.980469 -5.929688 -4.980469 -5.929688 L -5.128906 -5.878906 C -5.128906 -5.886719 -5.128906 -5.898438 -5.140625 -5.910156 C -5.117188 -5.910156 -5.109375 -5.910156 -5.097656 -5.917969 C -5.089844 -5.917969 -5.078125 -5.929688 -5.078125 -5.929688 C -5.070312 -5.929688 -5.046875 -5.929688 -5.027344 -5.929688 C -5 -5.929688 -4.980469 -5.929688 -4.980469 -5.929688 Z M -5.308594 -5.71875 C -5.347656 -5.777344 -5.347656 -5.808594 -5.308594 -5.820312 Z M -5.636719 -5.679688 L -5.667969 -5.648438 L -5.679688 -5.660156 C -5.679688 -5.660156 -5.6875 -5.667969 -5.6875 -5.679688 L -5.667969 -5.6875 L -5.660156 -5.679688 Z M -5.019531 -6.769531 C -5.027344 -6.726562 -5.070312 -6.726562 -5.128906 -6.757812 L -5.128906 -6.789062 L -5.019531 -6.816406 Z M -6.519531 -5.609375 C -6.527344 -5.609375 -6.539062 -5.597656 -6.539062 -5.597656 C -6.539062 -5.578125 -6.539062 -5.558594 -6.546875 -5.546875 C -6.558594 -5.558594 -6.578125 -5.570312 -6.597656 -5.570312 C -6.597656 -5.578125 -6.617188 -5.589844 -6.636719 -5.609375 L -6.660156 -5.628906 L -6.660156 -5.660156 C -6.636719 -5.71875 -6.609375 -5.75 -6.566406 -5.75 C -6.527344 -5.730469 -6.519531 -5.679688 -6.519531 -5.609375 Z M -6.707031 -5.839844 C -6.777344 -5.898438 -6.816406 -5.929688 -6.816406 -5.929688 C -6.816406 -5.929688 -6.816406 -5.957031 -6.808594 -6.007812 L -6.71875 -5.976562 C -6.71875 -5.957031 -6.707031 -5.929688 -6.707031 -5.898438 C -6.707031 -5.867188 -6.707031 -5.847656 -6.707031 -5.839844 Z M -6.707031 -5.839844 "/></g></g></g></svg>