<svg xmlns="http://www.w3.org/2000/svg" xmlns:xlink="http://www.w3.org/1999/xlink" width="500" zoomAndPan="magnify" viewBox="0 0 375 374.999991" height="500" preserveAspectRatio="xMidYMid meet" version="1.0"><defs><clipPath id="518ab90890"><path d="M 43.460938 43.460938 L 331.460938 43.460938 L 331.460938 331.460938 L 43.460938 331.460938 Z M 43.460938 43.460938 " clip-rule="nonzero"/></clipPath></defs><path fill="#6e787e" d="M 225.859375 326.660156 L 149.0625 326.660156 L 158.660156 269.0625 L 158.660156 249.859375 L 216.261719 249.859375 L 216.261719 269.0625 L 225.859375 326.660156 " fill-opacity="1" fill-rule="nonzero"/><path fill="#b4b6b6" d="M 326.660156 57.859375 L 326.660156 259.460938 C 326.660156 264.765625 322.363281 269.0625 317.0625 269.0625 L 57.859375 269.0625 C 52.558594 269.0625 48.261719 264.765625 48.261719 259.460938 L 48.261719 57.859375 C 48.261719 52.558594 52.558594 48.261719 57.859375 48.261719 L 317.0625 48.261719 C 322.363281 48.261719 326.660156 52.558594 326.660156 57.859375 " fill-opacity="1" fill-rule="nonzero"/><path fill="#376bb1" d="M 326.660156 86.660156 L 48.261719 86.660156 L 48.261719 57.859375 C 48.261719 52.558594 52.558594 48.261719 57.859375 48.261719 L 317.0625 48.261719 C 322.363281 48.261719 326.660156 52.558594 326.660156 57.859375 L 326.660156 86.660156 " fill-opacity="1" fill-rule="nonzero"/><path fill="#fae7d3" d="M 326.660156 221.0625 L 48.261719 221.0625 L 48.261719 86.660156 L 326.660156 86.660156 L 326.660156 221.0625 " fill-opacity="1" fill-rule="nonzero"/><path fill="#f9ad1e" d="M 144.261719 182.660156 L 86.660156 182.660156 L 86.660156 125.0625 L 144.261719 125.0625 L 144.261719 182.660156 " fill-opacity="1" fill-rule="nonzero"/><path fill="#376bb1" d="M 321.820312 312.222656 C 318.070312 315.96875 311.992188 315.96875 308.242188 312.222656 L 228.671875 232.652344 L 242.25 219.074219 L 321.820312 298.644531 C 325.570312 302.394531 325.570312 308.472656 321.820312 312.222656 " fill-opacity="1" fill-rule="nonzero"/><path fill="#f9ad1e" d="M 260.722656 237.550781 L 247.148438 251.125 L 207.074219 211.046875 L 220.648438 197.472656 L 260.722656 237.550781 " fill-opacity="1" fill-rule="nonzero"/><path fill="#f9ad1e" d="M 307.460938 134.660156 L 182.660156 134.660156 L 182.660156 105.859375 L 307.460938 105.859375 L 307.460938 134.660156 " fill-opacity="1" fill-rule="nonzero"/><path fill="#94543d" d="M 182.660156 173.0625 L 190.199219 205.726562 C 191.824219 212.757812 197.25 218.285156 204.25 220.035156 L 219.996094 223.972656 L 233.570312 210.398438 L 229.636719 194.652344 C 227.886719 187.652344 222.355469 182.222656 215.324219 180.597656 L 182.660156 173.0625 " fill-opacity="1" fill-rule="nonzero"/><g clip-path="url(#518ab90890)"><path fill="#100f0d" d="M 255.824219 225.859375 L 321.859375 225.859375 L 321.859375 259.460938 C 321.859375 262.105469 319.707031 264.261719 317.0625 264.261719 L 294.222656 264.261719 Z M 318.425781 308.824219 C 317.519531 309.730469 316.3125 310.230469 315.03125 310.230469 C 313.75 310.230469 312.542969 309.730469 311.636719 308.824219 L 253.9375 251.125 L 260.722656 244.339844 L 318.425781 302.039062 C 320.296875 303.910156 320.296875 306.953125 318.425781 308.824219 Z M 57.859375 264.261719 C 55.214844 264.261719 53.0625 262.105469 53.0625 259.460938 L 53.0625 225.859375 L 207.757812 225.859375 L 217.539062 228.304688 L 253.496094 264.261719 Z M 220.195312 321.859375 L 154.726562 321.859375 L 162.726562 273.859375 L 212.195312 273.859375 Z M 57.859375 53.0625 L 317.0625 53.0625 C 319.707031 53.0625 321.859375 55.214844 321.859375 57.859375 L 321.859375 81.859375 L 53.0625 81.859375 L 53.0625 57.859375 C 53.0625 55.214844 55.214844 53.0625 57.859375 53.0625 Z M 237.90625 207.945312 L 234.292969 193.488281 C 232.09375 184.691406 225.238281 177.960938 216.40625 175.921875 L 183.742188 168.382812 C 182.128906 168.011719 180.4375 168.496094 179.265625 169.667969 C 178.097656 170.835938 177.613281 172.527344 177.984375 174.140625 L 185.523438 206.804688 C 186.335938 210.332031 187.90625 213.535156 190.046875 216.261719 L 53.0625 216.261719 L 53.0625 91.460938 L 321.859375 91.460938 L 321.859375 216.261719 L 246.222656 216.261719 Z M 218.527344 218.65625 L 205.417969 215.378906 C 200.136719 214.058594 196.101562 209.949219 194.875 204.648438 L 189.0625 179.464844 L 214.246094 185.277344 C 219.550781 186.5 223.660156 190.539062 224.980469 195.816406 L 228.257812 208.925781 Z M 226.785156 223.972656 L 233.574219 217.1875 L 253.9375 237.550781 L 247.148438 244.339844 Z M 331.460938 259.460938 L 331.460938 57.859375 C 331.460938 49.921875 325 43.460938 317.0625 43.460938 L 57.859375 43.460938 C 49.921875 43.460938 43.460938 49.921875 43.460938 57.859375 L 43.460938 259.460938 C 43.460938 267.402344 49.921875 273.859375 57.859375 273.859375 L 152.992188 273.859375 L 144.996094 321.859375 L 125.0625 321.859375 C 122.410156 321.859375 120.261719 324.011719 120.261719 326.660156 C 120.261719 329.3125 122.410156 331.460938 125.0625 331.460938 L 249.859375 331.460938 C 252.511719 331.460938 254.660156 329.3125 254.660156 326.660156 C 254.660156 324.011719 252.511719 321.859375 249.859375 321.859375 L 229.925781 321.859375 L 221.925781 273.859375 L 263.097656 273.859375 L 304.847656 315.613281 C 307.570312 318.332031 311.183594 319.832031 315.03125 319.832031 C 318.878906 319.832031 322.492188 318.332031 325.210938 315.613281 C 330.828125 310 330.828125 300.863281 325.210938 295.25 L 303.824219 273.859375 L 317.0625 273.859375 C 325 273.859375 331.460938 267.402344 331.460938 259.460938 " fill-opacity="1" fill-rule="nonzero"/></g><path fill="#100f0d" d="M 197.0625 235.460938 L 177.859375 235.460938 C 175.210938 235.460938 173.0625 237.609375 173.0625 240.261719 C 173.0625 242.910156 175.210938 245.0625 177.859375 245.0625 L 197.0625 245.0625 C 199.710938 245.0625 201.859375 242.910156 201.859375 240.261719 C 201.859375 237.609375 199.710938 235.460938 197.0625 235.460938 " fill-opacity="1" fill-rule="nonzero"/><path fill="#100f0d" d="M 67.460938 72.261719 C 70.113281 72.261719 72.261719 70.113281 72.261719 67.460938 C 72.261719 64.808594 70.113281 62.660156 67.460938 62.660156 C 64.808594 62.660156 62.660156 64.808594 62.660156 67.460938 C 62.660156 70.113281 64.808594 72.261719 67.460938 72.261719 " fill-opacity="1" fill-rule="nonzero"/><path fill="#100f0d" d="M 86.660156 72.261719 C 89.3125 72.261719 91.460938 70.113281 91.460938 67.460938 C 91.460938 64.808594 89.3125 62.660156 86.660156 62.660156 C 84.011719 62.660156 81.859375 64.808594 81.859375 67.460938 C 81.859375 70.113281 84.011719 72.261719 86.660156 72.261719 " fill-opacity="1" fill-rule="nonzero"/><path fill="#100f0d" d="M 105.859375 72.261719 C 108.511719 72.261719 110.660156 70.113281 110.660156 67.460938 C 110.660156 64.808594 108.511719 62.660156 105.859375 62.660156 C 103.210938 62.660156 101.0625 64.808594 101.0625 67.460938 C 101.0625 70.113281 103.210938 72.261719 105.859375 72.261719 " fill-opacity="1" fill-rule="nonzero"/><path fill="#100f0d" d="M 96.261719 110.660156 L 105.859375 110.660156 C 108.511719 110.660156 110.660156 108.511719 110.660156 105.859375 C 110.660156 103.210938 108.511719 101.0625 105.859375 101.0625 L 96.261719 101.0625 C 93.609375 101.0625 91.460938 103.210938 91.460938 105.859375 C 91.460938 108.511719 93.609375 110.660156 96.261719 110.660156 " fill-opacity="1" fill-rule="nonzero"/><path fill="#100f0d" d="M 125.0625 110.660156 L 134.660156 110.660156 C 137.3125 110.660156 139.460938 108.511719 139.460938 105.859375 C 139.460938 103.210938 137.3125 101.0625 134.660156 101.0625 L 125.0625 101.0625 C 122.410156 101.0625 120.261719 103.210938 120.261719 105.859375 C 120.261719 108.511719 122.410156 110.660156 125.0625 110.660156 " fill-opacity="1" fill-rule="nonzero"/><path fill="#100f0d" d="M 77.0625 197.0625 L 72.261719 197.0625 L 72.261719 192.261719 C 72.261719 189.609375 70.113281 187.460938 67.460938 187.460938 C 64.808594 187.460938 62.660156 189.609375 62.660156 192.261719 L 62.660156 201.859375 C 62.660156 204.511719 64.808594 206.660156 67.460938 206.660156 L 77.0625 206.660156 C 79.710938 206.660156 81.859375 204.511719 81.859375 201.859375 C 81.859375 199.210938 79.710938 197.0625 77.0625 197.0625 " fill-opacity="1" fill-rule="nonzero"/><path fill="#100f0d" d="M 105.859375 197.0625 L 96.261719 197.0625 C 93.609375 197.0625 91.460938 199.210938 91.460938 201.859375 C 91.460938 204.511719 93.609375 206.660156 96.261719 206.660156 L 105.859375 206.660156 C 108.511719 206.660156 110.660156 204.511719 110.660156 201.859375 C 110.660156 199.210938 108.511719 197.0625 105.859375 197.0625 " fill-opacity="1" fill-rule="nonzero"/><path fill="#100f0d" d="M 134.660156 197.0625 L 125.0625 197.0625 C 122.410156 197.0625 120.261719 199.210938 120.261719 201.859375 C 120.261719 204.511719 122.410156 206.660156 125.0625 206.660156 L 134.660156 206.660156 C 137.3125 206.660156 139.460938 204.511719 139.460938 201.859375 C 139.460938 199.210938 137.3125 197.0625 134.660156 197.0625 " fill-opacity="1" fill-rule="nonzero"/><path fill="#100f0d" d="M 163.460938 101.0625 L 153.859375 101.0625 C 151.210938 101.0625 149.0625 103.210938 149.0625 105.859375 C 149.0625 108.511719 151.210938 110.660156 153.859375 110.660156 L 158.660156 110.660156 L 158.660156 115.460938 C 158.660156 118.113281 160.808594 120.261719 163.460938 120.261719 C 166.113281 120.261719 168.261719 118.113281 168.261719 115.460938 L 168.261719 105.859375 C 168.261719 103.210938 166.113281 101.0625 163.460938 101.0625 " fill-opacity="1" fill-rule="nonzero"/><path fill="#100f0d" d="M 163.460938 129.859375 C 160.808594 129.859375 158.660156 132.011719 158.660156 134.660156 L 158.660156 144.261719 C 158.660156 146.910156 160.808594 149.0625 163.460938 149.0625 C 166.113281 149.0625 168.261719 146.910156 168.261719 144.261719 L 168.261719 134.660156 C 168.261719 132.011719 166.113281 129.859375 163.460938 129.859375 " fill-opacity="1" fill-rule="nonzero"/><path fill="#100f0d" d="M 163.460938 158.660156 C 160.808594 158.660156 158.660156 160.808594 158.660156 163.460938 L 158.660156 173.0625 C 158.660156 175.710938 160.808594 177.859375 163.460938 177.859375 C 166.113281 177.859375 168.261719 175.710938 168.261719 173.0625 L 168.261719 163.460938 C 168.261719 160.808594 166.113281 158.660156 163.460938 158.660156 " fill-opacity="1" fill-rule="nonzero"/><path fill="#100f0d" d="M 163.460938 187.460938 C 160.808594 187.460938 158.660156 189.609375 158.660156 192.261719 L 158.660156 197.0625 L 153.859375 197.0625 C 151.210938 197.0625 149.0625 199.210938 149.0625 201.859375 C 149.0625 204.511719 151.210938 206.660156 153.859375 206.660156 L 163.460938 206.660156 C 166.113281 206.660156 168.261719 204.511719 168.261719 201.859375 L 168.261719 192.261719 C 168.261719 189.609375 166.113281 187.460938 163.460938 187.460938 " fill-opacity="1" fill-rule="nonzero"/><path fill="#100f0d" d="M 67.460938 120.261719 C 70.113281 120.261719 72.261719 118.113281 72.261719 115.460938 L 72.261719 110.660156 L 77.0625 110.660156 C 79.710938 110.660156 81.859375 108.511719 81.859375 105.859375 C 81.859375 103.210938 79.710938 101.0625 77.0625 101.0625 L 67.460938 101.0625 C 64.808594 101.0625 62.660156 103.210938 62.660156 105.859375 L 62.660156 115.460938 C 62.660156 118.113281 64.808594 120.261719 67.460938 120.261719 " fill-opacity="1" fill-rule="nonzero"/><path fill="#100f0d" d="M 67.460938 149.0625 C 70.113281 149.0625 72.261719 146.910156 72.261719 144.261719 L 72.261719 134.660156 C 72.261719 132.011719 70.113281 129.859375 67.460938 129.859375 C 64.808594 129.859375 62.660156 132.011719 62.660156 134.660156 L 62.660156 144.261719 C 62.660156 146.910156 64.808594 149.0625 67.460938 149.0625 " fill-opacity="1" fill-rule="nonzero"/><path fill="#100f0d" d="M 67.460938 177.859375 C 70.113281 177.859375 72.261719 175.710938 72.261719 173.0625 L 72.261719 163.460938 C 72.261719 160.808594 70.113281 158.660156 67.460938 158.660156 C 64.808594 158.660156 62.660156 160.808594 62.660156 163.460938 L 62.660156 173.0625 C 62.660156 175.710938 64.808594 177.859375 67.460938 177.859375 " fill-opacity="1" fill-rule="nonzero"/><path fill="#100f0d" d="M 211.460938 149.0625 L 182.660156 149.0625 C 180.011719 149.0625 177.859375 151.210938 177.859375 153.859375 C 177.859375 156.511719 180.011719 158.660156 182.660156 158.660156 L 211.460938 158.660156 C 214.113281 158.660156 216.261719 156.511719 216.261719 153.859375 C 216.261719 151.210938 214.113281 149.0625 211.460938 149.0625 " fill-opacity="1" fill-rule="nonzero"/><path fill="#100f0d" d="M 307.460938 149.0625 L 230.660156 149.0625 C 228.011719 149.0625 225.859375 151.210938 225.859375 153.859375 C 225.859375 156.511719 228.011719 158.660156 230.660156 158.660156 L 307.460938 158.660156 C 310.113281 158.660156 312.261719 156.511719 312.261719 153.859375 C 312.261719 151.210938 310.113281 149.0625 307.460938 149.0625 " fill-opacity="1" fill-rule="nonzero"/><path fill="#100f0d" d="M 307.460938 168.261719 L 240.261719 168.261719 C 237.609375 168.261719 235.460938 170.410156 235.460938 173.0625 C 235.460938 175.710938 237.609375 177.859375 240.261719 177.859375 L 307.460938 177.859375 C 310.113281 177.859375 312.261719 175.710938 312.261719 173.0625 C 312.261719 170.410156 310.113281 168.261719 307.460938 168.261719 " fill-opacity="1" fill-rule="nonzero"/><path fill="#100f0d" d="M 302.660156 129.859375 L 187.460938 129.859375 L 187.460938 110.660156 L 302.660156 110.660156 Z M 307.460938 101.0625 L 182.660156 101.0625 C 180.011719 101.0625 177.859375 103.210938 177.859375 105.859375 L 177.859375 134.660156 C 177.859375 137.3125 180.011719 139.460938 182.660156 139.460938 L 307.460938 139.460938 C 310.113281 139.460938 312.261719 137.3125 312.261719 134.660156 L 312.261719 105.859375 C 312.261719 103.210938 310.113281 101.0625 307.460938 101.0625 " fill-opacity="1" fill-rule="nonzero"/><path fill="#100f0d" d="M 139.460938 177.859375 L 91.460938 177.859375 L 91.460938 129.859375 L 139.460938 129.859375 Z M 149.0625 125.0625 C 149.0625 122.410156 146.910156 120.261719 144.261719 120.261719 L 86.660156 120.261719 C 84.011719 120.261719 81.859375 122.410156 81.859375 125.0625 L 81.859375 182.660156 C 81.859375 185.3125 84.011719 187.460938 86.660156 187.460938 L 144.261719 187.460938 C 146.910156 187.460938 149.0625 185.3125 149.0625 182.660156 L 149.0625 125.0625 " fill-opacity="1" fill-rule="nonzero"/></svg>