<svg xmlns="http://www.w3.org/2000/svg" xmlns:xlink="http://www.w3.org/1999/xlink" width="500" zoomAndPan="magnify" viewBox="0 0 375 374.999991" height="500" preserveAspectRatio="xMidYMid meet" version="1.0"><defs><clipPath id="43a57b1490"><path d="M 35.617188 40 L 325 40 L 325 293 L 35.617188 293 Z M 35.617188 40 " clip-rule="nonzero"/></clipPath><clipPath id="9854e3dc9b"><path d="M 35.617188 101 L 325 101 L 325 109 L 35.617188 109 Z M 35.617188 101 " clip-rule="nonzero"/></clipPath><clipPath id="9e01ed304b"><path d="M 231 228 L 337.867188 228 L 337.867188 335 L 231 335 Z M 231 228 " clip-rule="nonzero"/></clipPath></defs><g clip-path="url(#43a57b1490)"><path fill="#100f0d" d="M 221.535156 292.945312 L 54.484375 292.945312 C 44.082031 292.945312 35.617188 284.5 35.617188 274.121094 L 35.617188 59.046875 C 35.617188 48.671875 44.082031 40.226562 54.484375 40.226562 L 305.894531 40.226562 C 316.296875 40.226562 324.761719 48.671875 324.761719 59.046875 L 324.761719 230 C 324.761719 231.863281 323.261719 233.367188 321.394531 233.367188 C 319.53125 233.367188 318.03125 231.863281 318.03125 230 L 318.03125 59.046875 C 318.03125 52.371094 312.589844 46.941406 305.894531 46.941406 L 54.484375 46.941406 C 47.800781 46.941406 42.359375 52.371094 42.359375 59.046875 L 42.359375 274.121094 C 42.359375 280.800781 47.800781 286.230469 54.484375 286.230469 L 221.535156 286.230469 C 223.390625 286.230469 224.902344 287.726562 224.902344 289.585938 C 224.902344 291.449219 223.390625 292.945312 221.535156 292.945312 " fill-opacity="1" fill-rule="nonzero"/></g><path fill="#100f0d" d="M 74.285156 68 C 70.964844 68 68.261719 70.695312 68.261719 74.007812 C 68.261719 77.328125 70.964844 80.027344 74.285156 80.027344 C 77.613281 80.027344 80.316406 77.328125 80.316406 74.007812 C 80.316406 70.695312 77.613281 68 74.285156 68 " fill-opacity="1" fill-rule="nonzero"/><path fill="#100f0d" d="M 104.578125 68 C 101.25 68 98.558594 70.695312 98.558594 74.007812 C 98.558594 77.328125 101.25 80.027344 104.578125 80.027344 C 107.898438 80.027344 110.601562 77.328125 110.601562 74.007812 C 110.601562 70.695312 107.898438 68 104.578125 68 " fill-opacity="1" fill-rule="nonzero"/><path fill="#100f0d" d="M 134.863281 68 C 131.546875 68 128.839844 70.695312 128.839844 74.007812 C 128.839844 77.328125 131.546875 80.027344 134.863281 80.027344 C 138.191406 80.027344 140.894531 77.328125 140.894531 74.007812 C 140.894531 70.695312 138.191406 68 134.863281 68 " fill-opacity="1" fill-rule="nonzero"/><g clip-path="url(#9854e3dc9b)"><path fill="#100f0d" d="M 321.394531 108.410156 L 38.980469 108.410156 C 37.128906 108.410156 35.617188 106.902344 35.617188 105.054688 C 35.617188 103.195312 37.128906 101.6875 38.980469 101.6875 L 321.394531 101.6875 C 323.261719 101.6875 324.761719 103.195312 324.761719 105.054688 C 324.761719 106.902344 323.261719 108.410156 321.394531 108.410156 " fill-opacity="1" fill-rule="nonzero"/></g><path fill="#100f0d" d="M 294.144531 77.679688 L 181.640625 77.679688 C 179.789062 77.679688 178.277344 76.175781 178.277344 74.3125 C 178.277344 72.464844 179.789062 70.957031 181.640625 70.957031 L 294.144531 70.957031 C 296.011719 70.957031 297.523438 72.464844 297.523438 74.3125 C 297.523438 76.175781 296.011719 77.679688 294.144531 77.679688 " fill-opacity="1" fill-rule="nonzero"/><path fill="#100f0d" d="M 113.515625 209.035156 C 112.265625 209.035156 111.121094 208.351562 110.53125 207.234375 L 100.210938 187.609375 L 89.890625 207.234375 C 89.253906 208.457031 87.945312 209.1875 86.574219 209.023438 C 85.203125 208.882812 84.058594 207.9375 83.679688 206.621094 L 71.046875 163.476562 C 70.527344 161.683594 71.554688 159.824219 73.339844 159.304688 C 75.132812 158.777344 77 159.800781 77.519531 161.589844 L 87.800781 196.738281 L 97.234375 178.8125 C 97.8125 177.703125 98.960938 177.007812 100.210938 177.007812 C 101.460938 177.007812 102.621094 177.703125 103.199219 178.8125 L 112.621094 196.738281 L 122.902344 161.589844 C 123.433594 159.800781 125.300781 158.789062 127.082031 159.304688 C 128.867188 159.824219 129.890625 161.683594 129.371094 163.476562 L 116.75 206.621094 C 116.363281 207.9375 115.21875 208.882812 113.847656 209.023438 C 113.742188 209.035156 113.621094 209.035156 113.515625 209.035156 " fill-opacity="1" fill-rule="nonzero"/><path fill="#100f0d" d="M 197.179688 209.035156 C 195.324219 209.035156 193.8125 207.539062 193.8125 205.679688 L 193.8125 162.535156 C 193.8125 160.671875 195.324219 159.164062 197.179688 159.164062 C 199.042969 159.164062 200.554688 160.671875 200.554688 162.535156 L 200.554688 205.679688 C 200.554688 207.539062 199.042969 209.035156 197.179688 209.035156 " fill-opacity="1" fill-rule="nonzero"/><path fill="#100f0d" d="M 209.777344 185.394531 L 197.179688 185.394531 C 195.324219 185.394531 193.8125 183.886719 193.8125 182.039062 C 193.8125 180.1875 195.324219 178.683594 197.179688 178.683594 L 209.777344 178.683594 C 213.304688 178.683594 216.1875 175.808594 216.1875 172.285156 C 216.1875 168.765625 213.304688 165.890625 209.777344 165.890625 L 197.179688 165.890625 C 195.324219 165.890625 193.8125 164.382812 193.8125 162.535156 C 193.8125 160.671875 195.324219 159.164062 197.179688 159.164062 L 209.777344 159.164062 C 217.027344 159.164062 222.929688 165.054688 222.929688 172.285156 C 222.929688 179.519531 217.027344 185.394531 209.777344 185.394531 " fill-opacity="1" fill-rule="nonzero"/><path fill="#100f0d" d="M 217.320312 209.035156 C 215.890625 209.035156 214.570312 208.128906 214.109375 206.691406 L 206.566406 183.0625 C 206 181.285156 206.976562 179.398438 208.75 178.835938 C 210.519531 178.28125 212.421875 179.246094 212.988281 181.015625 L 220.519531 204.652344 C 221.085938 206.433594 220.105469 208.316406 218.335938 208.882812 C 218.003906 208.988281 217.652344 209.035156 217.320312 209.035156 " fill-opacity="1" fill-rule="nonzero"/><path fill="#100f0d" d="M 244.464844 202.320312 L 256.53125 202.320312 C 264.335938 202.320312 270.6875 195.984375 270.6875 188.199219 L 270.6875 180.011719 C 270.6875 172.226562 264.335938 165.890625 256.53125 165.890625 L 244.464844 165.890625 Z M 256.53125 209.035156 L 237.722656 209.035156 L 237.722656 159.164062 L 256.53125 159.164062 C 268.054688 159.164062 277.429688 168.515625 277.429688 180.011719 L 277.429688 188.199219 C 277.429688 199.683594 268.054688 209.035156 256.53125 209.035156 " fill-opacity="1" fill-rule="nonzero"/><path fill="#100f0d" d="M 155.464844 165.890625 C 150.824219 165.890625 147.046875 169.660156 147.046875 174.289062 L 147.046875 193.910156 C 147.046875 198.550781 150.824219 202.320312 155.464844 202.320312 L 160.980469 202.320312 C 165.632812 202.320312 169.410156 198.550781 169.410156 193.910156 L 169.410156 174.289062 C 169.410156 169.660156 165.632812 165.890625 160.980469 165.890625 Z M 160.980469 209.035156 L 155.464844 209.035156 C 147.105469 209.035156 140.304688 202.25 140.304688 193.910156 L 140.304688 174.289062 C 140.304688 165.949219 147.105469 159.164062 155.464844 159.164062 L 160.980469 159.164062 C 169.339844 159.164062 176.140625 165.949219 176.140625 174.289062 L 176.140625 193.910156 C 176.140625 202.25 169.339844 209.035156 160.980469 209.035156 " fill-opacity="1" fill-rule="nonzero"/><g clip-path="url(#9e01ed304b)"><path fill="#100f0d" d="M 284.6875 235.054688 C 259.082031 235.054688 238.242188 255.832031 238.242188 281.378906 C 238.242188 306.925781 259.082031 327.714844 284.6875 327.714844 C 310.296875 327.714844 331.125 306.925781 331.125 281.378906 C 331.125 255.832031 310.296875 235.054688 284.6875 235.054688 Z M 284.6875 334.441406 C 255.363281 334.441406 231.511719 310.636719 231.511719 281.378906 C 231.511719 252.132812 255.363281 228.328125 284.6875 228.328125 C 314.003906 228.328125 337.867188 252.132812 337.867188 281.378906 C 337.867188 310.636719 314.003906 334.441406 284.6875 334.441406 " fill-opacity="1" fill-rule="nonzero"/></g><path fill="#100f0d" d="M 284.6875 312.296875 C 282.824219 312.296875 281.3125 310.789062 281.3125 308.941406 L 281.3125 253.828125 C 281.3125 251.96875 282.824219 250.472656 284.6875 250.472656 C 286.542969 250.472656 288.054688 251.96875 288.054688 253.828125 L 288.054688 308.941406 C 288.054688 310.789062 286.542969 312.296875 284.6875 312.296875 " fill-opacity="1" fill-rule="nonzero"/><path fill="#100f0d" d="M 312.304688 284.746094 L 257.074219 284.746094 C 255.207031 284.746094 253.695312 283.238281 253.695312 281.378906 C 253.695312 279.527344 255.207031 278.019531 257.074219 278.019531 L 312.304688 278.019531 C 314.171875 278.019531 315.683594 279.527344 315.683594 281.378906 C 315.683594 283.238281 314.171875 284.746094 312.304688 284.746094 " fill-opacity="1" fill-rule="nonzero"/><path fill="#fbc117" d="M 54.484375 276.148438 L 121.472656 276.148438 C 97.578125 255.652344 72.738281 234.40625 52.464844 217.136719 L 52.464844 274.121094 C 52.464844 275.242188 53.375 276.148438 54.484375 276.148438 " fill-opacity="1" fill-rule="nonzero"/></svg>